M48
; DRILL file {KiCad 8.0.0} date 2024-04-14T22:25:58-0700
; FORMAT={-:-/ absolute / metric / decimal}
; #@! TF.CreationDate,2024-04-14T22:25:58-07:00
; #@! TF.GenerationSoftware,Kicad,Pcbnew,8.0.0
; #@! TF.FileFunction,NonPlated,1,2,NPTH
FMAT,2
METRIC
; #@! TA.AperFunction,NonPlated,NPTH,ComponentDrill
T1C2.000
; #@! TA.AperFunction,NonPlated,NPTH,ComponentDrill
T2C2.200
; #@! TA.AperFunction,NonPlated,NPTH,ComponentDrill
T3C3.500
%
G90
G05
T2
X94.6Y-81.0
X103.4Y-81.0
X105.1Y-95.0
X113.9Y-95.0
X115.6Y-81.0
X124.4Y-81.0
X126.1Y-95.0
X134.9Y-95.0
X136.6Y-81.0
X145.4Y-81.0
X147.1Y-95.0
X155.9Y-95.0
X157.6Y-81.0
X166.4Y-81.0
X168.1Y-95.0
X176.9Y-95.0
T3
X85.0Y-81.0
X175.0Y-81.0
T1
X166.104Y-32.939G85X166.104Y-31.839
G05
X177.304Y-32.939G85X177.304Y-31.839
G05
M30
