%TF.GenerationSoftware,KiCad,Pcbnew,8.0.0*%
%TF.CreationDate,2024-04-14T22:25:00-07:00*%
%TF.ProjectId,seq1,73657131-2e6b-4696-9361-645f70636258,rev?*%
%TF.SameCoordinates,Original*%
%TF.FileFunction,Soldermask,Top*%
%TF.FilePolarity,Negative*%
%FSLAX46Y46*%
G04 Gerber Fmt 4.6, Leading zero omitted, Abs format (unit mm)*
G04 Created by KiCad (PCBNEW 8.0.0) date 2024-04-14 22:25:00*
%MOMM*%
%LPD*%
G01*
G04 APERTURE LIST*
G04 Aperture macros list*
%AMRoundRect*
0 Rectangle with rounded corners*
0 $1 Rounding radius*
0 $2 $3 $4 $5 $6 $7 $8 $9 X,Y pos of 4 corners*
0 Add a 4 corners polygon primitive as box body*
4,1,4,$2,$3,$4,$5,$6,$7,$8,$9,$2,$3,0*
0 Add four circle primitives for the rounded corners*
1,1,$1+$1,$2,$3*
1,1,$1+$1,$4,$5*
1,1,$1+$1,$6,$7*
1,1,$1+$1,$8,$9*
0 Add four rect primitives between the rounded corners*
20,1,$1+$1,$2,$3,$4,$5,0*
20,1,$1+$1,$4,$5,$6,$7,0*
20,1,$1+$1,$6,$7,$8,$9,0*
20,1,$1+$1,$8,$9,$2,$3,0*%
G04 Aperture macros list end*
%ADD10C,3.500000*%
%ADD11O,1.600000X1.600000*%
%ADD12R,1.600000X1.600000*%
%ADD13C,1.600000*%
%ADD14C,4.000000*%
%ADD15C,1.800000*%
%ADD16R,2.200000X2.200000*%
%ADD17O,2.200000X2.200000*%
%ADD18RoundRect,0.375000X-0.625000X-0.375000X0.625000X-0.375000X0.625000X0.375000X-0.625000X0.375000X0*%
%ADD19RoundRect,0.500000X-0.500000X-1.400000X0.500000X-1.400000X0.500000X1.400000X-0.500000X1.400000X0*%
%ADD20O,1.700000X1.700000*%
%ADD21R,1.700000X1.700000*%
%ADD22O,2.000000X3.500000*%
%ADD23C,1.440000*%
%ADD24R,1.500000X1.050000*%
%ADD25O,1.500000X1.050000*%
%ADD26C,1.700000*%
%ADD27RoundRect,0.250000X-0.600000X0.600000X-0.600000X-0.600000X0.600000X-0.600000X0.600000X0.600000X0*%
%ADD28RoundRect,0.250000X0.550000X-0.550000X0.550000X0.550000X-0.550000X0.550000X-0.550000X-0.550000X0*%
%ADD29O,3.000000X4.100000*%
%ADD30C,2.000000*%
%ADD31R,1.500000X0.900000*%
G04 APERTURE END LIST*
D10*
%TO.C,H2*%
X175000000Y-81000000D03*
%TD*%
%TO.C,H1*%
X85000000Y-81000000D03*
%TD*%
D11*
%TO.C,U3*%
X128524000Y-62357000D03*
X131064000Y-62357000D03*
X133604000Y-62357000D03*
X136144000Y-62357000D03*
X138684000Y-62357000D03*
X141224000Y-62357000D03*
X143764000Y-62357000D03*
X146304000Y-62357000D03*
X146304000Y-69977000D03*
X143764000Y-69977000D03*
X141224000Y-69977000D03*
X138684000Y-69977000D03*
X136144000Y-69977000D03*
X133604000Y-69977000D03*
X131064000Y-69977000D03*
D12*
X128524000Y-69977000D03*
%TD*%
D13*
%TO.C,R20*%
X144780000Y-57277000D03*
D11*
X144780000Y-47117000D03*
%TD*%
D13*
%TO.C,R19*%
X147955000Y-57277000D03*
D11*
X147955000Y-47117000D03*
%TD*%
D14*
%TO.C,RV5*%
X145400000Y-81000000D03*
X136600000Y-81000000D03*
D15*
X138500000Y-74000000D03*
X141000000Y-74000000D03*
X143500000Y-74000000D03*
%TD*%
D14*
%TO.C,RV8*%
X176900000Y-95000000D03*
X168100000Y-95000000D03*
D15*
X170000000Y-88000000D03*
X172500000Y-88000000D03*
X175000000Y-88000000D03*
%TD*%
D12*
%TO.C,U2*%
X162550000Y-66558000D03*
D11*
X162550000Y-64018000D03*
X162550000Y-61478000D03*
X162550000Y-58938000D03*
X162550000Y-56398000D03*
X162550000Y-53858000D03*
X162550000Y-51318000D03*
X162550000Y-48778000D03*
X154930000Y-48778000D03*
X154930000Y-51318000D03*
X154930000Y-53858000D03*
X154930000Y-56398000D03*
X154930000Y-58938000D03*
X154930000Y-61478000D03*
X154930000Y-64018000D03*
X154930000Y-66558000D03*
%TD*%
D13*
%TO.C,R17*%
X97057000Y-70866000D03*
D11*
X94517000Y-70866000D03*
%TD*%
D16*
%TO.C,D10*%
X104394000Y-32512000D03*
D17*
X94234000Y-32512000D03*
%TD*%
D13*
%TO.C,R8*%
X94996000Y-65283000D03*
D11*
X94996000Y-62743000D03*
%TD*%
D13*
%TO.C,R5*%
X106934000Y-41627000D03*
D11*
X96774000Y-41627000D03*
%TD*%
D18*
%TO.C,U7*%
X110896000Y-24362000D03*
X110896000Y-26662000D03*
D19*
X117196000Y-26662000D03*
D18*
X110896000Y-28962000D03*
%TD*%
D16*
%TO.C,D9*%
X101600000Y-36068000D03*
D17*
X99060000Y-36068000D03*
%TD*%
D13*
%TO.C,C17*%
X165688000Y-22733000D03*
X170688000Y-22733000D03*
%TD*%
%TO.C,C16*%
X116586000Y-34814888D03*
D12*
X116586000Y-32314888D03*
%TD*%
D20*
%TO.C,J6*%
X129789000Y-41910000D03*
X127249000Y-41910000D03*
X129789000Y-39370000D03*
X127249000Y-39370000D03*
X129789000Y-36830000D03*
X127249000Y-36830000D03*
X129789000Y-34290000D03*
X127249000Y-34290000D03*
X129789000Y-31750000D03*
X127249000Y-31750000D03*
X129789000Y-29210000D03*
D21*
X127249000Y-29210000D03*
%TD*%
D22*
%TO.C,J4*%
X81810000Y-57814000D03*
X86810000Y-57814000D03*
X91010000Y-57814000D03*
%TD*%
%TO.C,J2*%
X91010000Y-46814000D03*
X86810000Y-46814000D03*
X81810000Y-46814000D03*
%TD*%
%TO.C,J1*%
X81810000Y-35814000D03*
X86810000Y-35814000D03*
X91010000Y-35814000D03*
%TD*%
%TO.C,J5*%
X91010000Y-68814000D03*
X86810000Y-68814000D03*
X81810000Y-68814000D03*
%TD*%
D11*
%TO.C,R16*%
X106680000Y-66241000D03*
D13*
X106680000Y-63701000D03*
%TD*%
D23*
%TO.C,RV11*%
X110754000Y-64746000D03*
X113294000Y-64746000D03*
X115834000Y-64746000D03*
%TD*%
D13*
%TO.C,R18*%
X112014000Y-72411000D03*
D11*
X112014000Y-69871000D03*
%TD*%
D13*
%TO.C,R15*%
X112522000Y-60174000D03*
D11*
X115062000Y-60174000D03*
%TD*%
%TO.C,R14*%
X115062000Y-57634000D03*
D13*
X112522000Y-57634000D03*
%TD*%
D24*
%TO.C,Q1*%
X107590000Y-70096000D03*
D25*
X107590000Y-71366000D03*
X107590000Y-72636000D03*
%TD*%
D13*
%TO.C,C5*%
X117522000Y-55089000D03*
X112522000Y-55089000D03*
%TD*%
D26*
%TO.C,U1*%
X136144000Y-24098000D03*
X136144000Y-26638000D03*
X136144000Y-29178000D03*
X136144000Y-31718000D03*
X136144000Y-34258000D03*
X136144000Y-36798000D03*
X136144000Y-39338000D03*
X136144000Y-41878000D03*
X136144000Y-44418000D03*
X136144000Y-46958000D03*
X136144000Y-49498000D03*
X136144000Y-52038000D03*
X136144000Y-54578000D03*
X136144000Y-57118000D03*
X133604000Y-57118000D03*
X131064000Y-57118000D03*
X128524000Y-57118000D03*
X125984000Y-57118000D03*
X123444000Y-57118000D03*
X120904000Y-57118000D03*
X120904000Y-54578000D03*
X120904000Y-52038000D03*
X120904000Y-49498000D03*
X120904000Y-46958000D03*
X120904000Y-44418000D03*
X120904000Y-41878000D03*
X120904000Y-39338000D03*
X120904000Y-36798000D03*
X120904000Y-34258000D03*
X120904000Y-31718000D03*
X120904000Y-29178000D03*
X120904000Y-26638000D03*
X120904000Y-24098000D03*
%TD*%
D11*
%TO.C,R6*%
X115062000Y-44929000D03*
D13*
X112522000Y-44929000D03*
%TD*%
D27*
%TO.C,J3*%
X103632000Y-24384000D03*
D26*
X103632000Y-26924000D03*
X101092000Y-24384000D03*
X101092000Y-26924000D03*
X98552000Y-24384000D03*
X98552000Y-26924000D03*
X96012000Y-24384000D03*
X96012000Y-26924000D03*
X93472000Y-24384000D03*
X93472000Y-26924000D03*
X90932000Y-24384000D03*
X90932000Y-26924000D03*
X88392000Y-24384000D03*
X88392000Y-26924000D03*
X85852000Y-24384000D03*
X85852000Y-26924000D03*
%TD*%
D13*
%TO.C,C15*%
X112014000Y-36528000D03*
X112014000Y-31528000D03*
%TD*%
%TO.C,C14*%
X107442000Y-32044000D03*
X107442000Y-37044000D03*
%TD*%
D28*
%TO.C,SW9*%
X169204000Y-39889000D03*
D13*
X174204000Y-39889000D03*
X171704000Y-39889000D03*
X169204000Y-25389000D03*
X174204000Y-25389000D03*
D29*
X166104000Y-32389000D03*
X177304000Y-32389000D03*
%TD*%
D30*
%TO.C,SW11*%
X87500000Y-91000000D03*
X87500000Y-97500000D03*
X83000000Y-91000000D03*
X83000000Y-97500000D03*
%TD*%
D26*
%TO.C,U5*%
X147574000Y-22598000D03*
X150114000Y-22598000D03*
X152654000Y-22598000D03*
X155194000Y-22598000D03*
%TD*%
D23*
%TO.C,RV10*%
X102362000Y-64238000D03*
X102362000Y-66778000D03*
X102362000Y-69318000D03*
%TD*%
%TO.C,RV9*%
X111506000Y-40362000D03*
X114046000Y-40362000D03*
X116586000Y-40362000D03*
%TD*%
D12*
%TO.C,U6*%
X101600000Y-44929000D03*
D11*
X101600000Y-47469000D03*
X101600000Y-50009000D03*
X101600000Y-52549000D03*
X101600000Y-55089000D03*
X101600000Y-57629000D03*
X101600000Y-60169000D03*
X109220000Y-60169000D03*
X109220000Y-57629000D03*
X109220000Y-55089000D03*
X109220000Y-52549000D03*
X109220000Y-50009000D03*
X109220000Y-47469000D03*
X109220000Y-44929000D03*
%TD*%
D13*
%TO.C,R13*%
X94996000Y-52583000D03*
D11*
X94996000Y-50043000D03*
%TD*%
%TO.C,R12*%
X115062000Y-47469000D03*
D13*
X112522000Y-47469000D03*
%TD*%
%TO.C,R11*%
X98044000Y-62714000D03*
D11*
X98044000Y-60174000D03*
%TD*%
D13*
%TO.C,R10*%
X94996000Y-47474000D03*
D11*
X94996000Y-44934000D03*
%TD*%
D13*
%TO.C,R9*%
X98044000Y-44929000D03*
D11*
X98044000Y-47469000D03*
%TD*%
D13*
%TO.C,C13*%
X94996000Y-55094000D03*
X94996000Y-60094000D03*
%TD*%
%TO.C,C12*%
X117522000Y-50009000D03*
X112522000Y-50009000D03*
%TD*%
%TO.C,C11*%
X117492000Y-52544000D03*
X112492000Y-52544000D03*
%TD*%
%TO.C,C10*%
X98044000Y-52554000D03*
X98044000Y-57554000D03*
%TD*%
D11*
%TO.C,R7*%
X100838000Y-100047000D03*
D13*
X100838000Y-97507000D03*
%TD*%
%TO.C,C9*%
X162000000Y-95000000D03*
X162000000Y-100000000D03*
%TD*%
%TO.C,C8*%
X141000000Y-95000000D03*
X141000000Y-100000000D03*
%TD*%
%TO.C,C7*%
X120000000Y-95000000D03*
X120000000Y-100000000D03*
%TD*%
%TO.C,C6*%
X97536000Y-95036000D03*
X97536000Y-100036000D03*
%TD*%
D11*
%TO.C,R4*%
X166572000Y-45139000D03*
D13*
X166572000Y-42599000D03*
%TD*%
%TO.C,R3*%
X176874000Y-42594000D03*
D11*
X176874000Y-45134000D03*
%TD*%
%TO.C,R2*%
X166572000Y-47644000D03*
D13*
X166572000Y-50184000D03*
%TD*%
D11*
%TO.C,R1*%
X176874000Y-47644000D03*
D13*
X176874000Y-50184000D03*
%TD*%
D31*
%TO.C,D8*%
X174950000Y-107650000D03*
X174950000Y-104350000D03*
X170050000Y-104350000D03*
X170050000Y-107650000D03*
%TD*%
%TO.C,D7*%
X164450000Y-107650000D03*
X164450000Y-104350000D03*
X159550000Y-104350000D03*
X159550000Y-107650000D03*
%TD*%
%TO.C,D6*%
X153950000Y-107650000D03*
X153950000Y-104350000D03*
X149050000Y-104350000D03*
X149050000Y-107650000D03*
%TD*%
%TO.C,D5*%
X143450000Y-107650000D03*
X143450000Y-104350000D03*
X138550000Y-104350000D03*
X138550000Y-107650000D03*
%TD*%
%TO.C,D4*%
X132950000Y-107650000D03*
X132950000Y-104350000D03*
X128050000Y-104350000D03*
X128050000Y-107650000D03*
%TD*%
%TO.C,D3*%
X122450000Y-107650000D03*
X122450000Y-104350000D03*
X117550000Y-104350000D03*
X117550000Y-107650000D03*
%TD*%
%TO.C,D2*%
X107050000Y-107650000D03*
X107050000Y-104350000D03*
X111950000Y-104350000D03*
X111950000Y-107650000D03*
%TD*%
%TO.C,D1*%
X101450000Y-107650000D03*
X101450000Y-104350000D03*
X96550000Y-104350000D03*
X96550000Y-107650000D03*
%TD*%
D13*
%TO.C,C4*%
X159940000Y-69850000D03*
X154940000Y-69850000D03*
%TD*%
%TO.C,C3*%
X125222000Y-67357000D03*
X125222000Y-62357000D03*
%TD*%
%TO.C,C2*%
X173374000Y-49639000D03*
X173374000Y-44639000D03*
%TD*%
%TO.C,C1*%
X170072000Y-49639000D03*
X170072000Y-44639000D03*
%TD*%
D30*
%TO.C,SW10*%
X87500000Y-111000000D03*
X87500000Y-117500000D03*
X83000000Y-111000000D03*
X83000000Y-117500000D03*
%TD*%
%TO.C,SW8*%
X170250000Y-117750000D03*
X170250000Y-111250000D03*
X174750000Y-117750000D03*
X174750000Y-111250000D03*
%TD*%
%TO.C,SW7*%
X159750000Y-117750000D03*
X159750000Y-111250000D03*
X164250000Y-117750000D03*
X164250000Y-111250000D03*
%TD*%
%TO.C,SW6*%
X149250000Y-117750000D03*
X149250000Y-111250000D03*
X153750000Y-117750000D03*
X153750000Y-111250000D03*
%TD*%
%TO.C,SW5*%
X138750000Y-117750000D03*
X138750000Y-111250000D03*
X143250000Y-117750000D03*
X143250000Y-111250000D03*
%TD*%
%TO.C,SW4*%
X128250000Y-117750000D03*
X128250000Y-111250000D03*
X132750000Y-117750000D03*
X132750000Y-111250000D03*
%TD*%
%TO.C,SW3*%
X117750000Y-117750000D03*
X117750000Y-111250000D03*
X122250000Y-117750000D03*
X122250000Y-111250000D03*
%TD*%
%TO.C,SW2*%
X107250000Y-117750000D03*
X107250000Y-111250000D03*
X111750000Y-117750000D03*
X111750000Y-111250000D03*
%TD*%
%TO.C,SW1*%
X101250000Y-111250000D03*
X101250000Y-117750000D03*
X96750000Y-111250000D03*
X96750000Y-117750000D03*
%TD*%
D15*
%TO.C,RV7*%
X164500000Y-74000000D03*
X162000000Y-74000000D03*
X159500000Y-74000000D03*
D14*
X157600000Y-81000000D03*
X166400000Y-81000000D03*
%TD*%
%TO.C,RV6*%
X155900000Y-95000000D03*
X147100000Y-95000000D03*
D15*
X149000000Y-88000000D03*
X151500000Y-88000000D03*
X154000000Y-88000000D03*
%TD*%
D14*
%TO.C,RV4*%
X134900000Y-95000000D03*
X126100000Y-95000000D03*
D15*
X128000000Y-88000000D03*
X130500000Y-88000000D03*
X133000000Y-88000000D03*
%TD*%
%TO.C,RV3*%
X122500000Y-74000000D03*
X120000000Y-74000000D03*
X117500000Y-74000000D03*
D14*
X115600000Y-81000000D03*
X124400000Y-81000000D03*
%TD*%
%TO.C,RV2*%
X113900000Y-95000000D03*
X105100000Y-95000000D03*
D15*
X107000000Y-88000000D03*
X109500000Y-88000000D03*
X112000000Y-88000000D03*
%TD*%
%TO.C,RV1*%
X101500000Y-74000000D03*
X99000000Y-74000000D03*
X96500000Y-74000000D03*
D14*
X94600000Y-81000000D03*
X103400000Y-81000000D03*
%TD*%
M02*
