%TF.GenerationSoftware,KiCad,Pcbnew,8.0.0*%
%TF.CreationDate,2024-04-14T22:25:00-07:00*%
%TF.ProjectId,seq1,73657131-2e6b-4696-9361-645f70636258,rev?*%
%TF.SameCoordinates,Original*%
%TF.FileFunction,Legend,Bot*%
%TF.FilePolarity,Positive*%
%FSLAX46Y46*%
G04 Gerber Fmt 4.6, Leading zero omitted, Abs format (unit mm)*
G04 Created by KiCad (PCBNEW 8.0.0) date 2024-04-14 22:25:00*
%MOMM*%
%LPD*%
G01*
G04 APERTURE LIST*
G04 Aperture macros list*
%AMRoundRect*
0 Rectangle with rounded corners*
0 $1 Rounding radius*
0 $2 $3 $4 $5 $6 $7 $8 $9 X,Y pos of 4 corners*
0 Add a 4 corners polygon primitive as box body*
4,1,4,$2,$3,$4,$5,$6,$7,$8,$9,$2,$3,0*
0 Add four circle primitives for the rounded corners*
1,1,$1+$1,$2,$3*
1,1,$1+$1,$4,$5*
1,1,$1+$1,$6,$7*
1,1,$1+$1,$8,$9*
0 Add four rect primitives between the rounded corners*
20,1,$1+$1,$2,$3,$4,$5,0*
20,1,$1+$1,$4,$5,$6,$7,0*
20,1,$1+$1,$6,$7,$8,$9,0*
20,1,$1+$1,$8,$9,$2,$3,0*%
G04 Aperture macros list end*
%ADD10C,0.100000*%
%ADD11C,3.500000*%
%ADD12O,1.600000X1.600000*%
%ADD13R,1.600000X1.600000*%
%ADD14C,1.600000*%
%ADD15C,4.000000*%
%ADD16C,1.800000*%
%ADD17R,2.200000X2.200000*%
%ADD18O,2.200000X2.200000*%
%ADD19O,1.700000X1.700000*%
%ADD20R,1.700000X1.700000*%
%ADD21O,2.000000X3.500000*%
%ADD22C,1.440000*%
%ADD23R,1.500000X1.050000*%
%ADD24O,1.500000X1.050000*%
%ADD25C,1.700000*%
%ADD26RoundRect,0.250000X-0.600000X0.600000X-0.600000X-0.600000X0.600000X-0.600000X0.600000X0.600000X0*%
%ADD27RoundRect,0.250000X0.550000X-0.550000X0.550000X0.550000X-0.550000X0.550000X-0.550000X-0.550000X0*%
%ADD28O,3.000000X4.100000*%
%ADD29C,2.000000*%
G04 APERTURE END LIST*
D10*
X133046115Y-42544419D02*
X133046115Y-41544419D01*
X133046115Y-41544419D02*
X132808020Y-41544419D01*
X132808020Y-41544419D02*
X132665163Y-41592038D01*
X132665163Y-41592038D02*
X132569925Y-41687276D01*
X132569925Y-41687276D02*
X132522306Y-41782514D01*
X132522306Y-41782514D02*
X132474687Y-41972990D01*
X132474687Y-41972990D02*
X132474687Y-42115847D01*
X132474687Y-42115847D02*
X132522306Y-42306323D01*
X132522306Y-42306323D02*
X132569925Y-42401561D01*
X132569925Y-42401561D02*
X132665163Y-42496800D01*
X132665163Y-42496800D02*
X132808020Y-42544419D01*
X132808020Y-42544419D02*
X133046115Y-42544419D01*
X132141353Y-41544419D02*
X131522306Y-41544419D01*
X131522306Y-41544419D02*
X131855639Y-41925371D01*
X131855639Y-41925371D02*
X131712782Y-41925371D01*
X131712782Y-41925371D02*
X131617544Y-41972990D01*
X131617544Y-41972990D02*
X131569925Y-42020609D01*
X131569925Y-42020609D02*
X131522306Y-42115847D01*
X131522306Y-42115847D02*
X131522306Y-42353942D01*
X131522306Y-42353942D02*
X131569925Y-42449180D01*
X131569925Y-42449180D02*
X131617544Y-42496800D01*
X131617544Y-42496800D02*
X131712782Y-42544419D01*
X131712782Y-42544419D02*
X131998496Y-42544419D01*
X131998496Y-42544419D02*
X132093734Y-42496800D01*
X132093734Y-42496800D02*
X132141353Y-42449180D01*
X133903353Y-28844419D02*
X133284306Y-28844419D01*
X133284306Y-28844419D02*
X133617639Y-29225371D01*
X133617639Y-29225371D02*
X133474782Y-29225371D01*
X133474782Y-29225371D02*
X133379544Y-29272990D01*
X133379544Y-29272990D02*
X133331925Y-29320609D01*
X133331925Y-29320609D02*
X133284306Y-29415847D01*
X133284306Y-29415847D02*
X133284306Y-29653942D01*
X133284306Y-29653942D02*
X133331925Y-29749180D01*
X133331925Y-29749180D02*
X133379544Y-29796800D01*
X133379544Y-29796800D02*
X133474782Y-29844419D01*
X133474782Y-29844419D02*
X133760496Y-29844419D01*
X133760496Y-29844419D02*
X133855734Y-29796800D01*
X133855734Y-29796800D02*
X133903353Y-29749180D01*
X132998591Y-28844419D02*
X132665258Y-29844419D01*
X132665258Y-29844419D02*
X132331925Y-28844419D01*
X132093829Y-28844419D02*
X131474782Y-28844419D01*
X131474782Y-28844419D02*
X131808115Y-29225371D01*
X131808115Y-29225371D02*
X131665258Y-29225371D01*
X131665258Y-29225371D02*
X131570020Y-29272990D01*
X131570020Y-29272990D02*
X131522401Y-29320609D01*
X131522401Y-29320609D02*
X131474782Y-29415847D01*
X131474782Y-29415847D02*
X131474782Y-29653942D01*
X131474782Y-29653942D02*
X131522401Y-29749180D01*
X131522401Y-29749180D02*
X131570020Y-29796800D01*
X131570020Y-29796800D02*
X131665258Y-29844419D01*
X131665258Y-29844419D02*
X131950972Y-29844419D01*
X131950972Y-29844419D02*
X132046210Y-29796800D01*
X132046210Y-29796800D02*
X132093829Y-29749180D01*
X133046115Y-39877419D02*
X133046115Y-38877419D01*
X133046115Y-38877419D02*
X132808020Y-38877419D01*
X132808020Y-38877419D02*
X132665163Y-38925038D01*
X132665163Y-38925038D02*
X132569925Y-39020276D01*
X132569925Y-39020276D02*
X132522306Y-39115514D01*
X132522306Y-39115514D02*
X132474687Y-39305990D01*
X132474687Y-39305990D02*
X132474687Y-39448847D01*
X132474687Y-39448847D02*
X132522306Y-39639323D01*
X132522306Y-39639323D02*
X132569925Y-39734561D01*
X132569925Y-39734561D02*
X132665163Y-39829800D01*
X132665163Y-39829800D02*
X132808020Y-39877419D01*
X132808020Y-39877419D02*
X133046115Y-39877419D01*
X131617544Y-39210752D02*
X131617544Y-39877419D01*
X131855639Y-38829800D02*
X132093734Y-39544085D01*
X132093734Y-39544085D02*
X131474687Y-39544085D01*
X133935115Y-37464419D02*
X133935115Y-36464419D01*
X133935115Y-36464419D02*
X133697020Y-36464419D01*
X133697020Y-36464419D02*
X133554163Y-36512038D01*
X133554163Y-36512038D02*
X133458925Y-36607276D01*
X133458925Y-36607276D02*
X133411306Y-36702514D01*
X133411306Y-36702514D02*
X133363687Y-36892990D01*
X133363687Y-36892990D02*
X133363687Y-37035847D01*
X133363687Y-37035847D02*
X133411306Y-37226323D01*
X133411306Y-37226323D02*
X133458925Y-37321561D01*
X133458925Y-37321561D02*
X133554163Y-37416800D01*
X133554163Y-37416800D02*
X133697020Y-37464419D01*
X133697020Y-37464419D02*
X133935115Y-37464419D01*
X132411306Y-37464419D02*
X132982734Y-37464419D01*
X132697020Y-37464419D02*
X132697020Y-36464419D01*
X132697020Y-36464419D02*
X132792258Y-36607276D01*
X132792258Y-36607276D02*
X132887496Y-36702514D01*
X132887496Y-36702514D02*
X132982734Y-36750133D01*
X132077972Y-36464419D02*
X131458925Y-36464419D01*
X131458925Y-36464419D02*
X131792258Y-36845371D01*
X131792258Y-36845371D02*
X131649401Y-36845371D01*
X131649401Y-36845371D02*
X131554163Y-36892990D01*
X131554163Y-36892990D02*
X131506544Y-36940609D01*
X131506544Y-36940609D02*
X131458925Y-37035847D01*
X131458925Y-37035847D02*
X131458925Y-37273942D01*
X131458925Y-37273942D02*
X131506544Y-37369180D01*
X131506544Y-37369180D02*
X131554163Y-37416800D01*
X131554163Y-37416800D02*
X131649401Y-37464419D01*
X131649401Y-37464419D02*
X131935115Y-37464419D01*
X131935115Y-37464419D02*
X132030353Y-37416800D01*
X132030353Y-37416800D02*
X132077972Y-37369180D01*
X133538306Y-33845038D02*
X133633544Y-33797419D01*
X133633544Y-33797419D02*
X133776401Y-33797419D01*
X133776401Y-33797419D02*
X133919258Y-33845038D01*
X133919258Y-33845038D02*
X134014496Y-33940276D01*
X134014496Y-33940276D02*
X134062115Y-34035514D01*
X134062115Y-34035514D02*
X134109734Y-34225990D01*
X134109734Y-34225990D02*
X134109734Y-34368847D01*
X134109734Y-34368847D02*
X134062115Y-34559323D01*
X134062115Y-34559323D02*
X134014496Y-34654561D01*
X134014496Y-34654561D02*
X133919258Y-34749800D01*
X133919258Y-34749800D02*
X133776401Y-34797419D01*
X133776401Y-34797419D02*
X133681163Y-34797419D01*
X133681163Y-34797419D02*
X133538306Y-34749800D01*
X133538306Y-34749800D02*
X133490687Y-34702180D01*
X133490687Y-34702180D02*
X133490687Y-34368847D01*
X133490687Y-34368847D02*
X133681163Y-34368847D01*
X133062115Y-34797419D02*
X133062115Y-33797419D01*
X133062115Y-33797419D02*
X132490687Y-34797419D01*
X132490687Y-34797419D02*
X132490687Y-33797419D01*
X132014496Y-34797419D02*
X132014496Y-33797419D01*
X132014496Y-33797419D02*
X131776401Y-33797419D01*
X131776401Y-33797419D02*
X131633544Y-33845038D01*
X131633544Y-33845038D02*
X131538306Y-33940276D01*
X131538306Y-33940276D02*
X131490687Y-34035514D01*
X131490687Y-34035514D02*
X131443068Y-34225990D01*
X131443068Y-34225990D02*
X131443068Y-34368847D01*
X131443068Y-34368847D02*
X131490687Y-34559323D01*
X131490687Y-34559323D02*
X131538306Y-34654561D01*
X131538306Y-34654561D02*
X131633544Y-34749800D01*
X131633544Y-34749800D02*
X131776401Y-34797419D01*
X131776401Y-34797419D02*
X132014496Y-34797419D01*
X133236687Y-32384419D02*
X133570020Y-31908228D01*
X133808115Y-32384419D02*
X133808115Y-31384419D01*
X133808115Y-31384419D02*
X133427163Y-31384419D01*
X133427163Y-31384419D02*
X133331925Y-31432038D01*
X133331925Y-31432038D02*
X133284306Y-31479657D01*
X133284306Y-31479657D02*
X133236687Y-31574895D01*
X133236687Y-31574895D02*
X133236687Y-31717752D01*
X133236687Y-31717752D02*
X133284306Y-31812990D01*
X133284306Y-31812990D02*
X133331925Y-31860609D01*
X133331925Y-31860609D02*
X133427163Y-31908228D01*
X133427163Y-31908228D02*
X133808115Y-31908228D01*
X132855734Y-32336800D02*
X132712877Y-32384419D01*
X132712877Y-32384419D02*
X132474782Y-32384419D01*
X132474782Y-32384419D02*
X132379544Y-32336800D01*
X132379544Y-32336800D02*
X132331925Y-32289180D01*
X132331925Y-32289180D02*
X132284306Y-32193942D01*
X132284306Y-32193942D02*
X132284306Y-32098704D01*
X132284306Y-32098704D02*
X132331925Y-32003466D01*
X132331925Y-32003466D02*
X132379544Y-31955847D01*
X132379544Y-31955847D02*
X132474782Y-31908228D01*
X132474782Y-31908228D02*
X132665258Y-31860609D01*
X132665258Y-31860609D02*
X132760496Y-31812990D01*
X132760496Y-31812990D02*
X132808115Y-31765371D01*
X132808115Y-31765371D02*
X132855734Y-31670133D01*
X132855734Y-31670133D02*
X132855734Y-31574895D01*
X132855734Y-31574895D02*
X132808115Y-31479657D01*
X132808115Y-31479657D02*
X132760496Y-31432038D01*
X132760496Y-31432038D02*
X132665258Y-31384419D01*
X132665258Y-31384419D02*
X132427163Y-31384419D01*
X132427163Y-31384419D02*
X132284306Y-31432038D01*
X131998591Y-31384419D02*
X131427163Y-31384419D01*
X131712877Y-32384419D02*
X131712877Y-31384419D01*
X125473734Y-42004704D02*
X124997544Y-42004704D01*
X125568972Y-42290419D02*
X125235639Y-41290419D01*
X125235639Y-41290419D02*
X124902306Y-42290419D01*
X124664210Y-41290419D02*
X124045163Y-41290419D01*
X124045163Y-41290419D02*
X124378496Y-41671371D01*
X124378496Y-41671371D02*
X124235639Y-41671371D01*
X124235639Y-41671371D02*
X124140401Y-41718990D01*
X124140401Y-41718990D02*
X124092782Y-41766609D01*
X124092782Y-41766609D02*
X124045163Y-41861847D01*
X124045163Y-41861847D02*
X124045163Y-42099942D01*
X124045163Y-42099942D02*
X124092782Y-42195180D01*
X124092782Y-42195180D02*
X124140401Y-42242800D01*
X124140401Y-42242800D02*
X124235639Y-42290419D01*
X124235639Y-42290419D02*
X124521353Y-42290419D01*
X124521353Y-42290419D02*
X124616591Y-42242800D01*
X124616591Y-42242800D02*
X124664210Y-42195180D01*
X125473734Y-39718704D02*
X124997544Y-39718704D01*
X125568972Y-40004419D02*
X125235639Y-39004419D01*
X125235639Y-39004419D02*
X124902306Y-40004419D01*
X124616591Y-39099657D02*
X124568972Y-39052038D01*
X124568972Y-39052038D02*
X124473734Y-39004419D01*
X124473734Y-39004419D02*
X124235639Y-39004419D01*
X124235639Y-39004419D02*
X124140401Y-39052038D01*
X124140401Y-39052038D02*
X124092782Y-39099657D01*
X124092782Y-39099657D02*
X124045163Y-39194895D01*
X124045163Y-39194895D02*
X124045163Y-39290133D01*
X124045163Y-39290133D02*
X124092782Y-39432990D01*
X124092782Y-39432990D02*
X124664210Y-40004419D01*
X124664210Y-40004419D02*
X124045163Y-40004419D01*
X125473734Y-37178704D02*
X124997544Y-37178704D01*
X125568972Y-37464419D02*
X125235639Y-36464419D01*
X125235639Y-36464419D02*
X124902306Y-37464419D01*
X124045163Y-37464419D02*
X124616591Y-37464419D01*
X124330877Y-37464419D02*
X124330877Y-36464419D01*
X124330877Y-36464419D02*
X124426115Y-36607276D01*
X124426115Y-36607276D02*
X124521353Y-36702514D01*
X124521353Y-36702514D02*
X124616591Y-36750133D01*
X124949925Y-33924419D02*
X125426115Y-33924419D01*
X125426115Y-33924419D02*
X125473734Y-34400609D01*
X125473734Y-34400609D02*
X125426115Y-34352990D01*
X125426115Y-34352990D02*
X125330877Y-34305371D01*
X125330877Y-34305371D02*
X125092782Y-34305371D01*
X125092782Y-34305371D02*
X124997544Y-34352990D01*
X124997544Y-34352990D02*
X124949925Y-34400609D01*
X124949925Y-34400609D02*
X124902306Y-34495847D01*
X124902306Y-34495847D02*
X124902306Y-34733942D01*
X124902306Y-34733942D02*
X124949925Y-34829180D01*
X124949925Y-34829180D02*
X124997544Y-34876800D01*
X124997544Y-34876800D02*
X125092782Y-34924419D01*
X125092782Y-34924419D02*
X125330877Y-34924419D01*
X125330877Y-34924419D02*
X125426115Y-34876800D01*
X125426115Y-34876800D02*
X125473734Y-34829180D01*
X124616591Y-33924419D02*
X124283258Y-34924419D01*
X124283258Y-34924419D02*
X123949925Y-33924419D01*
X125521353Y-31384419D02*
X124902306Y-31384419D01*
X124902306Y-31384419D02*
X125235639Y-31765371D01*
X125235639Y-31765371D02*
X125092782Y-31765371D01*
X125092782Y-31765371D02*
X124997544Y-31812990D01*
X124997544Y-31812990D02*
X124949925Y-31860609D01*
X124949925Y-31860609D02*
X124902306Y-31955847D01*
X124902306Y-31955847D02*
X124902306Y-32193942D01*
X124902306Y-32193942D02*
X124949925Y-32289180D01*
X124949925Y-32289180D02*
X124997544Y-32336800D01*
X124997544Y-32336800D02*
X125092782Y-32384419D01*
X125092782Y-32384419D02*
X125378496Y-32384419D01*
X125378496Y-32384419D02*
X125473734Y-32336800D01*
X125473734Y-32336800D02*
X125521353Y-32289180D01*
X124616591Y-31384419D02*
X124283258Y-32384419D01*
X124283258Y-32384419D02*
X123949925Y-31384419D01*
X123711829Y-31384419D02*
X123092782Y-31384419D01*
X123092782Y-31384419D02*
X123426115Y-31765371D01*
X123426115Y-31765371D02*
X123283258Y-31765371D01*
X123283258Y-31765371D02*
X123188020Y-31812990D01*
X123188020Y-31812990D02*
X123140401Y-31860609D01*
X123140401Y-31860609D02*
X123092782Y-31955847D01*
X123092782Y-31955847D02*
X123092782Y-32193942D01*
X123092782Y-32193942D02*
X123140401Y-32289180D01*
X123140401Y-32289180D02*
X123188020Y-32336800D01*
X123188020Y-32336800D02*
X123283258Y-32384419D01*
X123283258Y-32384419D02*
X123568972Y-32384419D01*
X123568972Y-32384419D02*
X123664210Y-32336800D01*
X123664210Y-32336800D02*
X123711829Y-32289180D01*
X122711829Y-32098704D02*
X122235639Y-32098704D01*
X122807067Y-32384419D02*
X122473734Y-31384419D01*
X122473734Y-31384419D02*
X122140401Y-32384419D01*
X125521353Y-28844419D02*
X124902306Y-28844419D01*
X124902306Y-28844419D02*
X125235639Y-29225371D01*
X125235639Y-29225371D02*
X125092782Y-29225371D01*
X125092782Y-29225371D02*
X124997544Y-29272990D01*
X124997544Y-29272990D02*
X124949925Y-29320609D01*
X124949925Y-29320609D02*
X124902306Y-29415847D01*
X124902306Y-29415847D02*
X124902306Y-29653942D01*
X124902306Y-29653942D02*
X124949925Y-29749180D01*
X124949925Y-29749180D02*
X124997544Y-29796800D01*
X124997544Y-29796800D02*
X125092782Y-29844419D01*
X125092782Y-29844419D02*
X125378496Y-29844419D01*
X125378496Y-29844419D02*
X125473734Y-29796800D01*
X125473734Y-29796800D02*
X125521353Y-29749180D01*
X124616591Y-28844419D02*
X124283258Y-29844419D01*
X124283258Y-29844419D02*
X123949925Y-28844419D01*
X123711829Y-28844419D02*
X123092782Y-28844419D01*
X123092782Y-28844419D02*
X123426115Y-29225371D01*
X123426115Y-29225371D02*
X123283258Y-29225371D01*
X123283258Y-29225371D02*
X123188020Y-29272990D01*
X123188020Y-29272990D02*
X123140401Y-29320609D01*
X123140401Y-29320609D02*
X123092782Y-29415847D01*
X123092782Y-29415847D02*
X123092782Y-29653942D01*
X123092782Y-29653942D02*
X123140401Y-29749180D01*
X123140401Y-29749180D02*
X123188020Y-29796800D01*
X123188020Y-29796800D02*
X123283258Y-29844419D01*
X123283258Y-29844419D02*
X123568972Y-29844419D01*
X123568972Y-29844419D02*
X123664210Y-29796800D01*
X123664210Y-29796800D02*
X123711829Y-29749180D01*
%LPC*%
D11*
%TO.C,H2*%
X175000000Y-81000000D03*
%TD*%
%TO.C,H1*%
X85000000Y-81000000D03*
%TD*%
D12*
%TO.C,U3*%
X128524000Y-62357000D03*
X131064000Y-62357000D03*
X133604000Y-62357000D03*
X136144000Y-62357000D03*
X138684000Y-62357000D03*
X141224000Y-62357000D03*
X143764000Y-62357000D03*
X146304000Y-62357000D03*
X146304000Y-69977000D03*
X143764000Y-69977000D03*
X141224000Y-69977000D03*
X138684000Y-69977000D03*
X136144000Y-69977000D03*
X133604000Y-69977000D03*
X131064000Y-69977000D03*
D13*
X128524000Y-69977000D03*
%TD*%
D14*
%TO.C,R20*%
X144780000Y-57277000D03*
D12*
X144780000Y-47117000D03*
%TD*%
D14*
%TO.C,R19*%
X147955000Y-57277000D03*
D12*
X147955000Y-47117000D03*
%TD*%
D15*
%TO.C,RV5*%
X145400000Y-81000000D03*
X136600000Y-81000000D03*
D16*
X138500000Y-74000000D03*
X141000000Y-74000000D03*
X143500000Y-74000000D03*
%TD*%
D15*
%TO.C,RV8*%
X176900000Y-95000000D03*
X168100000Y-95000000D03*
D16*
X170000000Y-88000000D03*
X172500000Y-88000000D03*
X175000000Y-88000000D03*
%TD*%
D13*
%TO.C,U2*%
X162550000Y-66558000D03*
D12*
X162550000Y-64018000D03*
X162550000Y-61478000D03*
X162550000Y-58938000D03*
X162550000Y-56398000D03*
X162550000Y-53858000D03*
X162550000Y-51318000D03*
X162550000Y-48778000D03*
X154930000Y-48778000D03*
X154930000Y-51318000D03*
X154930000Y-53858000D03*
X154930000Y-56398000D03*
X154930000Y-58938000D03*
X154930000Y-61478000D03*
X154930000Y-64018000D03*
X154930000Y-66558000D03*
%TD*%
D14*
%TO.C,R17*%
X97057000Y-70866000D03*
D12*
X94517000Y-70866000D03*
%TD*%
D17*
%TO.C,D10*%
X104394000Y-32512000D03*
D18*
X94234000Y-32512000D03*
%TD*%
D14*
%TO.C,R8*%
X94996000Y-65283000D03*
D12*
X94996000Y-62743000D03*
%TD*%
D14*
%TO.C,R5*%
X106934000Y-41627000D03*
D12*
X96774000Y-41627000D03*
%TD*%
D17*
%TO.C,D9*%
X101600000Y-36068000D03*
D18*
X99060000Y-36068000D03*
%TD*%
D14*
%TO.C,C17*%
X165688000Y-22733000D03*
X170688000Y-22733000D03*
%TD*%
%TO.C,C16*%
X116586000Y-34814888D03*
D13*
X116586000Y-32314888D03*
%TD*%
D19*
%TO.C,J6*%
X129789000Y-41910000D03*
X127249000Y-41910000D03*
X129789000Y-39370000D03*
X127249000Y-39370000D03*
X129789000Y-36830000D03*
X127249000Y-36830000D03*
X129789000Y-34290000D03*
X127249000Y-34290000D03*
X129789000Y-31750000D03*
X127249000Y-31750000D03*
X129789000Y-29210000D03*
D20*
X127249000Y-29210000D03*
%TD*%
D21*
%TO.C,J4*%
X81810000Y-57814000D03*
X86810000Y-57814000D03*
X91010000Y-57814000D03*
%TD*%
%TO.C,J2*%
X91010000Y-46814000D03*
X86810000Y-46814000D03*
X81810000Y-46814000D03*
%TD*%
%TO.C,J1*%
X81810000Y-35814000D03*
X86810000Y-35814000D03*
X91010000Y-35814000D03*
%TD*%
%TO.C,J5*%
X91010000Y-68814000D03*
X86810000Y-68814000D03*
X81810000Y-68814000D03*
%TD*%
D12*
%TO.C,R16*%
X106680000Y-66241000D03*
D14*
X106680000Y-63701000D03*
%TD*%
D22*
%TO.C,RV11*%
X110754000Y-64746000D03*
X113294000Y-64746000D03*
X115834000Y-64746000D03*
%TD*%
D14*
%TO.C,R18*%
X112014000Y-72411000D03*
D12*
X112014000Y-69871000D03*
%TD*%
D14*
%TO.C,R15*%
X112522000Y-60174000D03*
D12*
X115062000Y-60174000D03*
%TD*%
%TO.C,R14*%
X115062000Y-57634000D03*
D14*
X112522000Y-57634000D03*
%TD*%
D23*
%TO.C,Q1*%
X107590000Y-70096000D03*
D24*
X107590000Y-71366000D03*
X107590000Y-72636000D03*
%TD*%
D14*
%TO.C,C5*%
X117522000Y-55089000D03*
X112522000Y-55089000D03*
%TD*%
D25*
%TO.C,U1*%
X136144000Y-24098000D03*
X136144000Y-26638000D03*
X136144000Y-29178000D03*
X136144000Y-31718000D03*
X136144000Y-34258000D03*
X136144000Y-36798000D03*
X136144000Y-39338000D03*
X136144000Y-41878000D03*
X136144000Y-44418000D03*
X136144000Y-46958000D03*
X136144000Y-49498000D03*
X136144000Y-52038000D03*
X136144000Y-54578000D03*
X136144000Y-57118000D03*
X133604000Y-57118000D03*
X131064000Y-57118000D03*
X128524000Y-57118000D03*
X125984000Y-57118000D03*
X123444000Y-57118000D03*
X120904000Y-57118000D03*
X120904000Y-54578000D03*
X120904000Y-52038000D03*
X120904000Y-49498000D03*
X120904000Y-46958000D03*
X120904000Y-44418000D03*
X120904000Y-41878000D03*
X120904000Y-39338000D03*
X120904000Y-36798000D03*
X120904000Y-34258000D03*
X120904000Y-31718000D03*
X120904000Y-29178000D03*
X120904000Y-26638000D03*
X120904000Y-24098000D03*
%TD*%
D12*
%TO.C,R6*%
X115062000Y-44929000D03*
D14*
X112522000Y-44929000D03*
%TD*%
D26*
%TO.C,J3*%
X103632000Y-24384000D03*
D25*
X103632000Y-26924000D03*
X101092000Y-24384000D03*
X101092000Y-26924000D03*
X98552000Y-24384000D03*
X98552000Y-26924000D03*
X96012000Y-24384000D03*
X96012000Y-26924000D03*
X93472000Y-24384000D03*
X93472000Y-26924000D03*
X90932000Y-24384000D03*
X90932000Y-26924000D03*
X88392000Y-24384000D03*
X88392000Y-26924000D03*
X85852000Y-24384000D03*
X85852000Y-26924000D03*
%TD*%
D14*
%TO.C,C15*%
X112014000Y-36528000D03*
X112014000Y-31528000D03*
%TD*%
%TO.C,C14*%
X107442000Y-32044000D03*
X107442000Y-37044000D03*
%TD*%
D27*
%TO.C,SW9*%
X169204000Y-39889000D03*
D14*
X174204000Y-39889000D03*
X171704000Y-39889000D03*
X169204000Y-25389000D03*
X174204000Y-25389000D03*
D28*
X166104000Y-32389000D03*
X177304000Y-32389000D03*
%TD*%
D29*
%TO.C,SW11*%
X87500000Y-91000000D03*
X87500000Y-97500000D03*
X83000000Y-91000000D03*
X83000000Y-97500000D03*
%TD*%
D25*
%TO.C,U5*%
X147574000Y-22598000D03*
X150114000Y-22598000D03*
X152654000Y-22598000D03*
X155194000Y-22598000D03*
%TD*%
D22*
%TO.C,RV10*%
X102362000Y-64238000D03*
X102362000Y-66778000D03*
X102362000Y-69318000D03*
%TD*%
%TO.C,RV9*%
X111506000Y-40362000D03*
X114046000Y-40362000D03*
X116586000Y-40362000D03*
%TD*%
D13*
%TO.C,U6*%
X101600000Y-44929000D03*
D12*
X101600000Y-47469000D03*
X101600000Y-50009000D03*
X101600000Y-52549000D03*
X101600000Y-55089000D03*
X101600000Y-57629000D03*
X101600000Y-60169000D03*
X109220000Y-60169000D03*
X109220000Y-57629000D03*
X109220000Y-55089000D03*
X109220000Y-52549000D03*
X109220000Y-50009000D03*
X109220000Y-47469000D03*
X109220000Y-44929000D03*
%TD*%
D14*
%TO.C,R13*%
X94996000Y-52583000D03*
D12*
X94996000Y-50043000D03*
%TD*%
%TO.C,R12*%
X115062000Y-47469000D03*
D14*
X112522000Y-47469000D03*
%TD*%
%TO.C,R11*%
X98044000Y-62714000D03*
D12*
X98044000Y-60174000D03*
%TD*%
D14*
%TO.C,R10*%
X94996000Y-47474000D03*
D12*
X94996000Y-44934000D03*
%TD*%
D14*
%TO.C,R9*%
X98044000Y-44929000D03*
D12*
X98044000Y-47469000D03*
%TD*%
D14*
%TO.C,C13*%
X94996000Y-55094000D03*
X94996000Y-60094000D03*
%TD*%
%TO.C,C12*%
X117522000Y-50009000D03*
X112522000Y-50009000D03*
%TD*%
%TO.C,C11*%
X117492000Y-52544000D03*
X112492000Y-52544000D03*
%TD*%
%TO.C,C10*%
X98044000Y-52554000D03*
X98044000Y-57554000D03*
%TD*%
D12*
%TO.C,R7*%
X100838000Y-100047000D03*
D14*
X100838000Y-97507000D03*
%TD*%
%TO.C,C9*%
X162000000Y-95000000D03*
X162000000Y-100000000D03*
%TD*%
%TO.C,C8*%
X141000000Y-95000000D03*
X141000000Y-100000000D03*
%TD*%
%TO.C,C7*%
X120000000Y-95000000D03*
X120000000Y-100000000D03*
%TD*%
%TO.C,C6*%
X97536000Y-95036000D03*
X97536000Y-100036000D03*
%TD*%
D12*
%TO.C,R4*%
X166572000Y-45139000D03*
D14*
X166572000Y-42599000D03*
%TD*%
%TO.C,R3*%
X176874000Y-42594000D03*
D12*
X176874000Y-45134000D03*
%TD*%
%TO.C,R2*%
X166572000Y-47644000D03*
D14*
X166572000Y-50184000D03*
%TD*%
D12*
%TO.C,R1*%
X176874000Y-47644000D03*
D14*
X176874000Y-50184000D03*
%TD*%
%TO.C,C4*%
X159940000Y-69850000D03*
X154940000Y-69850000D03*
%TD*%
%TO.C,C3*%
X125222000Y-67357000D03*
X125222000Y-62357000D03*
%TD*%
%TO.C,C2*%
X173374000Y-49639000D03*
X173374000Y-44639000D03*
%TD*%
%TO.C,C1*%
X170072000Y-49639000D03*
X170072000Y-44639000D03*
%TD*%
D29*
%TO.C,SW10*%
X87500000Y-111000000D03*
X87500000Y-117500000D03*
X83000000Y-111000000D03*
X83000000Y-117500000D03*
%TD*%
%TO.C,SW8*%
X170250000Y-117750000D03*
X170250000Y-111250000D03*
X174750000Y-117750000D03*
X174750000Y-111250000D03*
%TD*%
%TO.C,SW7*%
X159750000Y-117750000D03*
X159750000Y-111250000D03*
X164250000Y-117750000D03*
X164250000Y-111250000D03*
%TD*%
%TO.C,SW6*%
X149250000Y-117750000D03*
X149250000Y-111250000D03*
X153750000Y-117750000D03*
X153750000Y-111250000D03*
%TD*%
%TO.C,SW5*%
X138750000Y-117750000D03*
X138750000Y-111250000D03*
X143250000Y-117750000D03*
X143250000Y-111250000D03*
%TD*%
%TO.C,SW4*%
X128250000Y-117750000D03*
X128250000Y-111250000D03*
X132750000Y-117750000D03*
X132750000Y-111250000D03*
%TD*%
%TO.C,SW3*%
X117750000Y-117750000D03*
X117750000Y-111250000D03*
X122250000Y-117750000D03*
X122250000Y-111250000D03*
%TD*%
%TO.C,SW2*%
X107250000Y-117750000D03*
X107250000Y-111250000D03*
X111750000Y-117750000D03*
X111750000Y-111250000D03*
%TD*%
%TO.C,SW1*%
X101250000Y-111250000D03*
X101250000Y-117750000D03*
X96750000Y-111250000D03*
X96750000Y-117750000D03*
%TD*%
D16*
%TO.C,RV7*%
X164500000Y-74000000D03*
X162000000Y-74000000D03*
X159500000Y-74000000D03*
D15*
X157600000Y-81000000D03*
X166400000Y-81000000D03*
%TD*%
%TO.C,RV6*%
X155900000Y-95000000D03*
X147100000Y-95000000D03*
D16*
X149000000Y-88000000D03*
X151500000Y-88000000D03*
X154000000Y-88000000D03*
%TD*%
D15*
%TO.C,RV4*%
X134900000Y-95000000D03*
X126100000Y-95000000D03*
D16*
X128000000Y-88000000D03*
X130500000Y-88000000D03*
X133000000Y-88000000D03*
%TD*%
%TO.C,RV3*%
X122500000Y-74000000D03*
X120000000Y-74000000D03*
X117500000Y-74000000D03*
D15*
X115600000Y-81000000D03*
X124400000Y-81000000D03*
%TD*%
%TO.C,RV2*%
X113900000Y-95000000D03*
X105100000Y-95000000D03*
D16*
X107000000Y-88000000D03*
X109500000Y-88000000D03*
X112000000Y-88000000D03*
%TD*%
%TO.C,RV1*%
X101500000Y-74000000D03*
X99000000Y-74000000D03*
X96500000Y-74000000D03*
D15*
X94600000Y-81000000D03*
X103400000Y-81000000D03*
%TD*%
%LPD*%
M02*
