%TF.GenerationSoftware,KiCad,Pcbnew,8.0.0*%
%TF.CreationDate,2024-04-14T22:25:00-07:00*%
%TF.ProjectId,seq1,73657131-2e6b-4696-9361-645f70636258,rev?*%
%TF.SameCoordinates,Original*%
%TF.FileFunction,Legend,Top*%
%TF.FilePolarity,Positive*%
%FSLAX46Y46*%
G04 Gerber Fmt 4.6, Leading zero omitted, Abs format (unit mm)*
G04 Created by KiCad (PCBNEW 8.0.0) date 2024-04-14 22:25:00*
%MOMM*%
%LPD*%
G01*
G04 APERTURE LIST*
G04 Aperture macros list*
%AMRoundRect*
0 Rectangle with rounded corners*
0 $1 Rounding radius*
0 $2 $3 $4 $5 $6 $7 $8 $9 X,Y pos of 4 corners*
0 Add a 4 corners polygon primitive as box body*
4,1,4,$2,$3,$4,$5,$6,$7,$8,$9,$2,$3,0*
0 Add four circle primitives for the rounded corners*
1,1,$1+$1,$2,$3*
1,1,$1+$1,$4,$5*
1,1,$1+$1,$6,$7*
1,1,$1+$1,$8,$9*
0 Add four rect primitives between the rounded corners*
20,1,$1+$1,$2,$3,$4,$5,0*
20,1,$1+$1,$4,$5,$6,$7,0*
20,1,$1+$1,$6,$7,$8,$9,0*
20,1,$1+$1,$8,$9,$2,$3,0*%
G04 Aperture macros list end*
%ADD10C,0.100000*%
%ADD11C,0.300000*%
%ADD12C,0.150000*%
%ADD13C,0.010000*%
%ADD14C,0.120000*%
%ADD15C,3.500000*%
%ADD16O,1.600000X1.600000*%
%ADD17R,1.600000X1.600000*%
%ADD18C,1.600000*%
%ADD19C,4.000000*%
%ADD20C,1.800000*%
%ADD21R,2.200000X2.200000*%
%ADD22O,2.200000X2.200000*%
%ADD23RoundRect,0.375000X-0.625000X-0.375000X0.625000X-0.375000X0.625000X0.375000X-0.625000X0.375000X0*%
%ADD24RoundRect,0.500000X-0.500000X-1.400000X0.500000X-1.400000X0.500000X1.400000X-0.500000X1.400000X0*%
%ADD25O,1.700000X1.700000*%
%ADD26R,1.700000X1.700000*%
%ADD27O,2.000000X3.500000*%
%ADD28C,1.440000*%
%ADD29R,1.500000X1.050000*%
%ADD30O,1.500000X1.050000*%
%ADD31C,1.700000*%
%ADD32RoundRect,0.250000X-0.600000X0.600000X-0.600000X-0.600000X0.600000X-0.600000X0.600000X0.600000X0*%
%ADD33RoundRect,0.250000X0.550000X-0.550000X0.550000X0.550000X-0.550000X0.550000X-0.550000X-0.550000X0*%
%ADD34O,3.000000X4.100000*%
%ADD35C,2.000000*%
%ADD36R,1.500000X0.900000*%
G04 APERTURE END LIST*
D10*
X177566419Y-118626972D02*
X178566419Y-118293639D01*
X178566419Y-118293639D02*
X177566419Y-117960306D01*
X178566419Y-117103163D02*
X178566419Y-117674591D01*
X178566419Y-117388877D02*
X177566419Y-117388877D01*
X177566419Y-117388877D02*
X177709276Y-117484115D01*
X177709276Y-117484115D02*
X177804514Y-117579353D01*
X177804514Y-117579353D02*
X177852133Y-117674591D01*
X178471180Y-116674591D02*
X178518800Y-116626972D01*
X178518800Y-116626972D02*
X178566419Y-116674591D01*
X178566419Y-116674591D02*
X178518800Y-116722210D01*
X178518800Y-116722210D02*
X178471180Y-116674591D01*
X178471180Y-116674591D02*
X178566419Y-116674591D01*
X177566419Y-116007925D02*
X177566419Y-115912687D01*
X177566419Y-115912687D02*
X177614038Y-115817449D01*
X177614038Y-115817449D02*
X177661657Y-115769830D01*
X177661657Y-115769830D02*
X177756895Y-115722211D01*
X177756895Y-115722211D02*
X177947371Y-115674592D01*
X177947371Y-115674592D02*
X178185466Y-115674592D01*
X178185466Y-115674592D02*
X178375942Y-115722211D01*
X178375942Y-115722211D02*
X178471180Y-115769830D01*
X178471180Y-115769830D02*
X178518800Y-115817449D01*
X178518800Y-115817449D02*
X178566419Y-115912687D01*
X178566419Y-115912687D02*
X178566419Y-116007925D01*
X178566419Y-116007925D02*
X178518800Y-116103163D01*
X178518800Y-116103163D02*
X178471180Y-116150782D01*
X178471180Y-116150782D02*
X178375942Y-116198401D01*
X178375942Y-116198401D02*
X178185466Y-116246020D01*
X178185466Y-116246020D02*
X177947371Y-116246020D01*
X177947371Y-116246020D02*
X177756895Y-116198401D01*
X177756895Y-116198401D02*
X177661657Y-116150782D01*
X177661657Y-116150782D02*
X177614038Y-116103163D01*
X177614038Y-116103163D02*
X177566419Y-116007925D01*
X178471180Y-115246020D02*
X178518800Y-115198401D01*
X178518800Y-115198401D02*
X178566419Y-115246020D01*
X178566419Y-115246020D02*
X178518800Y-115293639D01*
X178518800Y-115293639D02*
X178471180Y-115246020D01*
X178471180Y-115246020D02*
X178566419Y-115246020D01*
X177661657Y-114817449D02*
X177614038Y-114769830D01*
X177614038Y-114769830D02*
X177566419Y-114674592D01*
X177566419Y-114674592D02*
X177566419Y-114436497D01*
X177566419Y-114436497D02*
X177614038Y-114341259D01*
X177614038Y-114341259D02*
X177661657Y-114293640D01*
X177661657Y-114293640D02*
X177756895Y-114246021D01*
X177756895Y-114246021D02*
X177852133Y-114246021D01*
X177852133Y-114246021D02*
X177994990Y-114293640D01*
X177994990Y-114293640D02*
X178566419Y-114865068D01*
X178566419Y-114865068D02*
X178566419Y-114246021D01*
X177566419Y-113626973D02*
X177566419Y-113531735D01*
X177566419Y-113531735D02*
X177614038Y-113436497D01*
X177614038Y-113436497D02*
X177661657Y-113388878D01*
X177661657Y-113388878D02*
X177756895Y-113341259D01*
X177756895Y-113341259D02*
X177947371Y-113293640D01*
X177947371Y-113293640D02*
X178185466Y-113293640D01*
X178185466Y-113293640D02*
X178375942Y-113341259D01*
X178375942Y-113341259D02*
X178471180Y-113388878D01*
X178471180Y-113388878D02*
X178518800Y-113436497D01*
X178518800Y-113436497D02*
X178566419Y-113531735D01*
X178566419Y-113531735D02*
X178566419Y-113626973D01*
X178566419Y-113626973D02*
X178518800Y-113722211D01*
X178518800Y-113722211D02*
X178471180Y-113769830D01*
X178471180Y-113769830D02*
X178375942Y-113817449D01*
X178375942Y-113817449D02*
X178185466Y-113865068D01*
X178185466Y-113865068D02*
X177947371Y-113865068D01*
X177947371Y-113865068D02*
X177756895Y-113817449D01*
X177756895Y-113817449D02*
X177661657Y-113769830D01*
X177661657Y-113769830D02*
X177614038Y-113722211D01*
X177614038Y-113722211D02*
X177566419Y-113626973D01*
X177661657Y-112912687D02*
X177614038Y-112865068D01*
X177614038Y-112865068D02*
X177566419Y-112769830D01*
X177566419Y-112769830D02*
X177566419Y-112531735D01*
X177566419Y-112531735D02*
X177614038Y-112436497D01*
X177614038Y-112436497D02*
X177661657Y-112388878D01*
X177661657Y-112388878D02*
X177756895Y-112341259D01*
X177756895Y-112341259D02*
X177852133Y-112341259D01*
X177852133Y-112341259D02*
X177994990Y-112388878D01*
X177994990Y-112388878D02*
X178566419Y-112960306D01*
X178566419Y-112960306D02*
X178566419Y-112341259D01*
X177899752Y-111484116D02*
X178566419Y-111484116D01*
X177518800Y-111722211D02*
X178233085Y-111960306D01*
X178233085Y-111960306D02*
X178233085Y-111341259D01*
X177566419Y-110769830D02*
X177566419Y-110674592D01*
X177566419Y-110674592D02*
X177614038Y-110579354D01*
X177614038Y-110579354D02*
X177661657Y-110531735D01*
X177661657Y-110531735D02*
X177756895Y-110484116D01*
X177756895Y-110484116D02*
X177947371Y-110436497D01*
X177947371Y-110436497D02*
X178185466Y-110436497D01*
X178185466Y-110436497D02*
X178375942Y-110484116D01*
X178375942Y-110484116D02*
X178471180Y-110531735D01*
X178471180Y-110531735D02*
X178518800Y-110579354D01*
X178518800Y-110579354D02*
X178566419Y-110674592D01*
X178566419Y-110674592D02*
X178566419Y-110769830D01*
X178566419Y-110769830D02*
X178518800Y-110865068D01*
X178518800Y-110865068D02*
X178471180Y-110912687D01*
X178471180Y-110912687D02*
X178375942Y-110960306D01*
X178375942Y-110960306D02*
X178185466Y-111007925D01*
X178185466Y-111007925D02*
X177947371Y-111007925D01*
X177947371Y-111007925D02*
X177756895Y-110960306D01*
X177756895Y-110960306D02*
X177661657Y-110912687D01*
X177661657Y-110912687D02*
X177614038Y-110865068D01*
X177614038Y-110865068D02*
X177566419Y-110769830D01*
X177899752Y-109579354D02*
X178566419Y-109579354D01*
X177518800Y-109817449D02*
X178233085Y-110055544D01*
X178233085Y-110055544D02*
X178233085Y-109436497D01*
X178566419Y-108531735D02*
X178566419Y-109103163D01*
X178566419Y-108817449D02*
X177566419Y-108817449D01*
X177566419Y-108817449D02*
X177709276Y-108912687D01*
X177709276Y-108912687D02*
X177804514Y-109007925D01*
X177804514Y-109007925D02*
X177852133Y-109103163D01*
X177899752Y-107674592D02*
X178566419Y-107674592D01*
X177518800Y-107912687D02*
X178233085Y-108150782D01*
X178233085Y-108150782D02*
X178233085Y-107531735D01*
X177840800Y-75669258D02*
X177936038Y-75383544D01*
X177936038Y-75383544D02*
X177936038Y-74907353D01*
X177936038Y-74907353D02*
X177840800Y-74716877D01*
X177840800Y-74716877D02*
X177745561Y-74621639D01*
X177745561Y-74621639D02*
X177555085Y-74526401D01*
X177555085Y-74526401D02*
X177364609Y-74526401D01*
X177364609Y-74526401D02*
X177174133Y-74621639D01*
X177174133Y-74621639D02*
X177078895Y-74716877D01*
X177078895Y-74716877D02*
X176983657Y-74907353D01*
X176983657Y-74907353D02*
X176888419Y-75288306D01*
X176888419Y-75288306D02*
X176793180Y-75478782D01*
X176793180Y-75478782D02*
X176697942Y-75574020D01*
X176697942Y-75574020D02*
X176507466Y-75669258D01*
X176507466Y-75669258D02*
X176316990Y-75669258D01*
X176316990Y-75669258D02*
X176126514Y-75574020D01*
X176126514Y-75574020D02*
X176031276Y-75478782D01*
X176031276Y-75478782D02*
X175936038Y-75288306D01*
X175936038Y-75288306D02*
X175936038Y-74812115D01*
X175936038Y-74812115D02*
X176031276Y-74526401D01*
X176888419Y-73669258D02*
X176888419Y-73002591D01*
X177936038Y-72716877D02*
X177936038Y-73669258D01*
X177936038Y-73669258D02*
X175936038Y-73669258D01*
X175936038Y-73669258D02*
X175936038Y-72716877D01*
X178126514Y-70526401D02*
X178031276Y-70716877D01*
X178031276Y-70716877D02*
X177840800Y-70907353D01*
X177840800Y-70907353D02*
X177555085Y-71193067D01*
X177555085Y-71193067D02*
X177459847Y-71383544D01*
X177459847Y-71383544D02*
X177459847Y-71574020D01*
X177936038Y-71478782D02*
X177840800Y-71669258D01*
X177840800Y-71669258D02*
X177650323Y-71859734D01*
X177650323Y-71859734D02*
X177269371Y-71954972D01*
X177269371Y-71954972D02*
X176602704Y-71954972D01*
X176602704Y-71954972D02*
X176221752Y-71859734D01*
X176221752Y-71859734D02*
X176031276Y-71669258D01*
X176031276Y-71669258D02*
X175936038Y-71478782D01*
X175936038Y-71478782D02*
X175936038Y-71097829D01*
X175936038Y-71097829D02*
X176031276Y-70907353D01*
X176031276Y-70907353D02*
X176221752Y-70716877D01*
X176221752Y-70716877D02*
X176602704Y-70621639D01*
X176602704Y-70621639D02*
X177269371Y-70621639D01*
X177269371Y-70621639D02*
X177650323Y-70716877D01*
X177650323Y-70716877D02*
X177840800Y-70907353D01*
X177840800Y-70907353D02*
X177936038Y-71097829D01*
X177936038Y-71097829D02*
X177936038Y-71478782D01*
X175936038Y-69764496D02*
X177555085Y-69764496D01*
X177555085Y-69764496D02*
X177745561Y-69669258D01*
X177745561Y-69669258D02*
X177840800Y-69574020D01*
X177840800Y-69574020D02*
X177936038Y-69383544D01*
X177936038Y-69383544D02*
X177936038Y-69002591D01*
X177936038Y-69002591D02*
X177840800Y-68812115D01*
X177840800Y-68812115D02*
X177745561Y-68716877D01*
X177745561Y-68716877D02*
X177555085Y-68621639D01*
X177555085Y-68621639D02*
X175936038Y-68621639D01*
X176888419Y-67669258D02*
X176888419Y-67002591D01*
X177936038Y-66716877D02*
X177936038Y-67669258D01*
X177936038Y-67669258D02*
X175936038Y-67669258D01*
X175936038Y-67669258D02*
X175936038Y-66716877D01*
X177936038Y-65859734D02*
X175936038Y-65859734D01*
X175936038Y-65859734D02*
X177936038Y-64716877D01*
X177936038Y-64716877D02*
X175936038Y-64716877D01*
X177745561Y-62621639D02*
X177840800Y-62716877D01*
X177840800Y-62716877D02*
X177936038Y-63002591D01*
X177936038Y-63002591D02*
X177936038Y-63193067D01*
X177936038Y-63193067D02*
X177840800Y-63478782D01*
X177840800Y-63478782D02*
X177650323Y-63669258D01*
X177650323Y-63669258D02*
X177459847Y-63764496D01*
X177459847Y-63764496D02*
X177078895Y-63859734D01*
X177078895Y-63859734D02*
X176793180Y-63859734D01*
X176793180Y-63859734D02*
X176412228Y-63764496D01*
X176412228Y-63764496D02*
X176221752Y-63669258D01*
X176221752Y-63669258D02*
X176031276Y-63478782D01*
X176031276Y-63478782D02*
X175936038Y-63193067D01*
X175936038Y-63193067D02*
X175936038Y-63002591D01*
X175936038Y-63002591D02*
X176031276Y-62716877D01*
X176031276Y-62716877D02*
X176126514Y-62621639D01*
X176888419Y-61764496D02*
X176888419Y-61097829D01*
X177936038Y-60812115D02*
X177936038Y-61764496D01*
X177936038Y-61764496D02*
X175936038Y-61764496D01*
X175936038Y-61764496D02*
X175936038Y-60812115D01*
X177936038Y-58812115D02*
X176983657Y-59478782D01*
X177936038Y-59954972D02*
X175936038Y-59954972D01*
X175936038Y-59954972D02*
X175936038Y-59193067D01*
X175936038Y-59193067D02*
X176031276Y-59002591D01*
X176031276Y-59002591D02*
X176126514Y-58907353D01*
X176126514Y-58907353D02*
X176316990Y-58812115D01*
X176316990Y-58812115D02*
X176602704Y-58812115D01*
X176602704Y-58812115D02*
X176793180Y-58907353D01*
X176793180Y-58907353D02*
X176888419Y-59002591D01*
X176888419Y-59002591D02*
X176983657Y-59193067D01*
X176983657Y-59193067D02*
X176983657Y-59954972D01*
X177174133Y-57954972D02*
X177174133Y-56431163D01*
X177936038Y-54431163D02*
X177936038Y-55574020D01*
X177936038Y-55002592D02*
X175936038Y-55002592D01*
X175936038Y-55002592D02*
X176221752Y-55193068D01*
X176221752Y-55193068D02*
X176412228Y-55383544D01*
X176412228Y-55383544D02*
X176507466Y-55574020D01*
X139913598Y-26474419D02*
X139913598Y-27188704D01*
X139913598Y-27188704D02*
X139865979Y-27331561D01*
X139865979Y-27331561D02*
X139770741Y-27426800D01*
X139770741Y-27426800D02*
X139627884Y-27474419D01*
X139627884Y-27474419D02*
X139532646Y-27474419D01*
X140865979Y-27474419D02*
X140389789Y-27474419D01*
X140389789Y-27474419D02*
X140389789Y-26474419D01*
X141770741Y-27379180D02*
X141723122Y-27426800D01*
X141723122Y-27426800D02*
X141580265Y-27474419D01*
X141580265Y-27474419D02*
X141485027Y-27474419D01*
X141485027Y-27474419D02*
X141342170Y-27426800D01*
X141342170Y-27426800D02*
X141246932Y-27331561D01*
X141246932Y-27331561D02*
X141199313Y-27236323D01*
X141199313Y-27236323D02*
X141151694Y-27045847D01*
X141151694Y-27045847D02*
X141151694Y-26902990D01*
X141151694Y-26902990D02*
X141199313Y-26712514D01*
X141199313Y-26712514D02*
X141246932Y-26617276D01*
X141246932Y-26617276D02*
X141342170Y-26522038D01*
X141342170Y-26522038D02*
X141485027Y-26474419D01*
X141485027Y-26474419D02*
X141580265Y-26474419D01*
X141580265Y-26474419D02*
X141723122Y-26522038D01*
X141723122Y-26522038D02*
X141770741Y-26569657D01*
X142485027Y-26474419D02*
X142485027Y-27188704D01*
X142485027Y-27188704D02*
X142437408Y-27331561D01*
X142437408Y-27331561D02*
X142342170Y-27426800D01*
X142342170Y-27426800D02*
X142199313Y-27474419D01*
X142199313Y-27474419D02*
X142104075Y-27474419D01*
X143437408Y-27474419D02*
X142961218Y-27474419D01*
X142961218Y-27474419D02*
X142961218Y-26474419D01*
X144342170Y-27379180D02*
X144294551Y-27426800D01*
X144294551Y-27426800D02*
X144151694Y-27474419D01*
X144151694Y-27474419D02*
X144056456Y-27474419D01*
X144056456Y-27474419D02*
X143913599Y-27426800D01*
X143913599Y-27426800D02*
X143818361Y-27331561D01*
X143818361Y-27331561D02*
X143770742Y-27236323D01*
X143770742Y-27236323D02*
X143723123Y-27045847D01*
X143723123Y-27045847D02*
X143723123Y-26902990D01*
X143723123Y-26902990D02*
X143770742Y-26712514D01*
X143770742Y-26712514D02*
X143818361Y-26617276D01*
X143818361Y-26617276D02*
X143913599Y-26522038D01*
X143913599Y-26522038D02*
X144056456Y-26474419D01*
X144056456Y-26474419D02*
X144151694Y-26474419D01*
X144151694Y-26474419D02*
X144294551Y-26522038D01*
X144294551Y-26522038D02*
X144342170Y-26569657D01*
X145056456Y-26474419D02*
X145056456Y-27188704D01*
X145056456Y-27188704D02*
X145008837Y-27331561D01*
X145008837Y-27331561D02*
X144913599Y-27426800D01*
X144913599Y-27426800D02*
X144770742Y-27474419D01*
X144770742Y-27474419D02*
X144675504Y-27474419D01*
X146008837Y-27474419D02*
X145532647Y-27474419D01*
X145532647Y-27474419D02*
X145532647Y-26474419D01*
X146913599Y-27379180D02*
X146865980Y-27426800D01*
X146865980Y-27426800D02*
X146723123Y-27474419D01*
X146723123Y-27474419D02*
X146627885Y-27474419D01*
X146627885Y-27474419D02*
X146485028Y-27426800D01*
X146485028Y-27426800D02*
X146389790Y-27331561D01*
X146389790Y-27331561D02*
X146342171Y-27236323D01*
X146342171Y-27236323D02*
X146294552Y-27045847D01*
X146294552Y-27045847D02*
X146294552Y-26902990D01*
X146294552Y-26902990D02*
X146342171Y-26712514D01*
X146342171Y-26712514D02*
X146389790Y-26617276D01*
X146389790Y-26617276D02*
X146485028Y-26522038D01*
X146485028Y-26522038D02*
X146627885Y-26474419D01*
X146627885Y-26474419D02*
X146723123Y-26474419D01*
X146723123Y-26474419D02*
X146865980Y-26522038D01*
X146865980Y-26522038D02*
X146913599Y-26569657D01*
X147627885Y-26474419D02*
X147627885Y-27188704D01*
X147627885Y-27188704D02*
X147580266Y-27331561D01*
X147580266Y-27331561D02*
X147485028Y-27426800D01*
X147485028Y-27426800D02*
X147342171Y-27474419D01*
X147342171Y-27474419D02*
X147246933Y-27474419D01*
X148580266Y-27474419D02*
X148104076Y-27474419D01*
X148104076Y-27474419D02*
X148104076Y-26474419D01*
X149485028Y-27379180D02*
X149437409Y-27426800D01*
X149437409Y-27426800D02*
X149294552Y-27474419D01*
X149294552Y-27474419D02*
X149199314Y-27474419D01*
X149199314Y-27474419D02*
X149056457Y-27426800D01*
X149056457Y-27426800D02*
X148961219Y-27331561D01*
X148961219Y-27331561D02*
X148913600Y-27236323D01*
X148913600Y-27236323D02*
X148865981Y-27045847D01*
X148865981Y-27045847D02*
X148865981Y-26902990D01*
X148865981Y-26902990D02*
X148913600Y-26712514D01*
X148913600Y-26712514D02*
X148961219Y-26617276D01*
X148961219Y-26617276D02*
X149056457Y-26522038D01*
X149056457Y-26522038D02*
X149199314Y-26474419D01*
X149199314Y-26474419D02*
X149294552Y-26474419D01*
X149294552Y-26474419D02*
X149437409Y-26522038D01*
X149437409Y-26522038D02*
X149485028Y-26569657D01*
D11*
X81032796Y-88844685D02*
X81032796Y-86444685D01*
X81032796Y-86444685D02*
X81832796Y-88158971D01*
X81832796Y-88158971D02*
X82632796Y-86444685D01*
X82632796Y-86444685D02*
X82632796Y-88844685D01*
X84232796Y-86444685D02*
X84689939Y-86444685D01*
X84689939Y-86444685D02*
X84918510Y-86558971D01*
X84918510Y-86558971D02*
X85147082Y-86787542D01*
X85147082Y-86787542D02*
X85261367Y-87244685D01*
X85261367Y-87244685D02*
X85261367Y-88044685D01*
X85261367Y-88044685D02*
X85147082Y-88501828D01*
X85147082Y-88501828D02*
X84918510Y-88730400D01*
X84918510Y-88730400D02*
X84689939Y-88844685D01*
X84689939Y-88844685D02*
X84232796Y-88844685D01*
X84232796Y-88844685D02*
X84004225Y-88730400D01*
X84004225Y-88730400D02*
X83775653Y-88501828D01*
X83775653Y-88501828D02*
X83661367Y-88044685D01*
X83661367Y-88044685D02*
X83661367Y-87244685D01*
X83661367Y-87244685D02*
X83775653Y-86787542D01*
X83775653Y-86787542D02*
X84004225Y-86558971D01*
X84004225Y-86558971D02*
X84232796Y-86444685D01*
X86289939Y-88844685D02*
X86289939Y-86444685D01*
X86289939Y-86444685D02*
X86861368Y-86444685D01*
X86861368Y-86444685D02*
X87204225Y-86558971D01*
X87204225Y-86558971D02*
X87432796Y-86787542D01*
X87432796Y-86787542D02*
X87547082Y-87016114D01*
X87547082Y-87016114D02*
X87661368Y-87473257D01*
X87661368Y-87473257D02*
X87661368Y-87816114D01*
X87661368Y-87816114D02*
X87547082Y-88273257D01*
X87547082Y-88273257D02*
X87432796Y-88501828D01*
X87432796Y-88501828D02*
X87204225Y-88730400D01*
X87204225Y-88730400D02*
X86861368Y-88844685D01*
X86861368Y-88844685D02*
X86289939Y-88844685D01*
X88689939Y-87587542D02*
X89489939Y-87587542D01*
X89832796Y-88844685D02*
X88689939Y-88844685D01*
X88689939Y-88844685D02*
X88689939Y-86444685D01*
X88689939Y-86444685D02*
X89832796Y-86444685D01*
X81032796Y-73762685D02*
X82861368Y-74448400D01*
X82861368Y-74448400D02*
X81032796Y-75134114D01*
X83889939Y-75248400D02*
X84232797Y-75362685D01*
X84232797Y-75362685D02*
X84804225Y-75362685D01*
X84804225Y-75362685D02*
X85032797Y-75248400D01*
X85032797Y-75248400D02*
X85147082Y-75134114D01*
X85147082Y-75134114D02*
X85261368Y-74905542D01*
X85261368Y-74905542D02*
X85261368Y-74676971D01*
X85261368Y-74676971D02*
X85147082Y-74448400D01*
X85147082Y-74448400D02*
X85032797Y-74334114D01*
X85032797Y-74334114D02*
X84804225Y-74219828D01*
X84804225Y-74219828D02*
X84347082Y-74105542D01*
X84347082Y-74105542D02*
X84118511Y-73991257D01*
X84118511Y-73991257D02*
X84004225Y-73876971D01*
X84004225Y-73876971D02*
X83889939Y-73648400D01*
X83889939Y-73648400D02*
X83889939Y-73419828D01*
X83889939Y-73419828D02*
X84004225Y-73191257D01*
X84004225Y-73191257D02*
X84118511Y-73076971D01*
X84118511Y-73076971D02*
X84347082Y-72962685D01*
X84347082Y-72962685D02*
X84918511Y-72962685D01*
X84918511Y-72962685D02*
X85261368Y-73076971D01*
X86747082Y-74219828D02*
X86747082Y-75362685D01*
X85947082Y-72962685D02*
X86747082Y-74219828D01*
X86747082Y-74219828D02*
X87547082Y-72962685D01*
X88347082Y-75362685D02*
X88347082Y-72962685D01*
X88347082Y-72962685D02*
X89718511Y-75362685D01*
X89718511Y-75362685D02*
X89718511Y-72962685D01*
X92232797Y-75134114D02*
X92118511Y-75248400D01*
X92118511Y-75248400D02*
X91775654Y-75362685D01*
X91775654Y-75362685D02*
X91547082Y-75362685D01*
X91547082Y-75362685D02*
X91204225Y-75248400D01*
X91204225Y-75248400D02*
X90975654Y-75019828D01*
X90975654Y-75019828D02*
X90861368Y-74791257D01*
X90861368Y-74791257D02*
X90747082Y-74334114D01*
X90747082Y-74334114D02*
X90747082Y-73991257D01*
X90747082Y-73991257D02*
X90861368Y-73534114D01*
X90861368Y-73534114D02*
X90975654Y-73305542D01*
X90975654Y-73305542D02*
X91204225Y-73076971D01*
X91204225Y-73076971D02*
X91547082Y-72962685D01*
X91547082Y-72962685D02*
X91775654Y-72962685D01*
X91775654Y-72962685D02*
X92118511Y-73076971D01*
X92118511Y-73076971D02*
X92232797Y-73191257D01*
X82861368Y-62762685D02*
X81032796Y-63448400D01*
X81032796Y-63448400D02*
X82861368Y-64134114D01*
X83889939Y-64248400D02*
X84232797Y-64362685D01*
X84232797Y-64362685D02*
X84804225Y-64362685D01*
X84804225Y-64362685D02*
X85032797Y-64248400D01*
X85032797Y-64248400D02*
X85147082Y-64134114D01*
X85147082Y-64134114D02*
X85261368Y-63905542D01*
X85261368Y-63905542D02*
X85261368Y-63676971D01*
X85261368Y-63676971D02*
X85147082Y-63448400D01*
X85147082Y-63448400D02*
X85032797Y-63334114D01*
X85032797Y-63334114D02*
X84804225Y-63219828D01*
X84804225Y-63219828D02*
X84347082Y-63105542D01*
X84347082Y-63105542D02*
X84118511Y-62991257D01*
X84118511Y-62991257D02*
X84004225Y-62876971D01*
X84004225Y-62876971D02*
X83889939Y-62648400D01*
X83889939Y-62648400D02*
X83889939Y-62419828D01*
X83889939Y-62419828D02*
X84004225Y-62191257D01*
X84004225Y-62191257D02*
X84118511Y-62076971D01*
X84118511Y-62076971D02*
X84347082Y-61962685D01*
X84347082Y-61962685D02*
X84918511Y-61962685D01*
X84918511Y-61962685D02*
X85261368Y-62076971D01*
X86747082Y-63219828D02*
X86747082Y-64362685D01*
X85947082Y-61962685D02*
X86747082Y-63219828D01*
X86747082Y-63219828D02*
X87547082Y-61962685D01*
X88347082Y-64362685D02*
X88347082Y-61962685D01*
X88347082Y-61962685D02*
X89718511Y-64362685D01*
X89718511Y-64362685D02*
X89718511Y-61962685D01*
X92232797Y-64134114D02*
X92118511Y-64248400D01*
X92118511Y-64248400D02*
X91775654Y-64362685D01*
X91775654Y-64362685D02*
X91547082Y-64362685D01*
X91547082Y-64362685D02*
X91204225Y-64248400D01*
X91204225Y-64248400D02*
X90975654Y-64019828D01*
X90975654Y-64019828D02*
X90861368Y-63791257D01*
X90861368Y-63791257D02*
X90747082Y-63334114D01*
X90747082Y-63334114D02*
X90747082Y-62991257D01*
X90747082Y-62991257D02*
X90861368Y-62534114D01*
X90861368Y-62534114D02*
X90975654Y-62305542D01*
X90975654Y-62305542D02*
X91204225Y-62076971D01*
X91204225Y-62076971D02*
X91547082Y-61962685D01*
X91547082Y-61962685D02*
X91775654Y-61962685D01*
X91775654Y-61962685D02*
X92118511Y-62076971D01*
X92118511Y-62076971D02*
X92232797Y-62191257D01*
X82861368Y-51762685D02*
X81032796Y-52448400D01*
X81032796Y-52448400D02*
X82861368Y-53134114D01*
X85261368Y-51076971D02*
X85032797Y-50962685D01*
X85032797Y-50962685D02*
X84689939Y-50962685D01*
X84689939Y-50962685D02*
X84347082Y-51076971D01*
X84347082Y-51076971D02*
X84118511Y-51305542D01*
X84118511Y-51305542D02*
X84004225Y-51534114D01*
X84004225Y-51534114D02*
X83889939Y-51991257D01*
X83889939Y-51991257D02*
X83889939Y-52334114D01*
X83889939Y-52334114D02*
X84004225Y-52791257D01*
X84004225Y-52791257D02*
X84118511Y-53019828D01*
X84118511Y-53019828D02*
X84347082Y-53248400D01*
X84347082Y-53248400D02*
X84689939Y-53362685D01*
X84689939Y-53362685D02*
X84918511Y-53362685D01*
X84918511Y-53362685D02*
X85261368Y-53248400D01*
X85261368Y-53248400D02*
X85375654Y-53134114D01*
X85375654Y-53134114D02*
X85375654Y-52334114D01*
X85375654Y-52334114D02*
X84918511Y-52334114D01*
X86289939Y-52676971D02*
X87432797Y-52676971D01*
X86061368Y-53362685D02*
X86861368Y-50962685D01*
X86861368Y-50962685D02*
X87661368Y-53362685D01*
X88118511Y-50962685D02*
X89489940Y-50962685D01*
X88804225Y-53362685D02*
X88804225Y-50962685D01*
X90289939Y-52105542D02*
X91089939Y-52105542D01*
X91432796Y-53362685D02*
X90289939Y-53362685D01*
X90289939Y-53362685D02*
X90289939Y-50962685D01*
X90289939Y-50962685D02*
X91432796Y-50962685D01*
X82861368Y-40762685D02*
X81032796Y-41448400D01*
X81032796Y-41448400D02*
X82861368Y-42134114D01*
X85375654Y-42134114D02*
X85261368Y-42248400D01*
X85261368Y-42248400D02*
X84918511Y-42362685D01*
X84918511Y-42362685D02*
X84689939Y-42362685D01*
X84689939Y-42362685D02*
X84347082Y-42248400D01*
X84347082Y-42248400D02*
X84118511Y-42019828D01*
X84118511Y-42019828D02*
X84004225Y-41791257D01*
X84004225Y-41791257D02*
X83889939Y-41334114D01*
X83889939Y-41334114D02*
X83889939Y-40991257D01*
X83889939Y-40991257D02*
X84004225Y-40534114D01*
X84004225Y-40534114D02*
X84118511Y-40305542D01*
X84118511Y-40305542D02*
X84347082Y-40076971D01*
X84347082Y-40076971D02*
X84689939Y-39962685D01*
X84689939Y-39962685D02*
X84918511Y-39962685D01*
X84918511Y-39962685D02*
X85261368Y-40076971D01*
X85261368Y-40076971D02*
X85375654Y-40191257D01*
X86061368Y-39962685D02*
X86861368Y-42362685D01*
X86861368Y-42362685D02*
X87661368Y-39962685D01*
D12*
X125702819Y-70738904D02*
X126512342Y-70738904D01*
X126512342Y-70738904D02*
X126607580Y-70691285D01*
X126607580Y-70691285D02*
X126655200Y-70643666D01*
X126655200Y-70643666D02*
X126702819Y-70548428D01*
X126702819Y-70548428D02*
X126702819Y-70357952D01*
X126702819Y-70357952D02*
X126655200Y-70262714D01*
X126655200Y-70262714D02*
X126607580Y-70215095D01*
X126607580Y-70215095D02*
X126512342Y-70167476D01*
X126512342Y-70167476D02*
X125702819Y-70167476D01*
X125702819Y-69786523D02*
X125702819Y-69167476D01*
X125702819Y-69167476D02*
X126083771Y-69500809D01*
X126083771Y-69500809D02*
X126083771Y-69357952D01*
X126083771Y-69357952D02*
X126131390Y-69262714D01*
X126131390Y-69262714D02*
X126179009Y-69215095D01*
X126179009Y-69215095D02*
X126274247Y-69167476D01*
X126274247Y-69167476D02*
X126512342Y-69167476D01*
X126512342Y-69167476D02*
X126607580Y-69215095D01*
X126607580Y-69215095D02*
X126655200Y-69262714D01*
X126655200Y-69262714D02*
X126702819Y-69357952D01*
X126702819Y-69357952D02*
X126702819Y-69643666D01*
X126702819Y-69643666D02*
X126655200Y-69738904D01*
X126655200Y-69738904D02*
X126607580Y-69786523D01*
X142864819Y-52839857D02*
X142388628Y-53173190D01*
X142864819Y-53411285D02*
X141864819Y-53411285D01*
X141864819Y-53411285D02*
X141864819Y-53030333D01*
X141864819Y-53030333D02*
X141912438Y-52935095D01*
X141912438Y-52935095D02*
X141960057Y-52887476D01*
X141960057Y-52887476D02*
X142055295Y-52839857D01*
X142055295Y-52839857D02*
X142198152Y-52839857D01*
X142198152Y-52839857D02*
X142293390Y-52887476D01*
X142293390Y-52887476D02*
X142341009Y-52935095D01*
X142341009Y-52935095D02*
X142388628Y-53030333D01*
X142388628Y-53030333D02*
X142388628Y-53411285D01*
X141960057Y-52458904D02*
X141912438Y-52411285D01*
X141912438Y-52411285D02*
X141864819Y-52316047D01*
X141864819Y-52316047D02*
X141864819Y-52077952D01*
X141864819Y-52077952D02*
X141912438Y-51982714D01*
X141912438Y-51982714D02*
X141960057Y-51935095D01*
X141960057Y-51935095D02*
X142055295Y-51887476D01*
X142055295Y-51887476D02*
X142150533Y-51887476D01*
X142150533Y-51887476D02*
X142293390Y-51935095D01*
X142293390Y-51935095D02*
X142864819Y-52506523D01*
X142864819Y-52506523D02*
X142864819Y-51887476D01*
X141864819Y-51268428D02*
X141864819Y-51173190D01*
X141864819Y-51173190D02*
X141912438Y-51077952D01*
X141912438Y-51077952D02*
X141960057Y-51030333D01*
X141960057Y-51030333D02*
X142055295Y-50982714D01*
X142055295Y-50982714D02*
X142245771Y-50935095D01*
X142245771Y-50935095D02*
X142483866Y-50935095D01*
X142483866Y-50935095D02*
X142674342Y-50982714D01*
X142674342Y-50982714D02*
X142769580Y-51030333D01*
X142769580Y-51030333D02*
X142817200Y-51077952D01*
X142817200Y-51077952D02*
X142864819Y-51173190D01*
X142864819Y-51173190D02*
X142864819Y-51268428D01*
X142864819Y-51268428D02*
X142817200Y-51363666D01*
X142817200Y-51363666D02*
X142769580Y-51411285D01*
X142769580Y-51411285D02*
X142674342Y-51458904D01*
X142674342Y-51458904D02*
X142483866Y-51506523D01*
X142483866Y-51506523D02*
X142245771Y-51506523D01*
X142245771Y-51506523D02*
X142055295Y-51458904D01*
X142055295Y-51458904D02*
X141960057Y-51411285D01*
X141960057Y-51411285D02*
X141912438Y-51363666D01*
X141912438Y-51363666D02*
X141864819Y-51268428D01*
X150700819Y-52839857D02*
X150224628Y-53173190D01*
X150700819Y-53411285D02*
X149700819Y-53411285D01*
X149700819Y-53411285D02*
X149700819Y-53030333D01*
X149700819Y-53030333D02*
X149748438Y-52935095D01*
X149748438Y-52935095D02*
X149796057Y-52887476D01*
X149796057Y-52887476D02*
X149891295Y-52839857D01*
X149891295Y-52839857D02*
X150034152Y-52839857D01*
X150034152Y-52839857D02*
X150129390Y-52887476D01*
X150129390Y-52887476D02*
X150177009Y-52935095D01*
X150177009Y-52935095D02*
X150224628Y-53030333D01*
X150224628Y-53030333D02*
X150224628Y-53411285D01*
X150700819Y-51887476D02*
X150700819Y-52458904D01*
X150700819Y-52173190D02*
X149700819Y-52173190D01*
X149700819Y-52173190D02*
X149843676Y-52268428D01*
X149843676Y-52268428D02*
X149938914Y-52363666D01*
X149938914Y-52363666D02*
X149986533Y-52458904D01*
X150700819Y-51411285D02*
X150700819Y-51220809D01*
X150700819Y-51220809D02*
X150653200Y-51125571D01*
X150653200Y-51125571D02*
X150605580Y-51077952D01*
X150605580Y-51077952D02*
X150462723Y-50982714D01*
X150462723Y-50982714D02*
X150272247Y-50935095D01*
X150272247Y-50935095D02*
X149891295Y-50935095D01*
X149891295Y-50935095D02*
X149796057Y-50982714D01*
X149796057Y-50982714D02*
X149748438Y-51030333D01*
X149748438Y-51030333D02*
X149700819Y-51125571D01*
X149700819Y-51125571D02*
X149700819Y-51316047D01*
X149700819Y-51316047D02*
X149748438Y-51411285D01*
X149748438Y-51411285D02*
X149796057Y-51458904D01*
X149796057Y-51458904D02*
X149891295Y-51506523D01*
X149891295Y-51506523D02*
X150129390Y-51506523D01*
X150129390Y-51506523D02*
X150224628Y-51458904D01*
X150224628Y-51458904D02*
X150272247Y-51411285D01*
X150272247Y-51411285D02*
X150319866Y-51316047D01*
X150319866Y-51316047D02*
X150319866Y-51125571D01*
X150319866Y-51125571D02*
X150272247Y-51030333D01*
X150272247Y-51030333D02*
X150224628Y-50982714D01*
X150224628Y-50982714D02*
X150129390Y-50935095D01*
X135582819Y-77049238D02*
X135106628Y-77382571D01*
X135582819Y-77620666D02*
X134582819Y-77620666D01*
X134582819Y-77620666D02*
X134582819Y-77239714D01*
X134582819Y-77239714D02*
X134630438Y-77144476D01*
X134630438Y-77144476D02*
X134678057Y-77096857D01*
X134678057Y-77096857D02*
X134773295Y-77049238D01*
X134773295Y-77049238D02*
X134916152Y-77049238D01*
X134916152Y-77049238D02*
X135011390Y-77096857D01*
X135011390Y-77096857D02*
X135059009Y-77144476D01*
X135059009Y-77144476D02*
X135106628Y-77239714D01*
X135106628Y-77239714D02*
X135106628Y-77620666D01*
X134582819Y-76763523D02*
X135582819Y-76430190D01*
X135582819Y-76430190D02*
X134582819Y-76096857D01*
X134582819Y-75287333D02*
X134582819Y-75763523D01*
X134582819Y-75763523D02*
X135059009Y-75811142D01*
X135059009Y-75811142D02*
X135011390Y-75763523D01*
X135011390Y-75763523D02*
X134963771Y-75668285D01*
X134963771Y-75668285D02*
X134963771Y-75430190D01*
X134963771Y-75430190D02*
X135011390Y-75334952D01*
X135011390Y-75334952D02*
X135059009Y-75287333D01*
X135059009Y-75287333D02*
X135154247Y-75239714D01*
X135154247Y-75239714D02*
X135392342Y-75239714D01*
X135392342Y-75239714D02*
X135487580Y-75287333D01*
X135487580Y-75287333D02*
X135535200Y-75334952D01*
X135535200Y-75334952D02*
X135582819Y-75430190D01*
X135582819Y-75430190D02*
X135582819Y-75668285D01*
X135582819Y-75668285D02*
X135535200Y-75763523D01*
X135535200Y-75763523D02*
X135487580Y-75811142D01*
X167078819Y-90765238D02*
X166602628Y-91098571D01*
X167078819Y-91336666D02*
X166078819Y-91336666D01*
X166078819Y-91336666D02*
X166078819Y-90955714D01*
X166078819Y-90955714D02*
X166126438Y-90860476D01*
X166126438Y-90860476D02*
X166174057Y-90812857D01*
X166174057Y-90812857D02*
X166269295Y-90765238D01*
X166269295Y-90765238D02*
X166412152Y-90765238D01*
X166412152Y-90765238D02*
X166507390Y-90812857D01*
X166507390Y-90812857D02*
X166555009Y-90860476D01*
X166555009Y-90860476D02*
X166602628Y-90955714D01*
X166602628Y-90955714D02*
X166602628Y-91336666D01*
X166078819Y-90479523D02*
X167078819Y-90146190D01*
X167078819Y-90146190D02*
X166078819Y-89812857D01*
X166507390Y-89336666D02*
X166459771Y-89431904D01*
X166459771Y-89431904D02*
X166412152Y-89479523D01*
X166412152Y-89479523D02*
X166316914Y-89527142D01*
X166316914Y-89527142D02*
X166269295Y-89527142D01*
X166269295Y-89527142D02*
X166174057Y-89479523D01*
X166174057Y-89479523D02*
X166126438Y-89431904D01*
X166126438Y-89431904D02*
X166078819Y-89336666D01*
X166078819Y-89336666D02*
X166078819Y-89146190D01*
X166078819Y-89146190D02*
X166126438Y-89050952D01*
X166126438Y-89050952D02*
X166174057Y-89003333D01*
X166174057Y-89003333D02*
X166269295Y-88955714D01*
X166269295Y-88955714D02*
X166316914Y-88955714D01*
X166316914Y-88955714D02*
X166412152Y-89003333D01*
X166412152Y-89003333D02*
X166459771Y-89050952D01*
X166459771Y-89050952D02*
X166507390Y-89146190D01*
X166507390Y-89146190D02*
X166507390Y-89336666D01*
X166507390Y-89336666D02*
X166555009Y-89431904D01*
X166555009Y-89431904D02*
X166602628Y-89479523D01*
X166602628Y-89479523D02*
X166697866Y-89527142D01*
X166697866Y-89527142D02*
X166888342Y-89527142D01*
X166888342Y-89527142D02*
X166983580Y-89479523D01*
X166983580Y-89479523D02*
X167031200Y-89431904D01*
X167031200Y-89431904D02*
X167078819Y-89336666D01*
X167078819Y-89336666D02*
X167078819Y-89146190D01*
X167078819Y-89146190D02*
X167031200Y-89050952D01*
X167031200Y-89050952D02*
X166983580Y-89003333D01*
X166983580Y-89003333D02*
X166888342Y-88955714D01*
X166888342Y-88955714D02*
X166697866Y-88955714D01*
X166697866Y-88955714D02*
X166602628Y-89003333D01*
X166602628Y-89003333D02*
X166555009Y-89050952D01*
X166555009Y-89050952D02*
X166507390Y-89146190D01*
X161798095Y-68288819D02*
X161798095Y-69098342D01*
X161798095Y-69098342D02*
X161845714Y-69193580D01*
X161845714Y-69193580D02*
X161893333Y-69241200D01*
X161893333Y-69241200D02*
X161988571Y-69288819D01*
X161988571Y-69288819D02*
X162179047Y-69288819D01*
X162179047Y-69288819D02*
X162274285Y-69241200D01*
X162274285Y-69241200D02*
X162321904Y-69193580D01*
X162321904Y-69193580D02*
X162369523Y-69098342D01*
X162369523Y-69098342D02*
X162369523Y-68288819D01*
X162798095Y-68384057D02*
X162845714Y-68336438D01*
X162845714Y-68336438D02*
X162940952Y-68288819D01*
X162940952Y-68288819D02*
X163179047Y-68288819D01*
X163179047Y-68288819D02*
X163274285Y-68336438D01*
X163274285Y-68336438D02*
X163321904Y-68384057D01*
X163321904Y-68384057D02*
X163369523Y-68479295D01*
X163369523Y-68479295D02*
X163369523Y-68574533D01*
X163369523Y-68574533D02*
X163321904Y-68717390D01*
X163321904Y-68717390D02*
X162750476Y-69288819D01*
X162750476Y-69288819D02*
X163369523Y-69288819D01*
X94353142Y-69542819D02*
X94019809Y-69066628D01*
X93781714Y-69542819D02*
X93781714Y-68542819D01*
X93781714Y-68542819D02*
X94162666Y-68542819D01*
X94162666Y-68542819D02*
X94257904Y-68590438D01*
X94257904Y-68590438D02*
X94305523Y-68638057D01*
X94305523Y-68638057D02*
X94353142Y-68733295D01*
X94353142Y-68733295D02*
X94353142Y-68876152D01*
X94353142Y-68876152D02*
X94305523Y-68971390D01*
X94305523Y-68971390D02*
X94257904Y-69019009D01*
X94257904Y-69019009D02*
X94162666Y-69066628D01*
X94162666Y-69066628D02*
X93781714Y-69066628D01*
X95305523Y-69542819D02*
X94734095Y-69542819D01*
X95019809Y-69542819D02*
X95019809Y-68542819D01*
X95019809Y-68542819D02*
X94924571Y-68685676D01*
X94924571Y-68685676D02*
X94829333Y-68780914D01*
X94829333Y-68780914D02*
X94734095Y-68828533D01*
X95638857Y-68542819D02*
X96305523Y-68542819D01*
X96305523Y-68542819D02*
X95876952Y-69542819D01*
X98099714Y-32966819D02*
X98099714Y-31966819D01*
X98099714Y-31966819D02*
X98337809Y-31966819D01*
X98337809Y-31966819D02*
X98480666Y-32014438D01*
X98480666Y-32014438D02*
X98575904Y-32109676D01*
X98575904Y-32109676D02*
X98623523Y-32204914D01*
X98623523Y-32204914D02*
X98671142Y-32395390D01*
X98671142Y-32395390D02*
X98671142Y-32538247D01*
X98671142Y-32538247D02*
X98623523Y-32728723D01*
X98623523Y-32728723D02*
X98575904Y-32823961D01*
X98575904Y-32823961D02*
X98480666Y-32919200D01*
X98480666Y-32919200D02*
X98337809Y-32966819D01*
X98337809Y-32966819D02*
X98099714Y-32966819D01*
X99623523Y-32966819D02*
X99052095Y-32966819D01*
X99337809Y-32966819D02*
X99337809Y-31966819D01*
X99337809Y-31966819D02*
X99242571Y-32109676D01*
X99242571Y-32109676D02*
X99147333Y-32204914D01*
X99147333Y-32204914D02*
X99052095Y-32252533D01*
X100242571Y-31966819D02*
X100337809Y-31966819D01*
X100337809Y-31966819D02*
X100433047Y-32014438D01*
X100433047Y-32014438D02*
X100480666Y-32062057D01*
X100480666Y-32062057D02*
X100528285Y-32157295D01*
X100528285Y-32157295D02*
X100575904Y-32347771D01*
X100575904Y-32347771D02*
X100575904Y-32585866D01*
X100575904Y-32585866D02*
X100528285Y-32776342D01*
X100528285Y-32776342D02*
X100480666Y-32871580D01*
X100480666Y-32871580D02*
X100433047Y-32919200D01*
X100433047Y-32919200D02*
X100337809Y-32966819D01*
X100337809Y-32966819D02*
X100242571Y-32966819D01*
X100242571Y-32966819D02*
X100147333Y-32919200D01*
X100147333Y-32919200D02*
X100099714Y-32871580D01*
X100099714Y-32871580D02*
X100052095Y-32776342D01*
X100052095Y-32776342D02*
X100004476Y-32585866D01*
X100004476Y-32585866D02*
X100004476Y-32347771D01*
X100004476Y-32347771D02*
X100052095Y-32157295D01*
X100052095Y-32157295D02*
X100099714Y-32062057D01*
X100099714Y-32062057D02*
X100147333Y-32014438D01*
X100147333Y-32014438D02*
X100242571Y-31966819D01*
X102354095Y-32204819D02*
X102354095Y-31204819D01*
X102925523Y-32204819D02*
X102496952Y-31633390D01*
X102925523Y-31204819D02*
X102354095Y-31776247D01*
X94829333Y-68010819D02*
X94496000Y-67534628D01*
X94257905Y-68010819D02*
X94257905Y-67010819D01*
X94257905Y-67010819D02*
X94638857Y-67010819D01*
X94638857Y-67010819D02*
X94734095Y-67058438D01*
X94734095Y-67058438D02*
X94781714Y-67106057D01*
X94781714Y-67106057D02*
X94829333Y-67201295D01*
X94829333Y-67201295D02*
X94829333Y-67344152D01*
X94829333Y-67344152D02*
X94781714Y-67439390D01*
X94781714Y-67439390D02*
X94734095Y-67487009D01*
X94734095Y-67487009D02*
X94638857Y-67534628D01*
X94638857Y-67534628D02*
X94257905Y-67534628D01*
X95400762Y-67439390D02*
X95305524Y-67391771D01*
X95305524Y-67391771D02*
X95257905Y-67344152D01*
X95257905Y-67344152D02*
X95210286Y-67248914D01*
X95210286Y-67248914D02*
X95210286Y-67201295D01*
X95210286Y-67201295D02*
X95257905Y-67106057D01*
X95257905Y-67106057D02*
X95305524Y-67058438D01*
X95305524Y-67058438D02*
X95400762Y-67010819D01*
X95400762Y-67010819D02*
X95591238Y-67010819D01*
X95591238Y-67010819D02*
X95686476Y-67058438D01*
X95686476Y-67058438D02*
X95734095Y-67106057D01*
X95734095Y-67106057D02*
X95781714Y-67201295D01*
X95781714Y-67201295D02*
X95781714Y-67248914D01*
X95781714Y-67248914D02*
X95734095Y-67344152D01*
X95734095Y-67344152D02*
X95686476Y-67391771D01*
X95686476Y-67391771D02*
X95591238Y-67439390D01*
X95591238Y-67439390D02*
X95400762Y-67439390D01*
X95400762Y-67439390D02*
X95305524Y-67487009D01*
X95305524Y-67487009D02*
X95257905Y-67534628D01*
X95257905Y-67534628D02*
X95210286Y-67629866D01*
X95210286Y-67629866D02*
X95210286Y-67820342D01*
X95210286Y-67820342D02*
X95257905Y-67915580D01*
X95257905Y-67915580D02*
X95305524Y-67963200D01*
X95305524Y-67963200D02*
X95400762Y-68010819D01*
X95400762Y-68010819D02*
X95591238Y-68010819D01*
X95591238Y-68010819D02*
X95686476Y-67963200D01*
X95686476Y-67963200D02*
X95734095Y-67915580D01*
X95734095Y-67915580D02*
X95781714Y-67820342D01*
X95781714Y-67820342D02*
X95781714Y-67629866D01*
X95781714Y-67629866D02*
X95734095Y-67534628D01*
X95734095Y-67534628D02*
X95686476Y-67487009D01*
X95686476Y-67487009D02*
X95591238Y-67439390D01*
X101687333Y-42356819D02*
X101354000Y-41880628D01*
X101115905Y-42356819D02*
X101115905Y-41356819D01*
X101115905Y-41356819D02*
X101496857Y-41356819D01*
X101496857Y-41356819D02*
X101592095Y-41404438D01*
X101592095Y-41404438D02*
X101639714Y-41452057D01*
X101639714Y-41452057D02*
X101687333Y-41547295D01*
X101687333Y-41547295D02*
X101687333Y-41690152D01*
X101687333Y-41690152D02*
X101639714Y-41785390D01*
X101639714Y-41785390D02*
X101592095Y-41833009D01*
X101592095Y-41833009D02*
X101496857Y-41880628D01*
X101496857Y-41880628D02*
X101115905Y-41880628D01*
X102592095Y-41356819D02*
X102115905Y-41356819D01*
X102115905Y-41356819D02*
X102068286Y-41833009D01*
X102068286Y-41833009D02*
X102115905Y-41785390D01*
X102115905Y-41785390D02*
X102211143Y-41737771D01*
X102211143Y-41737771D02*
X102449238Y-41737771D01*
X102449238Y-41737771D02*
X102544476Y-41785390D01*
X102544476Y-41785390D02*
X102592095Y-41833009D01*
X102592095Y-41833009D02*
X102639714Y-41928247D01*
X102639714Y-41928247D02*
X102639714Y-42166342D01*
X102639714Y-42166342D02*
X102592095Y-42261580D01*
X102592095Y-42261580D02*
X102544476Y-42309200D01*
X102544476Y-42309200D02*
X102449238Y-42356819D01*
X102449238Y-42356819D02*
X102211143Y-42356819D01*
X102211143Y-42356819D02*
X102115905Y-42309200D01*
X102115905Y-42309200D02*
X102068286Y-42261580D01*
X116586095Y-23068819D02*
X116586095Y-23878342D01*
X116586095Y-23878342D02*
X116633714Y-23973580D01*
X116633714Y-23973580D02*
X116681333Y-24021200D01*
X116681333Y-24021200D02*
X116776571Y-24068819D01*
X116776571Y-24068819D02*
X116967047Y-24068819D01*
X116967047Y-24068819D02*
X117062285Y-24021200D01*
X117062285Y-24021200D02*
X117109904Y-23973580D01*
X117109904Y-23973580D02*
X117157523Y-23878342D01*
X117157523Y-23878342D02*
X117157523Y-23068819D01*
X117538476Y-23068819D02*
X118205142Y-23068819D01*
X118205142Y-23068819D02*
X117776571Y-24068819D01*
X95781905Y-36522819D02*
X95781905Y-35522819D01*
X95781905Y-35522819D02*
X96020000Y-35522819D01*
X96020000Y-35522819D02*
X96162857Y-35570438D01*
X96162857Y-35570438D02*
X96258095Y-35665676D01*
X96258095Y-35665676D02*
X96305714Y-35760914D01*
X96305714Y-35760914D02*
X96353333Y-35951390D01*
X96353333Y-35951390D02*
X96353333Y-36094247D01*
X96353333Y-36094247D02*
X96305714Y-36284723D01*
X96305714Y-36284723D02*
X96258095Y-36379961D01*
X96258095Y-36379961D02*
X96162857Y-36475200D01*
X96162857Y-36475200D02*
X96020000Y-36522819D01*
X96020000Y-36522819D02*
X95781905Y-36522819D01*
X96829524Y-36522819D02*
X97020000Y-36522819D01*
X97020000Y-36522819D02*
X97115238Y-36475200D01*
X97115238Y-36475200D02*
X97162857Y-36427580D01*
X97162857Y-36427580D02*
X97258095Y-36284723D01*
X97258095Y-36284723D02*
X97305714Y-36094247D01*
X97305714Y-36094247D02*
X97305714Y-35713295D01*
X97305714Y-35713295D02*
X97258095Y-35618057D01*
X97258095Y-35618057D02*
X97210476Y-35570438D01*
X97210476Y-35570438D02*
X97115238Y-35522819D01*
X97115238Y-35522819D02*
X96924762Y-35522819D01*
X96924762Y-35522819D02*
X96829524Y-35570438D01*
X96829524Y-35570438D02*
X96781905Y-35618057D01*
X96781905Y-35618057D02*
X96734286Y-35713295D01*
X96734286Y-35713295D02*
X96734286Y-35951390D01*
X96734286Y-35951390D02*
X96781905Y-36046628D01*
X96781905Y-36046628D02*
X96829524Y-36094247D01*
X96829524Y-36094247D02*
X96924762Y-36141866D01*
X96924762Y-36141866D02*
X97115238Y-36141866D01*
X97115238Y-36141866D02*
X97210476Y-36094247D01*
X97210476Y-36094247D02*
X97258095Y-36046628D01*
X97258095Y-36046628D02*
X97305714Y-35951390D01*
X103139905Y-37507104D02*
X103616095Y-37507104D01*
X103044667Y-37792819D02*
X103378000Y-36792819D01*
X103378000Y-36792819D02*
X103711333Y-37792819D01*
X167545142Y-22986580D02*
X167497523Y-23034200D01*
X167497523Y-23034200D02*
X167354666Y-23081819D01*
X167354666Y-23081819D02*
X167259428Y-23081819D01*
X167259428Y-23081819D02*
X167116571Y-23034200D01*
X167116571Y-23034200D02*
X167021333Y-22938961D01*
X167021333Y-22938961D02*
X166973714Y-22843723D01*
X166973714Y-22843723D02*
X166926095Y-22653247D01*
X166926095Y-22653247D02*
X166926095Y-22510390D01*
X166926095Y-22510390D02*
X166973714Y-22319914D01*
X166973714Y-22319914D02*
X167021333Y-22224676D01*
X167021333Y-22224676D02*
X167116571Y-22129438D01*
X167116571Y-22129438D02*
X167259428Y-22081819D01*
X167259428Y-22081819D02*
X167354666Y-22081819D01*
X167354666Y-22081819D02*
X167497523Y-22129438D01*
X167497523Y-22129438D02*
X167545142Y-22177057D01*
X168497523Y-23081819D02*
X167926095Y-23081819D01*
X168211809Y-23081819D02*
X168211809Y-22081819D01*
X168211809Y-22081819D02*
X168116571Y-22224676D01*
X168116571Y-22224676D02*
X168021333Y-22319914D01*
X168021333Y-22319914D02*
X167926095Y-22367533D01*
X168830857Y-22081819D02*
X169497523Y-22081819D01*
X169497523Y-22081819D02*
X169068952Y-23081819D01*
X115689142Y-37516468D02*
X115641523Y-37564088D01*
X115641523Y-37564088D02*
X115498666Y-37611707D01*
X115498666Y-37611707D02*
X115403428Y-37611707D01*
X115403428Y-37611707D02*
X115260571Y-37564088D01*
X115260571Y-37564088D02*
X115165333Y-37468849D01*
X115165333Y-37468849D02*
X115117714Y-37373611D01*
X115117714Y-37373611D02*
X115070095Y-37183135D01*
X115070095Y-37183135D02*
X115070095Y-37040278D01*
X115070095Y-37040278D02*
X115117714Y-36849802D01*
X115117714Y-36849802D02*
X115165333Y-36754564D01*
X115165333Y-36754564D02*
X115260571Y-36659326D01*
X115260571Y-36659326D02*
X115403428Y-36611707D01*
X115403428Y-36611707D02*
X115498666Y-36611707D01*
X115498666Y-36611707D02*
X115641523Y-36659326D01*
X115641523Y-36659326D02*
X115689142Y-36706945D01*
X116641523Y-37611707D02*
X116070095Y-37611707D01*
X116355809Y-37611707D02*
X116355809Y-36611707D01*
X116355809Y-36611707D02*
X116260571Y-36754564D01*
X116260571Y-36754564D02*
X116165333Y-36849802D01*
X116165333Y-36849802D02*
X116070095Y-36897421D01*
X117498666Y-36611707D02*
X117308190Y-36611707D01*
X117308190Y-36611707D02*
X117212952Y-36659326D01*
X117212952Y-36659326D02*
X117165333Y-36706945D01*
X117165333Y-36706945D02*
X117070095Y-36849802D01*
X117070095Y-36849802D02*
X117022476Y-37040278D01*
X117022476Y-37040278D02*
X117022476Y-37421230D01*
X117022476Y-37421230D02*
X117070095Y-37516468D01*
X117070095Y-37516468D02*
X117117714Y-37564088D01*
X117117714Y-37564088D02*
X117212952Y-37611707D01*
X117212952Y-37611707D02*
X117403428Y-37611707D01*
X117403428Y-37611707D02*
X117498666Y-37564088D01*
X117498666Y-37564088D02*
X117546285Y-37516468D01*
X117546285Y-37516468D02*
X117593904Y-37421230D01*
X117593904Y-37421230D02*
X117593904Y-37183135D01*
X117593904Y-37183135D02*
X117546285Y-37087897D01*
X117546285Y-37087897D02*
X117498666Y-37040278D01*
X117498666Y-37040278D02*
X117403428Y-36992659D01*
X117403428Y-36992659D02*
X117212952Y-36992659D01*
X117212952Y-36992659D02*
X117117714Y-37040278D01*
X117117714Y-37040278D02*
X117070095Y-37087897D01*
X117070095Y-37087897D02*
X117022476Y-37183135D01*
X128185666Y-26334819D02*
X128185666Y-27049104D01*
X128185666Y-27049104D02*
X128138047Y-27191961D01*
X128138047Y-27191961D02*
X128042809Y-27287200D01*
X128042809Y-27287200D02*
X127899952Y-27334819D01*
X127899952Y-27334819D02*
X127804714Y-27334819D01*
X129090428Y-26334819D02*
X128899952Y-26334819D01*
X128899952Y-26334819D02*
X128804714Y-26382438D01*
X128804714Y-26382438D02*
X128757095Y-26430057D01*
X128757095Y-26430057D02*
X128661857Y-26572914D01*
X128661857Y-26572914D02*
X128614238Y-26763390D01*
X128614238Y-26763390D02*
X128614238Y-27144342D01*
X128614238Y-27144342D02*
X128661857Y-27239580D01*
X128661857Y-27239580D02*
X128709476Y-27287200D01*
X128709476Y-27287200D02*
X128804714Y-27334819D01*
X128804714Y-27334819D02*
X128995190Y-27334819D01*
X128995190Y-27334819D02*
X129090428Y-27287200D01*
X129090428Y-27287200D02*
X129138047Y-27239580D01*
X129138047Y-27239580D02*
X129185666Y-27144342D01*
X129185666Y-27144342D02*
X129185666Y-26906247D01*
X129185666Y-26906247D02*
X129138047Y-26811009D01*
X129138047Y-26811009D02*
X129090428Y-26763390D01*
X129090428Y-26763390D02*
X128995190Y-26715771D01*
X128995190Y-26715771D02*
X128804714Y-26715771D01*
X128804714Y-26715771D02*
X128709476Y-26763390D01*
X128709476Y-26763390D02*
X128661857Y-26811009D01*
X128661857Y-26811009D02*
X128614238Y-26906247D01*
D10*
X80946666Y-54477419D02*
X80946666Y-55191704D01*
X80946666Y-55191704D02*
X80899047Y-55334561D01*
X80899047Y-55334561D02*
X80803809Y-55429800D01*
X80803809Y-55429800D02*
X80660952Y-55477419D01*
X80660952Y-55477419D02*
X80565714Y-55477419D01*
X81851428Y-54810752D02*
X81851428Y-55477419D01*
X81613333Y-54429800D02*
X81375238Y-55144085D01*
X81375238Y-55144085D02*
X81994285Y-55144085D01*
X80692666Y-43731419D02*
X80692666Y-44445704D01*
X80692666Y-44445704D02*
X80645047Y-44588561D01*
X80645047Y-44588561D02*
X80549809Y-44683800D01*
X80549809Y-44683800D02*
X80406952Y-44731419D01*
X80406952Y-44731419D02*
X80311714Y-44731419D01*
X81121238Y-43826657D02*
X81168857Y-43779038D01*
X81168857Y-43779038D02*
X81264095Y-43731419D01*
X81264095Y-43731419D02*
X81502190Y-43731419D01*
X81502190Y-43731419D02*
X81597428Y-43779038D01*
X81597428Y-43779038D02*
X81645047Y-43826657D01*
X81645047Y-43826657D02*
X81692666Y-43921895D01*
X81692666Y-43921895D02*
X81692666Y-44017133D01*
X81692666Y-44017133D02*
X81645047Y-44159990D01*
X81645047Y-44159990D02*
X81073619Y-44731419D01*
X81073619Y-44731419D02*
X81692666Y-44731419D01*
X80692666Y-32477419D02*
X80692666Y-33191704D01*
X80692666Y-33191704D02*
X80645047Y-33334561D01*
X80645047Y-33334561D02*
X80549809Y-33429800D01*
X80549809Y-33429800D02*
X80406952Y-33477419D01*
X80406952Y-33477419D02*
X80311714Y-33477419D01*
X81692666Y-33477419D02*
X81121238Y-33477419D01*
X81406952Y-33477419D02*
X81406952Y-32477419D01*
X81406952Y-32477419D02*
X81311714Y-32620276D01*
X81311714Y-32620276D02*
X81216476Y-32715514D01*
X81216476Y-32715514D02*
X81121238Y-32763133D01*
X80946666Y-65497419D02*
X80946666Y-66211704D01*
X80946666Y-66211704D02*
X80899047Y-66354561D01*
X80899047Y-66354561D02*
X80803809Y-66449800D01*
X80803809Y-66449800D02*
X80660952Y-66497419D01*
X80660952Y-66497419D02*
X80565714Y-66497419D01*
X81899047Y-65497419D02*
X81422857Y-65497419D01*
X81422857Y-65497419D02*
X81375238Y-65973609D01*
X81375238Y-65973609D02*
X81422857Y-65925990D01*
X81422857Y-65925990D02*
X81518095Y-65878371D01*
X81518095Y-65878371D02*
X81756190Y-65878371D01*
X81756190Y-65878371D02*
X81851428Y-65925990D01*
X81851428Y-65925990D02*
X81899047Y-65973609D01*
X81899047Y-65973609D02*
X81946666Y-66068847D01*
X81946666Y-66068847D02*
X81946666Y-66306942D01*
X81946666Y-66306942D02*
X81899047Y-66402180D01*
X81899047Y-66402180D02*
X81851428Y-66449800D01*
X81851428Y-66449800D02*
X81756190Y-66497419D01*
X81756190Y-66497419D02*
X81518095Y-66497419D01*
X81518095Y-66497419D02*
X81422857Y-66449800D01*
X81422857Y-66449800D02*
X81375238Y-66402180D01*
D12*
X106037142Y-68518819D02*
X105703809Y-68042628D01*
X105465714Y-68518819D02*
X105465714Y-67518819D01*
X105465714Y-67518819D02*
X105846666Y-67518819D01*
X105846666Y-67518819D02*
X105941904Y-67566438D01*
X105941904Y-67566438D02*
X105989523Y-67614057D01*
X105989523Y-67614057D02*
X106037142Y-67709295D01*
X106037142Y-67709295D02*
X106037142Y-67852152D01*
X106037142Y-67852152D02*
X105989523Y-67947390D01*
X105989523Y-67947390D02*
X105941904Y-67995009D01*
X105941904Y-67995009D02*
X105846666Y-68042628D01*
X105846666Y-68042628D02*
X105465714Y-68042628D01*
X106989523Y-68518819D02*
X106418095Y-68518819D01*
X106703809Y-68518819D02*
X106703809Y-67518819D01*
X106703809Y-67518819D02*
X106608571Y-67661676D01*
X106608571Y-67661676D02*
X106513333Y-67756914D01*
X106513333Y-67756914D02*
X106418095Y-67804533D01*
X107846666Y-67518819D02*
X107656190Y-67518819D01*
X107656190Y-67518819D02*
X107560952Y-67566438D01*
X107560952Y-67566438D02*
X107513333Y-67614057D01*
X107513333Y-67614057D02*
X107418095Y-67756914D01*
X107418095Y-67756914D02*
X107370476Y-67947390D01*
X107370476Y-67947390D02*
X107370476Y-68328342D01*
X107370476Y-68328342D02*
X107418095Y-68423580D01*
X107418095Y-68423580D02*
X107465714Y-68471200D01*
X107465714Y-68471200D02*
X107560952Y-68518819D01*
X107560952Y-68518819D02*
X107751428Y-68518819D01*
X107751428Y-68518819D02*
X107846666Y-68471200D01*
X107846666Y-68471200D02*
X107894285Y-68423580D01*
X107894285Y-68423580D02*
X107941904Y-68328342D01*
X107941904Y-68328342D02*
X107941904Y-68090247D01*
X107941904Y-68090247D02*
X107894285Y-67995009D01*
X107894285Y-67995009D02*
X107846666Y-67947390D01*
X107846666Y-67947390D02*
X107751428Y-67899771D01*
X107751428Y-67899771D02*
X107560952Y-67899771D01*
X107560952Y-67899771D02*
X107465714Y-67947390D01*
X107465714Y-67947390D02*
X107418095Y-67995009D01*
X107418095Y-67995009D02*
X107370476Y-68090247D01*
X115387571Y-68653819D02*
X115054238Y-68177628D01*
X114816143Y-68653819D02*
X114816143Y-67653819D01*
X114816143Y-67653819D02*
X115197095Y-67653819D01*
X115197095Y-67653819D02*
X115292333Y-67701438D01*
X115292333Y-67701438D02*
X115339952Y-67749057D01*
X115339952Y-67749057D02*
X115387571Y-67844295D01*
X115387571Y-67844295D02*
X115387571Y-67987152D01*
X115387571Y-67987152D02*
X115339952Y-68082390D01*
X115339952Y-68082390D02*
X115292333Y-68130009D01*
X115292333Y-68130009D02*
X115197095Y-68177628D01*
X115197095Y-68177628D02*
X114816143Y-68177628D01*
X115673286Y-67653819D02*
X116006619Y-68653819D01*
X116006619Y-68653819D02*
X116339952Y-67653819D01*
X117197095Y-68653819D02*
X116625667Y-68653819D01*
X116911381Y-68653819D02*
X116911381Y-67653819D01*
X116911381Y-67653819D02*
X116816143Y-67796676D01*
X116816143Y-67796676D02*
X116720905Y-67891914D01*
X116720905Y-67891914D02*
X116625667Y-67939533D01*
X118149476Y-68653819D02*
X117578048Y-68653819D01*
X117863762Y-68653819D02*
X117863762Y-67653819D01*
X117863762Y-67653819D02*
X117768524Y-67796676D01*
X117768524Y-67796676D02*
X117673286Y-67891914D01*
X117673286Y-67891914D02*
X117578048Y-67939533D01*
X114292142Y-70431819D02*
X113958809Y-69955628D01*
X113720714Y-70431819D02*
X113720714Y-69431819D01*
X113720714Y-69431819D02*
X114101666Y-69431819D01*
X114101666Y-69431819D02*
X114196904Y-69479438D01*
X114196904Y-69479438D02*
X114244523Y-69527057D01*
X114244523Y-69527057D02*
X114292142Y-69622295D01*
X114292142Y-69622295D02*
X114292142Y-69765152D01*
X114292142Y-69765152D02*
X114244523Y-69860390D01*
X114244523Y-69860390D02*
X114196904Y-69908009D01*
X114196904Y-69908009D02*
X114101666Y-69955628D01*
X114101666Y-69955628D02*
X113720714Y-69955628D01*
X115244523Y-70431819D02*
X114673095Y-70431819D01*
X114958809Y-70431819D02*
X114958809Y-69431819D01*
X114958809Y-69431819D02*
X114863571Y-69574676D01*
X114863571Y-69574676D02*
X114768333Y-69669914D01*
X114768333Y-69669914D02*
X114673095Y-69717533D01*
X115815952Y-69860390D02*
X115720714Y-69812771D01*
X115720714Y-69812771D02*
X115673095Y-69765152D01*
X115673095Y-69765152D02*
X115625476Y-69669914D01*
X115625476Y-69669914D02*
X115625476Y-69622295D01*
X115625476Y-69622295D02*
X115673095Y-69527057D01*
X115673095Y-69527057D02*
X115720714Y-69479438D01*
X115720714Y-69479438D02*
X115815952Y-69431819D01*
X115815952Y-69431819D02*
X116006428Y-69431819D01*
X116006428Y-69431819D02*
X116101666Y-69479438D01*
X116101666Y-69479438D02*
X116149285Y-69527057D01*
X116149285Y-69527057D02*
X116196904Y-69622295D01*
X116196904Y-69622295D02*
X116196904Y-69669914D01*
X116196904Y-69669914D02*
X116149285Y-69765152D01*
X116149285Y-69765152D02*
X116101666Y-69812771D01*
X116101666Y-69812771D02*
X116006428Y-69860390D01*
X116006428Y-69860390D02*
X115815952Y-69860390D01*
X115815952Y-69860390D02*
X115720714Y-69908009D01*
X115720714Y-69908009D02*
X115673095Y-69955628D01*
X115673095Y-69955628D02*
X115625476Y-70050866D01*
X115625476Y-70050866D02*
X115625476Y-70241342D01*
X115625476Y-70241342D02*
X115673095Y-70336580D01*
X115673095Y-70336580D02*
X115720714Y-70384200D01*
X115720714Y-70384200D02*
X115815952Y-70431819D01*
X115815952Y-70431819D02*
X116006428Y-70431819D01*
X116006428Y-70431819D02*
X116101666Y-70384200D01*
X116101666Y-70384200D02*
X116149285Y-70336580D01*
X116149285Y-70336580D02*
X116196904Y-70241342D01*
X116196904Y-70241342D02*
X116196904Y-70050866D01*
X116196904Y-70050866D02*
X116149285Y-69955628D01*
X116149285Y-69955628D02*
X116101666Y-69908009D01*
X116101666Y-69908009D02*
X116006428Y-69860390D01*
X116959142Y-60628819D02*
X116625809Y-60152628D01*
X116387714Y-60628819D02*
X116387714Y-59628819D01*
X116387714Y-59628819D02*
X116768666Y-59628819D01*
X116768666Y-59628819D02*
X116863904Y-59676438D01*
X116863904Y-59676438D02*
X116911523Y-59724057D01*
X116911523Y-59724057D02*
X116959142Y-59819295D01*
X116959142Y-59819295D02*
X116959142Y-59962152D01*
X116959142Y-59962152D02*
X116911523Y-60057390D01*
X116911523Y-60057390D02*
X116863904Y-60105009D01*
X116863904Y-60105009D02*
X116768666Y-60152628D01*
X116768666Y-60152628D02*
X116387714Y-60152628D01*
X117911523Y-60628819D02*
X117340095Y-60628819D01*
X117625809Y-60628819D02*
X117625809Y-59628819D01*
X117625809Y-59628819D02*
X117530571Y-59771676D01*
X117530571Y-59771676D02*
X117435333Y-59866914D01*
X117435333Y-59866914D02*
X117340095Y-59914533D01*
X118816285Y-59628819D02*
X118340095Y-59628819D01*
X118340095Y-59628819D02*
X118292476Y-60105009D01*
X118292476Y-60105009D02*
X118340095Y-60057390D01*
X118340095Y-60057390D02*
X118435333Y-60009771D01*
X118435333Y-60009771D02*
X118673428Y-60009771D01*
X118673428Y-60009771D02*
X118768666Y-60057390D01*
X118768666Y-60057390D02*
X118816285Y-60105009D01*
X118816285Y-60105009D02*
X118863904Y-60200247D01*
X118863904Y-60200247D02*
X118863904Y-60438342D01*
X118863904Y-60438342D02*
X118816285Y-60533580D01*
X118816285Y-60533580D02*
X118768666Y-60581200D01*
X118768666Y-60581200D02*
X118673428Y-60628819D01*
X118673428Y-60628819D02*
X118435333Y-60628819D01*
X118435333Y-60628819D02*
X118340095Y-60581200D01*
X118340095Y-60581200D02*
X118292476Y-60533580D01*
X116959142Y-58342819D02*
X116625809Y-57866628D01*
X116387714Y-58342819D02*
X116387714Y-57342819D01*
X116387714Y-57342819D02*
X116768666Y-57342819D01*
X116768666Y-57342819D02*
X116863904Y-57390438D01*
X116863904Y-57390438D02*
X116911523Y-57438057D01*
X116911523Y-57438057D02*
X116959142Y-57533295D01*
X116959142Y-57533295D02*
X116959142Y-57676152D01*
X116959142Y-57676152D02*
X116911523Y-57771390D01*
X116911523Y-57771390D02*
X116863904Y-57819009D01*
X116863904Y-57819009D02*
X116768666Y-57866628D01*
X116768666Y-57866628D02*
X116387714Y-57866628D01*
X117911523Y-58342819D02*
X117340095Y-58342819D01*
X117625809Y-58342819D02*
X117625809Y-57342819D01*
X117625809Y-57342819D02*
X117530571Y-57485676D01*
X117530571Y-57485676D02*
X117435333Y-57580914D01*
X117435333Y-57580914D02*
X117340095Y-57628533D01*
X118768666Y-57676152D02*
X118768666Y-58342819D01*
X118530571Y-57295200D02*
X118292476Y-58009485D01*
X118292476Y-58009485D02*
X118911523Y-58009485D01*
X104679761Y-73448057D02*
X104584523Y-73400438D01*
X104584523Y-73400438D02*
X104489285Y-73305200D01*
X104489285Y-73305200D02*
X104346428Y-73162342D01*
X104346428Y-73162342D02*
X104251190Y-73114723D01*
X104251190Y-73114723D02*
X104155952Y-73114723D01*
X104203571Y-73352819D02*
X104108333Y-73305200D01*
X104108333Y-73305200D02*
X104013095Y-73209961D01*
X104013095Y-73209961D02*
X103965476Y-73019485D01*
X103965476Y-73019485D02*
X103965476Y-72686152D01*
X103965476Y-72686152D02*
X104013095Y-72495676D01*
X104013095Y-72495676D02*
X104108333Y-72400438D01*
X104108333Y-72400438D02*
X104203571Y-72352819D01*
X104203571Y-72352819D02*
X104394047Y-72352819D01*
X104394047Y-72352819D02*
X104489285Y-72400438D01*
X104489285Y-72400438D02*
X104584523Y-72495676D01*
X104584523Y-72495676D02*
X104632142Y-72686152D01*
X104632142Y-72686152D02*
X104632142Y-73019485D01*
X104632142Y-73019485D02*
X104584523Y-73209961D01*
X104584523Y-73209961D02*
X104489285Y-73305200D01*
X104489285Y-73305200D02*
X104394047Y-73352819D01*
X104394047Y-73352819D02*
X104203571Y-73352819D01*
X105584523Y-73352819D02*
X105013095Y-73352819D01*
X105298809Y-73352819D02*
X105298809Y-72352819D01*
X105298809Y-72352819D02*
X105203571Y-72495676D01*
X105203571Y-72495676D02*
X105108333Y-72590914D01*
X105108333Y-72590914D02*
X105013095Y-72638533D01*
X114855333Y-55448580D02*
X114807714Y-55496200D01*
X114807714Y-55496200D02*
X114664857Y-55543819D01*
X114664857Y-55543819D02*
X114569619Y-55543819D01*
X114569619Y-55543819D02*
X114426762Y-55496200D01*
X114426762Y-55496200D02*
X114331524Y-55400961D01*
X114331524Y-55400961D02*
X114283905Y-55305723D01*
X114283905Y-55305723D02*
X114236286Y-55115247D01*
X114236286Y-55115247D02*
X114236286Y-54972390D01*
X114236286Y-54972390D02*
X114283905Y-54781914D01*
X114283905Y-54781914D02*
X114331524Y-54686676D01*
X114331524Y-54686676D02*
X114426762Y-54591438D01*
X114426762Y-54591438D02*
X114569619Y-54543819D01*
X114569619Y-54543819D02*
X114664857Y-54543819D01*
X114664857Y-54543819D02*
X114807714Y-54591438D01*
X114807714Y-54591438D02*
X114855333Y-54639057D01*
X115760095Y-54543819D02*
X115283905Y-54543819D01*
X115283905Y-54543819D02*
X115236286Y-55020009D01*
X115236286Y-55020009D02*
X115283905Y-54972390D01*
X115283905Y-54972390D02*
X115379143Y-54924771D01*
X115379143Y-54924771D02*
X115617238Y-54924771D01*
X115617238Y-54924771D02*
X115712476Y-54972390D01*
X115712476Y-54972390D02*
X115760095Y-55020009D01*
X115760095Y-55020009D02*
X115807714Y-55115247D01*
X115807714Y-55115247D02*
X115807714Y-55353342D01*
X115807714Y-55353342D02*
X115760095Y-55448580D01*
X115760095Y-55448580D02*
X115712476Y-55496200D01*
X115712476Y-55496200D02*
X115617238Y-55543819D01*
X115617238Y-55543819D02*
X115379143Y-55543819D01*
X115379143Y-55543819D02*
X115283905Y-55496200D01*
X115283905Y-55496200D02*
X115236286Y-55448580D01*
D10*
X130556095Y-21301419D02*
X130556095Y-22110942D01*
X130556095Y-22110942D02*
X130603714Y-22206180D01*
X130603714Y-22206180D02*
X130651333Y-22253800D01*
X130651333Y-22253800D02*
X130746571Y-22301419D01*
X130746571Y-22301419D02*
X130937047Y-22301419D01*
X130937047Y-22301419D02*
X131032285Y-22253800D01*
X131032285Y-22253800D02*
X131079904Y-22206180D01*
X131079904Y-22206180D02*
X131127523Y-22110942D01*
X131127523Y-22110942D02*
X131127523Y-21301419D01*
X132127523Y-22301419D02*
X131556095Y-22301419D01*
X131841809Y-22301419D02*
X131841809Y-21301419D01*
X131841809Y-21301419D02*
X131746571Y-21444276D01*
X131746571Y-21444276D02*
X131651333Y-21539514D01*
X131651333Y-21539514D02*
X131556095Y-21587133D01*
D12*
X116900334Y-45383818D02*
X116567001Y-44907627D01*
X116328906Y-45383818D02*
X116328906Y-44383818D01*
X116328906Y-44383818D02*
X116709858Y-44383818D01*
X116709858Y-44383818D02*
X116805096Y-44431437D01*
X116805096Y-44431437D02*
X116852715Y-44479056D01*
X116852715Y-44479056D02*
X116900334Y-44574294D01*
X116900334Y-44574294D02*
X116900334Y-44717151D01*
X116900334Y-44717151D02*
X116852715Y-44812389D01*
X116852715Y-44812389D02*
X116805096Y-44860008D01*
X116805096Y-44860008D02*
X116709858Y-44907627D01*
X116709858Y-44907627D02*
X116328906Y-44907627D01*
X117757477Y-44383818D02*
X117567001Y-44383818D01*
X117567001Y-44383818D02*
X117471763Y-44431437D01*
X117471763Y-44431437D02*
X117424144Y-44479056D01*
X117424144Y-44479056D02*
X117328906Y-44621913D01*
X117328906Y-44621913D02*
X117281287Y-44812389D01*
X117281287Y-44812389D02*
X117281287Y-45193341D01*
X117281287Y-45193341D02*
X117328906Y-45288579D01*
X117328906Y-45288579D02*
X117376525Y-45336199D01*
X117376525Y-45336199D02*
X117471763Y-45383818D01*
X117471763Y-45383818D02*
X117662239Y-45383818D01*
X117662239Y-45383818D02*
X117757477Y-45336199D01*
X117757477Y-45336199D02*
X117805096Y-45288579D01*
X117805096Y-45288579D02*
X117852715Y-45193341D01*
X117852715Y-45193341D02*
X117852715Y-44955246D01*
X117852715Y-44955246D02*
X117805096Y-44860008D01*
X117805096Y-44860008D02*
X117757477Y-44812389D01*
X117757477Y-44812389D02*
X117662239Y-44764770D01*
X117662239Y-44764770D02*
X117471763Y-44764770D01*
X117471763Y-44764770D02*
X117376525Y-44812389D01*
X117376525Y-44812389D02*
X117328906Y-44860008D01*
X117328906Y-44860008D02*
X117281287Y-44955246D01*
X82724666Y-23076819D02*
X82724666Y-23791104D01*
X82724666Y-23791104D02*
X82677047Y-23933961D01*
X82677047Y-23933961D02*
X82581809Y-24029200D01*
X82581809Y-24029200D02*
X82438952Y-24076819D01*
X82438952Y-24076819D02*
X82343714Y-24076819D01*
X83105619Y-23076819D02*
X83724666Y-23076819D01*
X83724666Y-23076819D02*
X83391333Y-23457771D01*
X83391333Y-23457771D02*
X83534190Y-23457771D01*
X83534190Y-23457771D02*
X83629428Y-23505390D01*
X83629428Y-23505390D02*
X83677047Y-23553009D01*
X83677047Y-23553009D02*
X83724666Y-23648247D01*
X83724666Y-23648247D02*
X83724666Y-23886342D01*
X83724666Y-23886342D02*
X83677047Y-23981580D01*
X83677047Y-23981580D02*
X83629428Y-24029200D01*
X83629428Y-24029200D02*
X83534190Y-24076819D01*
X83534190Y-24076819D02*
X83248476Y-24076819D01*
X83248476Y-24076819D02*
X83153238Y-24029200D01*
X83153238Y-24029200D02*
X83105619Y-23981580D01*
X112373580Y-34670857D02*
X112421200Y-34718476D01*
X112421200Y-34718476D02*
X112468819Y-34861333D01*
X112468819Y-34861333D02*
X112468819Y-34956571D01*
X112468819Y-34956571D02*
X112421200Y-35099428D01*
X112421200Y-35099428D02*
X112325961Y-35194666D01*
X112325961Y-35194666D02*
X112230723Y-35242285D01*
X112230723Y-35242285D02*
X112040247Y-35289904D01*
X112040247Y-35289904D02*
X111897390Y-35289904D01*
X111897390Y-35289904D02*
X111706914Y-35242285D01*
X111706914Y-35242285D02*
X111611676Y-35194666D01*
X111611676Y-35194666D02*
X111516438Y-35099428D01*
X111516438Y-35099428D02*
X111468819Y-34956571D01*
X111468819Y-34956571D02*
X111468819Y-34861333D01*
X111468819Y-34861333D02*
X111516438Y-34718476D01*
X111516438Y-34718476D02*
X111564057Y-34670857D01*
X112468819Y-33718476D02*
X112468819Y-34289904D01*
X112468819Y-34004190D02*
X111468819Y-34004190D01*
X111468819Y-34004190D02*
X111611676Y-34099428D01*
X111611676Y-34099428D02*
X111706914Y-34194666D01*
X111706914Y-34194666D02*
X111754533Y-34289904D01*
X111468819Y-32813714D02*
X111468819Y-33289904D01*
X111468819Y-33289904D02*
X111945009Y-33337523D01*
X111945009Y-33337523D02*
X111897390Y-33289904D01*
X111897390Y-33289904D02*
X111849771Y-33194666D01*
X111849771Y-33194666D02*
X111849771Y-32956571D01*
X111849771Y-32956571D02*
X111897390Y-32861333D01*
X111897390Y-32861333D02*
X111945009Y-32813714D01*
X111945009Y-32813714D02*
X112040247Y-32766095D01*
X112040247Y-32766095D02*
X112278342Y-32766095D01*
X112278342Y-32766095D02*
X112373580Y-32813714D01*
X112373580Y-32813714D02*
X112421200Y-32861333D01*
X112421200Y-32861333D02*
X112468819Y-32956571D01*
X112468819Y-32956571D02*
X112468819Y-33194666D01*
X112468819Y-33194666D02*
X112421200Y-33289904D01*
X112421200Y-33289904D02*
X112373580Y-33337523D01*
X107801580Y-35186857D02*
X107849200Y-35234476D01*
X107849200Y-35234476D02*
X107896819Y-35377333D01*
X107896819Y-35377333D02*
X107896819Y-35472571D01*
X107896819Y-35472571D02*
X107849200Y-35615428D01*
X107849200Y-35615428D02*
X107753961Y-35710666D01*
X107753961Y-35710666D02*
X107658723Y-35758285D01*
X107658723Y-35758285D02*
X107468247Y-35805904D01*
X107468247Y-35805904D02*
X107325390Y-35805904D01*
X107325390Y-35805904D02*
X107134914Y-35758285D01*
X107134914Y-35758285D02*
X107039676Y-35710666D01*
X107039676Y-35710666D02*
X106944438Y-35615428D01*
X106944438Y-35615428D02*
X106896819Y-35472571D01*
X106896819Y-35472571D02*
X106896819Y-35377333D01*
X106896819Y-35377333D02*
X106944438Y-35234476D01*
X106944438Y-35234476D02*
X106992057Y-35186857D01*
X107896819Y-34234476D02*
X107896819Y-34805904D01*
X107896819Y-34520190D02*
X106896819Y-34520190D01*
X106896819Y-34520190D02*
X107039676Y-34615428D01*
X107039676Y-34615428D02*
X107134914Y-34710666D01*
X107134914Y-34710666D02*
X107182533Y-34805904D01*
X107230152Y-33377333D02*
X107896819Y-33377333D01*
X106849200Y-33615428D02*
X107563485Y-33853523D01*
X107563485Y-33853523D02*
X107563485Y-33234476D01*
X175704667Y-25172200D02*
X175847524Y-25219819D01*
X175847524Y-25219819D02*
X176085619Y-25219819D01*
X176085619Y-25219819D02*
X176180857Y-25172200D01*
X176180857Y-25172200D02*
X176228476Y-25124580D01*
X176228476Y-25124580D02*
X176276095Y-25029342D01*
X176276095Y-25029342D02*
X176276095Y-24934104D01*
X176276095Y-24934104D02*
X176228476Y-24838866D01*
X176228476Y-24838866D02*
X176180857Y-24791247D01*
X176180857Y-24791247D02*
X176085619Y-24743628D01*
X176085619Y-24743628D02*
X175895143Y-24696009D01*
X175895143Y-24696009D02*
X175799905Y-24648390D01*
X175799905Y-24648390D02*
X175752286Y-24600771D01*
X175752286Y-24600771D02*
X175704667Y-24505533D01*
X175704667Y-24505533D02*
X175704667Y-24410295D01*
X175704667Y-24410295D02*
X175752286Y-24315057D01*
X175752286Y-24315057D02*
X175799905Y-24267438D01*
X175799905Y-24267438D02*
X175895143Y-24219819D01*
X175895143Y-24219819D02*
X176133238Y-24219819D01*
X176133238Y-24219819D02*
X176276095Y-24267438D01*
X176609429Y-24219819D02*
X176847524Y-25219819D01*
X176847524Y-25219819D02*
X177038000Y-24505533D01*
X177038000Y-24505533D02*
X177228476Y-25219819D01*
X177228476Y-25219819D02*
X177466572Y-24219819D01*
X177895143Y-25219819D02*
X178085619Y-25219819D01*
X178085619Y-25219819D02*
X178180857Y-25172200D01*
X178180857Y-25172200D02*
X178228476Y-25124580D01*
X178228476Y-25124580D02*
X178323714Y-24981723D01*
X178323714Y-24981723D02*
X178371333Y-24791247D01*
X178371333Y-24791247D02*
X178371333Y-24410295D01*
X178371333Y-24410295D02*
X178323714Y-24315057D01*
X178323714Y-24315057D02*
X178276095Y-24267438D01*
X178276095Y-24267438D02*
X178180857Y-24219819D01*
X178180857Y-24219819D02*
X177990381Y-24219819D01*
X177990381Y-24219819D02*
X177895143Y-24267438D01*
X177895143Y-24267438D02*
X177847524Y-24315057D01*
X177847524Y-24315057D02*
X177799905Y-24410295D01*
X177799905Y-24410295D02*
X177799905Y-24648390D01*
X177799905Y-24648390D02*
X177847524Y-24743628D01*
X177847524Y-24743628D02*
X177895143Y-24791247D01*
X177895143Y-24791247D02*
X177990381Y-24838866D01*
X177990381Y-24838866D02*
X178180857Y-24838866D01*
X178180857Y-24838866D02*
X178276095Y-24791247D01*
X178276095Y-24791247D02*
X178323714Y-24743628D01*
X178323714Y-24743628D02*
X178371333Y-24648390D01*
X90323200Y-98075523D02*
X90370819Y-97932666D01*
X90370819Y-97932666D02*
X90370819Y-97694571D01*
X90370819Y-97694571D02*
X90323200Y-97599333D01*
X90323200Y-97599333D02*
X90275580Y-97551714D01*
X90275580Y-97551714D02*
X90180342Y-97504095D01*
X90180342Y-97504095D02*
X90085104Y-97504095D01*
X90085104Y-97504095D02*
X89989866Y-97551714D01*
X89989866Y-97551714D02*
X89942247Y-97599333D01*
X89942247Y-97599333D02*
X89894628Y-97694571D01*
X89894628Y-97694571D02*
X89847009Y-97885047D01*
X89847009Y-97885047D02*
X89799390Y-97980285D01*
X89799390Y-97980285D02*
X89751771Y-98027904D01*
X89751771Y-98027904D02*
X89656533Y-98075523D01*
X89656533Y-98075523D02*
X89561295Y-98075523D01*
X89561295Y-98075523D02*
X89466057Y-98027904D01*
X89466057Y-98027904D02*
X89418438Y-97980285D01*
X89418438Y-97980285D02*
X89370819Y-97885047D01*
X89370819Y-97885047D02*
X89370819Y-97646952D01*
X89370819Y-97646952D02*
X89418438Y-97504095D01*
X89370819Y-97170761D02*
X90370819Y-96932666D01*
X90370819Y-96932666D02*
X89656533Y-96742190D01*
X89656533Y-96742190D02*
X90370819Y-96551714D01*
X90370819Y-96551714D02*
X89370819Y-96313619D01*
X90370819Y-95408857D02*
X90370819Y-95980285D01*
X90370819Y-95694571D02*
X89370819Y-95694571D01*
X89370819Y-95694571D02*
X89513676Y-95789809D01*
X89513676Y-95789809D02*
X89608914Y-95885047D01*
X89608914Y-95885047D02*
X89656533Y-95980285D01*
X90370819Y-94456476D02*
X90370819Y-95027904D01*
X90370819Y-94742190D02*
X89370819Y-94742190D01*
X89370819Y-94742190D02*
X89513676Y-94837428D01*
X89513676Y-94837428D02*
X89608914Y-94932666D01*
X89608914Y-94932666D02*
X89656533Y-95027904D01*
D10*
X144272095Y-22047419D02*
X144272095Y-22856942D01*
X144272095Y-22856942D02*
X144319714Y-22952180D01*
X144319714Y-22952180D02*
X144367333Y-22999800D01*
X144367333Y-22999800D02*
X144462571Y-23047419D01*
X144462571Y-23047419D02*
X144653047Y-23047419D01*
X144653047Y-23047419D02*
X144748285Y-22999800D01*
X144748285Y-22999800D02*
X144795904Y-22952180D01*
X144795904Y-22952180D02*
X144843523Y-22856942D01*
X144843523Y-22856942D02*
X144843523Y-22047419D01*
X145795904Y-22047419D02*
X145319714Y-22047419D01*
X145319714Y-22047419D02*
X145272095Y-22523609D01*
X145272095Y-22523609D02*
X145319714Y-22475990D01*
X145319714Y-22475990D02*
X145414952Y-22428371D01*
X145414952Y-22428371D02*
X145653047Y-22428371D01*
X145653047Y-22428371D02*
X145748285Y-22475990D01*
X145748285Y-22475990D02*
X145795904Y-22523609D01*
X145795904Y-22523609D02*
X145843523Y-22618847D01*
X145843523Y-22618847D02*
X145843523Y-22856942D01*
X145843523Y-22856942D02*
X145795904Y-22952180D01*
X145795904Y-22952180D02*
X145748285Y-22999800D01*
X145748285Y-22999800D02*
X145653047Y-23047419D01*
X145653047Y-23047419D02*
X145414952Y-23047419D01*
X145414952Y-23047419D02*
X145319714Y-22999800D01*
X145319714Y-22999800D02*
X145272095Y-22952180D01*
D12*
X99514819Y-69397428D02*
X99038628Y-69730761D01*
X99514819Y-69968856D02*
X98514819Y-69968856D01*
X98514819Y-69968856D02*
X98514819Y-69587904D01*
X98514819Y-69587904D02*
X98562438Y-69492666D01*
X98562438Y-69492666D02*
X98610057Y-69445047D01*
X98610057Y-69445047D02*
X98705295Y-69397428D01*
X98705295Y-69397428D02*
X98848152Y-69397428D01*
X98848152Y-69397428D02*
X98943390Y-69445047D01*
X98943390Y-69445047D02*
X98991009Y-69492666D01*
X98991009Y-69492666D02*
X99038628Y-69587904D01*
X99038628Y-69587904D02*
X99038628Y-69968856D01*
X98514819Y-69111713D02*
X99514819Y-68778380D01*
X99514819Y-68778380D02*
X98514819Y-68445047D01*
X99514819Y-67587904D02*
X99514819Y-68159332D01*
X99514819Y-67873618D02*
X98514819Y-67873618D01*
X98514819Y-67873618D02*
X98657676Y-67968856D01*
X98657676Y-67968856D02*
X98752914Y-68064094D01*
X98752914Y-68064094D02*
X98800533Y-68159332D01*
X98514819Y-66968856D02*
X98514819Y-66873618D01*
X98514819Y-66873618D02*
X98562438Y-66778380D01*
X98562438Y-66778380D02*
X98610057Y-66730761D01*
X98610057Y-66730761D02*
X98705295Y-66683142D01*
X98705295Y-66683142D02*
X98895771Y-66635523D01*
X98895771Y-66635523D02*
X99133866Y-66635523D01*
X99133866Y-66635523D02*
X99324342Y-66683142D01*
X99324342Y-66683142D02*
X99419580Y-66730761D01*
X99419580Y-66730761D02*
X99467200Y-66778380D01*
X99467200Y-66778380D02*
X99514819Y-66873618D01*
X99514819Y-66873618D02*
X99514819Y-66968856D01*
X99514819Y-66968856D02*
X99467200Y-67064094D01*
X99467200Y-67064094D02*
X99419580Y-67111713D01*
X99419580Y-67111713D02*
X99324342Y-67159332D01*
X99324342Y-67159332D02*
X99133866Y-67206951D01*
X99133866Y-67206951D02*
X98895771Y-67206951D01*
X98895771Y-67206951D02*
X98705295Y-67159332D01*
X98705295Y-67159332D02*
X98610057Y-67111713D01*
X98610057Y-67111713D02*
X98562438Y-67064094D01*
X98562438Y-67064094D02*
X98514819Y-66968856D01*
X110148761Y-39054819D02*
X109815428Y-38578628D01*
X109577333Y-39054819D02*
X109577333Y-38054819D01*
X109577333Y-38054819D02*
X109958285Y-38054819D01*
X109958285Y-38054819D02*
X110053523Y-38102438D01*
X110053523Y-38102438D02*
X110101142Y-38150057D01*
X110101142Y-38150057D02*
X110148761Y-38245295D01*
X110148761Y-38245295D02*
X110148761Y-38388152D01*
X110148761Y-38388152D02*
X110101142Y-38483390D01*
X110101142Y-38483390D02*
X110053523Y-38531009D01*
X110053523Y-38531009D02*
X109958285Y-38578628D01*
X109958285Y-38578628D02*
X109577333Y-38578628D01*
X110434476Y-38054819D02*
X110767809Y-39054819D01*
X110767809Y-39054819D02*
X111101142Y-38054819D01*
X111482095Y-39054819D02*
X111672571Y-39054819D01*
X111672571Y-39054819D02*
X111767809Y-39007200D01*
X111767809Y-39007200D02*
X111815428Y-38959580D01*
X111815428Y-38959580D02*
X111910666Y-38816723D01*
X111910666Y-38816723D02*
X111958285Y-38626247D01*
X111958285Y-38626247D02*
X111958285Y-38245295D01*
X111958285Y-38245295D02*
X111910666Y-38150057D01*
X111910666Y-38150057D02*
X111863047Y-38102438D01*
X111863047Y-38102438D02*
X111767809Y-38054819D01*
X111767809Y-38054819D02*
X111577333Y-38054819D01*
X111577333Y-38054819D02*
X111482095Y-38102438D01*
X111482095Y-38102438D02*
X111434476Y-38150057D01*
X111434476Y-38150057D02*
X111386857Y-38245295D01*
X111386857Y-38245295D02*
X111386857Y-38483390D01*
X111386857Y-38483390D02*
X111434476Y-38578628D01*
X111434476Y-38578628D02*
X111482095Y-38626247D01*
X111482095Y-38626247D02*
X111577333Y-38673866D01*
X111577333Y-38673866D02*
X111767809Y-38673866D01*
X111767809Y-38673866D02*
X111863047Y-38626247D01*
X111863047Y-38626247D02*
X111910666Y-38578628D01*
X111910666Y-38578628D02*
X111958285Y-38483390D01*
X103124095Y-44150819D02*
X103124095Y-44960342D01*
X103124095Y-44960342D02*
X103171714Y-45055580D01*
X103171714Y-45055580D02*
X103219333Y-45103200D01*
X103219333Y-45103200D02*
X103314571Y-45150819D01*
X103314571Y-45150819D02*
X103505047Y-45150819D01*
X103505047Y-45150819D02*
X103600285Y-45103200D01*
X103600285Y-45103200D02*
X103647904Y-45055580D01*
X103647904Y-45055580D02*
X103695523Y-44960342D01*
X103695523Y-44960342D02*
X103695523Y-44150819D01*
X104600285Y-44150819D02*
X104409809Y-44150819D01*
X104409809Y-44150819D02*
X104314571Y-44198438D01*
X104314571Y-44198438D02*
X104266952Y-44246057D01*
X104266952Y-44246057D02*
X104171714Y-44388914D01*
X104171714Y-44388914D02*
X104124095Y-44579390D01*
X104124095Y-44579390D02*
X104124095Y-44960342D01*
X104124095Y-44960342D02*
X104171714Y-45055580D01*
X104171714Y-45055580D02*
X104219333Y-45103200D01*
X104219333Y-45103200D02*
X104314571Y-45150819D01*
X104314571Y-45150819D02*
X104505047Y-45150819D01*
X104505047Y-45150819D02*
X104600285Y-45103200D01*
X104600285Y-45103200D02*
X104647904Y-45055580D01*
X104647904Y-45055580D02*
X104695523Y-44960342D01*
X104695523Y-44960342D02*
X104695523Y-44722247D01*
X104695523Y-44722247D02*
X104647904Y-44627009D01*
X104647904Y-44627009D02*
X104600285Y-44579390D01*
X104600285Y-44579390D02*
X104505047Y-44531771D01*
X104505047Y-44531771D02*
X104314571Y-44531771D01*
X104314571Y-44531771D02*
X104219333Y-44579390D01*
X104219333Y-44579390D02*
X104171714Y-44627009D01*
X104171714Y-44627009D02*
X104124095Y-44722247D01*
X93418819Y-50926857D02*
X92942628Y-51260190D01*
X93418819Y-51498285D02*
X92418819Y-51498285D01*
X92418819Y-51498285D02*
X92418819Y-51117333D01*
X92418819Y-51117333D02*
X92466438Y-51022095D01*
X92466438Y-51022095D02*
X92514057Y-50974476D01*
X92514057Y-50974476D02*
X92609295Y-50926857D01*
X92609295Y-50926857D02*
X92752152Y-50926857D01*
X92752152Y-50926857D02*
X92847390Y-50974476D01*
X92847390Y-50974476D02*
X92895009Y-51022095D01*
X92895009Y-51022095D02*
X92942628Y-51117333D01*
X92942628Y-51117333D02*
X92942628Y-51498285D01*
X93418819Y-49974476D02*
X93418819Y-50545904D01*
X93418819Y-50260190D02*
X92418819Y-50260190D01*
X92418819Y-50260190D02*
X92561676Y-50355428D01*
X92561676Y-50355428D02*
X92656914Y-50450666D01*
X92656914Y-50450666D02*
X92704533Y-50545904D01*
X92418819Y-49641142D02*
X92418819Y-49022095D01*
X92418819Y-49022095D02*
X92799771Y-49355428D01*
X92799771Y-49355428D02*
X92799771Y-49212571D01*
X92799771Y-49212571D02*
X92847390Y-49117333D01*
X92847390Y-49117333D02*
X92895009Y-49069714D01*
X92895009Y-49069714D02*
X92990247Y-49022095D01*
X92990247Y-49022095D02*
X93228342Y-49022095D01*
X93228342Y-49022095D02*
X93323580Y-49069714D01*
X93323580Y-49069714D02*
X93371200Y-49117333D01*
X93371200Y-49117333D02*
X93418819Y-49212571D01*
X93418819Y-49212571D02*
X93418819Y-49498285D01*
X93418819Y-49498285D02*
X93371200Y-49593523D01*
X93371200Y-49593523D02*
X93323580Y-49641142D01*
X116959142Y-47923819D02*
X116625809Y-47447628D01*
X116387714Y-47923819D02*
X116387714Y-46923819D01*
X116387714Y-46923819D02*
X116768666Y-46923819D01*
X116768666Y-46923819D02*
X116863904Y-46971438D01*
X116863904Y-46971438D02*
X116911523Y-47019057D01*
X116911523Y-47019057D02*
X116959142Y-47114295D01*
X116959142Y-47114295D02*
X116959142Y-47257152D01*
X116959142Y-47257152D02*
X116911523Y-47352390D01*
X116911523Y-47352390D02*
X116863904Y-47400009D01*
X116863904Y-47400009D02*
X116768666Y-47447628D01*
X116768666Y-47447628D02*
X116387714Y-47447628D01*
X117911523Y-47923819D02*
X117340095Y-47923819D01*
X117625809Y-47923819D02*
X117625809Y-46923819D01*
X117625809Y-46923819D02*
X117530571Y-47066676D01*
X117530571Y-47066676D02*
X117435333Y-47161914D01*
X117435333Y-47161914D02*
X117340095Y-47209533D01*
X118292476Y-47019057D02*
X118340095Y-46971438D01*
X118340095Y-46971438D02*
X118435333Y-46923819D01*
X118435333Y-46923819D02*
X118673428Y-46923819D01*
X118673428Y-46923819D02*
X118768666Y-46971438D01*
X118768666Y-46971438D02*
X118816285Y-47019057D01*
X118816285Y-47019057D02*
X118863904Y-47114295D01*
X118863904Y-47114295D02*
X118863904Y-47209533D01*
X118863904Y-47209533D02*
X118816285Y-47352390D01*
X118816285Y-47352390D02*
X118244857Y-47923819D01*
X118244857Y-47923819D02*
X118863904Y-47923819D01*
X97401142Y-65618819D02*
X97067809Y-65142628D01*
X96829714Y-65618819D02*
X96829714Y-64618819D01*
X96829714Y-64618819D02*
X97210666Y-64618819D01*
X97210666Y-64618819D02*
X97305904Y-64666438D01*
X97305904Y-64666438D02*
X97353523Y-64714057D01*
X97353523Y-64714057D02*
X97401142Y-64809295D01*
X97401142Y-64809295D02*
X97401142Y-64952152D01*
X97401142Y-64952152D02*
X97353523Y-65047390D01*
X97353523Y-65047390D02*
X97305904Y-65095009D01*
X97305904Y-65095009D02*
X97210666Y-65142628D01*
X97210666Y-65142628D02*
X96829714Y-65142628D01*
X98353523Y-65618819D02*
X97782095Y-65618819D01*
X98067809Y-65618819D02*
X98067809Y-64618819D01*
X98067809Y-64618819D02*
X97972571Y-64761676D01*
X97972571Y-64761676D02*
X97877333Y-64856914D01*
X97877333Y-64856914D02*
X97782095Y-64904533D01*
X99305904Y-65618819D02*
X98734476Y-65618819D01*
X99020190Y-65618819D02*
X99020190Y-64618819D01*
X99020190Y-64618819D02*
X98924952Y-64761676D01*
X98924952Y-64761676D02*
X98829714Y-64856914D01*
X98829714Y-64856914D02*
X98734476Y-64904533D01*
X93591142Y-43626819D02*
X93257809Y-43150628D01*
X93019714Y-43626819D02*
X93019714Y-42626819D01*
X93019714Y-42626819D02*
X93400666Y-42626819D01*
X93400666Y-42626819D02*
X93495904Y-42674438D01*
X93495904Y-42674438D02*
X93543523Y-42722057D01*
X93543523Y-42722057D02*
X93591142Y-42817295D01*
X93591142Y-42817295D02*
X93591142Y-42960152D01*
X93591142Y-42960152D02*
X93543523Y-43055390D01*
X93543523Y-43055390D02*
X93495904Y-43103009D01*
X93495904Y-43103009D02*
X93400666Y-43150628D01*
X93400666Y-43150628D02*
X93019714Y-43150628D01*
X94543523Y-43626819D02*
X93972095Y-43626819D01*
X94257809Y-43626819D02*
X94257809Y-42626819D01*
X94257809Y-42626819D02*
X94162571Y-42769676D01*
X94162571Y-42769676D02*
X94067333Y-42864914D01*
X94067333Y-42864914D02*
X93972095Y-42912533D01*
X95162571Y-42626819D02*
X95257809Y-42626819D01*
X95257809Y-42626819D02*
X95353047Y-42674438D01*
X95353047Y-42674438D02*
X95400666Y-42722057D01*
X95400666Y-42722057D02*
X95448285Y-42817295D01*
X95448285Y-42817295D02*
X95495904Y-43007771D01*
X95495904Y-43007771D02*
X95495904Y-43245866D01*
X95495904Y-43245866D02*
X95448285Y-43436342D01*
X95448285Y-43436342D02*
X95400666Y-43531580D01*
X95400666Y-43531580D02*
X95353047Y-43579200D01*
X95353047Y-43579200D02*
X95257809Y-43626819D01*
X95257809Y-43626819D02*
X95162571Y-43626819D01*
X95162571Y-43626819D02*
X95067333Y-43579200D01*
X95067333Y-43579200D02*
X95019714Y-43531580D01*
X95019714Y-43531580D02*
X94972095Y-43436342D01*
X94972095Y-43436342D02*
X94924476Y-43245866D01*
X94924476Y-43245866D02*
X94924476Y-43007771D01*
X94924476Y-43007771D02*
X94972095Y-42817295D01*
X94972095Y-42817295D02*
X95019714Y-42722057D01*
X95019714Y-42722057D02*
X95067333Y-42674438D01*
X95067333Y-42674438D02*
X95162571Y-42626819D01*
X97877333Y-49722819D02*
X97544000Y-49246628D01*
X97305905Y-49722819D02*
X97305905Y-48722819D01*
X97305905Y-48722819D02*
X97686857Y-48722819D01*
X97686857Y-48722819D02*
X97782095Y-48770438D01*
X97782095Y-48770438D02*
X97829714Y-48818057D01*
X97829714Y-48818057D02*
X97877333Y-48913295D01*
X97877333Y-48913295D02*
X97877333Y-49056152D01*
X97877333Y-49056152D02*
X97829714Y-49151390D01*
X97829714Y-49151390D02*
X97782095Y-49199009D01*
X97782095Y-49199009D02*
X97686857Y-49246628D01*
X97686857Y-49246628D02*
X97305905Y-49246628D01*
X98353524Y-49722819D02*
X98544000Y-49722819D01*
X98544000Y-49722819D02*
X98639238Y-49675200D01*
X98639238Y-49675200D02*
X98686857Y-49627580D01*
X98686857Y-49627580D02*
X98782095Y-49484723D01*
X98782095Y-49484723D02*
X98829714Y-49294247D01*
X98829714Y-49294247D02*
X98829714Y-48913295D01*
X98829714Y-48913295D02*
X98782095Y-48818057D01*
X98782095Y-48818057D02*
X98734476Y-48770438D01*
X98734476Y-48770438D02*
X98639238Y-48722819D01*
X98639238Y-48722819D02*
X98448762Y-48722819D01*
X98448762Y-48722819D02*
X98353524Y-48770438D01*
X98353524Y-48770438D02*
X98305905Y-48818057D01*
X98305905Y-48818057D02*
X98258286Y-48913295D01*
X98258286Y-48913295D02*
X98258286Y-49151390D01*
X98258286Y-49151390D02*
X98305905Y-49246628D01*
X98305905Y-49246628D02*
X98353524Y-49294247D01*
X98353524Y-49294247D02*
X98448762Y-49341866D01*
X98448762Y-49341866D02*
X98639238Y-49341866D01*
X98639238Y-49341866D02*
X98734476Y-49294247D01*
X98734476Y-49294247D02*
X98782095Y-49246628D01*
X98782095Y-49246628D02*
X98829714Y-49151390D01*
X95355580Y-58236857D02*
X95403200Y-58284476D01*
X95403200Y-58284476D02*
X95450819Y-58427333D01*
X95450819Y-58427333D02*
X95450819Y-58522571D01*
X95450819Y-58522571D02*
X95403200Y-58665428D01*
X95403200Y-58665428D02*
X95307961Y-58760666D01*
X95307961Y-58760666D02*
X95212723Y-58808285D01*
X95212723Y-58808285D02*
X95022247Y-58855904D01*
X95022247Y-58855904D02*
X94879390Y-58855904D01*
X94879390Y-58855904D02*
X94688914Y-58808285D01*
X94688914Y-58808285D02*
X94593676Y-58760666D01*
X94593676Y-58760666D02*
X94498438Y-58665428D01*
X94498438Y-58665428D02*
X94450819Y-58522571D01*
X94450819Y-58522571D02*
X94450819Y-58427333D01*
X94450819Y-58427333D02*
X94498438Y-58284476D01*
X94498438Y-58284476D02*
X94546057Y-58236857D01*
X95450819Y-57284476D02*
X95450819Y-57855904D01*
X95450819Y-57570190D02*
X94450819Y-57570190D01*
X94450819Y-57570190D02*
X94593676Y-57665428D01*
X94593676Y-57665428D02*
X94688914Y-57760666D01*
X94688914Y-57760666D02*
X94736533Y-57855904D01*
X94450819Y-56951142D02*
X94450819Y-56332095D01*
X94450819Y-56332095D02*
X94831771Y-56665428D01*
X94831771Y-56665428D02*
X94831771Y-56522571D01*
X94831771Y-56522571D02*
X94879390Y-56427333D01*
X94879390Y-56427333D02*
X94927009Y-56379714D01*
X94927009Y-56379714D02*
X95022247Y-56332095D01*
X95022247Y-56332095D02*
X95260342Y-56332095D01*
X95260342Y-56332095D02*
X95355580Y-56379714D01*
X95355580Y-56379714D02*
X95403200Y-56427333D01*
X95403200Y-56427333D02*
X95450819Y-56522571D01*
X95450819Y-56522571D02*
X95450819Y-56808285D01*
X95450819Y-56808285D02*
X95403200Y-56903523D01*
X95403200Y-56903523D02*
X95355580Y-56951142D01*
X114379142Y-50368580D02*
X114331523Y-50416200D01*
X114331523Y-50416200D02*
X114188666Y-50463819D01*
X114188666Y-50463819D02*
X114093428Y-50463819D01*
X114093428Y-50463819D02*
X113950571Y-50416200D01*
X113950571Y-50416200D02*
X113855333Y-50320961D01*
X113855333Y-50320961D02*
X113807714Y-50225723D01*
X113807714Y-50225723D02*
X113760095Y-50035247D01*
X113760095Y-50035247D02*
X113760095Y-49892390D01*
X113760095Y-49892390D02*
X113807714Y-49701914D01*
X113807714Y-49701914D02*
X113855333Y-49606676D01*
X113855333Y-49606676D02*
X113950571Y-49511438D01*
X113950571Y-49511438D02*
X114093428Y-49463819D01*
X114093428Y-49463819D02*
X114188666Y-49463819D01*
X114188666Y-49463819D02*
X114331523Y-49511438D01*
X114331523Y-49511438D02*
X114379142Y-49559057D01*
X115331523Y-50463819D02*
X114760095Y-50463819D01*
X115045809Y-50463819D02*
X115045809Y-49463819D01*
X115045809Y-49463819D02*
X114950571Y-49606676D01*
X114950571Y-49606676D02*
X114855333Y-49701914D01*
X114855333Y-49701914D02*
X114760095Y-49749533D01*
X115712476Y-49559057D02*
X115760095Y-49511438D01*
X115760095Y-49511438D02*
X115855333Y-49463819D01*
X115855333Y-49463819D02*
X116093428Y-49463819D01*
X116093428Y-49463819D02*
X116188666Y-49511438D01*
X116188666Y-49511438D02*
X116236285Y-49559057D01*
X116236285Y-49559057D02*
X116283904Y-49654295D01*
X116283904Y-49654295D02*
X116283904Y-49749533D01*
X116283904Y-49749533D02*
X116236285Y-49892390D01*
X116236285Y-49892390D02*
X115664857Y-50463819D01*
X115664857Y-50463819D02*
X116283904Y-50463819D01*
X114349142Y-52903580D02*
X114301523Y-52951200D01*
X114301523Y-52951200D02*
X114158666Y-52998819D01*
X114158666Y-52998819D02*
X114063428Y-52998819D01*
X114063428Y-52998819D02*
X113920571Y-52951200D01*
X113920571Y-52951200D02*
X113825333Y-52855961D01*
X113825333Y-52855961D02*
X113777714Y-52760723D01*
X113777714Y-52760723D02*
X113730095Y-52570247D01*
X113730095Y-52570247D02*
X113730095Y-52427390D01*
X113730095Y-52427390D02*
X113777714Y-52236914D01*
X113777714Y-52236914D02*
X113825333Y-52141676D01*
X113825333Y-52141676D02*
X113920571Y-52046438D01*
X113920571Y-52046438D02*
X114063428Y-51998819D01*
X114063428Y-51998819D02*
X114158666Y-51998819D01*
X114158666Y-51998819D02*
X114301523Y-52046438D01*
X114301523Y-52046438D02*
X114349142Y-52094057D01*
X115301523Y-52998819D02*
X114730095Y-52998819D01*
X115015809Y-52998819D02*
X115015809Y-51998819D01*
X115015809Y-51998819D02*
X114920571Y-52141676D01*
X114920571Y-52141676D02*
X114825333Y-52236914D01*
X114825333Y-52236914D02*
X114730095Y-52284533D01*
X116253904Y-52998819D02*
X115682476Y-52998819D01*
X115968190Y-52998819D02*
X115968190Y-51998819D01*
X115968190Y-51998819D02*
X115872952Y-52141676D01*
X115872952Y-52141676D02*
X115777714Y-52236914D01*
X115777714Y-52236914D02*
X115682476Y-52284533D01*
X98403580Y-55696857D02*
X98451200Y-55744476D01*
X98451200Y-55744476D02*
X98498819Y-55887333D01*
X98498819Y-55887333D02*
X98498819Y-55982571D01*
X98498819Y-55982571D02*
X98451200Y-56125428D01*
X98451200Y-56125428D02*
X98355961Y-56220666D01*
X98355961Y-56220666D02*
X98260723Y-56268285D01*
X98260723Y-56268285D02*
X98070247Y-56315904D01*
X98070247Y-56315904D02*
X97927390Y-56315904D01*
X97927390Y-56315904D02*
X97736914Y-56268285D01*
X97736914Y-56268285D02*
X97641676Y-56220666D01*
X97641676Y-56220666D02*
X97546438Y-56125428D01*
X97546438Y-56125428D02*
X97498819Y-55982571D01*
X97498819Y-55982571D02*
X97498819Y-55887333D01*
X97498819Y-55887333D02*
X97546438Y-55744476D01*
X97546438Y-55744476D02*
X97594057Y-55696857D01*
X98498819Y-54744476D02*
X98498819Y-55315904D01*
X98498819Y-55030190D02*
X97498819Y-55030190D01*
X97498819Y-55030190D02*
X97641676Y-55125428D01*
X97641676Y-55125428D02*
X97736914Y-55220666D01*
X97736914Y-55220666D02*
X97784533Y-55315904D01*
X97498819Y-54125428D02*
X97498819Y-54030190D01*
X97498819Y-54030190D02*
X97546438Y-53934952D01*
X97546438Y-53934952D02*
X97594057Y-53887333D01*
X97594057Y-53887333D02*
X97689295Y-53839714D01*
X97689295Y-53839714D02*
X97879771Y-53792095D01*
X97879771Y-53792095D02*
X98117866Y-53792095D01*
X98117866Y-53792095D02*
X98308342Y-53839714D01*
X98308342Y-53839714D02*
X98403580Y-53887333D01*
X98403580Y-53887333D02*
X98451200Y-53934952D01*
X98451200Y-53934952D02*
X98498819Y-54030190D01*
X98498819Y-54030190D02*
X98498819Y-54125428D01*
X98498819Y-54125428D02*
X98451200Y-54220666D01*
X98451200Y-54220666D02*
X98403580Y-54268285D01*
X98403580Y-54268285D02*
X98308342Y-54315904D01*
X98308342Y-54315904D02*
X98117866Y-54363523D01*
X98117866Y-54363523D02*
X97879771Y-54363523D01*
X97879771Y-54363523D02*
X97689295Y-54315904D01*
X97689295Y-54315904D02*
X97594057Y-54268285D01*
X97594057Y-54268285D02*
X97546438Y-54220666D01*
X97546438Y-54220666D02*
X97498819Y-54125428D01*
X100691333Y-95756819D02*
X100358000Y-95280628D01*
X100119905Y-95756819D02*
X100119905Y-94756819D01*
X100119905Y-94756819D02*
X100500857Y-94756819D01*
X100500857Y-94756819D02*
X100596095Y-94804438D01*
X100596095Y-94804438D02*
X100643714Y-94852057D01*
X100643714Y-94852057D02*
X100691333Y-94947295D01*
X100691333Y-94947295D02*
X100691333Y-95090152D01*
X100691333Y-95090152D02*
X100643714Y-95185390D01*
X100643714Y-95185390D02*
X100596095Y-95233009D01*
X100596095Y-95233009D02*
X100500857Y-95280628D01*
X100500857Y-95280628D02*
X100119905Y-95280628D01*
X101024667Y-94756819D02*
X101691333Y-94756819D01*
X101691333Y-94756819D02*
X101262762Y-95756819D01*
X161833332Y-93323580D02*
X161785713Y-93371200D01*
X161785713Y-93371200D02*
X161642856Y-93418819D01*
X161642856Y-93418819D02*
X161547618Y-93418819D01*
X161547618Y-93418819D02*
X161404761Y-93371200D01*
X161404761Y-93371200D02*
X161309523Y-93275961D01*
X161309523Y-93275961D02*
X161261904Y-93180723D01*
X161261904Y-93180723D02*
X161214285Y-92990247D01*
X161214285Y-92990247D02*
X161214285Y-92847390D01*
X161214285Y-92847390D02*
X161261904Y-92656914D01*
X161261904Y-92656914D02*
X161309523Y-92561676D01*
X161309523Y-92561676D02*
X161404761Y-92466438D01*
X161404761Y-92466438D02*
X161547618Y-92418819D01*
X161547618Y-92418819D02*
X161642856Y-92418819D01*
X161642856Y-92418819D02*
X161785713Y-92466438D01*
X161785713Y-92466438D02*
X161833332Y-92514057D01*
X162309523Y-93418819D02*
X162499999Y-93418819D01*
X162499999Y-93418819D02*
X162595237Y-93371200D01*
X162595237Y-93371200D02*
X162642856Y-93323580D01*
X162642856Y-93323580D02*
X162738094Y-93180723D01*
X162738094Y-93180723D02*
X162785713Y-92990247D01*
X162785713Y-92990247D02*
X162785713Y-92609295D01*
X162785713Y-92609295D02*
X162738094Y-92514057D01*
X162738094Y-92514057D02*
X162690475Y-92466438D01*
X162690475Y-92466438D02*
X162595237Y-92418819D01*
X162595237Y-92418819D02*
X162404761Y-92418819D01*
X162404761Y-92418819D02*
X162309523Y-92466438D01*
X162309523Y-92466438D02*
X162261904Y-92514057D01*
X162261904Y-92514057D02*
X162214285Y-92609295D01*
X162214285Y-92609295D02*
X162214285Y-92847390D01*
X162214285Y-92847390D02*
X162261904Y-92942628D01*
X162261904Y-92942628D02*
X162309523Y-92990247D01*
X162309523Y-92990247D02*
X162404761Y-93037866D01*
X162404761Y-93037866D02*
X162595237Y-93037866D01*
X162595237Y-93037866D02*
X162690475Y-92990247D01*
X162690475Y-92990247D02*
X162738094Y-92942628D01*
X162738094Y-92942628D02*
X162785713Y-92847390D01*
X140803333Y-93323580D02*
X140755714Y-93371200D01*
X140755714Y-93371200D02*
X140612857Y-93418819D01*
X140612857Y-93418819D02*
X140517619Y-93418819D01*
X140517619Y-93418819D02*
X140374762Y-93371200D01*
X140374762Y-93371200D02*
X140279524Y-93275961D01*
X140279524Y-93275961D02*
X140231905Y-93180723D01*
X140231905Y-93180723D02*
X140184286Y-92990247D01*
X140184286Y-92990247D02*
X140184286Y-92847390D01*
X140184286Y-92847390D02*
X140231905Y-92656914D01*
X140231905Y-92656914D02*
X140279524Y-92561676D01*
X140279524Y-92561676D02*
X140374762Y-92466438D01*
X140374762Y-92466438D02*
X140517619Y-92418819D01*
X140517619Y-92418819D02*
X140612857Y-92418819D01*
X140612857Y-92418819D02*
X140755714Y-92466438D01*
X140755714Y-92466438D02*
X140803333Y-92514057D01*
X141374762Y-92847390D02*
X141279524Y-92799771D01*
X141279524Y-92799771D02*
X141231905Y-92752152D01*
X141231905Y-92752152D02*
X141184286Y-92656914D01*
X141184286Y-92656914D02*
X141184286Y-92609295D01*
X141184286Y-92609295D02*
X141231905Y-92514057D01*
X141231905Y-92514057D02*
X141279524Y-92466438D01*
X141279524Y-92466438D02*
X141374762Y-92418819D01*
X141374762Y-92418819D02*
X141565238Y-92418819D01*
X141565238Y-92418819D02*
X141660476Y-92466438D01*
X141660476Y-92466438D02*
X141708095Y-92514057D01*
X141708095Y-92514057D02*
X141755714Y-92609295D01*
X141755714Y-92609295D02*
X141755714Y-92656914D01*
X141755714Y-92656914D02*
X141708095Y-92752152D01*
X141708095Y-92752152D02*
X141660476Y-92799771D01*
X141660476Y-92799771D02*
X141565238Y-92847390D01*
X141565238Y-92847390D02*
X141374762Y-92847390D01*
X141374762Y-92847390D02*
X141279524Y-92895009D01*
X141279524Y-92895009D02*
X141231905Y-92942628D01*
X141231905Y-92942628D02*
X141184286Y-93037866D01*
X141184286Y-93037866D02*
X141184286Y-93228342D01*
X141184286Y-93228342D02*
X141231905Y-93323580D01*
X141231905Y-93323580D02*
X141279524Y-93371200D01*
X141279524Y-93371200D02*
X141374762Y-93418819D01*
X141374762Y-93418819D02*
X141565238Y-93418819D01*
X141565238Y-93418819D02*
X141660476Y-93371200D01*
X141660476Y-93371200D02*
X141708095Y-93323580D01*
X141708095Y-93323580D02*
X141755714Y-93228342D01*
X141755714Y-93228342D02*
X141755714Y-93037866D01*
X141755714Y-93037866D02*
X141708095Y-92942628D01*
X141708095Y-92942628D02*
X141660476Y-92895009D01*
X141660476Y-92895009D02*
X141565238Y-92847390D01*
X119721333Y-93577580D02*
X119673714Y-93625200D01*
X119673714Y-93625200D02*
X119530857Y-93672819D01*
X119530857Y-93672819D02*
X119435619Y-93672819D01*
X119435619Y-93672819D02*
X119292762Y-93625200D01*
X119292762Y-93625200D02*
X119197524Y-93529961D01*
X119197524Y-93529961D02*
X119149905Y-93434723D01*
X119149905Y-93434723D02*
X119102286Y-93244247D01*
X119102286Y-93244247D02*
X119102286Y-93101390D01*
X119102286Y-93101390D02*
X119149905Y-92910914D01*
X119149905Y-92910914D02*
X119197524Y-92815676D01*
X119197524Y-92815676D02*
X119292762Y-92720438D01*
X119292762Y-92720438D02*
X119435619Y-92672819D01*
X119435619Y-92672819D02*
X119530857Y-92672819D01*
X119530857Y-92672819D02*
X119673714Y-92720438D01*
X119673714Y-92720438D02*
X119721333Y-92768057D01*
X120054667Y-92672819D02*
X120721333Y-92672819D01*
X120721333Y-92672819D02*
X120292762Y-93672819D01*
X97369333Y-93613580D02*
X97321714Y-93661200D01*
X97321714Y-93661200D02*
X97178857Y-93708819D01*
X97178857Y-93708819D02*
X97083619Y-93708819D01*
X97083619Y-93708819D02*
X96940762Y-93661200D01*
X96940762Y-93661200D02*
X96845524Y-93565961D01*
X96845524Y-93565961D02*
X96797905Y-93470723D01*
X96797905Y-93470723D02*
X96750286Y-93280247D01*
X96750286Y-93280247D02*
X96750286Y-93137390D01*
X96750286Y-93137390D02*
X96797905Y-92946914D01*
X96797905Y-92946914D02*
X96845524Y-92851676D01*
X96845524Y-92851676D02*
X96940762Y-92756438D01*
X96940762Y-92756438D02*
X97083619Y-92708819D01*
X97083619Y-92708819D02*
X97178857Y-92708819D01*
X97178857Y-92708819D02*
X97321714Y-92756438D01*
X97321714Y-92756438D02*
X97369333Y-92804057D01*
X98226476Y-92708819D02*
X98036000Y-92708819D01*
X98036000Y-92708819D02*
X97940762Y-92756438D01*
X97940762Y-92756438D02*
X97893143Y-92804057D01*
X97893143Y-92804057D02*
X97797905Y-92946914D01*
X97797905Y-92946914D02*
X97750286Y-93137390D01*
X97750286Y-93137390D02*
X97750286Y-93518342D01*
X97750286Y-93518342D02*
X97797905Y-93613580D01*
X97797905Y-93613580D02*
X97845524Y-93661200D01*
X97845524Y-93661200D02*
X97940762Y-93708819D01*
X97940762Y-93708819D02*
X98131238Y-93708819D01*
X98131238Y-93708819D02*
X98226476Y-93661200D01*
X98226476Y-93661200D02*
X98274095Y-93613580D01*
X98274095Y-93613580D02*
X98321714Y-93518342D01*
X98321714Y-93518342D02*
X98321714Y-93280247D01*
X98321714Y-93280247D02*
X98274095Y-93185009D01*
X98274095Y-93185009D02*
X98226476Y-93137390D01*
X98226476Y-93137390D02*
X98131238Y-93089771D01*
X98131238Y-93089771D02*
X97940762Y-93089771D01*
X97940762Y-93089771D02*
X97845524Y-93137390D01*
X97845524Y-93137390D02*
X97797905Y-93185009D01*
X97797905Y-93185009D02*
X97750286Y-93280247D01*
X166461333Y-40992819D02*
X166128000Y-40516628D01*
X165889905Y-40992819D02*
X165889905Y-39992819D01*
X165889905Y-39992819D02*
X166270857Y-39992819D01*
X166270857Y-39992819D02*
X166366095Y-40040438D01*
X166366095Y-40040438D02*
X166413714Y-40088057D01*
X166413714Y-40088057D02*
X166461333Y-40183295D01*
X166461333Y-40183295D02*
X166461333Y-40326152D01*
X166461333Y-40326152D02*
X166413714Y-40421390D01*
X166413714Y-40421390D02*
X166366095Y-40469009D01*
X166366095Y-40469009D02*
X166270857Y-40516628D01*
X166270857Y-40516628D02*
X165889905Y-40516628D01*
X167318476Y-40326152D02*
X167318476Y-40992819D01*
X167080381Y-39945200D02*
X166842286Y-40659485D01*
X166842286Y-40659485D02*
X167461333Y-40659485D01*
X176651333Y-40982819D02*
X176318000Y-40506628D01*
X176079905Y-40982819D02*
X176079905Y-39982819D01*
X176079905Y-39982819D02*
X176460857Y-39982819D01*
X176460857Y-39982819D02*
X176556095Y-40030438D01*
X176556095Y-40030438D02*
X176603714Y-40078057D01*
X176603714Y-40078057D02*
X176651333Y-40173295D01*
X176651333Y-40173295D02*
X176651333Y-40316152D01*
X176651333Y-40316152D02*
X176603714Y-40411390D01*
X176603714Y-40411390D02*
X176556095Y-40459009D01*
X176556095Y-40459009D02*
X176460857Y-40506628D01*
X176460857Y-40506628D02*
X176079905Y-40506628D01*
X176984667Y-39982819D02*
X177603714Y-39982819D01*
X177603714Y-39982819D02*
X177270381Y-40363771D01*
X177270381Y-40363771D02*
X177413238Y-40363771D01*
X177413238Y-40363771D02*
X177508476Y-40411390D01*
X177508476Y-40411390D02*
X177556095Y-40459009D01*
X177556095Y-40459009D02*
X177603714Y-40554247D01*
X177603714Y-40554247D02*
X177603714Y-40792342D01*
X177603714Y-40792342D02*
X177556095Y-40887580D01*
X177556095Y-40887580D02*
X177508476Y-40935200D01*
X177508476Y-40935200D02*
X177413238Y-40982819D01*
X177413238Y-40982819D02*
X177127524Y-40982819D01*
X177127524Y-40982819D02*
X177032286Y-40935200D01*
X177032286Y-40935200D02*
X176984667Y-40887580D01*
X166455333Y-52925819D02*
X166122000Y-52449628D01*
X165883905Y-52925819D02*
X165883905Y-51925819D01*
X165883905Y-51925819D02*
X166264857Y-51925819D01*
X166264857Y-51925819D02*
X166360095Y-51973438D01*
X166360095Y-51973438D02*
X166407714Y-52021057D01*
X166407714Y-52021057D02*
X166455333Y-52116295D01*
X166455333Y-52116295D02*
X166455333Y-52259152D01*
X166455333Y-52259152D02*
X166407714Y-52354390D01*
X166407714Y-52354390D02*
X166360095Y-52402009D01*
X166360095Y-52402009D02*
X166264857Y-52449628D01*
X166264857Y-52449628D02*
X165883905Y-52449628D01*
X166836286Y-52021057D02*
X166883905Y-51973438D01*
X166883905Y-51973438D02*
X166979143Y-51925819D01*
X166979143Y-51925819D02*
X167217238Y-51925819D01*
X167217238Y-51925819D02*
X167312476Y-51973438D01*
X167312476Y-51973438D02*
X167360095Y-52021057D01*
X167360095Y-52021057D02*
X167407714Y-52116295D01*
X167407714Y-52116295D02*
X167407714Y-52211533D01*
X167407714Y-52211533D02*
X167360095Y-52354390D01*
X167360095Y-52354390D02*
X166788667Y-52925819D01*
X166788667Y-52925819D02*
X167407714Y-52925819D01*
X176695333Y-52925819D02*
X176362000Y-52449628D01*
X176123905Y-52925819D02*
X176123905Y-51925819D01*
X176123905Y-51925819D02*
X176504857Y-51925819D01*
X176504857Y-51925819D02*
X176600095Y-51973438D01*
X176600095Y-51973438D02*
X176647714Y-52021057D01*
X176647714Y-52021057D02*
X176695333Y-52116295D01*
X176695333Y-52116295D02*
X176695333Y-52259152D01*
X176695333Y-52259152D02*
X176647714Y-52354390D01*
X176647714Y-52354390D02*
X176600095Y-52402009D01*
X176600095Y-52402009D02*
X176504857Y-52449628D01*
X176504857Y-52449628D02*
X176123905Y-52449628D01*
X177647714Y-52925819D02*
X177076286Y-52925819D01*
X177362000Y-52925819D02*
X177362000Y-51925819D01*
X177362000Y-51925819D02*
X177266762Y-52068676D01*
X177266762Y-52068676D02*
X177171524Y-52163914D01*
X177171524Y-52163914D02*
X177076286Y-52211533D01*
X169187905Y-102816819D02*
X169187905Y-101816819D01*
X169187905Y-101816819D02*
X169426000Y-101816819D01*
X169426000Y-101816819D02*
X169568857Y-101864438D01*
X169568857Y-101864438D02*
X169664095Y-101959676D01*
X169664095Y-101959676D02*
X169711714Y-102054914D01*
X169711714Y-102054914D02*
X169759333Y-102245390D01*
X169759333Y-102245390D02*
X169759333Y-102388247D01*
X169759333Y-102388247D02*
X169711714Y-102578723D01*
X169711714Y-102578723D02*
X169664095Y-102673961D01*
X169664095Y-102673961D02*
X169568857Y-102769200D01*
X169568857Y-102769200D02*
X169426000Y-102816819D01*
X169426000Y-102816819D02*
X169187905Y-102816819D01*
X170330762Y-102245390D02*
X170235524Y-102197771D01*
X170235524Y-102197771D02*
X170187905Y-102150152D01*
X170187905Y-102150152D02*
X170140286Y-102054914D01*
X170140286Y-102054914D02*
X170140286Y-102007295D01*
X170140286Y-102007295D02*
X170187905Y-101912057D01*
X170187905Y-101912057D02*
X170235524Y-101864438D01*
X170235524Y-101864438D02*
X170330762Y-101816819D01*
X170330762Y-101816819D02*
X170521238Y-101816819D01*
X170521238Y-101816819D02*
X170616476Y-101864438D01*
X170616476Y-101864438D02*
X170664095Y-101912057D01*
X170664095Y-101912057D02*
X170711714Y-102007295D01*
X170711714Y-102007295D02*
X170711714Y-102054914D01*
X170711714Y-102054914D02*
X170664095Y-102150152D01*
X170664095Y-102150152D02*
X170616476Y-102197771D01*
X170616476Y-102197771D02*
X170521238Y-102245390D01*
X170521238Y-102245390D02*
X170330762Y-102245390D01*
X170330762Y-102245390D02*
X170235524Y-102293009D01*
X170235524Y-102293009D02*
X170187905Y-102340628D01*
X170187905Y-102340628D02*
X170140286Y-102435866D01*
X170140286Y-102435866D02*
X170140286Y-102626342D01*
X170140286Y-102626342D02*
X170187905Y-102721580D01*
X170187905Y-102721580D02*
X170235524Y-102769200D01*
X170235524Y-102769200D02*
X170330762Y-102816819D01*
X170330762Y-102816819D02*
X170521238Y-102816819D01*
X170521238Y-102816819D02*
X170616476Y-102769200D01*
X170616476Y-102769200D02*
X170664095Y-102721580D01*
X170664095Y-102721580D02*
X170711714Y-102626342D01*
X170711714Y-102626342D02*
X170711714Y-102435866D01*
X170711714Y-102435866D02*
X170664095Y-102340628D01*
X170664095Y-102340628D02*
X170616476Y-102293009D01*
X170616476Y-102293009D02*
X170521238Y-102245390D01*
X176935714Y-108054819D02*
X176364286Y-108054819D01*
X176650000Y-108054819D02*
X176650000Y-107054819D01*
X176650000Y-107054819D02*
X176554762Y-107197676D01*
X176554762Y-107197676D02*
X176459524Y-107292914D01*
X176459524Y-107292914D02*
X176364286Y-107340533D01*
X158773905Y-102816819D02*
X158773905Y-101816819D01*
X158773905Y-101816819D02*
X159012000Y-101816819D01*
X159012000Y-101816819D02*
X159154857Y-101864438D01*
X159154857Y-101864438D02*
X159250095Y-101959676D01*
X159250095Y-101959676D02*
X159297714Y-102054914D01*
X159297714Y-102054914D02*
X159345333Y-102245390D01*
X159345333Y-102245390D02*
X159345333Y-102388247D01*
X159345333Y-102388247D02*
X159297714Y-102578723D01*
X159297714Y-102578723D02*
X159250095Y-102673961D01*
X159250095Y-102673961D02*
X159154857Y-102769200D01*
X159154857Y-102769200D02*
X159012000Y-102816819D01*
X159012000Y-102816819D02*
X158773905Y-102816819D01*
X159678667Y-101816819D02*
X160345333Y-101816819D01*
X160345333Y-101816819D02*
X159916762Y-102816819D01*
X166435714Y-108054819D02*
X165864286Y-108054819D01*
X166150000Y-108054819D02*
X166150000Y-107054819D01*
X166150000Y-107054819D02*
X166054762Y-107197676D01*
X166054762Y-107197676D02*
X165959524Y-107292914D01*
X165959524Y-107292914D02*
X165864286Y-107340533D01*
X148359905Y-102816819D02*
X148359905Y-101816819D01*
X148359905Y-101816819D02*
X148598000Y-101816819D01*
X148598000Y-101816819D02*
X148740857Y-101864438D01*
X148740857Y-101864438D02*
X148836095Y-101959676D01*
X148836095Y-101959676D02*
X148883714Y-102054914D01*
X148883714Y-102054914D02*
X148931333Y-102245390D01*
X148931333Y-102245390D02*
X148931333Y-102388247D01*
X148931333Y-102388247D02*
X148883714Y-102578723D01*
X148883714Y-102578723D02*
X148836095Y-102673961D01*
X148836095Y-102673961D02*
X148740857Y-102769200D01*
X148740857Y-102769200D02*
X148598000Y-102816819D01*
X148598000Y-102816819D02*
X148359905Y-102816819D01*
X149788476Y-101816819D02*
X149598000Y-101816819D01*
X149598000Y-101816819D02*
X149502762Y-101864438D01*
X149502762Y-101864438D02*
X149455143Y-101912057D01*
X149455143Y-101912057D02*
X149359905Y-102054914D01*
X149359905Y-102054914D02*
X149312286Y-102245390D01*
X149312286Y-102245390D02*
X149312286Y-102626342D01*
X149312286Y-102626342D02*
X149359905Y-102721580D01*
X149359905Y-102721580D02*
X149407524Y-102769200D01*
X149407524Y-102769200D02*
X149502762Y-102816819D01*
X149502762Y-102816819D02*
X149693238Y-102816819D01*
X149693238Y-102816819D02*
X149788476Y-102769200D01*
X149788476Y-102769200D02*
X149836095Y-102721580D01*
X149836095Y-102721580D02*
X149883714Y-102626342D01*
X149883714Y-102626342D02*
X149883714Y-102388247D01*
X149883714Y-102388247D02*
X149836095Y-102293009D01*
X149836095Y-102293009D02*
X149788476Y-102245390D01*
X149788476Y-102245390D02*
X149693238Y-102197771D01*
X149693238Y-102197771D02*
X149502762Y-102197771D01*
X149502762Y-102197771D02*
X149407524Y-102245390D01*
X149407524Y-102245390D02*
X149359905Y-102293009D01*
X149359905Y-102293009D02*
X149312286Y-102388247D01*
X155935714Y-108054819D02*
X155364286Y-108054819D01*
X155650000Y-108054819D02*
X155650000Y-107054819D01*
X155650000Y-107054819D02*
X155554762Y-107197676D01*
X155554762Y-107197676D02*
X155459524Y-107292914D01*
X155459524Y-107292914D02*
X155364286Y-107340533D01*
X137691905Y-102816819D02*
X137691905Y-101816819D01*
X137691905Y-101816819D02*
X137930000Y-101816819D01*
X137930000Y-101816819D02*
X138072857Y-101864438D01*
X138072857Y-101864438D02*
X138168095Y-101959676D01*
X138168095Y-101959676D02*
X138215714Y-102054914D01*
X138215714Y-102054914D02*
X138263333Y-102245390D01*
X138263333Y-102245390D02*
X138263333Y-102388247D01*
X138263333Y-102388247D02*
X138215714Y-102578723D01*
X138215714Y-102578723D02*
X138168095Y-102673961D01*
X138168095Y-102673961D02*
X138072857Y-102769200D01*
X138072857Y-102769200D02*
X137930000Y-102816819D01*
X137930000Y-102816819D02*
X137691905Y-102816819D01*
X139168095Y-101816819D02*
X138691905Y-101816819D01*
X138691905Y-101816819D02*
X138644286Y-102293009D01*
X138644286Y-102293009D02*
X138691905Y-102245390D01*
X138691905Y-102245390D02*
X138787143Y-102197771D01*
X138787143Y-102197771D02*
X139025238Y-102197771D01*
X139025238Y-102197771D02*
X139120476Y-102245390D01*
X139120476Y-102245390D02*
X139168095Y-102293009D01*
X139168095Y-102293009D02*
X139215714Y-102388247D01*
X139215714Y-102388247D02*
X139215714Y-102626342D01*
X139215714Y-102626342D02*
X139168095Y-102721580D01*
X139168095Y-102721580D02*
X139120476Y-102769200D01*
X139120476Y-102769200D02*
X139025238Y-102816819D01*
X139025238Y-102816819D02*
X138787143Y-102816819D01*
X138787143Y-102816819D02*
X138691905Y-102769200D01*
X138691905Y-102769200D02*
X138644286Y-102721580D01*
X145435714Y-108054819D02*
X144864286Y-108054819D01*
X145150000Y-108054819D02*
X145150000Y-107054819D01*
X145150000Y-107054819D02*
X145054762Y-107197676D01*
X145054762Y-107197676D02*
X144959524Y-107292914D01*
X144959524Y-107292914D02*
X144864286Y-107340533D01*
X127277905Y-102816819D02*
X127277905Y-101816819D01*
X127277905Y-101816819D02*
X127516000Y-101816819D01*
X127516000Y-101816819D02*
X127658857Y-101864438D01*
X127658857Y-101864438D02*
X127754095Y-101959676D01*
X127754095Y-101959676D02*
X127801714Y-102054914D01*
X127801714Y-102054914D02*
X127849333Y-102245390D01*
X127849333Y-102245390D02*
X127849333Y-102388247D01*
X127849333Y-102388247D02*
X127801714Y-102578723D01*
X127801714Y-102578723D02*
X127754095Y-102673961D01*
X127754095Y-102673961D02*
X127658857Y-102769200D01*
X127658857Y-102769200D02*
X127516000Y-102816819D01*
X127516000Y-102816819D02*
X127277905Y-102816819D01*
X128706476Y-102150152D02*
X128706476Y-102816819D01*
X128468381Y-101769200D02*
X128230286Y-102483485D01*
X128230286Y-102483485D02*
X128849333Y-102483485D01*
X134935714Y-108054819D02*
X134364286Y-108054819D01*
X134650000Y-108054819D02*
X134650000Y-107054819D01*
X134650000Y-107054819D02*
X134554762Y-107197676D01*
X134554762Y-107197676D02*
X134459524Y-107292914D01*
X134459524Y-107292914D02*
X134364286Y-107340533D01*
X116863905Y-102816819D02*
X116863905Y-101816819D01*
X116863905Y-101816819D02*
X117102000Y-101816819D01*
X117102000Y-101816819D02*
X117244857Y-101864438D01*
X117244857Y-101864438D02*
X117340095Y-101959676D01*
X117340095Y-101959676D02*
X117387714Y-102054914D01*
X117387714Y-102054914D02*
X117435333Y-102245390D01*
X117435333Y-102245390D02*
X117435333Y-102388247D01*
X117435333Y-102388247D02*
X117387714Y-102578723D01*
X117387714Y-102578723D02*
X117340095Y-102673961D01*
X117340095Y-102673961D02*
X117244857Y-102769200D01*
X117244857Y-102769200D02*
X117102000Y-102816819D01*
X117102000Y-102816819D02*
X116863905Y-102816819D01*
X117768667Y-101816819D02*
X118387714Y-101816819D01*
X118387714Y-101816819D02*
X118054381Y-102197771D01*
X118054381Y-102197771D02*
X118197238Y-102197771D01*
X118197238Y-102197771D02*
X118292476Y-102245390D01*
X118292476Y-102245390D02*
X118340095Y-102293009D01*
X118340095Y-102293009D02*
X118387714Y-102388247D01*
X118387714Y-102388247D02*
X118387714Y-102626342D01*
X118387714Y-102626342D02*
X118340095Y-102721580D01*
X118340095Y-102721580D02*
X118292476Y-102769200D01*
X118292476Y-102769200D02*
X118197238Y-102816819D01*
X118197238Y-102816819D02*
X117911524Y-102816819D01*
X117911524Y-102816819D02*
X117816286Y-102769200D01*
X117816286Y-102769200D02*
X117768667Y-102721580D01*
X124435714Y-108054819D02*
X123864286Y-108054819D01*
X124150000Y-108054819D02*
X124150000Y-107054819D01*
X124150000Y-107054819D02*
X124054762Y-107197676D01*
X124054762Y-107197676D02*
X123959524Y-107292914D01*
X123959524Y-107292914D02*
X123864286Y-107340533D01*
X106195905Y-102816819D02*
X106195905Y-101816819D01*
X106195905Y-101816819D02*
X106434000Y-101816819D01*
X106434000Y-101816819D02*
X106576857Y-101864438D01*
X106576857Y-101864438D02*
X106672095Y-101959676D01*
X106672095Y-101959676D02*
X106719714Y-102054914D01*
X106719714Y-102054914D02*
X106767333Y-102245390D01*
X106767333Y-102245390D02*
X106767333Y-102388247D01*
X106767333Y-102388247D02*
X106719714Y-102578723D01*
X106719714Y-102578723D02*
X106672095Y-102673961D01*
X106672095Y-102673961D02*
X106576857Y-102769200D01*
X106576857Y-102769200D02*
X106434000Y-102816819D01*
X106434000Y-102816819D02*
X106195905Y-102816819D01*
X107148286Y-101912057D02*
X107195905Y-101864438D01*
X107195905Y-101864438D02*
X107291143Y-101816819D01*
X107291143Y-101816819D02*
X107529238Y-101816819D01*
X107529238Y-101816819D02*
X107624476Y-101864438D01*
X107624476Y-101864438D02*
X107672095Y-101912057D01*
X107672095Y-101912057D02*
X107719714Y-102007295D01*
X107719714Y-102007295D02*
X107719714Y-102102533D01*
X107719714Y-102102533D02*
X107672095Y-102245390D01*
X107672095Y-102245390D02*
X107100667Y-102816819D01*
X107100667Y-102816819D02*
X107719714Y-102816819D01*
X113935714Y-108054819D02*
X113364286Y-108054819D01*
X113650000Y-108054819D02*
X113650000Y-107054819D01*
X113650000Y-107054819D02*
X113554762Y-107197676D01*
X113554762Y-107197676D02*
X113459524Y-107292914D01*
X113459524Y-107292914D02*
X113364286Y-107340533D01*
X95781905Y-102816819D02*
X95781905Y-101816819D01*
X95781905Y-101816819D02*
X96020000Y-101816819D01*
X96020000Y-101816819D02*
X96162857Y-101864438D01*
X96162857Y-101864438D02*
X96258095Y-101959676D01*
X96258095Y-101959676D02*
X96305714Y-102054914D01*
X96305714Y-102054914D02*
X96353333Y-102245390D01*
X96353333Y-102245390D02*
X96353333Y-102388247D01*
X96353333Y-102388247D02*
X96305714Y-102578723D01*
X96305714Y-102578723D02*
X96258095Y-102673961D01*
X96258095Y-102673961D02*
X96162857Y-102769200D01*
X96162857Y-102769200D02*
X96020000Y-102816819D01*
X96020000Y-102816819D02*
X95781905Y-102816819D01*
X97305714Y-102816819D02*
X96734286Y-102816819D01*
X97020000Y-102816819D02*
X97020000Y-101816819D01*
X97020000Y-101816819D02*
X96924762Y-101959676D01*
X96924762Y-101959676D02*
X96829524Y-102054914D01*
X96829524Y-102054914D02*
X96734286Y-102102533D01*
X103435714Y-108054819D02*
X102864286Y-108054819D01*
X103150000Y-108054819D02*
X103150000Y-107054819D01*
X103150000Y-107054819D02*
X103054762Y-107197676D01*
X103054762Y-107197676D02*
X102959524Y-107292914D01*
X102959524Y-107292914D02*
X102864286Y-107340533D01*
X157313333Y-70209580D02*
X157265714Y-70257200D01*
X157265714Y-70257200D02*
X157122857Y-70304819D01*
X157122857Y-70304819D02*
X157027619Y-70304819D01*
X157027619Y-70304819D02*
X156884762Y-70257200D01*
X156884762Y-70257200D02*
X156789524Y-70161961D01*
X156789524Y-70161961D02*
X156741905Y-70066723D01*
X156741905Y-70066723D02*
X156694286Y-69876247D01*
X156694286Y-69876247D02*
X156694286Y-69733390D01*
X156694286Y-69733390D02*
X156741905Y-69542914D01*
X156741905Y-69542914D02*
X156789524Y-69447676D01*
X156789524Y-69447676D02*
X156884762Y-69352438D01*
X156884762Y-69352438D02*
X157027619Y-69304819D01*
X157027619Y-69304819D02*
X157122857Y-69304819D01*
X157122857Y-69304819D02*
X157265714Y-69352438D01*
X157265714Y-69352438D02*
X157313333Y-69400057D01*
X158170476Y-69638152D02*
X158170476Y-70304819D01*
X157932381Y-69257200D02*
X157694286Y-69971485D01*
X157694286Y-69971485D02*
X158313333Y-69971485D01*
X125581580Y-65063666D02*
X125629200Y-65111285D01*
X125629200Y-65111285D02*
X125676819Y-65254142D01*
X125676819Y-65254142D02*
X125676819Y-65349380D01*
X125676819Y-65349380D02*
X125629200Y-65492237D01*
X125629200Y-65492237D02*
X125533961Y-65587475D01*
X125533961Y-65587475D02*
X125438723Y-65635094D01*
X125438723Y-65635094D02*
X125248247Y-65682713D01*
X125248247Y-65682713D02*
X125105390Y-65682713D01*
X125105390Y-65682713D02*
X124914914Y-65635094D01*
X124914914Y-65635094D02*
X124819676Y-65587475D01*
X124819676Y-65587475D02*
X124724438Y-65492237D01*
X124724438Y-65492237D02*
X124676819Y-65349380D01*
X124676819Y-65349380D02*
X124676819Y-65254142D01*
X124676819Y-65254142D02*
X124724438Y-65111285D01*
X124724438Y-65111285D02*
X124772057Y-65063666D01*
X124676819Y-64730332D02*
X124676819Y-64111285D01*
X124676819Y-64111285D02*
X125057771Y-64444618D01*
X125057771Y-64444618D02*
X125057771Y-64301761D01*
X125057771Y-64301761D02*
X125105390Y-64206523D01*
X125105390Y-64206523D02*
X125153009Y-64158904D01*
X125153009Y-64158904D02*
X125248247Y-64111285D01*
X125248247Y-64111285D02*
X125486342Y-64111285D01*
X125486342Y-64111285D02*
X125581580Y-64158904D01*
X125581580Y-64158904D02*
X125629200Y-64206523D01*
X125629200Y-64206523D02*
X125676819Y-64301761D01*
X125676819Y-64301761D02*
X125676819Y-64587475D01*
X125676819Y-64587475D02*
X125629200Y-64682713D01*
X125629200Y-64682713D02*
X125581580Y-64730332D01*
X173207334Y-52068580D02*
X173159715Y-52116200D01*
X173159715Y-52116200D02*
X173016858Y-52163819D01*
X173016858Y-52163819D02*
X172921620Y-52163819D01*
X172921620Y-52163819D02*
X172778763Y-52116200D01*
X172778763Y-52116200D02*
X172683525Y-52020961D01*
X172683525Y-52020961D02*
X172635906Y-51925723D01*
X172635906Y-51925723D02*
X172588287Y-51735247D01*
X172588287Y-51735247D02*
X172588287Y-51592390D01*
X172588287Y-51592390D02*
X172635906Y-51401914D01*
X172635906Y-51401914D02*
X172683525Y-51306676D01*
X172683525Y-51306676D02*
X172778763Y-51211438D01*
X172778763Y-51211438D02*
X172921620Y-51163819D01*
X172921620Y-51163819D02*
X173016858Y-51163819D01*
X173016858Y-51163819D02*
X173159715Y-51211438D01*
X173159715Y-51211438D02*
X173207334Y-51259057D01*
X173588287Y-51259057D02*
X173635906Y-51211438D01*
X173635906Y-51211438D02*
X173731144Y-51163819D01*
X173731144Y-51163819D02*
X173969239Y-51163819D01*
X173969239Y-51163819D02*
X174064477Y-51211438D01*
X174064477Y-51211438D02*
X174112096Y-51259057D01*
X174112096Y-51259057D02*
X174159715Y-51354295D01*
X174159715Y-51354295D02*
X174159715Y-51449533D01*
X174159715Y-51449533D02*
X174112096Y-51592390D01*
X174112096Y-51592390D02*
X173540668Y-52163819D01*
X173540668Y-52163819D02*
X174159715Y-52163819D01*
X169905334Y-52068580D02*
X169857715Y-52116200D01*
X169857715Y-52116200D02*
X169714858Y-52163819D01*
X169714858Y-52163819D02*
X169619620Y-52163819D01*
X169619620Y-52163819D02*
X169476763Y-52116200D01*
X169476763Y-52116200D02*
X169381525Y-52020961D01*
X169381525Y-52020961D02*
X169333906Y-51925723D01*
X169333906Y-51925723D02*
X169286287Y-51735247D01*
X169286287Y-51735247D02*
X169286287Y-51592390D01*
X169286287Y-51592390D02*
X169333906Y-51401914D01*
X169333906Y-51401914D02*
X169381525Y-51306676D01*
X169381525Y-51306676D02*
X169476763Y-51211438D01*
X169476763Y-51211438D02*
X169619620Y-51163819D01*
X169619620Y-51163819D02*
X169714858Y-51163819D01*
X169714858Y-51163819D02*
X169857715Y-51211438D01*
X169857715Y-51211438D02*
X169905334Y-51259057D01*
X170857715Y-52163819D02*
X170286287Y-52163819D01*
X170572001Y-52163819D02*
X170572001Y-51163819D01*
X170572001Y-51163819D02*
X170476763Y-51306676D01*
X170476763Y-51306676D02*
X170381525Y-51401914D01*
X170381525Y-51401914D02*
X170286287Y-51449533D01*
X90323200Y-118395523D02*
X90370819Y-118252666D01*
X90370819Y-118252666D02*
X90370819Y-118014571D01*
X90370819Y-118014571D02*
X90323200Y-117919333D01*
X90323200Y-117919333D02*
X90275580Y-117871714D01*
X90275580Y-117871714D02*
X90180342Y-117824095D01*
X90180342Y-117824095D02*
X90085104Y-117824095D01*
X90085104Y-117824095D02*
X89989866Y-117871714D01*
X89989866Y-117871714D02*
X89942247Y-117919333D01*
X89942247Y-117919333D02*
X89894628Y-118014571D01*
X89894628Y-118014571D02*
X89847009Y-118205047D01*
X89847009Y-118205047D02*
X89799390Y-118300285D01*
X89799390Y-118300285D02*
X89751771Y-118347904D01*
X89751771Y-118347904D02*
X89656533Y-118395523D01*
X89656533Y-118395523D02*
X89561295Y-118395523D01*
X89561295Y-118395523D02*
X89466057Y-118347904D01*
X89466057Y-118347904D02*
X89418438Y-118300285D01*
X89418438Y-118300285D02*
X89370819Y-118205047D01*
X89370819Y-118205047D02*
X89370819Y-117966952D01*
X89370819Y-117966952D02*
X89418438Y-117824095D01*
X89370819Y-117490761D02*
X90370819Y-117252666D01*
X90370819Y-117252666D02*
X89656533Y-117062190D01*
X89656533Y-117062190D02*
X90370819Y-116871714D01*
X90370819Y-116871714D02*
X89370819Y-116633619D01*
X90370819Y-115728857D02*
X90370819Y-116300285D01*
X90370819Y-116014571D02*
X89370819Y-116014571D01*
X89370819Y-116014571D02*
X89513676Y-116109809D01*
X89513676Y-116109809D02*
X89608914Y-116205047D01*
X89608914Y-116205047D02*
X89656533Y-116300285D01*
X89370819Y-115109809D02*
X89370819Y-115014571D01*
X89370819Y-115014571D02*
X89418438Y-114919333D01*
X89418438Y-114919333D02*
X89466057Y-114871714D01*
X89466057Y-114871714D02*
X89561295Y-114824095D01*
X89561295Y-114824095D02*
X89751771Y-114776476D01*
X89751771Y-114776476D02*
X89989866Y-114776476D01*
X89989866Y-114776476D02*
X90180342Y-114824095D01*
X90180342Y-114824095D02*
X90275580Y-114871714D01*
X90275580Y-114871714D02*
X90323200Y-114919333D01*
X90323200Y-114919333D02*
X90370819Y-115014571D01*
X90370819Y-115014571D02*
X90370819Y-115109809D01*
X90370819Y-115109809D02*
X90323200Y-115205047D01*
X90323200Y-115205047D02*
X90275580Y-115252666D01*
X90275580Y-115252666D02*
X90180342Y-115300285D01*
X90180342Y-115300285D02*
X89989866Y-115347904D01*
X89989866Y-115347904D02*
X89751771Y-115347904D01*
X89751771Y-115347904D02*
X89561295Y-115300285D01*
X89561295Y-115300285D02*
X89466057Y-115252666D01*
X89466057Y-115252666D02*
X89418438Y-115205047D01*
X89418438Y-115205047D02*
X89370819Y-115109809D01*
X168657200Y-115833332D02*
X168704819Y-115690475D01*
X168704819Y-115690475D02*
X168704819Y-115452380D01*
X168704819Y-115452380D02*
X168657200Y-115357142D01*
X168657200Y-115357142D02*
X168609580Y-115309523D01*
X168609580Y-115309523D02*
X168514342Y-115261904D01*
X168514342Y-115261904D02*
X168419104Y-115261904D01*
X168419104Y-115261904D02*
X168323866Y-115309523D01*
X168323866Y-115309523D02*
X168276247Y-115357142D01*
X168276247Y-115357142D02*
X168228628Y-115452380D01*
X168228628Y-115452380D02*
X168181009Y-115642856D01*
X168181009Y-115642856D02*
X168133390Y-115738094D01*
X168133390Y-115738094D02*
X168085771Y-115785713D01*
X168085771Y-115785713D02*
X167990533Y-115833332D01*
X167990533Y-115833332D02*
X167895295Y-115833332D01*
X167895295Y-115833332D02*
X167800057Y-115785713D01*
X167800057Y-115785713D02*
X167752438Y-115738094D01*
X167752438Y-115738094D02*
X167704819Y-115642856D01*
X167704819Y-115642856D02*
X167704819Y-115404761D01*
X167704819Y-115404761D02*
X167752438Y-115261904D01*
X167704819Y-114928570D02*
X168704819Y-114690475D01*
X168704819Y-114690475D02*
X167990533Y-114499999D01*
X167990533Y-114499999D02*
X168704819Y-114309523D01*
X168704819Y-114309523D02*
X167704819Y-114071428D01*
X168133390Y-113547618D02*
X168085771Y-113642856D01*
X168085771Y-113642856D02*
X168038152Y-113690475D01*
X168038152Y-113690475D02*
X167942914Y-113738094D01*
X167942914Y-113738094D02*
X167895295Y-113738094D01*
X167895295Y-113738094D02*
X167800057Y-113690475D01*
X167800057Y-113690475D02*
X167752438Y-113642856D01*
X167752438Y-113642856D02*
X167704819Y-113547618D01*
X167704819Y-113547618D02*
X167704819Y-113357142D01*
X167704819Y-113357142D02*
X167752438Y-113261904D01*
X167752438Y-113261904D02*
X167800057Y-113214285D01*
X167800057Y-113214285D02*
X167895295Y-113166666D01*
X167895295Y-113166666D02*
X167942914Y-113166666D01*
X167942914Y-113166666D02*
X168038152Y-113214285D01*
X168038152Y-113214285D02*
X168085771Y-113261904D01*
X168085771Y-113261904D02*
X168133390Y-113357142D01*
X168133390Y-113357142D02*
X168133390Y-113547618D01*
X168133390Y-113547618D02*
X168181009Y-113642856D01*
X168181009Y-113642856D02*
X168228628Y-113690475D01*
X168228628Y-113690475D02*
X168323866Y-113738094D01*
X168323866Y-113738094D02*
X168514342Y-113738094D01*
X168514342Y-113738094D02*
X168609580Y-113690475D01*
X168609580Y-113690475D02*
X168657200Y-113642856D01*
X168657200Y-113642856D02*
X168704819Y-113547618D01*
X168704819Y-113547618D02*
X168704819Y-113357142D01*
X168704819Y-113357142D02*
X168657200Y-113261904D01*
X168657200Y-113261904D02*
X168609580Y-113214285D01*
X168609580Y-113214285D02*
X168514342Y-113166666D01*
X168514342Y-113166666D02*
X168323866Y-113166666D01*
X168323866Y-113166666D02*
X168228628Y-113214285D01*
X168228628Y-113214285D02*
X168181009Y-113261904D01*
X168181009Y-113261904D02*
X168133390Y-113357142D01*
X158157200Y-115833332D02*
X158204819Y-115690475D01*
X158204819Y-115690475D02*
X158204819Y-115452380D01*
X158204819Y-115452380D02*
X158157200Y-115357142D01*
X158157200Y-115357142D02*
X158109580Y-115309523D01*
X158109580Y-115309523D02*
X158014342Y-115261904D01*
X158014342Y-115261904D02*
X157919104Y-115261904D01*
X157919104Y-115261904D02*
X157823866Y-115309523D01*
X157823866Y-115309523D02*
X157776247Y-115357142D01*
X157776247Y-115357142D02*
X157728628Y-115452380D01*
X157728628Y-115452380D02*
X157681009Y-115642856D01*
X157681009Y-115642856D02*
X157633390Y-115738094D01*
X157633390Y-115738094D02*
X157585771Y-115785713D01*
X157585771Y-115785713D02*
X157490533Y-115833332D01*
X157490533Y-115833332D02*
X157395295Y-115833332D01*
X157395295Y-115833332D02*
X157300057Y-115785713D01*
X157300057Y-115785713D02*
X157252438Y-115738094D01*
X157252438Y-115738094D02*
X157204819Y-115642856D01*
X157204819Y-115642856D02*
X157204819Y-115404761D01*
X157204819Y-115404761D02*
X157252438Y-115261904D01*
X157204819Y-114928570D02*
X158204819Y-114690475D01*
X158204819Y-114690475D02*
X157490533Y-114499999D01*
X157490533Y-114499999D02*
X158204819Y-114309523D01*
X158204819Y-114309523D02*
X157204819Y-114071428D01*
X157204819Y-113785713D02*
X157204819Y-113119047D01*
X157204819Y-113119047D02*
X158204819Y-113547618D01*
X147657200Y-115833332D02*
X147704819Y-115690475D01*
X147704819Y-115690475D02*
X147704819Y-115452380D01*
X147704819Y-115452380D02*
X147657200Y-115357142D01*
X147657200Y-115357142D02*
X147609580Y-115309523D01*
X147609580Y-115309523D02*
X147514342Y-115261904D01*
X147514342Y-115261904D02*
X147419104Y-115261904D01*
X147419104Y-115261904D02*
X147323866Y-115309523D01*
X147323866Y-115309523D02*
X147276247Y-115357142D01*
X147276247Y-115357142D02*
X147228628Y-115452380D01*
X147228628Y-115452380D02*
X147181009Y-115642856D01*
X147181009Y-115642856D02*
X147133390Y-115738094D01*
X147133390Y-115738094D02*
X147085771Y-115785713D01*
X147085771Y-115785713D02*
X146990533Y-115833332D01*
X146990533Y-115833332D02*
X146895295Y-115833332D01*
X146895295Y-115833332D02*
X146800057Y-115785713D01*
X146800057Y-115785713D02*
X146752438Y-115738094D01*
X146752438Y-115738094D02*
X146704819Y-115642856D01*
X146704819Y-115642856D02*
X146704819Y-115404761D01*
X146704819Y-115404761D02*
X146752438Y-115261904D01*
X146704819Y-114928570D02*
X147704819Y-114690475D01*
X147704819Y-114690475D02*
X146990533Y-114499999D01*
X146990533Y-114499999D02*
X147704819Y-114309523D01*
X147704819Y-114309523D02*
X146704819Y-114071428D01*
X146704819Y-113261904D02*
X146704819Y-113452380D01*
X146704819Y-113452380D02*
X146752438Y-113547618D01*
X146752438Y-113547618D02*
X146800057Y-113595237D01*
X146800057Y-113595237D02*
X146942914Y-113690475D01*
X146942914Y-113690475D02*
X147133390Y-113738094D01*
X147133390Y-113738094D02*
X147514342Y-113738094D01*
X147514342Y-113738094D02*
X147609580Y-113690475D01*
X147609580Y-113690475D02*
X147657200Y-113642856D01*
X147657200Y-113642856D02*
X147704819Y-113547618D01*
X147704819Y-113547618D02*
X147704819Y-113357142D01*
X147704819Y-113357142D02*
X147657200Y-113261904D01*
X147657200Y-113261904D02*
X147609580Y-113214285D01*
X147609580Y-113214285D02*
X147514342Y-113166666D01*
X147514342Y-113166666D02*
X147276247Y-113166666D01*
X147276247Y-113166666D02*
X147181009Y-113214285D01*
X147181009Y-113214285D02*
X147133390Y-113261904D01*
X147133390Y-113261904D02*
X147085771Y-113357142D01*
X147085771Y-113357142D02*
X147085771Y-113547618D01*
X147085771Y-113547618D02*
X147133390Y-113642856D01*
X147133390Y-113642856D02*
X147181009Y-113690475D01*
X147181009Y-113690475D02*
X147276247Y-113738094D01*
X137157200Y-115833332D02*
X137204819Y-115690475D01*
X137204819Y-115690475D02*
X137204819Y-115452380D01*
X137204819Y-115452380D02*
X137157200Y-115357142D01*
X137157200Y-115357142D02*
X137109580Y-115309523D01*
X137109580Y-115309523D02*
X137014342Y-115261904D01*
X137014342Y-115261904D02*
X136919104Y-115261904D01*
X136919104Y-115261904D02*
X136823866Y-115309523D01*
X136823866Y-115309523D02*
X136776247Y-115357142D01*
X136776247Y-115357142D02*
X136728628Y-115452380D01*
X136728628Y-115452380D02*
X136681009Y-115642856D01*
X136681009Y-115642856D02*
X136633390Y-115738094D01*
X136633390Y-115738094D02*
X136585771Y-115785713D01*
X136585771Y-115785713D02*
X136490533Y-115833332D01*
X136490533Y-115833332D02*
X136395295Y-115833332D01*
X136395295Y-115833332D02*
X136300057Y-115785713D01*
X136300057Y-115785713D02*
X136252438Y-115738094D01*
X136252438Y-115738094D02*
X136204819Y-115642856D01*
X136204819Y-115642856D02*
X136204819Y-115404761D01*
X136204819Y-115404761D02*
X136252438Y-115261904D01*
X136204819Y-114928570D02*
X137204819Y-114690475D01*
X137204819Y-114690475D02*
X136490533Y-114499999D01*
X136490533Y-114499999D02*
X137204819Y-114309523D01*
X137204819Y-114309523D02*
X136204819Y-114071428D01*
X136204819Y-113214285D02*
X136204819Y-113690475D01*
X136204819Y-113690475D02*
X136681009Y-113738094D01*
X136681009Y-113738094D02*
X136633390Y-113690475D01*
X136633390Y-113690475D02*
X136585771Y-113595237D01*
X136585771Y-113595237D02*
X136585771Y-113357142D01*
X136585771Y-113357142D02*
X136633390Y-113261904D01*
X136633390Y-113261904D02*
X136681009Y-113214285D01*
X136681009Y-113214285D02*
X136776247Y-113166666D01*
X136776247Y-113166666D02*
X137014342Y-113166666D01*
X137014342Y-113166666D02*
X137109580Y-113214285D01*
X137109580Y-113214285D02*
X137157200Y-113261904D01*
X137157200Y-113261904D02*
X137204819Y-113357142D01*
X137204819Y-113357142D02*
X137204819Y-113595237D01*
X137204819Y-113595237D02*
X137157200Y-113690475D01*
X137157200Y-113690475D02*
X137109580Y-113738094D01*
X126657200Y-115833332D02*
X126704819Y-115690475D01*
X126704819Y-115690475D02*
X126704819Y-115452380D01*
X126704819Y-115452380D02*
X126657200Y-115357142D01*
X126657200Y-115357142D02*
X126609580Y-115309523D01*
X126609580Y-115309523D02*
X126514342Y-115261904D01*
X126514342Y-115261904D02*
X126419104Y-115261904D01*
X126419104Y-115261904D02*
X126323866Y-115309523D01*
X126323866Y-115309523D02*
X126276247Y-115357142D01*
X126276247Y-115357142D02*
X126228628Y-115452380D01*
X126228628Y-115452380D02*
X126181009Y-115642856D01*
X126181009Y-115642856D02*
X126133390Y-115738094D01*
X126133390Y-115738094D02*
X126085771Y-115785713D01*
X126085771Y-115785713D02*
X125990533Y-115833332D01*
X125990533Y-115833332D02*
X125895295Y-115833332D01*
X125895295Y-115833332D02*
X125800057Y-115785713D01*
X125800057Y-115785713D02*
X125752438Y-115738094D01*
X125752438Y-115738094D02*
X125704819Y-115642856D01*
X125704819Y-115642856D02*
X125704819Y-115404761D01*
X125704819Y-115404761D02*
X125752438Y-115261904D01*
X125704819Y-114928570D02*
X126704819Y-114690475D01*
X126704819Y-114690475D02*
X125990533Y-114499999D01*
X125990533Y-114499999D02*
X126704819Y-114309523D01*
X126704819Y-114309523D02*
X125704819Y-114071428D01*
X126038152Y-113261904D02*
X126704819Y-113261904D01*
X125657200Y-113499999D02*
X126371485Y-113738094D01*
X126371485Y-113738094D02*
X126371485Y-113119047D01*
X116157200Y-115833332D02*
X116204819Y-115690475D01*
X116204819Y-115690475D02*
X116204819Y-115452380D01*
X116204819Y-115452380D02*
X116157200Y-115357142D01*
X116157200Y-115357142D02*
X116109580Y-115309523D01*
X116109580Y-115309523D02*
X116014342Y-115261904D01*
X116014342Y-115261904D02*
X115919104Y-115261904D01*
X115919104Y-115261904D02*
X115823866Y-115309523D01*
X115823866Y-115309523D02*
X115776247Y-115357142D01*
X115776247Y-115357142D02*
X115728628Y-115452380D01*
X115728628Y-115452380D02*
X115681009Y-115642856D01*
X115681009Y-115642856D02*
X115633390Y-115738094D01*
X115633390Y-115738094D02*
X115585771Y-115785713D01*
X115585771Y-115785713D02*
X115490533Y-115833332D01*
X115490533Y-115833332D02*
X115395295Y-115833332D01*
X115395295Y-115833332D02*
X115300057Y-115785713D01*
X115300057Y-115785713D02*
X115252438Y-115738094D01*
X115252438Y-115738094D02*
X115204819Y-115642856D01*
X115204819Y-115642856D02*
X115204819Y-115404761D01*
X115204819Y-115404761D02*
X115252438Y-115261904D01*
X115204819Y-114928570D02*
X116204819Y-114690475D01*
X116204819Y-114690475D02*
X115490533Y-114499999D01*
X115490533Y-114499999D02*
X116204819Y-114309523D01*
X116204819Y-114309523D02*
X115204819Y-114071428D01*
X115204819Y-113785713D02*
X115204819Y-113166666D01*
X115204819Y-113166666D02*
X115585771Y-113499999D01*
X115585771Y-113499999D02*
X115585771Y-113357142D01*
X115585771Y-113357142D02*
X115633390Y-113261904D01*
X115633390Y-113261904D02*
X115681009Y-113214285D01*
X115681009Y-113214285D02*
X115776247Y-113166666D01*
X115776247Y-113166666D02*
X116014342Y-113166666D01*
X116014342Y-113166666D02*
X116109580Y-113214285D01*
X116109580Y-113214285D02*
X116157200Y-113261904D01*
X116157200Y-113261904D02*
X116204819Y-113357142D01*
X116204819Y-113357142D02*
X116204819Y-113642856D01*
X116204819Y-113642856D02*
X116157200Y-113738094D01*
X116157200Y-113738094D02*
X116109580Y-113785713D01*
X105657200Y-115833332D02*
X105704819Y-115690475D01*
X105704819Y-115690475D02*
X105704819Y-115452380D01*
X105704819Y-115452380D02*
X105657200Y-115357142D01*
X105657200Y-115357142D02*
X105609580Y-115309523D01*
X105609580Y-115309523D02*
X105514342Y-115261904D01*
X105514342Y-115261904D02*
X105419104Y-115261904D01*
X105419104Y-115261904D02*
X105323866Y-115309523D01*
X105323866Y-115309523D02*
X105276247Y-115357142D01*
X105276247Y-115357142D02*
X105228628Y-115452380D01*
X105228628Y-115452380D02*
X105181009Y-115642856D01*
X105181009Y-115642856D02*
X105133390Y-115738094D01*
X105133390Y-115738094D02*
X105085771Y-115785713D01*
X105085771Y-115785713D02*
X104990533Y-115833332D01*
X104990533Y-115833332D02*
X104895295Y-115833332D01*
X104895295Y-115833332D02*
X104800057Y-115785713D01*
X104800057Y-115785713D02*
X104752438Y-115738094D01*
X104752438Y-115738094D02*
X104704819Y-115642856D01*
X104704819Y-115642856D02*
X104704819Y-115404761D01*
X104704819Y-115404761D02*
X104752438Y-115261904D01*
X104704819Y-114928570D02*
X105704819Y-114690475D01*
X105704819Y-114690475D02*
X104990533Y-114499999D01*
X104990533Y-114499999D02*
X105704819Y-114309523D01*
X105704819Y-114309523D02*
X104704819Y-114071428D01*
X104800057Y-113738094D02*
X104752438Y-113690475D01*
X104752438Y-113690475D02*
X104704819Y-113595237D01*
X104704819Y-113595237D02*
X104704819Y-113357142D01*
X104704819Y-113357142D02*
X104752438Y-113261904D01*
X104752438Y-113261904D02*
X104800057Y-113214285D01*
X104800057Y-113214285D02*
X104895295Y-113166666D01*
X104895295Y-113166666D02*
X104990533Y-113166666D01*
X104990533Y-113166666D02*
X105133390Y-113214285D01*
X105133390Y-113214285D02*
X105704819Y-113785713D01*
X105704819Y-113785713D02*
X105704819Y-113166666D01*
X95157200Y-115833332D02*
X95204819Y-115690475D01*
X95204819Y-115690475D02*
X95204819Y-115452380D01*
X95204819Y-115452380D02*
X95157200Y-115357142D01*
X95157200Y-115357142D02*
X95109580Y-115309523D01*
X95109580Y-115309523D02*
X95014342Y-115261904D01*
X95014342Y-115261904D02*
X94919104Y-115261904D01*
X94919104Y-115261904D02*
X94823866Y-115309523D01*
X94823866Y-115309523D02*
X94776247Y-115357142D01*
X94776247Y-115357142D02*
X94728628Y-115452380D01*
X94728628Y-115452380D02*
X94681009Y-115642856D01*
X94681009Y-115642856D02*
X94633390Y-115738094D01*
X94633390Y-115738094D02*
X94585771Y-115785713D01*
X94585771Y-115785713D02*
X94490533Y-115833332D01*
X94490533Y-115833332D02*
X94395295Y-115833332D01*
X94395295Y-115833332D02*
X94300057Y-115785713D01*
X94300057Y-115785713D02*
X94252438Y-115738094D01*
X94252438Y-115738094D02*
X94204819Y-115642856D01*
X94204819Y-115642856D02*
X94204819Y-115404761D01*
X94204819Y-115404761D02*
X94252438Y-115261904D01*
X94204819Y-114928570D02*
X95204819Y-114690475D01*
X95204819Y-114690475D02*
X94490533Y-114499999D01*
X94490533Y-114499999D02*
X95204819Y-114309523D01*
X95204819Y-114309523D02*
X94204819Y-114071428D01*
X95204819Y-113166666D02*
X95204819Y-113738094D01*
X95204819Y-113452380D02*
X94204819Y-113452380D01*
X94204819Y-113452380D02*
X94347676Y-113547618D01*
X94347676Y-113547618D02*
X94442914Y-113642856D01*
X94442914Y-113642856D02*
X94490533Y-113738094D01*
X156664819Y-77049238D02*
X156188628Y-77382571D01*
X156664819Y-77620666D02*
X155664819Y-77620666D01*
X155664819Y-77620666D02*
X155664819Y-77239714D01*
X155664819Y-77239714D02*
X155712438Y-77144476D01*
X155712438Y-77144476D02*
X155760057Y-77096857D01*
X155760057Y-77096857D02*
X155855295Y-77049238D01*
X155855295Y-77049238D02*
X155998152Y-77049238D01*
X155998152Y-77049238D02*
X156093390Y-77096857D01*
X156093390Y-77096857D02*
X156141009Y-77144476D01*
X156141009Y-77144476D02*
X156188628Y-77239714D01*
X156188628Y-77239714D02*
X156188628Y-77620666D01*
X155664819Y-76763523D02*
X156664819Y-76430190D01*
X156664819Y-76430190D02*
X155664819Y-76096857D01*
X155664819Y-75858761D02*
X155664819Y-75192095D01*
X155664819Y-75192095D02*
X156664819Y-75620666D01*
X146250819Y-90765238D02*
X145774628Y-91098571D01*
X146250819Y-91336666D02*
X145250819Y-91336666D01*
X145250819Y-91336666D02*
X145250819Y-90955714D01*
X145250819Y-90955714D02*
X145298438Y-90860476D01*
X145298438Y-90860476D02*
X145346057Y-90812857D01*
X145346057Y-90812857D02*
X145441295Y-90765238D01*
X145441295Y-90765238D02*
X145584152Y-90765238D01*
X145584152Y-90765238D02*
X145679390Y-90812857D01*
X145679390Y-90812857D02*
X145727009Y-90860476D01*
X145727009Y-90860476D02*
X145774628Y-90955714D01*
X145774628Y-90955714D02*
X145774628Y-91336666D01*
X145250819Y-90479523D02*
X146250819Y-90146190D01*
X146250819Y-90146190D02*
X145250819Y-89812857D01*
X145250819Y-89050952D02*
X145250819Y-89241428D01*
X145250819Y-89241428D02*
X145298438Y-89336666D01*
X145298438Y-89336666D02*
X145346057Y-89384285D01*
X145346057Y-89384285D02*
X145488914Y-89479523D01*
X145488914Y-89479523D02*
X145679390Y-89527142D01*
X145679390Y-89527142D02*
X146060342Y-89527142D01*
X146060342Y-89527142D02*
X146155580Y-89479523D01*
X146155580Y-89479523D02*
X146203200Y-89431904D01*
X146203200Y-89431904D02*
X146250819Y-89336666D01*
X146250819Y-89336666D02*
X146250819Y-89146190D01*
X146250819Y-89146190D02*
X146203200Y-89050952D01*
X146203200Y-89050952D02*
X146155580Y-89003333D01*
X146155580Y-89003333D02*
X146060342Y-88955714D01*
X146060342Y-88955714D02*
X145822247Y-88955714D01*
X145822247Y-88955714D02*
X145727009Y-89003333D01*
X145727009Y-89003333D02*
X145679390Y-89050952D01*
X145679390Y-89050952D02*
X145631771Y-89146190D01*
X145631771Y-89146190D02*
X145631771Y-89336666D01*
X145631771Y-89336666D02*
X145679390Y-89431904D01*
X145679390Y-89431904D02*
X145727009Y-89479523D01*
X145727009Y-89479523D02*
X145822247Y-89527142D01*
X125168819Y-90765238D02*
X124692628Y-91098571D01*
X125168819Y-91336666D02*
X124168819Y-91336666D01*
X124168819Y-91336666D02*
X124168819Y-90955714D01*
X124168819Y-90955714D02*
X124216438Y-90860476D01*
X124216438Y-90860476D02*
X124264057Y-90812857D01*
X124264057Y-90812857D02*
X124359295Y-90765238D01*
X124359295Y-90765238D02*
X124502152Y-90765238D01*
X124502152Y-90765238D02*
X124597390Y-90812857D01*
X124597390Y-90812857D02*
X124645009Y-90860476D01*
X124645009Y-90860476D02*
X124692628Y-90955714D01*
X124692628Y-90955714D02*
X124692628Y-91336666D01*
X124168819Y-90479523D02*
X125168819Y-90146190D01*
X125168819Y-90146190D02*
X124168819Y-89812857D01*
X124502152Y-89050952D02*
X125168819Y-89050952D01*
X124121200Y-89289047D02*
X124835485Y-89527142D01*
X124835485Y-89527142D02*
X124835485Y-88908095D01*
X114500819Y-77049238D02*
X114024628Y-77382571D01*
X114500819Y-77620666D02*
X113500819Y-77620666D01*
X113500819Y-77620666D02*
X113500819Y-77239714D01*
X113500819Y-77239714D02*
X113548438Y-77144476D01*
X113548438Y-77144476D02*
X113596057Y-77096857D01*
X113596057Y-77096857D02*
X113691295Y-77049238D01*
X113691295Y-77049238D02*
X113834152Y-77049238D01*
X113834152Y-77049238D02*
X113929390Y-77096857D01*
X113929390Y-77096857D02*
X113977009Y-77144476D01*
X113977009Y-77144476D02*
X114024628Y-77239714D01*
X114024628Y-77239714D02*
X114024628Y-77620666D01*
X113500819Y-76763523D02*
X114500819Y-76430190D01*
X114500819Y-76430190D02*
X113500819Y-76096857D01*
X113500819Y-75858761D02*
X113500819Y-75239714D01*
X113500819Y-75239714D02*
X113881771Y-75573047D01*
X113881771Y-75573047D02*
X113881771Y-75430190D01*
X113881771Y-75430190D02*
X113929390Y-75334952D01*
X113929390Y-75334952D02*
X113977009Y-75287333D01*
X113977009Y-75287333D02*
X114072247Y-75239714D01*
X114072247Y-75239714D02*
X114310342Y-75239714D01*
X114310342Y-75239714D02*
X114405580Y-75287333D01*
X114405580Y-75287333D02*
X114453200Y-75334952D01*
X114453200Y-75334952D02*
X114500819Y-75430190D01*
X114500819Y-75430190D02*
X114500819Y-75715904D01*
X114500819Y-75715904D02*
X114453200Y-75811142D01*
X114453200Y-75811142D02*
X114405580Y-75858761D01*
X104086819Y-90765238D02*
X103610628Y-91098571D01*
X104086819Y-91336666D02*
X103086819Y-91336666D01*
X103086819Y-91336666D02*
X103086819Y-90955714D01*
X103086819Y-90955714D02*
X103134438Y-90860476D01*
X103134438Y-90860476D02*
X103182057Y-90812857D01*
X103182057Y-90812857D02*
X103277295Y-90765238D01*
X103277295Y-90765238D02*
X103420152Y-90765238D01*
X103420152Y-90765238D02*
X103515390Y-90812857D01*
X103515390Y-90812857D02*
X103563009Y-90860476D01*
X103563009Y-90860476D02*
X103610628Y-90955714D01*
X103610628Y-90955714D02*
X103610628Y-91336666D01*
X103086819Y-90479523D02*
X104086819Y-90146190D01*
X104086819Y-90146190D02*
X103086819Y-89812857D01*
X103182057Y-89527142D02*
X103134438Y-89479523D01*
X103134438Y-89479523D02*
X103086819Y-89384285D01*
X103086819Y-89384285D02*
X103086819Y-89146190D01*
X103086819Y-89146190D02*
X103134438Y-89050952D01*
X103134438Y-89050952D02*
X103182057Y-89003333D01*
X103182057Y-89003333D02*
X103277295Y-88955714D01*
X103277295Y-88955714D02*
X103372533Y-88955714D01*
X103372533Y-88955714D02*
X103515390Y-89003333D01*
X103515390Y-89003333D02*
X104086819Y-89574761D01*
X104086819Y-89574761D02*
X104086819Y-88955714D01*
X93672819Y-77049238D02*
X93196628Y-77382571D01*
X93672819Y-77620666D02*
X92672819Y-77620666D01*
X92672819Y-77620666D02*
X92672819Y-77239714D01*
X92672819Y-77239714D02*
X92720438Y-77144476D01*
X92720438Y-77144476D02*
X92768057Y-77096857D01*
X92768057Y-77096857D02*
X92863295Y-77049238D01*
X92863295Y-77049238D02*
X93006152Y-77049238D01*
X93006152Y-77049238D02*
X93101390Y-77096857D01*
X93101390Y-77096857D02*
X93149009Y-77144476D01*
X93149009Y-77144476D02*
X93196628Y-77239714D01*
X93196628Y-77239714D02*
X93196628Y-77620666D01*
X92672819Y-76763523D02*
X93672819Y-76430190D01*
X93672819Y-76430190D02*
X92672819Y-76096857D01*
X93672819Y-75239714D02*
X93672819Y-75811142D01*
X93672819Y-75525428D02*
X92672819Y-75525428D01*
X92672819Y-75525428D02*
X92815676Y-75620666D01*
X92815676Y-75620666D02*
X92910914Y-75715904D01*
X92910914Y-75715904D02*
X92958533Y-75811142D01*
D13*
%TO.C,Ref\u002A\u002A*%
X82316830Y-104279056D02*
X82341535Y-104284630D01*
X82373535Y-104295576D01*
X82415352Y-104313250D01*
X82469503Y-104339007D01*
X82538510Y-104374203D01*
X82624891Y-104420192D01*
X82731167Y-104478330D01*
X82859857Y-104549972D01*
X83013481Y-104636474D01*
X83194559Y-104739191D01*
X83405611Y-104859478D01*
X83649155Y-104998691D01*
X83827243Y-105100638D01*
X84145092Y-105282654D01*
X84428270Y-105444825D01*
X84678828Y-105588373D01*
X84898816Y-105714517D01*
X85090285Y-105824478D01*
X85255284Y-105919476D01*
X85395863Y-106000732D01*
X85514073Y-106069467D01*
X85611964Y-106126901D01*
X85691586Y-106174254D01*
X85754990Y-106212747D01*
X85804224Y-106243601D01*
X85841340Y-106268035D01*
X85868388Y-106287271D01*
X85887417Y-106302528D01*
X85900478Y-106315028D01*
X85909622Y-106325990D01*
X85916897Y-106336636D01*
X85924355Y-106348186D01*
X85925347Y-106349671D01*
X85966762Y-106446414D01*
X85967948Y-106547734D01*
X85928901Y-106645024D01*
X85925425Y-106650328D01*
X85917946Y-106661793D01*
X85910677Y-106672367D01*
X85901607Y-106683247D01*
X85888722Y-106695630D01*
X85870007Y-106710713D01*
X85843451Y-106729692D01*
X85807039Y-106753765D01*
X85758758Y-106784128D01*
X85696596Y-106821979D01*
X85618537Y-106868514D01*
X85522570Y-106924930D01*
X85406681Y-106992424D01*
X85268856Y-107072192D01*
X85107082Y-107165433D01*
X84919345Y-107273342D01*
X84703633Y-107397117D01*
X84457932Y-107537954D01*
X84180228Y-107697050D01*
X83868508Y-107875603D01*
X83753230Y-107941635D01*
X83495453Y-108089210D01*
X83271723Y-108217041D01*
X83079415Y-108326531D01*
X82915903Y-108419083D01*
X82778560Y-108496099D01*
X82664762Y-108558981D01*
X82571882Y-108609132D01*
X82497293Y-108647954D01*
X82438371Y-108676849D01*
X82392489Y-108697221D01*
X82357021Y-108710472D01*
X82329341Y-108718003D01*
X82306823Y-108721219D01*
X82292730Y-108721652D01*
X82218881Y-108714138D01*
X82152858Y-108696401D01*
X82137474Y-108689365D01*
X82117563Y-108679080D01*
X82099942Y-108669456D01*
X82084470Y-108657987D01*
X82071008Y-108642172D01*
X82059417Y-108619504D01*
X82049558Y-108587482D01*
X82041290Y-108543600D01*
X82034474Y-108485355D01*
X82028971Y-108410243D01*
X82024641Y-108315761D01*
X82021345Y-108199403D01*
X82018943Y-108058667D01*
X82017296Y-107891049D01*
X82016264Y-107694044D01*
X82015707Y-107465149D01*
X82015488Y-107201860D01*
X82015465Y-106901673D01*
X82015499Y-106562084D01*
X82015500Y-106500000D01*
X82565833Y-106500000D01*
X82566034Y-106742593D01*
X82566617Y-106972342D01*
X82567546Y-107185811D01*
X82568788Y-107379563D01*
X82570311Y-107550162D01*
X82572079Y-107694171D01*
X82574060Y-107808154D01*
X82576220Y-107888674D01*
X82578525Y-107932294D01*
X82579919Y-107939333D01*
X82600199Y-107929075D01*
X82654159Y-107899446D01*
X82738770Y-107852162D01*
X82851004Y-107788938D01*
X82987833Y-107711491D01*
X83146228Y-107621535D01*
X83323161Y-107520787D01*
X83515604Y-107410963D01*
X83720529Y-107293778D01*
X83839335Y-107225736D01*
X84049616Y-107105065D01*
X84248736Y-106990454D01*
X84433706Y-106883646D01*
X84601536Y-106786385D01*
X84749235Y-106700414D01*
X84873813Y-106627475D01*
X84972281Y-106569311D01*
X85041648Y-106527666D01*
X85078923Y-106504283D01*
X85084666Y-106499808D01*
X85066877Y-106487696D01*
X85015938Y-106456734D01*
X84935489Y-106409016D01*
X84829170Y-106346632D01*
X84700622Y-106271673D01*
X84553486Y-106186233D01*
X84391403Y-106092402D01*
X84218012Y-105992273D01*
X84036956Y-105887936D01*
X83851873Y-105781484D01*
X83666405Y-105675009D01*
X83484192Y-105570602D01*
X83308875Y-105470355D01*
X83144095Y-105376359D01*
X82993491Y-105290707D01*
X82860706Y-105215491D01*
X82749378Y-105152801D01*
X82663150Y-105104730D01*
X82605661Y-105073369D01*
X82580552Y-105060810D01*
X82579898Y-105060666D01*
X82577527Y-105081260D01*
X82575282Y-105140751D01*
X82573196Y-105235702D01*
X82571303Y-105362676D01*
X82569636Y-105518238D01*
X82568228Y-105698951D01*
X82567115Y-105901378D01*
X82566328Y-106122082D01*
X82565902Y-106357629D01*
X82565833Y-106500000D01*
X82015500Y-106500000D01*
X82015467Y-106153235D01*
X82015461Y-105846303D01*
X82015627Y-105576703D01*
X82016110Y-105341934D01*
X82017054Y-105139496D01*
X82018603Y-104966888D01*
X82020902Y-104821609D01*
X82024093Y-104701159D01*
X82028323Y-104603038D01*
X82033734Y-104524744D01*
X82040471Y-104463777D01*
X82048679Y-104417637D01*
X82058500Y-104383822D01*
X82070081Y-104359832D01*
X82083564Y-104343167D01*
X82099094Y-104331326D01*
X82116815Y-104321809D01*
X82136872Y-104312113D01*
X82141807Y-104309608D01*
X82203626Y-104288967D01*
X82279095Y-104278027D01*
X82296901Y-104277500D01*
X82316830Y-104279056D01*
G36*
X82316830Y-104279056D02*
G01*
X82341535Y-104284630D01*
X82373535Y-104295576D01*
X82415352Y-104313250D01*
X82469503Y-104339007D01*
X82538510Y-104374203D01*
X82624891Y-104420192D01*
X82731167Y-104478330D01*
X82859857Y-104549972D01*
X83013481Y-104636474D01*
X83194559Y-104739191D01*
X83405611Y-104859478D01*
X83649155Y-104998691D01*
X83827243Y-105100638D01*
X84145092Y-105282654D01*
X84428270Y-105444825D01*
X84678828Y-105588373D01*
X84898816Y-105714517D01*
X85090285Y-105824478D01*
X85255284Y-105919476D01*
X85395863Y-106000732D01*
X85514073Y-106069467D01*
X85611964Y-106126901D01*
X85691586Y-106174254D01*
X85754990Y-106212747D01*
X85804224Y-106243601D01*
X85841340Y-106268035D01*
X85868388Y-106287271D01*
X85887417Y-106302528D01*
X85900478Y-106315028D01*
X85909622Y-106325990D01*
X85916897Y-106336636D01*
X85924355Y-106348186D01*
X85925347Y-106349671D01*
X85966762Y-106446414D01*
X85967948Y-106547734D01*
X85928901Y-106645024D01*
X85925425Y-106650328D01*
X85917946Y-106661793D01*
X85910677Y-106672367D01*
X85901607Y-106683247D01*
X85888722Y-106695630D01*
X85870007Y-106710713D01*
X85843451Y-106729692D01*
X85807039Y-106753765D01*
X85758758Y-106784128D01*
X85696596Y-106821979D01*
X85618537Y-106868514D01*
X85522570Y-106924930D01*
X85406681Y-106992424D01*
X85268856Y-107072192D01*
X85107082Y-107165433D01*
X84919345Y-107273342D01*
X84703633Y-107397117D01*
X84457932Y-107537954D01*
X84180228Y-107697050D01*
X83868508Y-107875603D01*
X83753230Y-107941635D01*
X83495453Y-108089210D01*
X83271723Y-108217041D01*
X83079415Y-108326531D01*
X82915903Y-108419083D01*
X82778560Y-108496099D01*
X82664762Y-108558981D01*
X82571882Y-108609132D01*
X82497293Y-108647954D01*
X82438371Y-108676849D01*
X82392489Y-108697221D01*
X82357021Y-108710472D01*
X82329341Y-108718003D01*
X82306823Y-108721219D01*
X82292730Y-108721652D01*
X82218881Y-108714138D01*
X82152858Y-108696401D01*
X82137474Y-108689365D01*
X82117563Y-108679080D01*
X82099942Y-108669456D01*
X82084470Y-108657987D01*
X82071008Y-108642172D01*
X82059417Y-108619504D01*
X82049558Y-108587482D01*
X82041290Y-108543600D01*
X82034474Y-108485355D01*
X82028971Y-108410243D01*
X82024641Y-108315761D01*
X82021345Y-108199403D01*
X82018943Y-108058667D01*
X82017296Y-107891049D01*
X82016264Y-107694044D01*
X82015707Y-107465149D01*
X82015488Y-107201860D01*
X82015465Y-106901673D01*
X82015499Y-106562084D01*
X82015500Y-106500000D01*
X82565833Y-106500000D01*
X82566034Y-106742593D01*
X82566617Y-106972342D01*
X82567546Y-107185811D01*
X82568788Y-107379563D01*
X82570311Y-107550162D01*
X82572079Y-107694171D01*
X82574060Y-107808154D01*
X82576220Y-107888674D01*
X82578525Y-107932294D01*
X82579919Y-107939333D01*
X82600199Y-107929075D01*
X82654159Y-107899446D01*
X82738770Y-107852162D01*
X82851004Y-107788938D01*
X82987833Y-107711491D01*
X83146228Y-107621535D01*
X83323161Y-107520787D01*
X83515604Y-107410963D01*
X83720529Y-107293778D01*
X83839335Y-107225736D01*
X84049616Y-107105065D01*
X84248736Y-106990454D01*
X84433706Y-106883646D01*
X84601536Y-106786385D01*
X84749235Y-106700414D01*
X84873813Y-106627475D01*
X84972281Y-106569311D01*
X85041648Y-106527666D01*
X85078923Y-106504283D01*
X85084666Y-106499808D01*
X85066877Y-106487696D01*
X85015938Y-106456734D01*
X84935489Y-106409016D01*
X84829170Y-106346632D01*
X84700622Y-106271673D01*
X84553486Y-106186233D01*
X84391403Y-106092402D01*
X84218012Y-105992273D01*
X84036956Y-105887936D01*
X83851873Y-105781484D01*
X83666405Y-105675009D01*
X83484192Y-105570602D01*
X83308875Y-105470355D01*
X83144095Y-105376359D01*
X82993491Y-105290707D01*
X82860706Y-105215491D01*
X82749378Y-105152801D01*
X82663150Y-105104730D01*
X82605661Y-105073369D01*
X82580552Y-105060810D01*
X82579898Y-105060666D01*
X82577527Y-105081260D01*
X82575282Y-105140751D01*
X82573196Y-105235702D01*
X82571303Y-105362676D01*
X82569636Y-105518238D01*
X82568228Y-105698951D01*
X82567115Y-105901378D01*
X82566328Y-106122082D01*
X82565902Y-106357629D01*
X82565833Y-106500000D01*
X82015500Y-106500000D01*
X82015467Y-106153235D01*
X82015461Y-105846303D01*
X82015627Y-105576703D01*
X82016110Y-105341934D01*
X82017054Y-105139496D01*
X82018603Y-104966888D01*
X82020902Y-104821609D01*
X82024093Y-104701159D01*
X82028323Y-104603038D01*
X82033734Y-104524744D01*
X82040471Y-104463777D01*
X82048679Y-104417637D01*
X82058500Y-104383822D01*
X82070081Y-104359832D01*
X82083564Y-104343167D01*
X82099094Y-104331326D01*
X82116815Y-104321809D01*
X82136872Y-104312113D01*
X82141807Y-104309608D01*
X82203626Y-104288967D01*
X82279095Y-104278027D01*
X82296901Y-104277500D01*
X82316830Y-104279056D01*
G37*
X86757875Y-104366078D02*
X86827890Y-104377210D01*
X86874951Y-104399762D01*
X86908634Y-104437262D01*
X86922709Y-104461316D01*
X86927035Y-104490365D01*
X86930976Y-104558135D01*
X86934532Y-104661015D01*
X86937702Y-104795393D01*
X86940486Y-104957659D01*
X86942885Y-105144201D01*
X86944899Y-105351410D01*
X86946527Y-105575673D01*
X86947769Y-105813380D01*
X86948626Y-106060920D01*
X86949098Y-106314681D01*
X86949184Y-106571054D01*
X86948884Y-106826427D01*
X86948199Y-107077188D01*
X86947129Y-107319728D01*
X86945673Y-107550435D01*
X86943831Y-107765698D01*
X86941604Y-107961905D01*
X86938992Y-108135448D01*
X86935994Y-108282713D01*
X86932610Y-108400090D01*
X86928841Y-108483969D01*
X86924686Y-108530738D01*
X86922709Y-108538683D01*
X86892023Y-108584514D01*
X86852507Y-108613722D01*
X86794584Y-108629836D01*
X86708677Y-108636383D01*
X86655329Y-108637160D01*
X86566506Y-108636289D01*
X86508621Y-108631143D01*
X86470310Y-108619159D01*
X86440214Y-108597778D01*
X86427787Y-108585878D01*
X86375833Y-108533924D01*
X86375833Y-104466075D01*
X86427787Y-104414121D01*
X86457789Y-104388211D01*
X86491409Y-104372735D01*
X86540008Y-104365132D01*
X86614950Y-104362840D01*
X86655329Y-104362839D01*
X86757875Y-104366078D01*
G36*
X86757875Y-104366078D02*
G01*
X86827890Y-104377210D01*
X86874951Y-104399762D01*
X86908634Y-104437262D01*
X86922709Y-104461316D01*
X86927035Y-104490365D01*
X86930976Y-104558135D01*
X86934532Y-104661015D01*
X86937702Y-104795393D01*
X86940486Y-104957659D01*
X86942885Y-105144201D01*
X86944899Y-105351410D01*
X86946527Y-105575673D01*
X86947769Y-105813380D01*
X86948626Y-106060920D01*
X86949098Y-106314681D01*
X86949184Y-106571054D01*
X86948884Y-106826427D01*
X86948199Y-107077188D01*
X86947129Y-107319728D01*
X86945673Y-107550435D01*
X86943831Y-107765698D01*
X86941604Y-107961905D01*
X86938992Y-108135448D01*
X86935994Y-108282713D01*
X86932610Y-108400090D01*
X86928841Y-108483969D01*
X86924686Y-108530738D01*
X86922709Y-108538683D01*
X86892023Y-108584514D01*
X86852507Y-108613722D01*
X86794584Y-108629836D01*
X86708677Y-108636383D01*
X86655329Y-108637160D01*
X86566506Y-108636289D01*
X86508621Y-108631143D01*
X86470310Y-108619159D01*
X86440214Y-108597778D01*
X86427787Y-108585878D01*
X86375833Y-108533924D01*
X86375833Y-104466075D01*
X86427787Y-104414121D01*
X86457789Y-104388211D01*
X86491409Y-104372735D01*
X86540008Y-104365132D01*
X86614950Y-104362840D01*
X86655329Y-104362839D01*
X86757875Y-104366078D01*
G37*
X87812553Y-104363341D02*
X87871233Y-104368544D01*
X87909997Y-104380293D01*
X87940037Y-104401107D01*
X87953712Y-104414121D01*
X88005666Y-104466075D01*
X88005666Y-108533924D01*
X87953712Y-108585878D01*
X87923943Y-108611600D01*
X87890496Y-108627122D01*
X87842175Y-108634963D01*
X87767788Y-108637641D01*
X87722760Y-108637833D01*
X87634920Y-108637082D01*
X87578294Y-108632764D01*
X87541768Y-108621784D01*
X87514224Y-108601044D01*
X87488964Y-108572709D01*
X87434166Y-108507585D01*
X87434166Y-104492414D01*
X87488964Y-104427290D01*
X87517727Y-104395562D01*
X87545817Y-104376281D01*
X87584351Y-104366354D01*
X87644445Y-104362682D01*
X87722760Y-104362166D01*
X87812553Y-104363341D01*
G36*
X87812553Y-104363341D02*
G01*
X87871233Y-104368544D01*
X87909997Y-104380293D01*
X87940037Y-104401107D01*
X87953712Y-104414121D01*
X88005666Y-104466075D01*
X88005666Y-108533924D01*
X87953712Y-108585878D01*
X87923943Y-108611600D01*
X87890496Y-108627122D01*
X87842175Y-108634963D01*
X87767788Y-108637641D01*
X87722760Y-108637833D01*
X87634920Y-108637082D01*
X87578294Y-108632764D01*
X87541768Y-108621784D01*
X87514224Y-108601044D01*
X87488964Y-108572709D01*
X87434166Y-108507585D01*
X87434166Y-104492414D01*
X87488964Y-104427290D01*
X87517727Y-104395562D01*
X87545817Y-104376281D01*
X87584351Y-104366354D01*
X87644445Y-104362682D01*
X87722760Y-104362166D01*
X87812553Y-104363341D01*
G37*
D14*
%TO.C,U3*%
X127194000Y-65167000D02*
G75*
G02*
X127194000Y-67167000I0J-1000000D01*
G01*
X147694000Y-61027000D02*
X127134000Y-61027000D01*
X127134000Y-61027000D02*
X127134000Y-71307000D01*
X147634000Y-63517000D02*
X127194000Y-63517000D01*
X127194000Y-63517000D02*
X127194000Y-65167000D01*
X127194000Y-67167000D02*
X127194000Y-68817000D01*
X147634000Y-68817000D02*
X147634000Y-63517000D01*
X127194000Y-68817000D02*
X147634000Y-68817000D01*
X147694000Y-71307000D02*
X147694000Y-61027000D01*
X127134000Y-71307000D02*
X147694000Y-71307000D01*
%TO.C,R20*%
X144780000Y-56237000D02*
X144780000Y-55467000D01*
X143410000Y-55467000D02*
X146150000Y-55467000D01*
X146150000Y-55467000D02*
X146150000Y-48927000D01*
X143410000Y-48927000D02*
X143410000Y-55467000D01*
X146150000Y-48927000D02*
X143410000Y-48927000D01*
X144780000Y-48157000D02*
X144780000Y-48927000D01*
%TO.C,R19*%
X147955000Y-56237000D02*
X147955000Y-55467000D01*
X146585000Y-55467000D02*
X149325000Y-55467000D01*
X149325000Y-55467000D02*
X149325000Y-48927000D01*
X146585000Y-48927000D02*
X146585000Y-55467000D01*
X149325000Y-48927000D02*
X146585000Y-48927000D01*
X147955000Y-48157000D02*
X147955000Y-48927000D01*
%TO.C,RV5*%
X145970000Y-74880000D02*
X144371000Y-74880000D01*
X145970000Y-74880000D02*
X145970000Y-78745000D01*
X142629000Y-74880000D02*
X141870000Y-74880000D01*
X140129000Y-74880000D02*
X139370000Y-74880000D01*
X137630000Y-74880000D02*
X136030000Y-74880000D01*
X136030000Y-74880000D02*
X136030000Y-78745000D01*
X145970000Y-83255000D02*
X145970000Y-87120000D01*
X136030000Y-83255000D02*
X136030000Y-87120000D01*
X145970000Y-87120000D02*
X136030000Y-87120000D01*
%TO.C,RV8*%
X177470000Y-88880000D02*
X175871000Y-88880000D01*
X177470000Y-88880000D02*
X177470000Y-92745000D01*
X174129000Y-88880000D02*
X173370000Y-88880000D01*
X171629000Y-88880000D02*
X170870000Y-88880000D01*
X169130000Y-88880000D02*
X167530000Y-88880000D01*
X167530000Y-88880000D02*
X167530000Y-92745000D01*
X177470000Y-97255000D02*
X177470000Y-101120000D01*
X167530000Y-97255000D02*
X167530000Y-101120000D01*
X177470000Y-101120000D02*
X167530000Y-101120000D01*
%TO.C,U2*%
X163880000Y-67948000D02*
X163880000Y-47388000D01*
X163880000Y-47388000D02*
X153600000Y-47388000D01*
X161390000Y-67888000D02*
X161390000Y-47448000D01*
X161390000Y-47448000D02*
X156090000Y-47448000D01*
X159740000Y-67888000D02*
X161390000Y-67888000D01*
X156090000Y-67888000D02*
X157740000Y-67888000D01*
X156090000Y-47448000D02*
X156090000Y-67888000D01*
X153600000Y-67948000D02*
X163880000Y-67948000D01*
X153600000Y-47388000D02*
X153600000Y-67948000D01*
X157740000Y-67888000D02*
G75*
G02*
X159740000Y-67888000I1000000J0D01*
G01*
%TO.C,R17*%
X95687000Y-70866000D02*
X95617000Y-70866000D01*
X98427000Y-70866000D02*
G75*
G02*
X95687000Y-70866000I-1370000J0D01*
G01*
X95687000Y-70866000D02*
G75*
G02*
X98427000Y-70866000I1370000J0D01*
G01*
%TO.C,D10*%
X103054000Y-32512000D02*
X102034000Y-32512000D01*
X102034000Y-33982000D02*
X102034000Y-31042000D01*
X102034000Y-31042000D02*
X96594000Y-31042000D01*
X101254000Y-33982000D02*
X101254000Y-31042000D01*
X101134000Y-33982000D02*
X101134000Y-31042000D01*
X101014000Y-33982000D02*
X101014000Y-31042000D01*
X96594000Y-33982000D02*
X102034000Y-33982000D01*
X96594000Y-31042000D02*
X96594000Y-33982000D01*
X95574000Y-32512000D02*
X96594000Y-32512000D01*
%TO.C,R8*%
X94996000Y-63913000D02*
X94996000Y-63843000D01*
X96366000Y-65283000D02*
G75*
G02*
X93626000Y-65283000I-1370000J0D01*
G01*
X93626000Y-65283000D02*
G75*
G02*
X96366000Y-65283000I1370000J0D01*
G01*
%TO.C,R5*%
X105894000Y-41627000D02*
X105124000Y-41627000D01*
X105124000Y-42997000D02*
X105124000Y-40257000D01*
X105124000Y-40257000D02*
X98584000Y-40257000D01*
X98584000Y-42997000D02*
X105124000Y-42997000D01*
X98584000Y-40257000D02*
X98584000Y-42997000D01*
X97814000Y-41627000D02*
X98584000Y-41627000D01*
%TO.C,U7*%
X112196000Y-23252000D02*
X115956000Y-23252000D01*
X112196000Y-30072000D02*
X115956000Y-30072000D01*
X115956000Y-23252000D02*
X115956000Y-24512000D01*
X115956000Y-30072000D02*
X115956000Y-28812000D01*
X110916000Y-23352000D02*
X110676000Y-23022000D01*
X111156000Y-23022000D01*
X110916000Y-23352000D01*
G36*
X110916000Y-23352000D02*
G01*
X110676000Y-23022000D01*
X111156000Y-23022000D01*
X110916000Y-23352000D01*
G37*
%TO.C,D9*%
X100348449Y-34900634D02*
G75*
G02*
X100288847Y-37168000I1251551J-1167366D01*
G01*
%TO.C,C17*%
X165568000Y-21363000D02*
X165568000Y-21678000D01*
X165568000Y-21363000D02*
X170808000Y-21363000D01*
X165568000Y-23788000D02*
X165568000Y-24103000D01*
X165568000Y-24103000D02*
X170808000Y-24103000D01*
X170808000Y-21363000D02*
X170808000Y-21678000D01*
X170808000Y-23788000D02*
X170808000Y-24103000D01*
%TO.C,C16*%
X119206000Y-33564888D02*
G75*
G02*
X113966000Y-33564888I-2620000J0D01*
G01*
X113966000Y-33564888D02*
G75*
G02*
X119206000Y-33564888I2620000J0D01*
G01*
X116870000Y-36165888D02*
X116302000Y-36165888D01*
X117104000Y-36125888D02*
X116068000Y-36125888D01*
X117263000Y-36085888D02*
X115909000Y-36085888D01*
X117391000Y-36045888D02*
X115781000Y-36045888D01*
X117501000Y-36005888D02*
X115671000Y-36005888D01*
X117597000Y-35965888D02*
X115575000Y-35965888D01*
X117684000Y-35925888D02*
X115488000Y-35925888D01*
X117764000Y-35885888D02*
X115408000Y-35885888D01*
X115546000Y-35845888D02*
X115335000Y-35845888D01*
X117837000Y-35845888D02*
X117626000Y-35845888D01*
X115546000Y-35805888D02*
X115267000Y-35805888D01*
X117905000Y-35805888D02*
X117626000Y-35805888D01*
X115546000Y-35765888D02*
X115203000Y-35765888D01*
X117969000Y-35765888D02*
X117626000Y-35765888D01*
X115546000Y-35725888D02*
X115143000Y-35725888D01*
X118029000Y-35725888D02*
X117626000Y-35725888D01*
X115546000Y-35685888D02*
X115086000Y-35685888D01*
X118086000Y-35685888D02*
X117626000Y-35685888D01*
X115546000Y-35645888D02*
X115032000Y-35645888D01*
X118140000Y-35645888D02*
X117626000Y-35645888D01*
X115546000Y-35605888D02*
X114981000Y-35605888D01*
X118191000Y-35605888D02*
X117626000Y-35605888D01*
X115546000Y-35565888D02*
X114933000Y-35565888D01*
X118239000Y-35565888D02*
X117626000Y-35565888D01*
X115546000Y-35525888D02*
X114887000Y-35525888D01*
X118285000Y-35525888D02*
X117626000Y-35525888D01*
X115546000Y-35485888D02*
X114843000Y-35485888D01*
X118329000Y-35485888D02*
X117626000Y-35485888D01*
X115546000Y-35445888D02*
X114801000Y-35445888D01*
X118371000Y-35445888D02*
X117626000Y-35445888D01*
X115546000Y-35405888D02*
X114760000Y-35405888D01*
X118412000Y-35405888D02*
X117626000Y-35405888D01*
X115546000Y-35365888D02*
X114722000Y-35365888D01*
X118450000Y-35365888D02*
X117626000Y-35365888D01*
X115546000Y-35325888D02*
X114685000Y-35325888D01*
X118487000Y-35325888D02*
X117626000Y-35325888D01*
X115546000Y-35285888D02*
X114649000Y-35285888D01*
X118523000Y-35285888D02*
X117626000Y-35285888D01*
X115546000Y-35245888D02*
X114615000Y-35245888D01*
X118557000Y-35245888D02*
X117626000Y-35245888D01*
X115546000Y-35205888D02*
X114582000Y-35205888D01*
X118590000Y-35205888D02*
X117626000Y-35205888D01*
X115546000Y-35165888D02*
X114551000Y-35165888D01*
X118621000Y-35165888D02*
X117626000Y-35165888D01*
X115546000Y-35125888D02*
X114521000Y-35125888D01*
X118651000Y-35125888D02*
X117626000Y-35125888D01*
X115546000Y-35085888D02*
X114491000Y-35085888D01*
X118681000Y-35085888D02*
X117626000Y-35085888D01*
X115546000Y-35045888D02*
X114464000Y-35045888D01*
X118708000Y-35045888D02*
X117626000Y-35045888D01*
X115546000Y-35005888D02*
X114437000Y-35005888D01*
X118735000Y-35005888D02*
X117626000Y-35005888D01*
X115546000Y-34965888D02*
X114411000Y-34965888D01*
X118761000Y-34965888D02*
X117626000Y-34965888D01*
X115546000Y-34925888D02*
X114386000Y-34925888D01*
X118786000Y-34925888D02*
X117626000Y-34925888D01*
X115546000Y-34885888D02*
X114362000Y-34885888D01*
X118810000Y-34885888D02*
X117626000Y-34885888D01*
X115546000Y-34845888D02*
X114339000Y-34845888D01*
X118833000Y-34845888D02*
X117626000Y-34845888D01*
X115546000Y-34805888D02*
X114318000Y-34805888D01*
X118854000Y-34805888D02*
X117626000Y-34805888D01*
X115546000Y-34765888D02*
X114296000Y-34765888D01*
X118876000Y-34765888D02*
X117626000Y-34765888D01*
X115546000Y-34725888D02*
X114276000Y-34725888D01*
X118896000Y-34725888D02*
X117626000Y-34725888D01*
X115546000Y-34685888D02*
X114257000Y-34685888D01*
X118915000Y-34685888D02*
X117626000Y-34685888D01*
X115546000Y-34645888D02*
X114238000Y-34645888D01*
X118934000Y-34645888D02*
X117626000Y-34645888D01*
X115546000Y-34605888D02*
X114221000Y-34605888D01*
X118951000Y-34605888D02*
X117626000Y-34605888D01*
X115546000Y-34565888D02*
X114204000Y-34565888D01*
X118968000Y-34565888D02*
X117626000Y-34565888D01*
X115546000Y-34525888D02*
X114188000Y-34525888D01*
X118984000Y-34525888D02*
X117626000Y-34525888D01*
X115546000Y-34485888D02*
X114172000Y-34485888D01*
X119000000Y-34485888D02*
X117626000Y-34485888D01*
X115546000Y-34445888D02*
X114158000Y-34445888D01*
X119014000Y-34445888D02*
X117626000Y-34445888D01*
X115546000Y-34405888D02*
X114144000Y-34405888D01*
X119028000Y-34405888D02*
X117626000Y-34405888D01*
X115546000Y-34365888D02*
X114131000Y-34365888D01*
X119041000Y-34365888D02*
X117626000Y-34365888D01*
X115546000Y-34325888D02*
X114118000Y-34325888D01*
X119054000Y-34325888D02*
X117626000Y-34325888D01*
X115546000Y-34285888D02*
X114106000Y-34285888D01*
X119066000Y-34285888D02*
X117626000Y-34285888D01*
X115546000Y-34244888D02*
X114095000Y-34244888D01*
X119077000Y-34244888D02*
X117626000Y-34244888D01*
X115546000Y-34204888D02*
X114085000Y-34204888D01*
X119087000Y-34204888D02*
X117626000Y-34204888D01*
X115546000Y-34164888D02*
X114075000Y-34164888D01*
X119097000Y-34164888D02*
X117626000Y-34164888D01*
X115546000Y-34124888D02*
X114066000Y-34124888D01*
X119106000Y-34124888D02*
X117626000Y-34124888D01*
X115546000Y-34084888D02*
X114058000Y-34084888D01*
X119114000Y-34084888D02*
X117626000Y-34084888D01*
X115546000Y-34044888D02*
X114050000Y-34044888D01*
X119122000Y-34044888D02*
X117626000Y-34044888D01*
X115546000Y-34004888D02*
X114043000Y-34004888D01*
X119129000Y-34004888D02*
X117626000Y-34004888D01*
X115546000Y-33964888D02*
X114036000Y-33964888D01*
X119136000Y-33964888D02*
X117626000Y-33964888D01*
X115546000Y-33924888D02*
X114030000Y-33924888D01*
X119142000Y-33924888D02*
X117626000Y-33924888D01*
X115546000Y-33884888D02*
X114025000Y-33884888D01*
X119147000Y-33884888D02*
X117626000Y-33884888D01*
X115546000Y-33844888D02*
X114021000Y-33844888D01*
X119151000Y-33844888D02*
X117626000Y-33844888D01*
X115546000Y-33804888D02*
X114017000Y-33804888D01*
X119155000Y-33804888D02*
X117626000Y-33804888D01*
X119159000Y-33764888D02*
X114013000Y-33764888D01*
X119162000Y-33724888D02*
X114010000Y-33724888D01*
X119164000Y-33684888D02*
X114008000Y-33684888D01*
X119165000Y-33644888D02*
X114007000Y-33644888D01*
X119166000Y-33604888D02*
X114006000Y-33604888D01*
X119166000Y-33564888D02*
X114006000Y-33564888D01*
X118311000Y-31010113D02*
X117811000Y-31010113D01*
X118061000Y-30760113D02*
X118061000Y-31260113D01*
%TO.C,J6*%
X131119000Y-27880000D02*
X131119000Y-43240000D01*
X128519000Y-30480000D02*
X128519000Y-27880000D01*
X128519000Y-27880000D02*
X131119000Y-27880000D01*
X125919000Y-43240000D02*
X131119000Y-43240000D01*
X125919000Y-30480000D02*
X128519000Y-30480000D01*
X125919000Y-30480000D02*
X125919000Y-43240000D01*
X125919000Y-29210000D02*
X125919000Y-27880000D01*
X125919000Y-27880000D02*
X127249000Y-27880000D01*
%TO.C,J4*%
D10*
X80010000Y-61370000D02*
X92710000Y-61370000D01*
X92710000Y-54258000D01*
X80010000Y-54258000D01*
X80010000Y-61370000D01*
X76454000Y-60862000D02*
X80010000Y-60862000D01*
X80010000Y-54766000D01*
X76454000Y-54766000D01*
X76454000Y-60862000D01*
%TO.C,J2*%
X76454000Y-49862000D02*
X80010000Y-49862000D01*
X80010000Y-43766000D01*
X76454000Y-43766000D01*
X76454000Y-49862000D01*
X80010000Y-50370000D02*
X92710000Y-50370000D01*
X92710000Y-43258000D01*
X80010000Y-43258000D01*
X80010000Y-50370000D01*
%TO.C,J1*%
X80010000Y-39370000D02*
X92710000Y-39370000D01*
X92710000Y-32258000D01*
X80010000Y-32258000D01*
X80010000Y-39370000D01*
X76454000Y-38862000D02*
X80010000Y-38862000D01*
X80010000Y-32766000D01*
X76454000Y-32766000D01*
X76454000Y-38862000D01*
%TO.C,J5*%
X76454000Y-71862000D02*
X80010000Y-71862000D01*
X80010000Y-65766000D01*
X76454000Y-65766000D01*
X76454000Y-71862000D01*
X80010000Y-72370000D02*
X92710000Y-72370000D01*
X92710000Y-65258000D01*
X80010000Y-65258000D01*
X80010000Y-72370000D01*
D14*
%TO.C,R16*%
X108050000Y-63701000D02*
G75*
G02*
X105310000Y-63701000I-1370000J0D01*
G01*
X105310000Y-63701000D02*
G75*
G02*
X108050000Y-63701000I1370000J0D01*
G01*
X106680000Y-65071000D02*
X106680000Y-65141000D01*
%TO.C,RV11*%
X118179000Y-62216000D02*
X118179000Y-67286000D01*
X108409000Y-67286000D02*
X118179000Y-67286000D01*
X108409000Y-62216000D02*
X118179000Y-62216000D01*
X108409000Y-62216000D02*
X108409000Y-67286000D01*
%TO.C,R18*%
X112014000Y-71041000D02*
X112014000Y-70971000D01*
X113384000Y-72411000D02*
G75*
G02*
X110644000Y-72411000I-1370000J0D01*
G01*
X110644000Y-72411000D02*
G75*
G02*
X113384000Y-72411000I1370000J0D01*
G01*
%TO.C,R15*%
X113892000Y-60174000D02*
X113962000Y-60174000D01*
X113892000Y-60174000D02*
G75*
G02*
X111152000Y-60174000I-1370000J0D01*
G01*
X111152000Y-60174000D02*
G75*
G02*
X113892000Y-60174000I1370000J0D01*
G01*
%TO.C,R14*%
X113892000Y-57634000D02*
G75*
G02*
X111152000Y-57634000I-1370000J0D01*
G01*
X111152000Y-57634000D02*
G75*
G02*
X113892000Y-57634000I1370000J0D01*
G01*
X113892000Y-57634000D02*
X113962000Y-57634000D01*
%TO.C,Q1*%
X105740000Y-69566000D02*
X105740000Y-73166000D01*
X105751522Y-69527522D02*
G75*
G02*
X110190000Y-71366000I1838478J-1838478D01*
G01*
X110190000Y-71366000D02*
G75*
G02*
X105751522Y-73204478I-2600000J0D01*
G01*
%TO.C,C5*%
X117642000Y-56459000D02*
X117642000Y-56144000D01*
X117642000Y-56459000D02*
X112402000Y-56459000D01*
X117642000Y-54034000D02*
X117642000Y-53719000D01*
X117642000Y-53719000D02*
X112402000Y-53719000D01*
X112402000Y-56459000D02*
X112402000Y-56144000D01*
X112402000Y-54034000D02*
X112402000Y-53719000D01*
%TO.C,U1*%
D10*
X123952000Y-22828000D02*
X133096000Y-22828000D01*
X133096000Y-31210000D01*
X123952000Y-31210000D01*
X123952000Y-22828000D01*
X119634000Y-22828000D02*
X137414000Y-22828000D01*
X137414000Y-58388000D01*
X119634000Y-58388000D01*
X119634000Y-22828000D01*
D14*
%TO.C,R6*%
X113892000Y-44929000D02*
G75*
G02*
X111152000Y-44929000I-1370000J0D01*
G01*
X111152000Y-44929000D02*
G75*
G02*
X113892000Y-44929000I1370000J0D01*
G01*
X113892000Y-44929000D02*
X113962000Y-44929000D01*
%TO.C,J3*%
X104132000Y-19704000D02*
X103132000Y-19704000D01*
X103132000Y-19704000D02*
X103632000Y-20704000D01*
X103632000Y-20704000D02*
X104132000Y-19704000D01*
X108842000Y-21094000D02*
X108842000Y-30214000D01*
X96792000Y-21094000D02*
X96792000Y-22404000D01*
X80642000Y-21094000D02*
X108842000Y-21094000D01*
X107542000Y-22404000D02*
X107542000Y-28904000D01*
X96792000Y-22404000D02*
X107542000Y-22404000D01*
X92692000Y-22404000D02*
X92692000Y-21094000D01*
X92692000Y-22404000D02*
X92692000Y-22404000D01*
X81942000Y-22404000D02*
X92692000Y-22404000D01*
X107542000Y-28904000D02*
X81942000Y-28904000D01*
X81942000Y-28904000D02*
X81942000Y-22404000D01*
X108842000Y-30214000D02*
X80642000Y-30214000D01*
X80642000Y-30214000D02*
X80642000Y-21094000D01*
%TO.C,C15*%
X110959000Y-36648000D02*
X110644000Y-36648000D01*
X113384000Y-36648000D02*
X113069000Y-36648000D01*
X110644000Y-31408000D02*
X110644000Y-36648000D01*
X110959000Y-31408000D02*
X110644000Y-31408000D01*
X113384000Y-31408000D02*
X113384000Y-36648000D01*
X113384000Y-31408000D02*
X113069000Y-31408000D01*
%TO.C,C14*%
X108812000Y-31924000D02*
X108497000Y-31924000D01*
X108812000Y-31924000D02*
X108812000Y-37164000D01*
X106387000Y-31924000D02*
X106072000Y-31924000D01*
X106072000Y-31924000D02*
X106072000Y-37164000D01*
X108812000Y-37164000D02*
X108497000Y-37164000D01*
X106387000Y-37164000D02*
X106072000Y-37164000D01*
%TO.C,SW9*%
X165394000Y-39199000D02*
X165394000Y-34589000D01*
X168154000Y-39199000D02*
X165394000Y-39199000D01*
X170254000Y-39199000D02*
X170854000Y-39199000D01*
X172554000Y-39199000D02*
X173354000Y-39199000D01*
X175054000Y-39199000D02*
X178014000Y-39199000D01*
X178014000Y-34589000D02*
X178014000Y-39199000D01*
X165404000Y-30189000D02*
X165404000Y-25579000D01*
X165404000Y-25579000D02*
X168104000Y-25579000D01*
X170304000Y-25579000D02*
X173104000Y-25579000D01*
X175304000Y-25579000D02*
X178014000Y-25579000D01*
X178014000Y-25579000D02*
X178014000Y-30189000D01*
%TO.C,SW11*%
X86000000Y-90750000D02*
X84500000Y-90750000D01*
X82000000Y-92000000D02*
X82000000Y-96500000D01*
X88500000Y-96500000D02*
X88500000Y-92000000D01*
X84500000Y-97750000D02*
X86000000Y-97750000D01*
%TO.C,U5*%
D10*
X138684000Y-21328000D02*
X164084000Y-21328000D01*
X164084000Y-46728000D01*
X138684000Y-46728000D01*
X138684000Y-21328000D01*
X138684000Y-25392000D02*
X164084000Y-25392000D01*
X164084000Y-39362000D01*
X138684000Y-39362000D01*
X138684000Y-25392000D01*
X140854000Y-22598000D02*
G75*
G02*
X139054000Y-22598000I-900000J0D01*
G01*
X139054000Y-22598000D02*
G75*
G02*
X140854000Y-22598000I900000J0D01*
G01*
X140854000Y-45458000D02*
G75*
G02*
X139054000Y-45458000I-900000J0D01*
G01*
X139054000Y-45458000D02*
G75*
G02*
X140854000Y-45458000I900000J0D01*
G01*
X163714000Y-22598000D02*
G75*
G02*
X161914000Y-22598000I-900000J0D01*
G01*
X161914000Y-22598000D02*
G75*
G02*
X163714000Y-22598000I900000J0D01*
G01*
X163714000Y-45458000D02*
G75*
G02*
X161914000Y-45458000I-900000J0D01*
G01*
X161914000Y-45458000D02*
G75*
G02*
X163714000Y-45458000I900000J0D01*
G01*
D14*
%TO.C,RV10*%
X99832000Y-71663000D02*
X104902000Y-71663000D01*
X99832000Y-71663000D02*
X99832000Y-61893000D01*
X104902000Y-71663000D02*
X104902000Y-61893000D01*
X99832000Y-61893000D02*
X104902000Y-61893000D01*
%TO.C,RV9*%
X118931000Y-37832000D02*
X118931000Y-42902000D01*
X109161000Y-42902000D02*
X118931000Y-42902000D01*
X109161000Y-37832000D02*
X118931000Y-37832000D01*
X109161000Y-37832000D02*
X109161000Y-42902000D01*
%TO.C,U6*%
X100270000Y-43539000D02*
X100270000Y-61559000D01*
X100270000Y-61559000D02*
X110550000Y-61559000D01*
X102760000Y-43599000D02*
X102760000Y-61499000D01*
X102760000Y-61499000D02*
X108060000Y-61499000D01*
X104410000Y-43599000D02*
X102760000Y-43599000D01*
X108060000Y-43599000D02*
X106410000Y-43599000D01*
X108060000Y-61499000D02*
X108060000Y-43599000D01*
X110550000Y-43539000D02*
X100270000Y-43539000D01*
X110550000Y-61559000D02*
X110550000Y-43539000D01*
X106410000Y-43599000D02*
G75*
G02*
X104410000Y-43599000I-1000000J0D01*
G01*
%TO.C,R13*%
X94996000Y-51213000D02*
X94996000Y-51143000D01*
X96366000Y-52583000D02*
G75*
G02*
X93626000Y-52583000I-1370000J0D01*
G01*
X93626000Y-52583000D02*
G75*
G02*
X96366000Y-52583000I1370000J0D01*
G01*
%TO.C,R12*%
X113892000Y-47469000D02*
G75*
G02*
X111152000Y-47469000I-1370000J0D01*
G01*
X111152000Y-47469000D02*
G75*
G02*
X113892000Y-47469000I1370000J0D01*
G01*
X113892000Y-47469000D02*
X113962000Y-47469000D01*
%TO.C,R11*%
X98044000Y-61344000D02*
X98044000Y-61274000D01*
X99414000Y-62714000D02*
G75*
G02*
X96674000Y-62714000I-1370000J0D01*
G01*
X96674000Y-62714000D02*
G75*
G02*
X99414000Y-62714000I1370000J0D01*
G01*
%TO.C,R10*%
X94996000Y-46104000D02*
X94996000Y-46034000D01*
X96366000Y-47474000D02*
G75*
G02*
X93626000Y-47474000I-1370000J0D01*
G01*
X93626000Y-47474000D02*
G75*
G02*
X96366000Y-47474000I1370000J0D01*
G01*
%TO.C,R9*%
X98044000Y-46299000D02*
X98044000Y-46369000D01*
X99414000Y-44929000D02*
G75*
G02*
X96674000Y-44929000I-1370000J0D01*
G01*
X96674000Y-44929000D02*
G75*
G02*
X99414000Y-44929000I1370000J0D01*
G01*
%TO.C,C13*%
X96051000Y-54974000D02*
X96366000Y-54974000D01*
X93626000Y-54974000D02*
X93941000Y-54974000D01*
X96366000Y-60214000D02*
X96366000Y-54974000D01*
X96051000Y-60214000D02*
X96366000Y-60214000D01*
X93626000Y-60214000D02*
X93626000Y-54974000D01*
X93626000Y-60214000D02*
X93941000Y-60214000D01*
%TO.C,C12*%
X117642000Y-51379000D02*
X117642000Y-51064000D01*
X117642000Y-51379000D02*
X112402000Y-51379000D01*
X117642000Y-48954000D02*
X117642000Y-48639000D01*
X117642000Y-48639000D02*
X112402000Y-48639000D01*
X112402000Y-51379000D02*
X112402000Y-51064000D01*
X112402000Y-48954000D02*
X112402000Y-48639000D01*
%TO.C,C11*%
X117612000Y-53914000D02*
X117612000Y-53599000D01*
X117612000Y-53914000D02*
X112372000Y-53914000D01*
X117612000Y-51489000D02*
X117612000Y-51174000D01*
X117612000Y-51174000D02*
X112372000Y-51174000D01*
X112372000Y-53914000D02*
X112372000Y-53599000D01*
X112372000Y-51489000D02*
X112372000Y-51174000D01*
%TO.C,C10*%
X99414000Y-52434000D02*
X99099000Y-52434000D01*
X99414000Y-52434000D02*
X99414000Y-57674000D01*
X96989000Y-52434000D02*
X96674000Y-52434000D01*
X96674000Y-52434000D02*
X96674000Y-57674000D01*
X99414000Y-57674000D02*
X99099000Y-57674000D01*
X96989000Y-57674000D02*
X96674000Y-57674000D01*
%TO.C,R7*%
X102208000Y-97507000D02*
G75*
G02*
X99468000Y-97507000I-1370000J0D01*
G01*
X99468000Y-97507000D02*
G75*
G02*
X102208000Y-97507000I1370000J0D01*
G01*
X100838000Y-98877000D02*
X100838000Y-98947000D01*
%TO.C,C9*%
X163055000Y-94880000D02*
X163370000Y-94880000D01*
X160630000Y-94880000D02*
X160945000Y-94880000D01*
X163370000Y-100120000D02*
X163370000Y-94880000D01*
X163055000Y-100120000D02*
X163370000Y-100120000D01*
X160630000Y-100120000D02*
X160630000Y-94880000D01*
X160630000Y-100120000D02*
X160945000Y-100120000D01*
%TO.C,C8*%
X142055000Y-94880000D02*
X142370000Y-94880000D01*
X139630000Y-94880000D02*
X139945000Y-94880000D01*
X142370000Y-100120000D02*
X142370000Y-94880000D01*
X142055000Y-100120000D02*
X142370000Y-100120000D01*
X139630000Y-100120000D02*
X139630000Y-94880000D01*
X139630000Y-100120000D02*
X139945000Y-100120000D01*
%TO.C,C7*%
X121055000Y-94880000D02*
X121370000Y-94880000D01*
X118630000Y-94880000D02*
X118945000Y-94880000D01*
X121370000Y-100120000D02*
X121370000Y-94880000D01*
X121055000Y-100120000D02*
X121370000Y-100120000D01*
X118630000Y-100120000D02*
X118630000Y-94880000D01*
X118630000Y-100120000D02*
X118945000Y-100120000D01*
%TO.C,C6*%
X98591000Y-94916000D02*
X98906000Y-94916000D01*
X96166000Y-94916000D02*
X96481000Y-94916000D01*
X98906000Y-100156000D02*
X98906000Y-94916000D01*
X98591000Y-100156000D02*
X98906000Y-100156000D01*
X96166000Y-100156000D02*
X96166000Y-94916000D01*
X96166000Y-100156000D02*
X96481000Y-100156000D01*
%TO.C,R4*%
X167942000Y-42599000D02*
G75*
G02*
X165202000Y-42599000I-1370000J0D01*
G01*
X165202000Y-42599000D02*
G75*
G02*
X167942000Y-42599000I1370000J0D01*
G01*
X166572000Y-43969000D02*
X166572000Y-44039000D01*
%TO.C,R3*%
X176874000Y-43964000D02*
X176874000Y-44034000D01*
X178244000Y-42594000D02*
G75*
G02*
X175504000Y-42594000I-1370000J0D01*
G01*
X175504000Y-42594000D02*
G75*
G02*
X178244000Y-42594000I1370000J0D01*
G01*
%TO.C,R2*%
X167942000Y-50184000D02*
G75*
G02*
X165202000Y-50184000I-1370000J0D01*
G01*
X165202000Y-50184000D02*
G75*
G02*
X167942000Y-50184000I1370000J0D01*
G01*
X166572000Y-48814000D02*
X166572000Y-48744000D01*
%TO.C,R1*%
X178244000Y-50184000D02*
G75*
G02*
X175504000Y-50184000I-1370000J0D01*
G01*
X175504000Y-50184000D02*
G75*
G02*
X178244000Y-50184000I1370000J0D01*
G01*
X176874000Y-48814000D02*
X176874000Y-48744000D01*
%TO.C,D8*%
X176150000Y-108750000D02*
X168850000Y-108750000D01*
X176150000Y-103250000D02*
X168850000Y-103250000D01*
X168850000Y-103250000D02*
X168850000Y-104400000D01*
%TO.C,D7*%
X165650000Y-108750000D02*
X158350000Y-108750000D01*
X165650000Y-103250000D02*
X158350000Y-103250000D01*
X158350000Y-103250000D02*
X158350000Y-104400000D01*
%TO.C,D6*%
X155150000Y-108750000D02*
X147850000Y-108750000D01*
X155150000Y-103250000D02*
X147850000Y-103250000D01*
X147850000Y-103250000D02*
X147850000Y-104400000D01*
%TO.C,D5*%
X144650000Y-108750000D02*
X137350000Y-108750000D01*
X144650000Y-103250000D02*
X137350000Y-103250000D01*
X137350000Y-103250000D02*
X137350000Y-104400000D01*
%TO.C,D4*%
X134150000Y-108750000D02*
X126850000Y-108750000D01*
X134150000Y-103250000D02*
X126850000Y-103250000D01*
X126850000Y-103250000D02*
X126850000Y-104400000D01*
%TO.C,D3*%
X123650000Y-108750000D02*
X116350000Y-108750000D01*
X123650000Y-103250000D02*
X116350000Y-103250000D01*
X116350000Y-103250000D02*
X116350000Y-104400000D01*
%TO.C,D2*%
X105850000Y-103250000D02*
X105850000Y-104400000D01*
X113150000Y-103250000D02*
X105850000Y-103250000D01*
X113150000Y-108750000D02*
X105850000Y-108750000D01*
%TO.C,D1*%
X102650000Y-108750000D02*
X95350000Y-108750000D01*
X102650000Y-103250000D02*
X95350000Y-103250000D01*
X95350000Y-103250000D02*
X95350000Y-104400000D01*
%TO.C,C4*%
X160060000Y-70905000D02*
X160060000Y-71220000D01*
X160060000Y-68480000D02*
X160060000Y-68795000D01*
X154820000Y-71220000D02*
X160060000Y-71220000D01*
X154820000Y-70905000D02*
X154820000Y-71220000D01*
X154820000Y-68480000D02*
X160060000Y-68480000D01*
X154820000Y-68480000D02*
X154820000Y-68795000D01*
%TO.C,C3*%
X124167000Y-67477000D02*
X123852000Y-67477000D01*
X126592000Y-67477000D02*
X126277000Y-67477000D01*
X123852000Y-62237000D02*
X123852000Y-67477000D01*
X124167000Y-62237000D02*
X123852000Y-62237000D01*
X126592000Y-62237000D02*
X126592000Y-67477000D01*
X126592000Y-62237000D02*
X126277000Y-62237000D01*
%TO.C,C2*%
X172319000Y-49759000D02*
X172004000Y-49759000D01*
X174744000Y-49759000D02*
X174429000Y-49759000D01*
X172004000Y-44519000D02*
X172004000Y-49759000D01*
X172319000Y-44519000D02*
X172004000Y-44519000D01*
X174744000Y-44519000D02*
X174744000Y-49759000D01*
X174744000Y-44519000D02*
X174429000Y-44519000D01*
%TO.C,C1*%
X169017000Y-49759000D02*
X168702000Y-49759000D01*
X171442000Y-49759000D02*
X171127000Y-49759000D01*
X168702000Y-44519000D02*
X168702000Y-49759000D01*
X169017000Y-44519000D02*
X168702000Y-44519000D01*
X171442000Y-44519000D02*
X171442000Y-49759000D01*
X171442000Y-44519000D02*
X171127000Y-44519000D01*
%TO.C,SW10*%
X86000000Y-110750000D02*
X84500000Y-110750000D01*
X82000000Y-112000000D02*
X82000000Y-116500000D01*
X88500000Y-116500000D02*
X88500000Y-112000000D01*
X84500000Y-117750000D02*
X86000000Y-117750000D01*
%TO.C,SW8*%
X171750000Y-118000000D02*
X173250000Y-118000000D01*
X175750000Y-116750000D02*
X175750000Y-112250000D01*
X169250000Y-112250000D02*
X169250000Y-116750000D01*
X173250000Y-111000000D02*
X171750000Y-111000000D01*
%TO.C,SW7*%
X161250000Y-118000000D02*
X162750000Y-118000000D01*
X165250000Y-116750000D02*
X165250000Y-112250000D01*
X158750000Y-112250000D02*
X158750000Y-116750000D01*
X162750000Y-111000000D02*
X161250000Y-111000000D01*
%TO.C,SW6*%
X150750000Y-118000000D02*
X152250000Y-118000000D01*
X154750000Y-116750000D02*
X154750000Y-112250000D01*
X148250000Y-112250000D02*
X148250000Y-116750000D01*
X152250000Y-111000000D02*
X150750000Y-111000000D01*
%TO.C,SW5*%
X140250000Y-118000000D02*
X141750000Y-118000000D01*
X144250000Y-116750000D02*
X144250000Y-112250000D01*
X137750000Y-112250000D02*
X137750000Y-116750000D01*
X141750000Y-111000000D02*
X140250000Y-111000000D01*
%TO.C,SW4*%
X129750000Y-118000000D02*
X131250000Y-118000000D01*
X133750000Y-116750000D02*
X133750000Y-112250000D01*
X127250000Y-112250000D02*
X127250000Y-116750000D01*
X131250000Y-111000000D02*
X129750000Y-111000000D01*
%TO.C,SW3*%
X119250000Y-118000000D02*
X120750000Y-118000000D01*
X123250000Y-116750000D02*
X123250000Y-112250000D01*
X116750000Y-112250000D02*
X116750000Y-116750000D01*
X120750000Y-111000000D02*
X119250000Y-111000000D01*
%TO.C,SW2*%
X108750000Y-118000000D02*
X110250000Y-118000000D01*
X112750000Y-116750000D02*
X112750000Y-112250000D01*
X106250000Y-112250000D02*
X106250000Y-116750000D01*
X110250000Y-111000000D02*
X108750000Y-111000000D01*
%TO.C,SW1*%
X99750000Y-111000000D02*
X98250000Y-111000000D01*
X95750000Y-112250000D02*
X95750000Y-116750000D01*
X102250000Y-116750000D02*
X102250000Y-112250000D01*
X98250000Y-118000000D02*
X99750000Y-118000000D01*
%TO.C,RV7*%
X166970000Y-87120000D02*
X157030000Y-87120000D01*
X157030000Y-83255000D02*
X157030000Y-87120000D01*
X166970000Y-83255000D02*
X166970000Y-87120000D01*
X157030000Y-74880000D02*
X157030000Y-78745000D01*
X158630000Y-74880000D02*
X157030000Y-74880000D01*
X161129000Y-74880000D02*
X160370000Y-74880000D01*
X163629000Y-74880000D02*
X162870000Y-74880000D01*
X166970000Y-74880000D02*
X166970000Y-78745000D01*
X166970000Y-74880000D02*
X165371000Y-74880000D01*
%TO.C,RV6*%
X156470000Y-88880000D02*
X154871000Y-88880000D01*
X156470000Y-88880000D02*
X156470000Y-92745000D01*
X153129000Y-88880000D02*
X152370000Y-88880000D01*
X150629000Y-88880000D02*
X149870000Y-88880000D01*
X148130000Y-88880000D02*
X146530000Y-88880000D01*
X146530000Y-88880000D02*
X146530000Y-92745000D01*
X156470000Y-97255000D02*
X156470000Y-101120000D01*
X146530000Y-97255000D02*
X146530000Y-101120000D01*
X156470000Y-101120000D02*
X146530000Y-101120000D01*
%TO.C,RV4*%
X135470000Y-88880000D02*
X133871000Y-88880000D01*
X135470000Y-88880000D02*
X135470000Y-92745000D01*
X132129000Y-88880000D02*
X131370000Y-88880000D01*
X129629000Y-88880000D02*
X128870000Y-88880000D01*
X127130000Y-88880000D02*
X125530000Y-88880000D01*
X125530000Y-88880000D02*
X125530000Y-92745000D01*
X135470000Y-97255000D02*
X135470000Y-101120000D01*
X125530000Y-97255000D02*
X125530000Y-101120000D01*
X135470000Y-101120000D02*
X125530000Y-101120000D01*
%TO.C,RV3*%
X124970000Y-87120000D02*
X115030000Y-87120000D01*
X115030000Y-83255000D02*
X115030000Y-87120000D01*
X124970000Y-83255000D02*
X124970000Y-87120000D01*
X115030000Y-74880000D02*
X115030000Y-78745000D01*
X116630000Y-74880000D02*
X115030000Y-74880000D01*
X119129000Y-74880000D02*
X118370000Y-74880000D01*
X121629000Y-74880000D02*
X120870000Y-74880000D01*
X124970000Y-74880000D02*
X124970000Y-78745000D01*
X124970000Y-74880000D02*
X123371000Y-74880000D01*
%TO.C,RV2*%
X114470000Y-88880000D02*
X112871000Y-88880000D01*
X114470000Y-88880000D02*
X114470000Y-92745000D01*
X111129000Y-88880000D02*
X110370000Y-88880000D01*
X108629000Y-88880000D02*
X107870000Y-88880000D01*
X106130000Y-88880000D02*
X104530000Y-88880000D01*
X104530000Y-88880000D02*
X104530000Y-92745000D01*
X114470000Y-97255000D02*
X114470000Y-101120000D01*
X104530000Y-97255000D02*
X104530000Y-101120000D01*
X114470000Y-101120000D02*
X104530000Y-101120000D01*
%TO.C,RV1*%
X103970000Y-87120000D02*
X94030000Y-87120000D01*
X94030000Y-83255000D02*
X94030000Y-87120000D01*
X103970000Y-83255000D02*
X103970000Y-87120000D01*
X94030000Y-74880000D02*
X94030000Y-78745000D01*
X95630000Y-74880000D02*
X94030000Y-74880000D01*
X98129000Y-74880000D02*
X97370000Y-74880000D01*
X100629000Y-74880000D02*
X99870000Y-74880000D01*
X103970000Y-74880000D02*
X103970000Y-78745000D01*
X103970000Y-74880000D02*
X102371000Y-74880000D01*
%TD*%
%LPC*%
D15*
%TO.C,H2*%
X175000000Y-81000000D03*
%TD*%
%TO.C,H1*%
X85000000Y-81000000D03*
%TD*%
D16*
%TO.C,U3*%
X128524000Y-62357000D03*
X131064000Y-62357000D03*
X133604000Y-62357000D03*
X136144000Y-62357000D03*
X138684000Y-62357000D03*
X141224000Y-62357000D03*
X143764000Y-62357000D03*
X146304000Y-62357000D03*
X146304000Y-69977000D03*
X143764000Y-69977000D03*
X141224000Y-69977000D03*
X138684000Y-69977000D03*
X136144000Y-69977000D03*
X133604000Y-69977000D03*
X131064000Y-69977000D03*
D17*
X128524000Y-69977000D03*
%TD*%
D18*
%TO.C,R20*%
X144780000Y-57277000D03*
D16*
X144780000Y-47117000D03*
%TD*%
D18*
%TO.C,R19*%
X147955000Y-57277000D03*
D16*
X147955000Y-47117000D03*
%TD*%
D19*
%TO.C,RV5*%
X145400000Y-81000000D03*
X136600000Y-81000000D03*
D20*
X138500000Y-74000000D03*
X141000000Y-74000000D03*
X143500000Y-74000000D03*
%TD*%
D19*
%TO.C,RV8*%
X176900000Y-95000000D03*
X168100000Y-95000000D03*
D20*
X170000000Y-88000000D03*
X172500000Y-88000000D03*
X175000000Y-88000000D03*
%TD*%
D17*
%TO.C,U2*%
X162550000Y-66558000D03*
D16*
X162550000Y-64018000D03*
X162550000Y-61478000D03*
X162550000Y-58938000D03*
X162550000Y-56398000D03*
X162550000Y-53858000D03*
X162550000Y-51318000D03*
X162550000Y-48778000D03*
X154930000Y-48778000D03*
X154930000Y-51318000D03*
X154930000Y-53858000D03*
X154930000Y-56398000D03*
X154930000Y-58938000D03*
X154930000Y-61478000D03*
X154930000Y-64018000D03*
X154930000Y-66558000D03*
%TD*%
D18*
%TO.C,R17*%
X97057000Y-70866000D03*
D16*
X94517000Y-70866000D03*
%TD*%
D21*
%TO.C,D10*%
X104394000Y-32512000D03*
D22*
X94234000Y-32512000D03*
%TD*%
D18*
%TO.C,R8*%
X94996000Y-65283000D03*
D16*
X94996000Y-62743000D03*
%TD*%
D18*
%TO.C,R5*%
X106934000Y-41627000D03*
D16*
X96774000Y-41627000D03*
%TD*%
D23*
%TO.C,U7*%
X110896000Y-24362000D03*
X110896000Y-26662000D03*
D24*
X117196000Y-26662000D03*
D23*
X110896000Y-28962000D03*
%TD*%
D21*
%TO.C,D9*%
X101600000Y-36068000D03*
D22*
X99060000Y-36068000D03*
%TD*%
D18*
%TO.C,C17*%
X165688000Y-22733000D03*
X170688000Y-22733000D03*
%TD*%
%TO.C,C16*%
X116586000Y-34814888D03*
D17*
X116586000Y-32314888D03*
%TD*%
D25*
%TO.C,J6*%
X129789000Y-41910000D03*
X127249000Y-41910000D03*
X129789000Y-39370000D03*
X127249000Y-39370000D03*
X129789000Y-36830000D03*
X127249000Y-36830000D03*
X129789000Y-34290000D03*
X127249000Y-34290000D03*
X129789000Y-31750000D03*
X127249000Y-31750000D03*
X129789000Y-29210000D03*
D26*
X127249000Y-29210000D03*
%TD*%
D27*
%TO.C,J4*%
X81810000Y-57814000D03*
X86810000Y-57814000D03*
X91010000Y-57814000D03*
%TD*%
%TO.C,J2*%
X91010000Y-46814000D03*
X86810000Y-46814000D03*
X81810000Y-46814000D03*
%TD*%
%TO.C,J1*%
X81810000Y-35814000D03*
X86810000Y-35814000D03*
X91010000Y-35814000D03*
%TD*%
%TO.C,J5*%
X91010000Y-68814000D03*
X86810000Y-68814000D03*
X81810000Y-68814000D03*
%TD*%
D16*
%TO.C,R16*%
X106680000Y-66241000D03*
D18*
X106680000Y-63701000D03*
%TD*%
D28*
%TO.C,RV11*%
X110754000Y-64746000D03*
X113294000Y-64746000D03*
X115834000Y-64746000D03*
%TD*%
D18*
%TO.C,R18*%
X112014000Y-72411000D03*
D16*
X112014000Y-69871000D03*
%TD*%
D18*
%TO.C,R15*%
X112522000Y-60174000D03*
D16*
X115062000Y-60174000D03*
%TD*%
%TO.C,R14*%
X115062000Y-57634000D03*
D18*
X112522000Y-57634000D03*
%TD*%
D29*
%TO.C,Q1*%
X107590000Y-70096000D03*
D30*
X107590000Y-71366000D03*
X107590000Y-72636000D03*
%TD*%
D18*
%TO.C,C5*%
X117522000Y-55089000D03*
X112522000Y-55089000D03*
%TD*%
D31*
%TO.C,U1*%
X136144000Y-24098000D03*
X136144000Y-26638000D03*
X136144000Y-29178000D03*
X136144000Y-31718000D03*
X136144000Y-34258000D03*
X136144000Y-36798000D03*
X136144000Y-39338000D03*
X136144000Y-41878000D03*
X136144000Y-44418000D03*
X136144000Y-46958000D03*
X136144000Y-49498000D03*
X136144000Y-52038000D03*
X136144000Y-54578000D03*
X136144000Y-57118000D03*
X133604000Y-57118000D03*
X131064000Y-57118000D03*
X128524000Y-57118000D03*
X125984000Y-57118000D03*
X123444000Y-57118000D03*
X120904000Y-57118000D03*
X120904000Y-54578000D03*
X120904000Y-52038000D03*
X120904000Y-49498000D03*
X120904000Y-46958000D03*
X120904000Y-44418000D03*
X120904000Y-41878000D03*
X120904000Y-39338000D03*
X120904000Y-36798000D03*
X120904000Y-34258000D03*
X120904000Y-31718000D03*
X120904000Y-29178000D03*
X120904000Y-26638000D03*
X120904000Y-24098000D03*
%TD*%
D16*
%TO.C,R6*%
X115062000Y-44929000D03*
D18*
X112522000Y-44929000D03*
%TD*%
D32*
%TO.C,J3*%
X103632000Y-24384000D03*
D31*
X103632000Y-26924000D03*
X101092000Y-24384000D03*
X101092000Y-26924000D03*
X98552000Y-24384000D03*
X98552000Y-26924000D03*
X96012000Y-24384000D03*
X96012000Y-26924000D03*
X93472000Y-24384000D03*
X93472000Y-26924000D03*
X90932000Y-24384000D03*
X90932000Y-26924000D03*
X88392000Y-24384000D03*
X88392000Y-26924000D03*
X85852000Y-24384000D03*
X85852000Y-26924000D03*
%TD*%
D18*
%TO.C,C15*%
X112014000Y-36528000D03*
X112014000Y-31528000D03*
%TD*%
%TO.C,C14*%
X107442000Y-32044000D03*
X107442000Y-37044000D03*
%TD*%
D33*
%TO.C,SW9*%
X169204000Y-39889000D03*
D18*
X174204000Y-39889000D03*
X171704000Y-39889000D03*
X169204000Y-25389000D03*
X174204000Y-25389000D03*
D34*
X166104000Y-32389000D03*
X177304000Y-32389000D03*
%TD*%
D35*
%TO.C,SW11*%
X87500000Y-91000000D03*
X87500000Y-97500000D03*
X83000000Y-91000000D03*
X83000000Y-97500000D03*
%TD*%
D31*
%TO.C,U5*%
X147574000Y-22598000D03*
X150114000Y-22598000D03*
X152654000Y-22598000D03*
X155194000Y-22598000D03*
%TD*%
D28*
%TO.C,RV10*%
X102362000Y-64238000D03*
X102362000Y-66778000D03*
X102362000Y-69318000D03*
%TD*%
%TO.C,RV9*%
X111506000Y-40362000D03*
X114046000Y-40362000D03*
X116586000Y-40362000D03*
%TD*%
D17*
%TO.C,U6*%
X101600000Y-44929000D03*
D16*
X101600000Y-47469000D03*
X101600000Y-50009000D03*
X101600000Y-52549000D03*
X101600000Y-55089000D03*
X101600000Y-57629000D03*
X101600000Y-60169000D03*
X109220000Y-60169000D03*
X109220000Y-57629000D03*
X109220000Y-55089000D03*
X109220000Y-52549000D03*
X109220000Y-50009000D03*
X109220000Y-47469000D03*
X109220000Y-44929000D03*
%TD*%
D18*
%TO.C,R13*%
X94996000Y-52583000D03*
D16*
X94996000Y-50043000D03*
%TD*%
%TO.C,R12*%
X115062000Y-47469000D03*
D18*
X112522000Y-47469000D03*
%TD*%
%TO.C,R11*%
X98044000Y-62714000D03*
D16*
X98044000Y-60174000D03*
%TD*%
D18*
%TO.C,R10*%
X94996000Y-47474000D03*
D16*
X94996000Y-44934000D03*
%TD*%
D18*
%TO.C,R9*%
X98044000Y-44929000D03*
D16*
X98044000Y-47469000D03*
%TD*%
D18*
%TO.C,C13*%
X94996000Y-55094000D03*
X94996000Y-60094000D03*
%TD*%
%TO.C,C12*%
X117522000Y-50009000D03*
X112522000Y-50009000D03*
%TD*%
%TO.C,C11*%
X117492000Y-52544000D03*
X112492000Y-52544000D03*
%TD*%
%TO.C,C10*%
X98044000Y-52554000D03*
X98044000Y-57554000D03*
%TD*%
D16*
%TO.C,R7*%
X100838000Y-100047000D03*
D18*
X100838000Y-97507000D03*
%TD*%
%TO.C,C9*%
X162000000Y-95000000D03*
X162000000Y-100000000D03*
%TD*%
%TO.C,C8*%
X141000000Y-95000000D03*
X141000000Y-100000000D03*
%TD*%
%TO.C,C7*%
X120000000Y-95000000D03*
X120000000Y-100000000D03*
%TD*%
%TO.C,C6*%
X97536000Y-95036000D03*
X97536000Y-100036000D03*
%TD*%
D16*
%TO.C,R4*%
X166572000Y-45139000D03*
D18*
X166572000Y-42599000D03*
%TD*%
%TO.C,R3*%
X176874000Y-42594000D03*
D16*
X176874000Y-45134000D03*
%TD*%
%TO.C,R2*%
X166572000Y-47644000D03*
D18*
X166572000Y-50184000D03*
%TD*%
D16*
%TO.C,R1*%
X176874000Y-47644000D03*
D18*
X176874000Y-50184000D03*
%TD*%
D36*
%TO.C,D8*%
X174950000Y-107650000D03*
X174950000Y-104350000D03*
X170050000Y-104350000D03*
X170050000Y-107650000D03*
%TD*%
%TO.C,D7*%
X164450000Y-107650000D03*
X164450000Y-104350000D03*
X159550000Y-104350000D03*
X159550000Y-107650000D03*
%TD*%
%TO.C,D6*%
X153950000Y-107650000D03*
X153950000Y-104350000D03*
X149050000Y-104350000D03*
X149050000Y-107650000D03*
%TD*%
%TO.C,D5*%
X143450000Y-107650000D03*
X143450000Y-104350000D03*
X138550000Y-104350000D03*
X138550000Y-107650000D03*
%TD*%
%TO.C,D4*%
X132950000Y-107650000D03*
X132950000Y-104350000D03*
X128050000Y-104350000D03*
X128050000Y-107650000D03*
%TD*%
%TO.C,D3*%
X122450000Y-107650000D03*
X122450000Y-104350000D03*
X117550000Y-104350000D03*
X117550000Y-107650000D03*
%TD*%
%TO.C,D2*%
X107050000Y-107650000D03*
X107050000Y-104350000D03*
X111950000Y-104350000D03*
X111950000Y-107650000D03*
%TD*%
%TO.C,D1*%
X101450000Y-107650000D03*
X101450000Y-104350000D03*
X96550000Y-104350000D03*
X96550000Y-107650000D03*
%TD*%
D18*
%TO.C,C4*%
X159940000Y-69850000D03*
X154940000Y-69850000D03*
%TD*%
%TO.C,C3*%
X125222000Y-67357000D03*
X125222000Y-62357000D03*
%TD*%
%TO.C,C2*%
X173374000Y-49639000D03*
X173374000Y-44639000D03*
%TD*%
%TO.C,C1*%
X170072000Y-49639000D03*
X170072000Y-44639000D03*
%TD*%
D35*
%TO.C,SW10*%
X87500000Y-111000000D03*
X87500000Y-117500000D03*
X83000000Y-111000000D03*
X83000000Y-117500000D03*
%TD*%
%TO.C,SW8*%
X170250000Y-117750000D03*
X170250000Y-111250000D03*
X174750000Y-117750000D03*
X174750000Y-111250000D03*
%TD*%
%TO.C,SW7*%
X159750000Y-117750000D03*
X159750000Y-111250000D03*
X164250000Y-117750000D03*
X164250000Y-111250000D03*
%TD*%
%TO.C,SW6*%
X149250000Y-117750000D03*
X149250000Y-111250000D03*
X153750000Y-117750000D03*
X153750000Y-111250000D03*
%TD*%
%TO.C,SW5*%
X138750000Y-117750000D03*
X138750000Y-111250000D03*
X143250000Y-117750000D03*
X143250000Y-111250000D03*
%TD*%
%TO.C,SW4*%
X128250000Y-117750000D03*
X128250000Y-111250000D03*
X132750000Y-117750000D03*
X132750000Y-111250000D03*
%TD*%
%TO.C,SW3*%
X117750000Y-117750000D03*
X117750000Y-111250000D03*
X122250000Y-117750000D03*
X122250000Y-111250000D03*
%TD*%
%TO.C,SW2*%
X107250000Y-117750000D03*
X107250000Y-111250000D03*
X111750000Y-117750000D03*
X111750000Y-111250000D03*
%TD*%
%TO.C,SW1*%
X101250000Y-111250000D03*
X101250000Y-117750000D03*
X96750000Y-111250000D03*
X96750000Y-117750000D03*
%TD*%
D20*
%TO.C,RV7*%
X164500000Y-74000000D03*
X162000000Y-74000000D03*
X159500000Y-74000000D03*
D19*
X157600000Y-81000000D03*
X166400000Y-81000000D03*
%TD*%
%TO.C,RV6*%
X155900000Y-95000000D03*
X147100000Y-95000000D03*
D20*
X149000000Y-88000000D03*
X151500000Y-88000000D03*
X154000000Y-88000000D03*
%TD*%
D19*
%TO.C,RV4*%
X134900000Y-95000000D03*
X126100000Y-95000000D03*
D20*
X128000000Y-88000000D03*
X130500000Y-88000000D03*
X133000000Y-88000000D03*
%TD*%
%TO.C,RV3*%
X122500000Y-74000000D03*
X120000000Y-74000000D03*
X117500000Y-74000000D03*
D19*
X115600000Y-81000000D03*
X124400000Y-81000000D03*
%TD*%
%TO.C,RV2*%
X113900000Y-95000000D03*
X105100000Y-95000000D03*
D20*
X107000000Y-88000000D03*
X109500000Y-88000000D03*
X112000000Y-88000000D03*
%TD*%
%TO.C,RV1*%
X101500000Y-74000000D03*
X99000000Y-74000000D03*
X96500000Y-74000000D03*
D19*
X94600000Y-81000000D03*
X103400000Y-81000000D03*
%TD*%
%LPD*%
M02*
