M48
; DRILL file {KiCad 8.0.0} date 2024-04-14T22:25:58-0700
; FORMAT={-:-/ absolute / metric / decimal}
; #@! TF.CreationDate,2024-04-14T22:25:58-07:00
; #@! TF.GenerationSoftware,Kicad,Pcbnew,8.0.0
; #@! TF.FileFunction,Plated,1,2,PTH
FMAT,2
METRIC
; #@! TA.AperFunction,Plated,PTH,ViaDrill
T1C0.300
; #@! TA.AperFunction,Plated,PTH,ComponentDrill
T2C0.750
; #@! TA.AperFunction,Plated,PTH,ComponentDrill
T3C0.800
; #@! TA.AperFunction,Plated,PTH,ComponentDrill
T4C1.000
; #@! TA.AperFunction,Plated,PTH,ComponentDrill
T5C1.100
%
G90
G05
T1
X97.79Y-104.394
X101.219Y-105.918
X108.204Y-24.376
X108.204Y-104.394
X109.22Y-24.376
X111.887Y-105.918
X115.824Y-77.216
X118.872Y-104.394
X122.301Y-105.918
X124.714Y-51.308
X126.365Y-76.073
X126.492Y-104.394
X130.81Y-79.248
X132.842Y-105.918
X137.414Y-64.643
X138.684Y-66.421
X139.7Y-104.394
X143.383Y-105.918
X144.78Y-32.766
X144.78Y-53.848
X147.955Y-32.766
X150.241Y-72.263
X150.368Y-104.394
X151.257Y-73.533
X152.273Y-74.422
X153.289Y-75.438
X153.924Y-105.918
X160.782Y-104.394
X163.454Y-76.454
X164.465Y-105.918
X168.275Y-56.388
X168.275Y-58.928
X168.275Y-64.008
X168.656Y-104.394
X172.72Y-66.558
X174.879Y-105.918
T2
X107.59Y-70.096
X107.59Y-71.366
X107.59Y-72.636
T3
X94.517Y-70.866
X94.996Y-44.934
X94.996Y-47.474
X94.996Y-50.043
X94.996Y-52.583
X94.996Y-55.094
X94.996Y-60.094
X94.996Y-62.743
X94.996Y-65.283
X96.774Y-41.627
X97.057Y-70.866
X97.536Y-95.036
X97.536Y-100.036
X98.044Y-44.929
X98.044Y-47.469
X98.044Y-52.554
X98.044Y-57.554
X98.044Y-60.174
X98.044Y-62.714
X100.838Y-97.507
X100.838Y-100.047
X101.6Y-44.929
X101.6Y-47.469
X101.6Y-50.009
X101.6Y-52.549
X101.6Y-55.089
X101.6Y-57.629
X101.6Y-60.169
X102.362Y-64.238
X102.362Y-66.778
X102.362Y-69.318
X106.68Y-63.701
X106.68Y-66.241
X106.934Y-41.627
X107.442Y-32.044
X107.442Y-37.044
X109.22Y-44.929
X109.22Y-47.469
X109.22Y-50.009
X109.22Y-52.549
X109.22Y-55.089
X109.22Y-57.629
X109.22Y-60.169
X110.754Y-64.746
X111.506Y-40.362
X112.014Y-31.528
X112.014Y-36.528
X112.014Y-69.871
X112.014Y-72.411
X112.492Y-52.544
X112.522Y-44.929
X112.522Y-47.469
X112.522Y-50.009
X112.522Y-55.089
X112.522Y-57.634
X112.522Y-60.174
X113.294Y-64.746
X114.046Y-40.362
X115.062Y-44.929
X115.062Y-47.469
X115.062Y-57.634
X115.062Y-60.174
X115.834Y-64.746
X116.586Y-32.315
X116.586Y-34.815
X116.586Y-40.362
X117.492Y-52.544
X117.522Y-50.009
X117.522Y-55.089
X120.0Y-95.0
X120.0Y-100.0
X125.222Y-62.357
X125.222Y-67.357
X128.524Y-62.357
X128.524Y-69.977
X131.064Y-62.357
X131.064Y-69.977
X133.604Y-62.357
X133.604Y-69.977
X136.144Y-62.357
X136.144Y-69.977
X138.684Y-62.357
X138.684Y-69.977
X141.0Y-95.0
X141.0Y-100.0
X141.224Y-62.357
X141.224Y-69.977
X143.764Y-62.357
X143.764Y-69.977
X144.78Y-47.117
X144.78Y-57.277
X146.304Y-62.357
X146.304Y-69.977
X147.955Y-47.117
X147.955Y-57.277
X154.93Y-48.778
X154.93Y-51.318
X154.93Y-53.858
X154.93Y-56.398
X154.93Y-58.938
X154.93Y-61.478
X154.93Y-64.018
X154.93Y-66.558
X154.94Y-69.85
X159.94Y-69.85
X162.0Y-95.0
X162.0Y-100.0
X162.55Y-48.778
X162.55Y-51.318
X162.55Y-53.858
X162.55Y-56.398
X162.55Y-58.938
X162.55Y-61.478
X162.55Y-64.018
X162.55Y-66.558
X165.688Y-22.733
X166.572Y-42.599
X166.572Y-45.139
X166.572Y-47.644
X166.572Y-50.184
X170.072Y-44.639
X170.072Y-49.639
X170.688Y-22.733
X173.374Y-44.639
X173.374Y-49.639
X176.874Y-42.594
X176.874Y-45.134
X176.874Y-47.644
X176.874Y-50.184
T4
X85.852Y-24.384
X85.852Y-26.924
X88.392Y-24.384
X88.392Y-26.924
X90.932Y-24.384
X90.932Y-26.924
X93.472Y-24.384
X93.472Y-26.924
X96.012Y-24.384
X96.012Y-26.924
X96.5Y-74.0
X98.552Y-24.384
X98.552Y-26.924
X99.0Y-74.0
X101.092Y-24.384
X101.092Y-26.924
X101.5Y-74.0
X103.632Y-24.384
X103.632Y-26.924
X107.0Y-88.0
X109.5Y-88.0
X112.0Y-88.0
X117.5Y-74.0
X120.0Y-74.0
X120.904Y-24.098
X120.904Y-26.638
X120.904Y-29.178
X120.904Y-31.718
X120.904Y-34.258
X120.904Y-36.798
X120.904Y-39.338
X120.904Y-41.878
X120.904Y-44.418
X120.904Y-46.958
X120.904Y-49.498
X120.904Y-52.038
X120.904Y-54.578
X120.904Y-57.118
X122.5Y-74.0
X123.444Y-57.118
X125.984Y-57.118
X127.249Y-29.21
X127.249Y-31.75
X127.249Y-34.29
X127.249Y-36.83
X127.249Y-39.37
X127.249Y-41.91
X128.0Y-88.0
X128.524Y-57.118
X129.789Y-29.21
X129.789Y-31.75
X129.789Y-34.29
X129.789Y-36.83
X129.789Y-39.37
X129.789Y-41.91
X130.5Y-88.0
X131.064Y-57.118
X133.0Y-88.0
X133.604Y-57.118
X136.144Y-24.098
X136.144Y-26.638
X136.144Y-29.178
X136.144Y-31.718
X136.144Y-34.258
X136.144Y-36.798
X136.144Y-39.338
X136.144Y-41.878
X136.144Y-44.418
X136.144Y-46.958
X136.144Y-49.498
X136.144Y-52.038
X136.144Y-54.578
X136.144Y-57.118
X138.5Y-74.0
X141.0Y-74.0
X143.5Y-74.0
X147.574Y-22.598
X149.0Y-88.0
X150.114Y-22.598
X151.5Y-88.0
X152.654Y-22.598
X154.0Y-88.0
X155.194Y-22.598
X159.5Y-74.0
X162.0Y-74.0
X164.5Y-74.0
X169.204Y-25.389
X169.204Y-39.889
X170.0Y-88.0
X171.704Y-39.889
X172.5Y-88.0
X174.204Y-25.389
X174.204Y-39.889
X175.0Y-88.0
T5
X83.0Y-91.0
X83.0Y-97.5
X83.0Y-111.0
X83.0Y-117.5
X87.5Y-91.0
X87.5Y-97.5
X87.5Y-111.0
X87.5Y-117.5
X94.234Y-32.512
X96.75Y-111.25
X96.75Y-117.75
X99.06Y-36.068
X101.25Y-111.25
X101.25Y-117.75
X101.6Y-36.068
X104.394Y-32.512
X107.25Y-111.25
X107.25Y-117.75
X111.75Y-111.25
X111.75Y-117.75
X117.75Y-111.25
X117.75Y-117.75
X122.25Y-111.25
X122.25Y-117.75
X128.25Y-111.25
X128.25Y-117.75
X132.75Y-111.25
X132.75Y-117.75
X138.75Y-111.25
X138.75Y-117.75
X143.25Y-111.25
X143.25Y-117.75
X149.25Y-111.25
X149.25Y-117.75
X153.75Y-111.25
X153.75Y-117.75
X159.75Y-111.25
X159.75Y-117.75
X164.25Y-111.25
X164.25Y-117.75
X170.25Y-111.25
X170.25Y-117.75
X174.75Y-111.25
X174.75Y-117.75
T4
X81.81Y-36.564G85X81.81Y-35.064
G05
X81.81Y-47.564G85X81.81Y-46.064
G05
X81.81Y-58.564G85X81.81Y-57.064
G05
X81.81Y-69.564G85X81.81Y-68.064
G05
X86.81Y-36.564G85X86.81Y-35.064
G05
X86.81Y-47.564G85X86.81Y-46.064
G05
X86.81Y-58.564G85X86.81Y-57.064
G05
X86.81Y-69.564G85X86.81Y-68.064
G05
X91.01Y-36.564G85X91.01Y-35.064
G05
X91.01Y-47.564G85X91.01Y-46.064
G05
X91.01Y-58.564G85X91.01Y-57.064
G05
X91.01Y-69.564G85X91.01Y-68.064
G05
M30
