%TF.GenerationSoftware,KiCad,Pcbnew,8.0.0*%
%TF.CreationDate,2024-04-14T22:24:59-07:00*%
%TF.ProjectId,seq1,73657131-2e6b-4696-9361-645f70636258,rev?*%
%TF.SameCoordinates,Original*%
%TF.FileFunction,Copper,L1,Top*%
%TF.FilePolarity,Positive*%
%FSLAX46Y46*%
G04 Gerber Fmt 4.6, Leading zero omitted, Abs format (unit mm)*
G04 Created by KiCad (PCBNEW 8.0.0) date 2024-04-14 22:24:59*
%MOMM*%
%LPD*%
G01*
G04 APERTURE LIST*
G04 Aperture macros list*
%AMRoundRect*
0 Rectangle with rounded corners*
0 $1 Rounding radius*
0 $2 $3 $4 $5 $6 $7 $8 $9 X,Y pos of 4 corners*
0 Add a 4 corners polygon primitive as box body*
4,1,4,$2,$3,$4,$5,$6,$7,$8,$9,$2,$3,0*
0 Add four circle primitives for the rounded corners*
1,1,$1+$1,$2,$3*
1,1,$1+$1,$4,$5*
1,1,$1+$1,$6,$7*
1,1,$1+$1,$8,$9*
0 Add four rect primitives between the rounded corners*
20,1,$1+$1,$2,$3,$4,$5,0*
20,1,$1+$1,$4,$5,$6,$7,0*
20,1,$1+$1,$6,$7,$8,$9,0*
20,1,$1+$1,$8,$9,$2,$3,0*%
G04 Aperture macros list end*
%TA.AperFunction,ComponentPad*%
%ADD10O,1.600000X1.600000*%
%TD*%
%TA.AperFunction,ComponentPad*%
%ADD11R,1.600000X1.600000*%
%TD*%
%TA.AperFunction,ComponentPad*%
%ADD12C,1.600000*%
%TD*%
%TA.AperFunction,WasherPad*%
%ADD13C,4.000000*%
%TD*%
%TA.AperFunction,ComponentPad*%
%ADD14C,1.800000*%
%TD*%
%TA.AperFunction,ComponentPad*%
%ADD15R,2.200000X2.200000*%
%TD*%
%TA.AperFunction,ComponentPad*%
%ADD16O,2.200000X2.200000*%
%TD*%
%TA.AperFunction,SMDPad,CuDef*%
%ADD17RoundRect,0.375000X-0.625000X-0.375000X0.625000X-0.375000X0.625000X0.375000X-0.625000X0.375000X0*%
%TD*%
%TA.AperFunction,SMDPad,CuDef*%
%ADD18RoundRect,0.500000X-0.500000X-1.400000X0.500000X-1.400000X0.500000X1.400000X-0.500000X1.400000X0*%
%TD*%
%TA.AperFunction,ComponentPad*%
%ADD19O,1.700000X1.700000*%
%TD*%
%TA.AperFunction,ComponentPad*%
%ADD20R,1.700000X1.700000*%
%TD*%
%TA.AperFunction,ComponentPad*%
%ADD21O,2.000000X3.500000*%
%TD*%
%TA.AperFunction,ComponentPad*%
%ADD22C,1.440000*%
%TD*%
%TA.AperFunction,ComponentPad*%
%ADD23R,1.500000X1.050000*%
%TD*%
%TA.AperFunction,ComponentPad*%
%ADD24O,1.500000X1.050000*%
%TD*%
%TA.AperFunction,ComponentPad*%
%ADD25C,1.700000*%
%TD*%
%TA.AperFunction,ComponentPad*%
%ADD26RoundRect,0.250000X-0.600000X0.600000X-0.600000X-0.600000X0.600000X-0.600000X0.600000X0.600000X0*%
%TD*%
%TA.AperFunction,ComponentPad*%
%ADD27RoundRect,0.250000X0.550000X-0.550000X0.550000X0.550000X-0.550000X0.550000X-0.550000X-0.550000X0*%
%TD*%
%TA.AperFunction,WasherPad*%
%ADD28O,3.000000X4.100000*%
%TD*%
%TA.AperFunction,ComponentPad*%
%ADD29C,2.000000*%
%TD*%
%TA.AperFunction,SMDPad,CuDef*%
%ADD30R,1.500000X0.900000*%
%TD*%
%TA.AperFunction,ViaPad*%
%ADD31C,0.600000*%
%TD*%
%TA.AperFunction,Conductor*%
%ADD32C,1.000000*%
%TD*%
%TA.AperFunction,Conductor*%
%ADD33C,0.254000*%
%TD*%
%TA.AperFunction,Conductor*%
%ADD34C,0.600000*%
%TD*%
G04 APERTURE END LIST*
D10*
%TO.P,U3,16,VCC*%
%TO.N,+3V3*%
X128524000Y-62357000D03*
%TO.P,U3,15,A2*%
%TO.N,Net-(U3-A2)*%
X131064000Y-62357000D03*
%TO.P,U3,14,A1*%
%TO.N,Net-(U3-A1)*%
X133604000Y-62357000D03*
%TO.P,U3,13,A0*%
%TO.N,Net-(U3-A0)*%
X136144000Y-62357000D03*
%TO.P,U3,12,A3*%
%TO.N,Net-(U3-A3)*%
X138684000Y-62357000D03*
%TO.P,U3,11,S0*%
%TO.N,MUX_ADDR0*%
X141224000Y-62357000D03*
%TO.P,U3,10,S1*%
%TO.N,MUX_ADDR1*%
X143764000Y-62357000D03*
%TO.P,U3,9,S2*%
%TO.N,MUX_ADDR2*%
X146304000Y-62357000D03*
%TO.P,U3,8,GND*%
%TO.N,GND*%
X146304000Y-69977000D03*
%TO.P,U3,7,VEE*%
X143764000Y-69977000D03*
%TO.P,U3,6,~{E}*%
X141224000Y-69977000D03*
%TO.P,U3,5,A5*%
%TO.N,Net-(U3-A5)*%
X138684000Y-69977000D03*
%TO.P,U3,4,A7*%
%TO.N,Net-(U3-A7)*%
X136144000Y-69977000D03*
%TO.P,U3,3,A*%
%TO.N,POT_MUX*%
X133604000Y-69977000D03*
%TO.P,U3,2,A6*%
%TO.N,Net-(U3-A6)*%
X131064000Y-69977000D03*
D11*
%TO.P,U3,1,A4*%
%TO.N,Net-(U3-A4)*%
X128524000Y-69977000D03*
%TD*%
D12*
%TO.P,R20,1*%
%TO.N,+3V3*%
X144780000Y-57277000D03*
D10*
%TO.P,R20,2*%
%TO.N,Net-(U1-D27{slash}SCL{slash}PA23)*%
X144780000Y-47117000D03*
%TD*%
D12*
%TO.P,R19,1*%
%TO.N,+3V3*%
X147955000Y-57277000D03*
D10*
%TO.P,R19,2*%
%TO.N,Net-(U1-D26{slash}SDA{slash}PA22)*%
X147955000Y-47117000D03*
%TD*%
D13*
%TO.P,RV5,*%
%TO.N,*%
X145400000Y-81000000D03*
X136600000Y-81000000D03*
D14*
%TO.P,RV5,1,1*%
%TO.N,+3V3*%
X138500000Y-74000000D03*
%TO.P,RV5,2,2*%
%TO.N,Net-(U3-A2)*%
X141000000Y-74000000D03*
%TO.P,RV5,3,3*%
%TO.N,GND*%
X143500000Y-74000000D03*
%TD*%
D13*
%TO.P,RV8,*%
%TO.N,*%
X176900000Y-95000000D03*
X168100000Y-95000000D03*
D14*
%TO.P,RV8,1,1*%
%TO.N,+3V3*%
X170000000Y-88000000D03*
%TO.P,RV8,2,2*%
%TO.N,Net-(U3-A0)*%
X172500000Y-88000000D03*
%TO.P,RV8,3,3*%
%TO.N,GND*%
X175000000Y-88000000D03*
%TD*%
D11*
%TO.P,U2,1,A4*%
%TO.N,Net-(U2-A4)*%
X162550000Y-66558000D03*
D10*
%TO.P,U2,2,A6*%
%TO.N,Net-(U2-A6)*%
X162550000Y-64018000D03*
%TO.P,U2,3,A*%
%TO.N,SW_MUX*%
X162550000Y-61478000D03*
%TO.P,U2,4,A7*%
%TO.N,Net-(U2-A7)*%
X162550000Y-58938000D03*
%TO.P,U2,5,A5*%
%TO.N,Net-(U2-A5)*%
X162550000Y-56398000D03*
%TO.P,U2,6,~{E}*%
%TO.N,GND*%
X162550000Y-53858000D03*
%TO.P,U2,7,VEE*%
X162550000Y-51318000D03*
%TO.P,U2,8,GND*%
X162550000Y-48778000D03*
%TO.P,U2,9,S2*%
%TO.N,MUX_ADDR2*%
X154930000Y-48778000D03*
%TO.P,U2,10,S1*%
%TO.N,MUX_ADDR1*%
X154930000Y-51318000D03*
%TO.P,U2,11,S0*%
%TO.N,MUX_ADDR0*%
X154930000Y-53858000D03*
%TO.P,U2,12,A3*%
%TO.N,Net-(U2-A3)*%
X154930000Y-56398000D03*
%TO.P,U2,13,A0*%
%TO.N,Net-(U2-A0)*%
X154930000Y-58938000D03*
%TO.P,U2,14,A1*%
%TO.N,Net-(U2-A1)*%
X154930000Y-61478000D03*
%TO.P,U2,15,A2*%
%TO.N,Net-(U2-A2)*%
X154930000Y-64018000D03*
%TO.P,U2,16,VCC*%
%TO.N,+3V3*%
X154930000Y-66558000D03*
%TD*%
D12*
%TO.P,R17,1*%
%TO.N,Net-(Q1-B)*%
X97057000Y-70866000D03*
D10*
%TO.P,R17,2*%
%TO.N,Net-(J5-PadT)*%
X94517000Y-70866000D03*
%TD*%
D15*
%TO.P,D10,1,K*%
%TO.N,+12V*%
X104394000Y-32512000D03*
D16*
%TO.P,D10,2,A*%
%TO.N,Net-(D10-A)*%
X94234000Y-32512000D03*
%TD*%
D12*
%TO.P,R8,1*%
%TO.N,Net-(R11-Pad1)*%
X94996000Y-65283000D03*
D10*
%TO.P,R8,2*%
%TO.N,SYNC_OUT_O*%
X94996000Y-62743000D03*
%TD*%
D12*
%TO.P,R5,1*%
%TO.N,Net-(R5-Pad1)*%
X106934000Y-41627000D03*
D10*
%TO.P,R5,2*%
%TO.N,CV_O*%
X96774000Y-41627000D03*
%TD*%
D17*
%TO.P,U7,1,GND*%
%TO.N,GND*%
X110896000Y-24362000D03*
%TO.P,U7,2,VO*%
%TO.N,+3V3_A*%
X110896000Y-26662000D03*
D18*
X117196000Y-26662000D03*
D17*
%TO.P,U7,3,VI*%
%TO.N,+12V*%
X110896000Y-28962000D03*
%TD*%
D15*
%TO.P,D9,1,K*%
%TO.N,Net-(D9-K)*%
X101600000Y-36068000D03*
D16*
%TO.P,D9,2,A*%
%TO.N,-12V*%
X99060000Y-36068000D03*
%TD*%
D12*
%TO.P,C17,1*%
%TO.N,+3V3*%
X165688000Y-22733000D03*
%TO.P,C17,2*%
%TO.N,GND*%
X170688000Y-22733000D03*
%TD*%
%TO.P,C16,2*%
%TO.N,GND*%
X116586000Y-34814888D03*
D11*
%TO.P,C16,1*%
%TO.N,+3V3_A*%
X116586000Y-32314888D03*
%TD*%
D19*
%TO.P,J6,12,Pin_12*%
%TO.N,/mcu/D3_A9*%
X129789000Y-41910000D03*
%TO.P,J6,11,Pin_11*%
%TO.N,/mcu/D17_A3*%
X127249000Y-41910000D03*
%TO.P,J6,10,Pin_10*%
%TO.N,/mcu/D4_A8*%
X129789000Y-39370000D03*
%TO.P,J6,9,Pin_9*%
%TO.N,/mcu/D16_A2*%
X127249000Y-39370000D03*
%TO.P,J6,8,Pin_8*%
%TO.N,/mcu/D13*%
X129789000Y-36830000D03*
%TO.P,J6,7,Pin_7*%
%TO.N,/mcu/D15_A1*%
X127249000Y-36830000D03*
%TO.P,J6,6,Pin_6*%
%TO.N,GND*%
X129789000Y-34290000D03*
%TO.P,J6,5,Pin_5*%
%TO.N,+5V*%
X127249000Y-34290000D03*
%TO.P,J6,4,Pin_4*%
%TO.N,/mcu/MCU_RST*%
X129789000Y-31750000D03*
%TO.P,J6,3,Pin_3*%
%TO.N,+3V3_A*%
X127249000Y-31750000D03*
%TO.P,J6,2,Pin_2*%
%TO.N,+3V3*%
X129789000Y-29210000D03*
D20*
%TO.P,J6,1,Pin_1*%
X127249000Y-29210000D03*
%TD*%
D21*
%TO.P,J4,S*%
%TO.N,GND*%
X81810000Y-57814000D03*
%TO.P,J4,T*%
%TO.N,SYNC_OUT_O*%
X86810000Y-57814000D03*
%TO.P,J4,TN*%
%TO.N,unconnected-(J4-PadTN)*%
X91010000Y-57814000D03*
%TD*%
%TO.P,J2,TN*%
%TO.N,unconnected-(J2-PadTN)*%
X91010000Y-46814000D03*
%TO.P,J2,T*%
%TO.N,GATE_O*%
X86810000Y-46814000D03*
%TO.P,J2,S*%
%TO.N,GND*%
X81810000Y-46814000D03*
%TD*%
%TO.P,J1,S*%
%TO.N,GND*%
X81810000Y-35814000D03*
%TO.P,J1,T*%
%TO.N,CV_O*%
X86810000Y-35814000D03*
%TO.P,J1,TN*%
%TO.N,unconnected-(J1-PadTN)*%
X91010000Y-35814000D03*
%TD*%
%TO.P,J5,TN*%
%TO.N,GND*%
X91010000Y-68814000D03*
%TO.P,J5,T*%
%TO.N,Net-(J5-PadT)*%
X86810000Y-68814000D03*
%TO.P,J5,S*%
%TO.N,GND*%
X81810000Y-68814000D03*
%TD*%
D10*
%TO.P,R16,2*%
%TO.N,GATE_O*%
X106680000Y-66241000D03*
D12*
%TO.P,R16,1*%
%TO.N,Net-(R15-Pad1)*%
X106680000Y-63701000D03*
%TD*%
D22*
%TO.P,RV11,3,3*%
%TO.N,GND*%
X110754000Y-64746000D03*
%TO.P,RV11,2,2*%
X113294000Y-64746000D03*
%TO.P,RV11,1,1*%
%TO.N,Net-(U6C--)*%
X115834000Y-64746000D03*
%TD*%
D12*
%TO.P,R18,1*%
%TO.N,+3V3*%
X112014000Y-72411000D03*
D10*
%TO.P,R18,2*%
%TO.N,SYNC_IN*%
X112014000Y-69871000D03*
%TD*%
D12*
%TO.P,R15,1*%
%TO.N,Net-(R15-Pad1)*%
X112522000Y-60174000D03*
D10*
%TO.P,R15,2*%
%TO.N,Net-(U6C--)*%
X115062000Y-60174000D03*
%TD*%
%TO.P,R14,2*%
%TO.N,GATE*%
X115062000Y-57634000D03*
D12*
%TO.P,R14,1*%
%TO.N,Net-(U6C-+)*%
X112522000Y-57634000D03*
%TD*%
D23*
%TO.P,Q1,1,E*%
%TO.N,GND*%
X107590000Y-70096000D03*
D24*
%TO.P,Q1,2,B*%
%TO.N,Net-(Q1-B)*%
X107590000Y-71366000D03*
%TO.P,Q1,3,C*%
%TO.N,SYNC_IN*%
X107590000Y-72636000D03*
%TD*%
D12*
%TO.P,C5,1*%
%TO.N,GND*%
X117522000Y-55089000D03*
%TO.P,C5,2*%
%TO.N,Net-(U6C-+)*%
X112522000Y-55089000D03*
%TD*%
D25*
%TO.P,U1,33,VBAT*%
%TO.N,+5V_IN*%
X136144000Y-24098000D03*
%TO.P,U1,32,GND*%
%TO.N,GND*%
X136144000Y-26638000D03*
%TO.P,U1,31,VBUS*%
%TO.N,unconnected-(U1-VBUS-Pad31)*%
X136144000Y-29178000D03*
%TO.P,U1,30,D13/PA17*%
%TO.N,/mcu/D13*%
X136144000Y-31718000D03*
%TO.P,U1,29,D12/PA19*%
%TO.N,/mcu/ROT_SW*%
X136144000Y-34258000D03*
%TO.P,U1,28,D11/PA16*%
%TO.N,/mcu/RSWA*%
X136144000Y-36798000D03*
%TO.P,U1,27,D10/PA18*%
%TO.N,/mcu/RSWB*%
X136144000Y-39338000D03*
%TO.P,U1,26,D9/A11/PA07*%
%TO.N,SW_MUX*%
X136144000Y-41878000D03*
%TO.P,U1,25,D7/PA21*%
%TO.N,MUX_ADDR2*%
X136144000Y-44418000D03*
%TO.P,U1,24,D5(5V)/PA15*%
%TO.N,NPXL_D5V*%
X136144000Y-46958000D03*
%TO.P,U1,23,D27/SCL/PA23*%
%TO.N,Net-(U1-D27{slash}SCL{slash}PA23)*%
X136144000Y-49498000D03*
%TO.P,U1,22,D26/SDA/PA22*%
%TO.N,Net-(U1-D26{slash}SDA{slash}PA22)*%
X136144000Y-52038000D03*
%TO.P,U1,21,D1/A7/PA10*%
%TO.N,MUX_ADDR1*%
X136144000Y-54578000D03*
%TO.P,U1,20,D0/A6/PA11*%
%TO.N,MUX_ADDR0*%
X136144000Y-57118000D03*
%TO.P,U1,19,D4/A8/PA08*%
%TO.N,/mcu/D4_A8*%
X133604000Y-57118000D03*
%TO.P,U1,18,D3/A9/PA09*%
%TO.N,/mcu/D3_A9*%
X131064000Y-57118000D03*
%TO.P,U1,17,SWCLK*%
%TO.N,unconnected-(U1-SWCLK-Pad17)*%
X128524000Y-57118000D03*
%TO.P,U1,16,SWDIO*%
%TO.N,unconnected-(U1-SWDIO-Pad16)*%
X125984000Y-57118000D03*
%TO.P,U1,15,EN*%
%TO.N,unconnected-(U1-EN-Pad15)*%
X123444000Y-57118000D03*
%TO.P,U1,14,D2/PA14*%
%TO.N,GATE*%
X120904000Y-57118000D03*
%TO.P,U1,13,D28/MISO/PA12*%
%TO.N,/mcu/N_RUN*%
X120904000Y-54578000D03*
%TO.P,U1,12,D29/MOSI/PB10*%
%TO.N,/mcu/N_MODE*%
X120904000Y-52038000D03*
%TO.P,U1,11,D30/SCK/PB11*%
%TO.N,SYNC_OUT*%
X120904000Y-49498000D03*
%TO.P,U1,10,D19/A5/PB02*%
%TO.N,SYNC_IN*%
X120904000Y-46958000D03*
%TO.P,U1,9,D18/A4/PA05*%
%TO.N,POT_MUX*%
X120904000Y-44418000D03*
%TO.P,U1,8,D17/A3/PA04*%
%TO.N,/mcu/D17_A3*%
X120904000Y-41878000D03*
%TO.P,U1,7,D16/A2/PB09*%
%TO.N,/mcu/D16_A2*%
X120904000Y-39338000D03*
%TO.P,U1,6,D15/A1/PB08*%
%TO.N,/mcu/D15_A1*%
X120904000Y-36798000D03*
%TO.P,U1,5,D14/(A0)/PA02*%
%TO.N,CV*%
X120904000Y-34258000D03*
%TO.P,U1,4,VHI*%
%TO.N,+5V*%
X120904000Y-31718000D03*
%TO.P,U1,3,D42/A12/PA03*%
%TO.N,+3V3_A*%
X120904000Y-29178000D03*
%TO.P,U1,2,3V3*%
%TO.N,+3V3*%
X120904000Y-26638000D03*
%TO.P,U1,1,RST*%
%TO.N,/mcu/MCU_RST*%
X120904000Y-24098000D03*
%TD*%
D10*
%TO.P,R6,2*%
%TO.N,Net-(U6D--)*%
X115062000Y-44929000D03*
D12*
%TO.P,R6,1*%
%TO.N,Net-(R5-Pad1)*%
X112522000Y-44929000D03*
%TD*%
D26*
%TO.P,J3,1,Pin_1*%
%TO.N,Net-(D9-K)*%
X103632000Y-24384000D03*
D25*
%TO.P,J3,2,Pin_2*%
X103632000Y-26924000D03*
%TO.P,J3,3,Pin_3*%
%TO.N,GND*%
X101092000Y-24384000D03*
%TO.P,J3,4,Pin_4*%
X101092000Y-26924000D03*
%TO.P,J3,5,Pin_5*%
X98552000Y-24384000D03*
%TO.P,J3,6,Pin_6*%
X98552000Y-26924000D03*
%TO.P,J3,7,Pin_7*%
X96012000Y-24384000D03*
%TO.P,J3,8,Pin_8*%
X96012000Y-26924000D03*
%TO.P,J3,9,Pin_9*%
%TO.N,Net-(D10-A)*%
X93472000Y-24384000D03*
%TO.P,J3,10,Pin_10*%
X93472000Y-26924000D03*
%TO.P,J3,11,Pin_11*%
%TO.N,+5V_IN*%
X90932000Y-24384000D03*
%TO.P,J3,12,Pin_12*%
X90932000Y-26924000D03*
%TO.P,J3,13,Pin_13*%
%TO.N,CV_O*%
X88392000Y-24384000D03*
%TO.P,J3,14,Pin_14*%
X88392000Y-26924000D03*
%TO.P,J3,15,Pin_15*%
%TO.N,GATE_O*%
X85852000Y-24384000D03*
%TO.P,J3,16,Pin_16*%
X85852000Y-26924000D03*
%TD*%
D12*
%TO.P,C15,2*%
%TO.N,GND*%
X112014000Y-36528000D03*
%TO.P,C15,1*%
%TO.N,+3V3_A*%
X112014000Y-31528000D03*
%TD*%
%TO.P,C14,1*%
%TO.N,+12V*%
X107442000Y-32044000D03*
%TO.P,C14,2*%
%TO.N,GND*%
X107442000Y-37044000D03*
%TD*%
D27*
%TO.P,SW9,A,A*%
%TO.N,Net-(C1-Pad1)*%
X169204000Y-39889000D03*
D12*
%TO.P,SW9,B,B*%
%TO.N,Net-(C2-Pad1)*%
X174204000Y-39889000D03*
%TO.P,SW9,C,C*%
%TO.N,GND*%
X171704000Y-39889000D03*
%TO.P,SW9,S1,S1*%
%TO.N,/mcu/ROT_SW*%
X169204000Y-25389000D03*
%TO.P,SW9,S2,S2*%
%TO.N,GND*%
X174204000Y-25389000D03*
D28*
%TO.P,SW9,*%
%TO.N,*%
X166104000Y-32389000D03*
X177304000Y-32389000D03*
%TD*%
D29*
%TO.P,SW11,2,2*%
%TO.N,/mcu/N_RUN*%
X87500000Y-91000000D03*
X87500000Y-97500000D03*
%TO.P,SW11,1,1*%
%TO.N,GND*%
X83000000Y-91000000D03*
X83000000Y-97500000D03*
%TD*%
D25*
%TO.P,U5,1,GND*%
%TO.N,GND*%
X147574000Y-22598000D03*
%TO.P,U5,2,VCC*%
%TO.N,+3V3*%
X150114000Y-22598000D03*
%TO.P,U5,3,SCL*%
%TO.N,Net-(U1-D27{slash}SCL{slash}PA23)*%
X152654000Y-22598000D03*
%TO.P,U5,4,SDA*%
%TO.N,Net-(U1-D26{slash}SDA{slash}PA22)*%
X155194000Y-22598000D03*
%TD*%
D22*
%TO.P,RV10,1,1*%
%TO.N,Net-(U6B--)*%
X102362000Y-64238000D03*
%TO.P,RV10,2,2*%
%TO.N,GND*%
X102362000Y-66778000D03*
%TO.P,RV10,3,3*%
X102362000Y-69318000D03*
%TD*%
%TO.P,RV9,3,3*%
%TO.N,GND*%
X111506000Y-40362000D03*
%TO.P,RV9,2,2*%
X114046000Y-40362000D03*
%TO.P,RV9,1,1*%
%TO.N,Net-(U6D--)*%
X116586000Y-40362000D03*
%TD*%
D11*
%TO.P,U6,1*%
%TO.N,Net-(R9-Pad1)*%
X101600000Y-44929000D03*
D10*
%TO.P,U6,2,-*%
%TO.N,Net-(U6A--)*%
X101600000Y-47469000D03*
%TO.P,U6,3,+*%
%TO.N,Net-(U6A-+)*%
X101600000Y-50009000D03*
%TO.P,U6,4,V+*%
%TO.N,+12V*%
X101600000Y-52549000D03*
%TO.P,U6,5,+*%
%TO.N,Net-(U6B-+)*%
X101600000Y-55089000D03*
%TO.P,U6,6,-*%
%TO.N,Net-(U6B--)*%
X101600000Y-57629000D03*
%TO.P,U6,7*%
%TO.N,Net-(R11-Pad1)*%
X101600000Y-60169000D03*
%TO.P,U6,8*%
%TO.N,Net-(R15-Pad1)*%
X109220000Y-60169000D03*
%TO.P,U6,9,-*%
%TO.N,Net-(U6C--)*%
X109220000Y-57629000D03*
%TO.P,U6,10,+*%
%TO.N,Net-(U6C-+)*%
X109220000Y-55089000D03*
%TO.P,U6,11,V-*%
%TO.N,-12V*%
X109220000Y-52549000D03*
%TO.P,U6,12,+*%
%TO.N,Net-(U6D-+)*%
X109220000Y-50009000D03*
%TO.P,U6,13,-*%
%TO.N,Net-(U6D--)*%
X109220000Y-47469000D03*
%TO.P,U6,14*%
%TO.N,Net-(R5-Pad1)*%
X109220000Y-44929000D03*
%TD*%
D12*
%TO.P,R13,1*%
%TO.N,Net-(U6B-+)*%
X94996000Y-52583000D03*
D10*
%TO.P,R13,2*%
%TO.N,SYNC_OUT*%
X94996000Y-50043000D03*
%TD*%
%TO.P,R12,2*%
%TO.N,CV*%
X115062000Y-47469000D03*
D12*
%TO.P,R12,1*%
%TO.N,Net-(U6D-+)*%
X112522000Y-47469000D03*
%TD*%
%TO.P,R11,1*%
%TO.N,Net-(R11-Pad1)*%
X98044000Y-62714000D03*
D10*
%TO.P,R11,2*%
%TO.N,Net-(U6B--)*%
X98044000Y-60174000D03*
%TD*%
D12*
%TO.P,R10,1*%
%TO.N,Net-(U6A-+)*%
X94996000Y-47474000D03*
D10*
%TO.P,R10,2*%
%TO.N,GND*%
X94996000Y-44934000D03*
%TD*%
D12*
%TO.P,R9,1*%
%TO.N,Net-(R9-Pad1)*%
X98044000Y-44929000D03*
D10*
%TO.P,R9,2*%
%TO.N,Net-(U6A--)*%
X98044000Y-47469000D03*
%TD*%
D12*
%TO.P,C13,2*%
%TO.N,Net-(U6B-+)*%
X94996000Y-55094000D03*
%TO.P,C13,1*%
%TO.N,GND*%
X94996000Y-60094000D03*
%TD*%
%TO.P,C12,1*%
%TO.N,GND*%
X117522000Y-50009000D03*
%TO.P,C12,2*%
%TO.N,Net-(U6D-+)*%
X112522000Y-50009000D03*
%TD*%
%TO.P,C11,1*%
%TO.N,GND*%
X117492000Y-52544000D03*
%TO.P,C11,2*%
%TO.N,-12V*%
X112492000Y-52544000D03*
%TD*%
%TO.P,C10,1*%
%TO.N,+12V*%
X98044000Y-52554000D03*
%TO.P,C10,2*%
%TO.N,GND*%
X98044000Y-57554000D03*
%TD*%
D10*
%TO.P,R7,2*%
%TO.N,Net-(D1-DIN)*%
X100838000Y-100047000D03*
D12*
%TO.P,R7,1*%
%TO.N,NPXL_D5V*%
X100838000Y-97507000D03*
%TD*%
%TO.P,C9,2*%
%TO.N,GND*%
X162000000Y-95000000D03*
%TO.P,C9,1*%
%TO.N,+5V*%
X162000000Y-100000000D03*
%TD*%
%TO.P,C8,2*%
%TO.N,GND*%
X141000000Y-95000000D03*
%TO.P,C8,1*%
%TO.N,+5V*%
X141000000Y-100000000D03*
%TD*%
%TO.P,C7,2*%
%TO.N,GND*%
X120000000Y-95000000D03*
%TO.P,C7,1*%
%TO.N,+5V*%
X120000000Y-100000000D03*
%TD*%
%TO.P,C6,2*%
%TO.N,GND*%
X97536000Y-95036000D03*
%TO.P,C6,1*%
%TO.N,+5V*%
X97536000Y-100036000D03*
%TD*%
D10*
%TO.P,R4,2*%
%TO.N,Net-(C1-Pad1)*%
X166572000Y-45139000D03*
D12*
%TO.P,R4,1*%
%TO.N,/mcu/RSWB*%
X166572000Y-42599000D03*
%TD*%
%TO.P,R3,1*%
%TO.N,/mcu/RSWA*%
X176874000Y-42594000D03*
D10*
%TO.P,R3,2*%
%TO.N,Net-(C2-Pad1)*%
X176874000Y-45134000D03*
%TD*%
%TO.P,R2,2*%
%TO.N,Net-(C1-Pad1)*%
X166572000Y-47644000D03*
D12*
%TO.P,R2,1*%
%TO.N,+3V3*%
X166572000Y-50184000D03*
%TD*%
D10*
%TO.P,R1,2*%
%TO.N,Net-(C2-Pad1)*%
X176874000Y-47644000D03*
D12*
%TO.P,R1,1*%
%TO.N,+3V3*%
X176874000Y-50184000D03*
%TD*%
D30*
%TO.P,D8,1,VDD*%
%TO.N,+5V*%
X174950000Y-107650000D03*
%TO.P,D8,2,DOUT*%
%TO.N,unconnected-(D8-DOUT-Pad2)*%
X174950000Y-104350000D03*
%TO.P,D8,3,VSS*%
%TO.N,GND*%
X170050000Y-104350000D03*
%TO.P,D8,4,DIN*%
%TO.N,Net-(D7-DOUT)*%
X170050000Y-107650000D03*
%TD*%
%TO.P,D7,1,VDD*%
%TO.N,+5V*%
X164450000Y-107650000D03*
%TO.P,D7,2,DOUT*%
%TO.N,Net-(D7-DOUT)*%
X164450000Y-104350000D03*
%TO.P,D7,3,VSS*%
%TO.N,GND*%
X159550000Y-104350000D03*
%TO.P,D7,4,DIN*%
%TO.N,Net-(D6-DOUT)*%
X159550000Y-107650000D03*
%TD*%
%TO.P,D6,1,VDD*%
%TO.N,+5V*%
X153950000Y-107650000D03*
%TO.P,D6,2,DOUT*%
%TO.N,Net-(D6-DOUT)*%
X153950000Y-104350000D03*
%TO.P,D6,3,VSS*%
%TO.N,GND*%
X149050000Y-104350000D03*
%TO.P,D6,4,DIN*%
%TO.N,Net-(D5-DOUT)*%
X149050000Y-107650000D03*
%TD*%
%TO.P,D5,1,VDD*%
%TO.N,+5V*%
X143450000Y-107650000D03*
%TO.P,D5,2,DOUT*%
%TO.N,Net-(D5-DOUT)*%
X143450000Y-104350000D03*
%TO.P,D5,3,VSS*%
%TO.N,GND*%
X138550000Y-104350000D03*
%TO.P,D5,4,DIN*%
%TO.N,Net-(D4-DOUT)*%
X138550000Y-107650000D03*
%TD*%
%TO.P,D4,1,VDD*%
%TO.N,+5V*%
X132950000Y-107650000D03*
%TO.P,D4,2,DOUT*%
%TO.N,Net-(D4-DOUT)*%
X132950000Y-104350000D03*
%TO.P,D4,3,VSS*%
%TO.N,GND*%
X128050000Y-104350000D03*
%TO.P,D4,4,DIN*%
%TO.N,Net-(D3-DOUT)*%
X128050000Y-107650000D03*
%TD*%
%TO.P,D3,1,VDD*%
%TO.N,+5V*%
X122450000Y-107650000D03*
%TO.P,D3,2,DOUT*%
%TO.N,Net-(D3-DOUT)*%
X122450000Y-104350000D03*
%TO.P,D3,3,VSS*%
%TO.N,GND*%
X117550000Y-104350000D03*
%TO.P,D3,4,DIN*%
%TO.N,Net-(D2-DOUT)*%
X117550000Y-107650000D03*
%TD*%
%TO.P,D2,4,DIN*%
%TO.N,Net-(D1-DOUT)*%
X107050000Y-107650000D03*
%TO.P,D2,3,VSS*%
%TO.N,GND*%
X107050000Y-104350000D03*
%TO.P,D2,2,DOUT*%
%TO.N,Net-(D2-DOUT)*%
X111950000Y-104350000D03*
%TO.P,D2,1,VDD*%
%TO.N,+5V*%
X111950000Y-107650000D03*
%TD*%
%TO.P,D1,1,VDD*%
%TO.N,+5V*%
X101450000Y-107650000D03*
%TO.P,D1,2,DOUT*%
%TO.N,Net-(D1-DOUT)*%
X101450000Y-104350000D03*
%TO.P,D1,3,VSS*%
%TO.N,GND*%
X96550000Y-104350000D03*
%TO.P,D1,4,DIN*%
%TO.N,Net-(D1-DIN)*%
X96550000Y-107650000D03*
%TD*%
D12*
%TO.P,C4,2*%
%TO.N,GND*%
X159940000Y-69850000D03*
%TO.P,C4,1*%
%TO.N,+3V3*%
X154940000Y-69850000D03*
%TD*%
%TO.P,C3,2*%
%TO.N,GND*%
X125222000Y-67357000D03*
%TO.P,C3,1*%
%TO.N,+3V3*%
X125222000Y-62357000D03*
%TD*%
%TO.P,C2,2*%
%TO.N,GND*%
X173374000Y-49639000D03*
%TO.P,C2,1*%
%TO.N,Net-(C2-Pad1)*%
X173374000Y-44639000D03*
%TD*%
%TO.P,C1,2*%
%TO.N,GND*%
X170072000Y-49639000D03*
%TO.P,C1,1*%
%TO.N,Net-(C1-Pad1)*%
X170072000Y-44639000D03*
%TD*%
D29*
%TO.P,SW10,2,2*%
%TO.N,/mcu/N_MODE*%
X87500000Y-111000000D03*
X87500000Y-117500000D03*
%TO.P,SW10,1,1*%
%TO.N,GND*%
X83000000Y-111000000D03*
X83000000Y-117500000D03*
%TD*%
%TO.P,SW8,1,1*%
%TO.N,Net-(U2-A4)*%
X170250000Y-117750000D03*
X170250000Y-111250000D03*
%TO.P,SW8,2,2*%
%TO.N,GND*%
X174750000Y-117750000D03*
X174750000Y-111250000D03*
%TD*%
%TO.P,SW7,1,1*%
%TO.N,Net-(U2-A5)*%
X159750000Y-117750000D03*
X159750000Y-111250000D03*
%TO.P,SW7,2,2*%
%TO.N,GND*%
X164250000Y-117750000D03*
X164250000Y-111250000D03*
%TD*%
%TO.P,SW6,1,1*%
%TO.N,Net-(U2-A7)*%
X149250000Y-117750000D03*
X149250000Y-111250000D03*
%TO.P,SW6,2,2*%
%TO.N,GND*%
X153750000Y-117750000D03*
X153750000Y-111250000D03*
%TD*%
%TO.P,SW5,1,1*%
%TO.N,Net-(U2-A6)*%
X138750000Y-117750000D03*
X138750000Y-111250000D03*
%TO.P,SW5,2,2*%
%TO.N,GND*%
X143250000Y-117750000D03*
X143250000Y-111250000D03*
%TD*%
%TO.P,SW4,1,1*%
%TO.N,Net-(U2-A2)*%
X128250000Y-117750000D03*
X128250000Y-111250000D03*
%TO.P,SW4,2,2*%
%TO.N,GND*%
X132750000Y-117750000D03*
X132750000Y-111250000D03*
%TD*%
%TO.P,SW3,1,1*%
%TO.N,Net-(U2-A3)*%
X117750000Y-117750000D03*
X117750000Y-111250000D03*
%TO.P,SW3,2,2*%
%TO.N,GND*%
X122250000Y-117750000D03*
X122250000Y-111250000D03*
%TD*%
%TO.P,SW2,1,1*%
%TO.N,Net-(U2-A1)*%
X107250000Y-117750000D03*
X107250000Y-111250000D03*
%TO.P,SW2,2,2*%
%TO.N,GND*%
X111750000Y-117750000D03*
X111750000Y-111250000D03*
%TD*%
%TO.P,SW1,2,2*%
%TO.N,GND*%
X101250000Y-111250000D03*
X101250000Y-117750000D03*
%TO.P,SW1,1,1*%
%TO.N,Net-(U2-A0)*%
X96750000Y-111250000D03*
X96750000Y-117750000D03*
%TD*%
D14*
%TO.P,RV7,3,3*%
%TO.N,GND*%
X164500000Y-74000000D03*
%TO.P,RV7,2,2*%
%TO.N,Net-(U3-A1)*%
X162000000Y-74000000D03*
%TO.P,RV7,1,1*%
%TO.N,+3V3*%
X159500000Y-74000000D03*
D13*
%TO.P,RV7,*%
%TO.N,*%
X157600000Y-81000000D03*
X166400000Y-81000000D03*
%TD*%
%TO.P,RV6,*%
%TO.N,*%
X155900000Y-95000000D03*
X147100000Y-95000000D03*
D14*
%TO.P,RV6,1,1*%
%TO.N,+3V3*%
X149000000Y-88000000D03*
%TO.P,RV6,2,2*%
%TO.N,Net-(U3-A3)*%
X151500000Y-88000000D03*
%TO.P,RV6,3,3*%
%TO.N,GND*%
X154000000Y-88000000D03*
%TD*%
D13*
%TO.P,RV4,*%
%TO.N,*%
X134900000Y-95000000D03*
X126100000Y-95000000D03*
D14*
%TO.P,RV4,1,1*%
%TO.N,+3V3*%
X128000000Y-88000000D03*
%TO.P,RV4,2,2*%
%TO.N,Net-(U3-A6)*%
X130500000Y-88000000D03*
%TO.P,RV4,3,3*%
%TO.N,GND*%
X133000000Y-88000000D03*
%TD*%
%TO.P,RV3,3,3*%
%TO.N,GND*%
X122500000Y-74000000D03*
%TO.P,RV3,2,2*%
%TO.N,Net-(U3-A7)*%
X120000000Y-74000000D03*
%TO.P,RV3,1,1*%
%TO.N,+3V3*%
X117500000Y-74000000D03*
D13*
%TO.P,RV3,*%
%TO.N,*%
X115600000Y-81000000D03*
X124400000Y-81000000D03*
%TD*%
%TO.P,RV2,*%
%TO.N,*%
X113900000Y-95000000D03*
X105100000Y-95000000D03*
D14*
%TO.P,RV2,1,1*%
%TO.N,+3V3*%
X107000000Y-88000000D03*
%TO.P,RV2,2,2*%
%TO.N,Net-(U3-A5)*%
X109500000Y-88000000D03*
%TO.P,RV2,3,3*%
%TO.N,GND*%
X112000000Y-88000000D03*
%TD*%
%TO.P,RV1,3,3*%
%TO.N,GND*%
X101500000Y-74000000D03*
%TO.P,RV1,2,2*%
%TO.N,Net-(U3-A4)*%
X99000000Y-74000000D03*
%TO.P,RV1,1,1*%
%TO.N,+3V3*%
X96500000Y-74000000D03*
D13*
%TO.P,RV1,*%
%TO.N,*%
X94600000Y-81000000D03*
X103400000Y-81000000D03*
%TD*%
D31*
%TO.N,MUX_ADDR0*%
X144780000Y-53848000D03*
%TO.N,Net-(U1-D27{slash}SCL{slash}PA23)*%
X144780000Y-32766000D03*
%TO.N,Net-(U1-D26{slash}SDA{slash}PA22)*%
X147955000Y-32766000D03*
%TO.N,Net-(U2-A4)*%
X172720000Y-66558000D03*
%TO.N,Net-(U2-A5)*%
X168275000Y-56388000D03*
%TO.N,Net-(U2-A7)*%
X168275000Y-58928000D03*
%TO.N,Net-(U2-A6)*%
X168275000Y-64008464D03*
%TO.N,Net-(U3-A0)*%
X163454000Y-76454000D03*
%TO.N,Net-(U2-A3)*%
X150241000Y-72263000D03*
%TO.N,Net-(U2-A0)*%
X151257000Y-73533000D03*
%TO.N,Net-(U2-A1)*%
X152273000Y-74422000D03*
%TO.N,Net-(U2-A2)*%
X153289000Y-75438000D03*
%TO.N,Net-(U3-A7)*%
X126365000Y-76073000D03*
%TO.N,Net-(U3-A6)*%
X130810000Y-79248000D03*
%TO.N,NPXL_D5V*%
X124714000Y-51308000D03*
%TO.N,Net-(U3-A3)*%
X138684000Y-66421000D03*
%TO.N,Net-(U3-A1)*%
X137414000Y-64643000D03*
%TO.N,GND*%
X109220000Y-24376000D03*
X108204000Y-24376000D03*
%TO.N,Net-(U3-A4)*%
X115824000Y-77216000D03*
%TO.N,GND*%
X168656000Y-104394000D03*
X160782000Y-104394000D03*
X150368000Y-104394000D03*
X139700000Y-104394000D03*
X126492000Y-104394000D03*
X118872000Y-104394000D03*
X108204000Y-104394000D03*
X97790000Y-104394000D03*
%TO.N,+5V*%
X143383000Y-105918000D03*
X174879000Y-105918000D03*
X164465000Y-105918000D03*
X153924000Y-105918000D03*
X132842000Y-105918000D03*
X122301000Y-105918000D03*
X111887000Y-105918000D03*
X101219000Y-105918000D03*
%TD*%
D32*
%TO.N,+5V*%
X122174000Y-21082000D02*
X123698000Y-22606000D01*
X83820000Y-21082000D02*
X122174000Y-21082000D01*
X97536000Y-100036000D02*
X85892000Y-100036000D01*
X82296000Y-28702000D02*
X82296000Y-22606000D01*
X84074000Y-30480000D02*
X82296000Y-28702000D01*
X84074000Y-70866000D02*
X84074000Y-30480000D01*
X85892000Y-100036000D02*
X85344000Y-99488000D01*
X89794000Y-76586000D02*
X84074000Y-70866000D01*
X89794000Y-82974000D02*
X89794000Y-76586000D01*
X85344000Y-87424000D02*
X89794000Y-82974000D01*
X85344000Y-99488000D02*
X85344000Y-87424000D01*
X123698000Y-22606000D02*
X123698000Y-30988000D01*
X82296000Y-22606000D02*
X83820000Y-21082000D01*
X123698000Y-30988000D02*
X122968000Y-31718000D01*
X122968000Y-31718000D02*
X120904000Y-31718000D01*
D33*
%TO.N,Net-(U2-A4)*%
X170250000Y-111250000D02*
X173355000Y-108145000D01*
X172720000Y-74470000D02*
X172720000Y-66558000D01*
X173355000Y-108145000D02*
X173355000Y-94399000D01*
X168026000Y-87800000D02*
X170058000Y-85768000D01*
X173355000Y-94399000D02*
X168026000Y-89070000D01*
X168026000Y-89070000D02*
X168026000Y-87800000D01*
X170058000Y-85768000D02*
X170058000Y-77132000D01*
X170058000Y-77132000D02*
X172720000Y-74470000D01*
%TO.N,Net-(U2-A7)*%
X149250000Y-111250000D02*
X152146000Y-108354000D01*
X170434000Y-61087000D02*
X168275000Y-58928000D01*
X152146000Y-108354000D02*
X152146000Y-103251000D01*
X163747500Y-79886500D02*
X170434000Y-73200000D01*
X152146000Y-103251000D02*
X159512000Y-95885000D01*
X159512000Y-95885000D02*
X159512000Y-91234000D01*
X163747500Y-86998500D02*
X163747500Y-79886500D01*
X159512000Y-91234000D02*
X163747500Y-86998500D01*
X170434000Y-73200000D02*
X170434000Y-61087000D01*
%TO.N,Net-(U2-A5)*%
X159750000Y-111250000D02*
X162923000Y-108077000D01*
X162923000Y-108077000D02*
X162941000Y-108077000D01*
X162941000Y-108077000D02*
X162941000Y-103505000D01*
X171450000Y-59563000D02*
X168275000Y-56388000D01*
X162941000Y-103505000D02*
X164719000Y-101727000D01*
X164719000Y-101727000D02*
X164719000Y-87908000D01*
X164719000Y-87908000D02*
X169296000Y-83331000D01*
X169296000Y-83331000D02*
X169296000Y-75984000D01*
X169296000Y-75984000D02*
X171450000Y-73830000D01*
X171450000Y-73830000D02*
X171450000Y-59563000D01*
%TO.N,Net-(U2-A6)*%
X169418000Y-65151464D02*
X169418000Y-72814000D01*
X162433000Y-84582000D02*
X162433000Y-79799000D01*
X162433000Y-79799000D02*
X169418000Y-72814000D01*
%TO.N,Net-(U3-A0)*%
X157099000Y-76454000D02*
X146177000Y-65532000D01*
X136398000Y-65532000D02*
X136144000Y-65278000D01*
X136144000Y-65278000D02*
X136144000Y-62357000D01*
X163454000Y-76454000D02*
X157099000Y-76454000D01*
X146177000Y-65532000D02*
X136398000Y-65532000D01*
D34*
%TO.N,+3V3*%
X147955000Y-57277000D02*
X144780000Y-57277000D01*
X154930000Y-66558000D02*
X152918000Y-66558000D01*
X152918000Y-66558000D02*
X148717000Y-62357000D01*
X148717000Y-62357000D02*
X148717000Y-58039000D01*
X148717000Y-58039000D02*
X147955000Y-57277000D01*
D33*
%TO.N,MUX_ADDR0*%
X144790000Y-53858000D02*
X154930000Y-53858000D01*
X144780000Y-53848000D02*
X144790000Y-53858000D01*
%TO.N,MUX_ADDR2*%
X146304000Y-62357000D02*
X146304000Y-61214000D01*
X146304000Y-61214000D02*
X143256000Y-58166000D01*
X144399000Y-52578000D02*
X156210000Y-52578000D01*
X143256000Y-58166000D02*
X143256000Y-53721000D01*
X156718000Y-52070000D02*
X156718000Y-50566000D01*
X143256000Y-53721000D02*
X144399000Y-52578000D01*
X156210000Y-52578000D02*
X156718000Y-52070000D01*
X156718000Y-50566000D02*
X154930000Y-48778000D01*
%TO.N,Net-(U1-D27{slash}SCL{slash}PA23)*%
X144780000Y-47117000D02*
X139319000Y-47117000D01*
X139319000Y-47117000D02*
X136938000Y-49498000D01*
X136938000Y-49498000D02*
X136144000Y-49498000D01*
X144780000Y-32766000D02*
X144780000Y-30472000D01*
X144780000Y-30472000D02*
X152654000Y-22598000D01*
%TO.N,Net-(U1-D26{slash}SDA{slash}PA22)*%
X145923000Y-49149000D02*
X147955000Y-47117000D01*
%TO.N,/mcu/D13*%
X136144000Y-31718000D02*
X134493000Y-33369000D01*
X134493000Y-33369000D02*
X134493000Y-34798000D01*
X134493000Y-34798000D02*
X132461000Y-36830000D01*
X132461000Y-36830000D02*
X129789000Y-36830000D01*
%TO.N,Net-(U1-D26{slash}SDA{slash}PA22)*%
X147955000Y-32766000D02*
X147955000Y-29837000D01*
%TO.N,/mcu/ROT_SW*%
X136144000Y-34258000D02*
X152940000Y-34258000D01*
X152940000Y-34258000D02*
X161809000Y-25389000D01*
X161809000Y-25389000D02*
X169204000Y-25389000D01*
%TO.N,/mcu/RSWA*%
X175323500Y-37020500D02*
X176874000Y-38571000D01*
X136144000Y-36798000D02*
X175101000Y-36798000D01*
X175101000Y-36798000D02*
X175323500Y-37020500D01*
%TO.N,/mcu/RSWB*%
X136144000Y-39338000D02*
X163311000Y-39338000D01*
X163311000Y-39338000D02*
X166572000Y-42599000D01*
%TO.N,SW_MUX*%
X136144000Y-41878000D02*
X157194000Y-41878000D01*
X157194000Y-41878000D02*
X160528000Y-45212000D01*
X160528000Y-45212000D02*
X160528000Y-59456000D01*
X160528000Y-59456000D02*
X162550000Y-61478000D01*
%TO.N,MUX_ADDR2*%
X154930000Y-48778000D02*
X150570000Y-44418000D01*
X150570000Y-44418000D02*
X136144000Y-44418000D01*
%TO.N,Net-(U1-D26{slash}SDA{slash}PA22)*%
X145923000Y-49149000D02*
X139033000Y-49149000D01*
X139033000Y-49149000D02*
X136144000Y-52038000D01*
D34*
%TO.N,+3V3*%
X176874000Y-50184000D02*
X179197000Y-47861000D01*
X171323000Y-20828000D02*
X167593000Y-20828000D01*
X179197000Y-47861000D02*
X179197000Y-38862000D01*
X167593000Y-20828000D02*
X165688000Y-22733000D01*
X179197000Y-38862000D02*
X172466000Y-32131000D01*
X172466000Y-32131000D02*
X172466000Y-21971000D01*
X172466000Y-21971000D02*
X171323000Y-20828000D01*
X166572000Y-50184000D02*
X166572000Y-66928000D01*
X150114000Y-22598000D02*
X150122000Y-22598000D01*
X150122000Y-22598000D02*
X151892000Y-20828000D01*
X151892000Y-20828000D02*
X163783000Y-20828000D01*
X163783000Y-20828000D02*
X165688000Y-22733000D01*
D33*
%TO.N,Net-(U1-D26{slash}SDA{slash}PA22)*%
X147955000Y-29837000D02*
X155194000Y-22598000D01*
%TO.N,/mcu/RSWA*%
X176874000Y-38571000D02*
X176874000Y-42594000D01*
D34*
%TO.N,+3V3*%
X129789000Y-29210000D02*
X129789000Y-27183000D01*
X129789000Y-27183000D02*
X136144000Y-20828000D01*
X148344000Y-20828000D02*
X150114000Y-22598000D01*
X136144000Y-20828000D02*
X148344000Y-20828000D01*
D32*
%TO.N,GND*%
X136144000Y-26638000D02*
X134652000Y-26638000D01*
X134652000Y-26638000D02*
X133350000Y-27940000D01*
X133350000Y-27940000D02*
X133350000Y-33274000D01*
X133350000Y-33274000D02*
X132334000Y-34290000D01*
X132334000Y-34290000D02*
X129789000Y-34290000D01*
D33*
%TO.N,/mcu/D4_A8*%
X133604000Y-57118000D02*
X133604000Y-43185000D01*
X133604000Y-43185000D02*
X129789000Y-39370000D01*
%TO.N,/mcu/D3_A9*%
X131064000Y-57118000D02*
X131064000Y-43185000D01*
X131064000Y-43185000D02*
X129789000Y-41910000D01*
D34*
%TO.N,+3V3*%
X166572000Y-50184000D02*
X167823000Y-51435000D01*
X167823000Y-51435000D02*
X175623000Y-51435000D01*
X175623000Y-51435000D02*
X176874000Y-50184000D01*
X125222000Y-62357000D02*
X128524000Y-62357000D01*
X117500000Y-74000000D02*
X122682000Y-68818000D01*
X122682000Y-68818000D02*
X122682000Y-64897000D01*
X122682000Y-64897000D02*
X125222000Y-62357000D01*
D33*
%TO.N,MUX_ADDR1*%
X136144000Y-54578000D02*
X139404000Y-51318000D01*
X139404000Y-51318000D02*
X154930000Y-51318000D01*
%TO.N,Net-(U3-A1)*%
X137414000Y-64643000D02*
X146685000Y-64643000D01*
X146685000Y-64643000D02*
X157734000Y-75692000D01*
X157734000Y-75692000D02*
X160308000Y-75692000D01*
X160308000Y-75692000D02*
X162000000Y-74000000D01*
%TO.N,Net-(U3-A3)*%
X154432000Y-75057000D02*
X154432000Y-85068000D01*
X154432000Y-85068000D02*
X151500000Y-88000000D01*
X138684000Y-66421000D02*
X145796000Y-66421000D01*
X145796000Y-66421000D02*
X154432000Y-75057000D01*
%TO.N,Net-(U2-A6)*%
X168275000Y-64008464D02*
X169418000Y-65151464D01*
X162433000Y-84582000D02*
X148590000Y-98425000D01*
X148590000Y-98425000D02*
X147447000Y-98425000D01*
X147447000Y-98425000D02*
X141859000Y-104013000D01*
X141859000Y-104013000D02*
X141859000Y-108141000D01*
X141859000Y-108141000D02*
X138750000Y-111250000D01*
%TO.N,Net-(U2-A2)*%
X153289000Y-75438000D02*
X153289000Y-80899000D01*
X153289000Y-80899000D02*
X144145000Y-90043000D01*
X131572000Y-103874000D02*
X131572000Y-109474000D01*
X144145000Y-90043000D02*
X144145000Y-94361000D01*
X144145000Y-94361000D02*
X135763000Y-102743000D01*
X135763000Y-102743000D02*
X132703000Y-102743000D01*
X132703000Y-102743000D02*
X131572000Y-103874000D01*
X131572000Y-109474000D02*
X129796000Y-111250000D01*
X129796000Y-111250000D02*
X128250000Y-111250000D01*
%TO.N,Net-(U2-A1)*%
X132080000Y-101600000D02*
X130937000Y-102743000D01*
X130429000Y-109728000D02*
X127000000Y-109728000D01*
X138938000Y-97409000D02*
X134747000Y-101600000D01*
X130937000Y-102743000D02*
X130937000Y-109220000D01*
X127000000Y-109728000D02*
X123190000Y-113538000D01*
X138938000Y-93599000D02*
X138938000Y-97409000D01*
X152273000Y-80264000D02*
X138938000Y-93599000D01*
X130937000Y-109220000D02*
X130429000Y-109728000D01*
X123190000Y-113538000D02*
X109538000Y-113538000D01*
X134747000Y-101600000D02*
X132080000Y-101600000D01*
X152273000Y-74422000D02*
X152273000Y-80264000D01*
X109538000Y-113538000D02*
X107250000Y-111250000D01*
%TO.N,Net-(U2-A0)*%
X130302000Y-108712000D02*
X129794000Y-109220000D01*
X131953000Y-100203000D02*
X130302000Y-101854000D01*
X118364000Y-112903000D02*
X116078000Y-112903000D01*
X133985000Y-100203000D02*
X131953000Y-100203000D01*
X122047000Y-109220000D02*
X118364000Y-112903000D01*
X137922000Y-92837000D02*
X137922000Y-96266000D01*
X130302000Y-101854000D02*
X130302000Y-108712000D01*
X129794000Y-109220000D02*
X122047000Y-109220000D01*
X137922000Y-96266000D02*
X133985000Y-100203000D01*
X151257000Y-79502000D02*
X137922000Y-92837000D01*
X151257000Y-73533000D02*
X151257000Y-79502000D01*
X112522000Y-109347000D02*
X98653000Y-109347000D01*
X116078000Y-112903000D02*
X112522000Y-109347000D01*
X98653000Y-109347000D02*
X96750000Y-111250000D01*
%TO.N,Net-(U2-A3)*%
X150241000Y-72263000D02*
X142240000Y-80264000D01*
X120288000Y-108712000D02*
X117750000Y-111250000D01*
X142240000Y-80264000D02*
X142240000Y-83566000D01*
X142240000Y-83566000D02*
X129667000Y-96139000D01*
X129286000Y-108712000D02*
X120288000Y-108712000D01*
X129667000Y-96139000D02*
X129667000Y-108331000D01*
X129667000Y-108331000D02*
X129286000Y-108712000D01*
D34*
%TO.N,GND*%
X168656000Y-104394000D02*
X170094000Y-104394000D01*
%TO.N,+5V*%
X174879000Y-105918000D02*
X174904000Y-105943000D01*
X174904000Y-105943000D02*
X174904000Y-107696000D01*
X164404000Y-105979000D02*
X164404000Y-107696000D01*
X164465000Y-105918000D02*
X164404000Y-105979000D01*
X153924000Y-105918000D02*
X153904000Y-105938000D01*
X153904000Y-105938000D02*
X153904000Y-107696000D01*
X132842000Y-105918000D02*
X132904000Y-105980000D01*
X132904000Y-105980000D02*
X132904000Y-107696000D01*
X143383000Y-105918000D02*
X143404000Y-105939000D01*
X143404000Y-105939000D02*
X143404000Y-107696000D01*
%TO.N,GND*%
X126492000Y-104394000D02*
X128094000Y-104394000D01*
%TO.N,+5V*%
X122301000Y-105918000D02*
X122404000Y-106021000D01*
X122404000Y-106021000D02*
X122404000Y-107696000D01*
X111887000Y-105918000D02*
X111904000Y-105935000D01*
X111904000Y-105935000D02*
X111904000Y-107696000D01*
X101219000Y-105918000D02*
X101404000Y-106103000D01*
X101404000Y-106103000D02*
X101404000Y-107696000D01*
D33*
%TO.N,NPXL_D5V*%
X124714000Y-51308000D02*
X124714000Y-58293000D01*
X124714000Y-58293000D02*
X120904000Y-62103000D01*
X120904000Y-62103000D02*
X120904000Y-68580000D01*
X120904000Y-68580000D02*
X100838000Y-88646000D01*
X100838000Y-88646000D02*
X100838000Y-97507000D01*
%TO.N,Net-(U3-A7)*%
X126365000Y-76073000D02*
X130048000Y-76073000D01*
X130048000Y-76073000D02*
X136144000Y-69977000D01*
%TO.N,Net-(U3-A4)*%
X115824000Y-77216000D02*
X122809000Y-77216000D01*
X122809000Y-77216000D02*
X128524000Y-71501000D01*
X128524000Y-71501000D02*
X128524000Y-69977000D01*
%TO.N,MUX_ADDR1*%
X136144000Y-54578000D02*
X137795000Y-54578000D01*
X137795000Y-54578000D02*
X143764000Y-60547000D01*
%TO.N,MUX_ADDR0*%
X136144000Y-57118000D02*
X137795000Y-57118000D01*
X137795000Y-57118000D02*
X141224000Y-60547000D01*
%TO.N,Net-(U3-A2)*%
X141000000Y-74000000D02*
X139954000Y-72954000D01*
X139954000Y-72954000D02*
X139954000Y-68199000D01*
X139954000Y-68199000D02*
X139319000Y-67564000D01*
X139319000Y-67564000D02*
X136271000Y-67564000D01*
X136271000Y-67564000D02*
X131064000Y-62357000D01*
%TO.N,Net-(U3-A5)*%
X109500000Y-88000000D02*
X109500000Y-82016000D01*
X109500000Y-82016000D02*
X113284000Y-78232000D01*
X113284000Y-78232000D02*
X130429000Y-78232000D01*
X130429000Y-78232000D02*
X138684000Y-69977000D01*
%TO.N,POT_MUX*%
X120904000Y-44418000D02*
X121634000Y-44418000D01*
X121634000Y-44418000D02*
X129794000Y-52578000D01*
X129794000Y-52578000D02*
X129794000Y-66167000D01*
X129794000Y-66167000D02*
X133604000Y-69977000D01*
%TO.N,Net-(U3-A6)*%
X130500000Y-88000000D02*
X130500000Y-79558000D01*
X130500000Y-79558000D02*
X130810000Y-79248000D01*
%TO.N,/mcu/N_MODE*%
X87500000Y-111000000D02*
X87500000Y-109858000D01*
X87500000Y-109858000D02*
X95250000Y-102108000D01*
X99060000Y-81534000D02*
X105156000Y-75438000D01*
X105156000Y-75438000D02*
X113030000Y-75438000D01*
X113030000Y-75438000D02*
X120142000Y-68326000D01*
X95250000Y-102108000D02*
X97790000Y-102108000D01*
X97790000Y-102108000D02*
X99060000Y-100838000D01*
X122174000Y-58674000D02*
X122174000Y-53308000D01*
X99060000Y-100838000D02*
X99060000Y-81534000D01*
X120142000Y-68326000D02*
X120142000Y-60706000D01*
X120142000Y-60706000D02*
X122174000Y-58674000D01*
X122174000Y-53308000D02*
X120904000Y-52038000D01*
%TO.N,/mcu/N_RUN*%
X87500000Y-91000000D02*
X88578000Y-91000000D01*
X88578000Y-91000000D02*
X104902000Y-74676000D01*
X104902000Y-74676000D02*
X112776000Y-74676000D01*
X112776000Y-74676000D02*
X119380000Y-68072000D01*
X119380000Y-56102000D02*
X120904000Y-54578000D01*
X119380000Y-68072000D02*
X119380000Y-56102000D01*
D32*
%TO.N,+12V*%
X107442000Y-29718000D02*
X108198000Y-28962000D01*
X108198000Y-28962000D02*
X110896000Y-28962000D01*
D34*
%TO.N,+3V3*%
X159500000Y-74000000D02*
X166572000Y-66928000D01*
D33*
%TO.N,MUX_ADDR1*%
X143764000Y-60547000D02*
X143764000Y-62357000D01*
%TO.N,MUX_ADDR0*%
X141224000Y-60547000D02*
X141224000Y-62357000D01*
%TO.N,SYNC_IN*%
X112014000Y-69871000D02*
X112014000Y-63500000D01*
X112014000Y-63500000D02*
X112522000Y-62992000D01*
X112522000Y-62992000D02*
X117602000Y-62992000D01*
X117602000Y-62992000D02*
X118872000Y-61722000D01*
X118872000Y-61722000D02*
X118872000Y-48990000D01*
X118872000Y-48990000D02*
X120904000Y-46958000D01*
D34*
%TO.N,+3V3*%
X159500000Y-74000000D02*
X159332000Y-74168000D01*
X159332000Y-74168000D02*
X157988000Y-74168000D01*
X157988000Y-74168000D02*
X154940000Y-71120000D01*
X154940000Y-71120000D02*
X154940000Y-69850000D01*
X154940000Y-69850000D02*
X154940000Y-66568000D01*
X154940000Y-66568000D02*
X154930000Y-66558000D01*
D32*
%TO.N,GND*%
X101092000Y-24384000D02*
X101092000Y-23622000D01*
X101092000Y-23622000D02*
X102130000Y-22584000D01*
X102130000Y-22584000D02*
X106412000Y-22584000D01*
X106412000Y-22584000D02*
X108204000Y-24376000D01*
%TO.N,+12V*%
X104394000Y-51030000D02*
X104394000Y-32512000D01*
D33*
%TO.N,CV_O*%
X96774000Y-41627000D02*
X92623000Y-41627000D01*
X92623000Y-41627000D02*
X86810000Y-35814000D01*
%TO.N,GATE_O*%
X86810000Y-46814000D02*
X86810000Y-49464000D01*
X86810000Y-49464000D02*
X93773000Y-56427000D01*
X93773000Y-56427000D02*
X103171000Y-56427000D01*
X103171000Y-56427000D02*
X103886000Y-57142000D01*
X103886000Y-57142000D02*
X103886000Y-63447000D01*
X103886000Y-63447000D02*
X106680000Y-66241000D01*
%TO.N,SYNC_OUT_O*%
X94996000Y-62743000D02*
X91739000Y-62743000D01*
X91739000Y-62743000D02*
X86810000Y-57814000D01*
%TO.N,Net-(Q1-B)*%
X107590000Y-71366000D02*
X97557000Y-71366000D01*
X97557000Y-71366000D02*
X97057000Y-70866000D01*
%TO.N,CV*%
X115062000Y-47469000D02*
X118364000Y-44167000D01*
X118364000Y-44167000D02*
X118364000Y-36798000D01*
X118364000Y-36798000D02*
X120904000Y-34258000D01*
%TO.N,GATE_O*%
X85852000Y-26924000D02*
X85090000Y-27686000D01*
X85090000Y-27686000D02*
X85090000Y-43180000D01*
X86810000Y-44900000D02*
X86810000Y-46814000D01*
X85090000Y-43180000D02*
X86810000Y-44900000D01*
%TO.N,Net-(D1-DIN)*%
X100838000Y-100047000D02*
X100838000Y-102616000D01*
X100838000Y-102616000D02*
X96550000Y-106904000D01*
X96550000Y-106904000D02*
X96550000Y-107650000D01*
%TO.N,Net-(J5-PadT)*%
X93755000Y-71628000D02*
X87376000Y-71628000D01*
X94517000Y-70866000D02*
X93755000Y-71628000D01*
X87376000Y-71628000D02*
X86810000Y-71062000D01*
X86810000Y-71062000D02*
X86810000Y-68814000D01*
%TO.N,Net-(C2-Pad1)*%
X176874000Y-47644000D02*
X176874000Y-45134000D01*
%TO.N,Net-(C1-Pad1)*%
X166572000Y-47644000D02*
X166572000Y-45139000D01*
X169204000Y-39889000D02*
X169204000Y-43771000D01*
X169204000Y-43771000D02*
X170072000Y-44639000D01*
%TO.N,Net-(C2-Pad1)*%
X174204000Y-39889000D02*
X174204000Y-43809000D01*
X174204000Y-43809000D02*
X173374000Y-44639000D01*
X176874000Y-45134000D02*
X173869000Y-45134000D01*
X173869000Y-45134000D02*
X173374000Y-44639000D01*
%TO.N,Net-(C1-Pad1)*%
X166572000Y-45139000D02*
X169572000Y-45139000D01*
X169572000Y-45139000D02*
X170072000Y-44639000D01*
%TO.N,GATE*%
X115078000Y-57618000D02*
X115062000Y-57634000D01*
D32*
%TO.N,GND*%
X108204000Y-24376000D02*
X109220000Y-24376000D01*
X109234000Y-24362000D02*
X110896000Y-24362000D01*
%TO.N,+12V*%
X107442000Y-32044000D02*
X107442000Y-29718000D01*
%TO.N,+3V3*%
X127249000Y-29210000D02*
X129789000Y-29210000D01*
%TO.N,+5V*%
X122650000Y-31718000D02*
X125222000Y-34290000D01*
X120904000Y-31718000D02*
X122650000Y-31718000D01*
X125222000Y-34290000D02*
X127249000Y-34290000D01*
D33*
%TO.N,/mcu/D15_A1*%
X127249000Y-36830000D02*
X120936000Y-36830000D01*
X120936000Y-36830000D02*
X120904000Y-36798000D01*
%TO.N,/mcu/D16_A2*%
X127249000Y-39370000D02*
X120936000Y-39370000D01*
X120936000Y-39370000D02*
X120904000Y-39338000D01*
%TO.N,/mcu/D17_A3*%
X127249000Y-41910000D02*
X120936000Y-41910000D01*
X120936000Y-41910000D02*
X120904000Y-41878000D01*
D32*
%TO.N,GND*%
X117492000Y-52544000D02*
X117492000Y-55059000D01*
X117492000Y-55059000D02*
X117522000Y-55089000D01*
X117522000Y-50009000D02*
X117522000Y-52514000D01*
X117522000Y-52514000D02*
X117492000Y-52544000D01*
D33*
%TO.N,Net-(D4-DOUT)*%
X132950000Y-104350000D02*
X135250000Y-104350000D01*
X135250000Y-104350000D02*
X138550000Y-107650000D01*
%TO.N,/mcu/N_RUN*%
X87500000Y-91000000D02*
X87500000Y-97500000D01*
D34*
%TO.N,GND*%
X162814000Y-51796000D02*
X162824000Y-51806000D01*
D33*
%TO.N,GATE_O*%
X85852000Y-24384000D02*
X85852000Y-26924000D01*
%TO.N,CV_O*%
X88392000Y-26924000D02*
X88392000Y-32004000D01*
X88392000Y-32004000D02*
X86810000Y-33586000D01*
X86810000Y-33586000D02*
X86810000Y-35814000D01*
X88392000Y-24384000D02*
X88392000Y-26924000D01*
D32*
%TO.N,+5V_IN*%
X90932000Y-24384000D02*
X90932000Y-26924000D01*
D33*
%TO.N,Net-(U6D--)*%
X116586000Y-40362000D02*
X116586000Y-43405000D01*
X116586000Y-43405000D02*
X115062000Y-44929000D01*
D32*
%TO.N,+12V*%
X104394000Y-32512000D02*
X106974000Y-32512000D01*
X106974000Y-32512000D02*
X107442000Y-32044000D01*
%TO.N,Net-(D9-K)*%
X103632000Y-26924000D02*
X103632000Y-28702000D01*
X101600000Y-30734000D02*
X101600000Y-36068000D01*
X103632000Y-28702000D02*
X101600000Y-30734000D01*
%TO.N,+12V*%
X104394000Y-51030000D02*
X102875000Y-52549000D01*
X102875000Y-52549000D02*
X101600000Y-52549000D01*
%TO.N,Net-(D10-A)*%
X93472000Y-26924000D02*
X93472000Y-31750000D01*
X93472000Y-31750000D02*
X94234000Y-32512000D01*
D33*
%TO.N,Net-(R5-Pad1)*%
X106934000Y-41627000D02*
X109220000Y-43913000D01*
X109220000Y-43913000D02*
X109220000Y-44929000D01*
%TO.N,/mcu/N_MODE*%
X87500000Y-111000000D02*
X87500000Y-117500000D01*
D32*
%TO.N,Net-(D10-A)*%
X93472000Y-24384000D02*
X93472000Y-26924000D01*
%TO.N,Net-(D9-K)*%
X103632000Y-24384000D02*
X103632000Y-26924000D01*
D33*
%TO.N,Net-(R11-Pad1)*%
X98044000Y-62714000D02*
X95475000Y-65283000D01*
X95475000Y-65283000D02*
X94996000Y-65283000D01*
%TO.N,Net-(U6B--)*%
X102362000Y-64238000D02*
X103081999Y-63518001D01*
X103081999Y-63518001D02*
X103081999Y-59110999D01*
X103081999Y-59110999D02*
X101600000Y-57629000D01*
%TO.N,Net-(R15-Pad1)*%
X109220000Y-60169000D02*
X106680000Y-62709000D01*
X106680000Y-62709000D02*
X106680000Y-63701000D01*
%TO.N,Net-(U6C-+)*%
X112522000Y-55089000D02*
X109220000Y-55089000D01*
X112522000Y-57634000D02*
X112522000Y-55089000D01*
%TO.N,Net-(R15-Pad1)*%
X112522000Y-60174000D02*
X109225000Y-60174000D01*
X109225000Y-60174000D02*
X109220000Y-60169000D01*
%TO.N,Net-(U6C--)*%
X109220000Y-57629000D02*
X110638000Y-59047000D01*
X110638000Y-59047000D02*
X113935000Y-59047000D01*
X113935000Y-59047000D02*
X115062000Y-60174000D01*
%TO.N,Net-(R11-Pad1)*%
X98044000Y-62714000D02*
X100589000Y-60169000D01*
X100589000Y-60169000D02*
X101600000Y-60169000D01*
%TO.N,Net-(U6B--)*%
X98044000Y-60174000D02*
X100589000Y-57629000D01*
X100589000Y-57629000D02*
X101600000Y-57629000D01*
%TO.N,Net-(R9-Pad1)*%
X98044000Y-44929000D02*
X101600000Y-44929000D01*
%TO.N,Net-(U6A--)*%
X98044000Y-47469000D02*
X101600000Y-47469000D01*
%TO.N,Net-(U6A-+)*%
X94996000Y-47474000D02*
X97536000Y-50014000D01*
X97536000Y-50014000D02*
X99060000Y-50014000D01*
X99065000Y-50009000D02*
X101600000Y-50009000D01*
X99060000Y-50014000D02*
X99065000Y-50009000D01*
%TO.N,Net-(U6B-+)*%
X94996000Y-55094000D02*
X94996000Y-52583000D01*
X94996000Y-55094000D02*
X101595000Y-55094000D01*
X101595000Y-55094000D02*
X101600000Y-55089000D01*
D32*
%TO.N,+12V*%
X98044000Y-52554000D02*
X101595000Y-52554000D01*
X101595000Y-52554000D02*
X101600000Y-52549000D01*
%TO.N,-12V*%
X109220000Y-52549000D02*
X109982000Y-52549000D01*
X109982000Y-52549000D02*
X109987000Y-52544000D01*
X109987000Y-52544000D02*
X112492000Y-52544000D01*
D33*
%TO.N,Net-(U6D--)*%
X115062000Y-44929000D02*
X113792000Y-46199000D01*
X113792000Y-46199000D02*
X110490000Y-46199000D01*
X110490000Y-46199000D02*
X109220000Y-47469000D01*
%TO.N,Net-(R5-Pad1)*%
X109220000Y-44929000D02*
X112522000Y-44929000D01*
%TO.N,Net-(U6D-+)*%
X112522000Y-50009000D02*
X112522000Y-47469000D01*
X112522000Y-50009000D02*
X109220000Y-50009000D01*
%TO.N,Net-(D7-DOUT)*%
X164450000Y-104350000D02*
X166750000Y-104350000D01*
X166750000Y-104350000D02*
X170050000Y-107650000D01*
%TO.N,Net-(D6-DOUT)*%
X153950000Y-104350000D02*
X156250000Y-104350000D01*
X156250000Y-104350000D02*
X159550000Y-107650000D01*
%TO.N,Net-(D5-DOUT)*%
X143450000Y-104350000D02*
X145750000Y-104350000D01*
X145750000Y-104350000D02*
X149050000Y-107650000D01*
%TO.N,Net-(D3-DOUT)*%
X122450000Y-104350000D02*
X124750000Y-104350000D01*
X124750000Y-104350000D02*
X128050000Y-107650000D01*
%TO.N,Net-(D2-DOUT)*%
X111950000Y-104350000D02*
X114250000Y-104350000D01*
X114250000Y-104350000D02*
X117550000Y-107650000D01*
%TO.N,Net-(D1-DOUT)*%
X101450000Y-104350000D02*
X103750000Y-104350000D01*
X103750000Y-104350000D02*
X107050000Y-107650000D01*
D34*
%TO.N,GND*%
X160782000Y-104394000D02*
X159594000Y-104394000D01*
D33*
X159594000Y-104394000D02*
X159550000Y-104350000D01*
X170094000Y-104394000D02*
X170050000Y-104350000D01*
D34*
X150368000Y-104394000D02*
X149094000Y-104394000D01*
D33*
X149094000Y-104394000D02*
X149050000Y-104350000D01*
D34*
X139700000Y-104394000D02*
X138594000Y-104394000D01*
D33*
X138594000Y-104394000D02*
X138550000Y-104350000D01*
X128094000Y-104394000D02*
X128050000Y-104350000D01*
D34*
X118872000Y-104394000D02*
X117594000Y-104394000D01*
D33*
X117594000Y-104394000D02*
X117550000Y-104350000D01*
D34*
X108204000Y-104394000D02*
X107094000Y-104394000D01*
D33*
X107094000Y-104394000D02*
X107050000Y-104350000D01*
D34*
X97790000Y-104394000D02*
X96594000Y-104394000D01*
D33*
X96594000Y-104394000D02*
X96550000Y-104350000D01*
%TO.N,+5V*%
X174904000Y-107696000D02*
X174950000Y-107650000D01*
X164404000Y-107696000D02*
X164450000Y-107650000D01*
X153904000Y-107696000D02*
X153950000Y-107650000D01*
X143404000Y-107696000D02*
X143450000Y-107650000D01*
X132904000Y-107696000D02*
X132950000Y-107650000D01*
X122404000Y-107696000D02*
X122450000Y-107650000D01*
X111904000Y-107696000D02*
X111950000Y-107650000D01*
X101404000Y-107696000D02*
X101450000Y-107650000D01*
%TD*%
%TA.AperFunction,Conductor*%
%TO.N,+3V3_A*%
G36*
X117872059Y-23361061D02*
G01*
X117977223Y-23374906D01*
X118008491Y-23383284D01*
X118098918Y-23420740D01*
X118126952Y-23436925D01*
X118204602Y-23496509D01*
X118227491Y-23519398D01*
X118287074Y-23597048D01*
X118303259Y-23625081D01*
X118340715Y-23715508D01*
X118349093Y-23746775D01*
X118362939Y-23851939D01*
X118364000Y-23868125D01*
X118364000Y-24278054D01*
X118344315Y-24345093D01*
X118291511Y-24390848D01*
X118222353Y-24400792D01*
X118182589Y-24387963D01*
X118068861Y-24328557D01*
X117873328Y-24272609D01*
X117873325Y-24272608D01*
X117754000Y-24262000D01*
X117446000Y-24262000D01*
X117446000Y-29062000D01*
X117753998Y-29062000D01*
X117754000Y-29061999D01*
X117873325Y-29051391D01*
X117873328Y-29051390D01*
X118068861Y-28995442D01*
X118249129Y-28901278D01*
X118406753Y-28772753D01*
X118535278Y-28615129D01*
X118629442Y-28434861D01*
X118685390Y-28239328D01*
X118685391Y-28239325D01*
X118695999Y-28120000D01*
X118696000Y-28119998D01*
X118696000Y-27233766D01*
X118715685Y-27166727D01*
X118768489Y-27120972D01*
X118837647Y-27111028D01*
X118901203Y-27140053D01*
X119531789Y-27691815D01*
X120254607Y-28324282D01*
X120254610Y-28324283D01*
X120396000Y-28448000D01*
X120637788Y-28448000D01*
X120661980Y-28450383D01*
X120723011Y-28462523D01*
X120767709Y-28481037D01*
X120809096Y-28508691D01*
X120843309Y-28542904D01*
X120870962Y-28584291D01*
X120889476Y-28628987D01*
X120901617Y-28690019D01*
X120904000Y-28714212D01*
X120904000Y-29705787D01*
X120901617Y-29729980D01*
X120889476Y-29791012D01*
X120870962Y-29835708D01*
X120843309Y-29877095D01*
X120809095Y-29911309D01*
X120767708Y-29938962D01*
X120723012Y-29957476D01*
X120674989Y-29967029D01*
X120661978Y-29969617D01*
X120637788Y-29972000D01*
X120396000Y-29972000D01*
X120247565Y-30132414D01*
X117502228Y-33099324D01*
X117489838Y-33110993D01*
X117403805Y-33181538D01*
X117374844Y-33199272D01*
X117286672Y-33237814D01*
X117280790Y-33240385D01*
X117248105Y-33249597D01*
X117137894Y-33264832D01*
X117120914Y-33266000D01*
X115824000Y-33266000D01*
X113469875Y-33266000D01*
X113449057Y-33264240D01*
X113314704Y-33241359D01*
X113275415Y-33227577D01*
X113156212Y-33161515D01*
X113138857Y-33149885D01*
X112036965Y-32268372D01*
X112034316Y-32266192D01*
X112017133Y-32251648D01*
X112012022Y-32247073D01*
X111995644Y-32231577D01*
X111993185Y-32229185D01*
X111404198Y-31640198D01*
X111393503Y-31628003D01*
X111328924Y-31543842D01*
X111312739Y-31515808D01*
X111275284Y-31425383D01*
X111266906Y-31394116D01*
X111253061Y-31288952D01*
X111252000Y-31272767D01*
X111252000Y-30336499D01*
X111271685Y-30269460D01*
X111324489Y-30223705D01*
X111375999Y-30212499D01*
X111597122Y-30212499D01*
X111597123Y-30212499D01*
X111597123Y-30212498D01*
X111639889Y-30209600D01*
X111824693Y-30163641D01*
X111995296Y-30079030D01*
X112143722Y-29959722D01*
X112263030Y-29811296D01*
X112347641Y-29640693D01*
X112393600Y-29455889D01*
X112396500Y-29413123D01*
X112396499Y-28510878D01*
X112393600Y-28468111D01*
X112347641Y-28283307D01*
X112325828Y-28239325D01*
X112263032Y-28112707D01*
X112263030Y-28112704D01*
X112143722Y-27964278D01*
X112143721Y-27964277D01*
X111995295Y-27844969D01*
X111995292Y-27844967D01*
X111824697Y-27760360D01*
X111639892Y-27714400D01*
X111614229Y-27712660D01*
X111597123Y-27711500D01*
X111597121Y-27711500D01*
X111274938Y-27711500D01*
X111252000Y-27704764D01*
X111252000Y-27424000D01*
X110752000Y-27424000D01*
X110751993Y-27424000D01*
X110744126Y-27424000D01*
X110727941Y-27422939D01*
X110714917Y-27421224D01*
X110622775Y-27409093D01*
X110591508Y-27400715D01*
X110501081Y-27363259D01*
X110473048Y-27347074D01*
X110395398Y-27287491D01*
X110372508Y-27264601D01*
X110348847Y-27233766D01*
X110312925Y-27186951D01*
X110296740Y-27158918D01*
X110259284Y-27068491D01*
X110250906Y-27037223D01*
X110237061Y-26932059D01*
X110236000Y-26915874D01*
X110236000Y-26912000D01*
X115696000Y-26912000D01*
X115696000Y-28120000D01*
X115706608Y-28239325D01*
X115706609Y-28239328D01*
X115762557Y-28434861D01*
X115856721Y-28615129D01*
X115985246Y-28772753D01*
X116142870Y-28901278D01*
X116323138Y-28995442D01*
X116518671Y-29051390D01*
X116518674Y-29051391D01*
X116637999Y-29061999D01*
X116638002Y-29062000D01*
X116946000Y-29062000D01*
X116946000Y-26912000D01*
X115696000Y-26912000D01*
X110236000Y-26912000D01*
X110236000Y-26412000D01*
X115696000Y-26412000D01*
X116946000Y-26412000D01*
X116946000Y-24262000D01*
X116637999Y-24262000D01*
X116518674Y-24272608D01*
X116518671Y-24272609D01*
X116323138Y-24328557D01*
X116142870Y-24422721D01*
X115985246Y-24551246D01*
X115856721Y-24708870D01*
X115762557Y-24889138D01*
X115706609Y-25084671D01*
X115706608Y-25084674D01*
X115696000Y-25203999D01*
X115696000Y-26412000D01*
X110236000Y-26412000D01*
X110236000Y-26408125D01*
X110237061Y-26391940D01*
X110250906Y-26286776D01*
X110259284Y-26255508D01*
X110296740Y-26165081D01*
X110312923Y-26137050D01*
X110372513Y-26059392D01*
X110395392Y-26036513D01*
X110473050Y-25976923D01*
X110501079Y-25960740D01*
X110591509Y-25923283D01*
X110622775Y-25914906D01*
X110727941Y-25901061D01*
X110744126Y-25900000D01*
X111552886Y-25900000D01*
X111552893Y-25900000D01*
X111760000Y-25900000D01*
X114147809Y-23512190D01*
X114159996Y-23501503D01*
X114244157Y-23436924D01*
X114272191Y-23420739D01*
X114362616Y-23383284D01*
X114393882Y-23374906D01*
X114499048Y-23361061D01*
X114515233Y-23360000D01*
X117855874Y-23360000D01*
X117872059Y-23361061D01*
G37*
%TD.AperFunction*%
%TD*%
M02*
