%TF.GenerationSoftware,KiCad,Pcbnew,8.0.0*%
%TF.CreationDate,2024-04-14T22:26:27-07:00*%
%TF.ProjectId,seq1,73657131-2e6b-4696-9361-645f70636258,rev?*%
%TF.SameCoordinates,Original*%
%TF.FileFunction,Drillmap*%
%TF.FilePolarity,Positive*%
%FSLAX45Y45*%
G04 Gerber Fmt 4.5, Leading zero omitted, Abs format (unit mm)*
G04 Created by KiCad (PCBNEW 8.0.0) date 2024-04-14 22:26:27*
%MOMM*%
%LPD*%
G01*
G04 APERTURE LIST*
%ADD10C,0.050000*%
%ADD11C,0.200000*%
%ADD12C,0.100000*%
%ADD13C,0.110000*%
G04 APERTURE END LIST*
D10*
X8000000Y-2000000D02*
X18000000Y-2000000D01*
X18000000Y-12000000D01*
X8000000Y-12000000D01*
X8000000Y-2000000D01*
D11*
D12*
X9764000Y-10424400D02*
X9794000Y-10454400D01*
X9794000Y-10424400D02*
X9764000Y-10454400D01*
X10106900Y-10576800D02*
X10136900Y-10606800D01*
X10136900Y-10576800D02*
X10106900Y-10606800D01*
X10805400Y-2422600D02*
X10835400Y-2452600D01*
X10835400Y-2422600D02*
X10805400Y-2452600D01*
X10805400Y-10424400D02*
X10835400Y-10454400D01*
X10835400Y-10424400D02*
X10805400Y-10454400D01*
X10907000Y-2422600D02*
X10937000Y-2452600D01*
X10937000Y-2422600D02*
X10907000Y-2452600D01*
X11173700Y-10576800D02*
X11203700Y-10606800D01*
X11203700Y-10576800D02*
X11173700Y-10606800D01*
X11567400Y-7706600D02*
X11597400Y-7736600D01*
X11597400Y-7706600D02*
X11567400Y-7736600D01*
X11872200Y-10424400D02*
X11902200Y-10454400D01*
X11902200Y-10424400D02*
X11872200Y-10454400D01*
X12215100Y-10576800D02*
X12245100Y-10606800D01*
X12245100Y-10576800D02*
X12215100Y-10606800D01*
X12456400Y-5115800D02*
X12486400Y-5145800D01*
X12486400Y-5115800D02*
X12456400Y-5145800D01*
X12621500Y-7592300D02*
X12651500Y-7622300D01*
X12651500Y-7592300D02*
X12621500Y-7622300D01*
X12634200Y-10424400D02*
X12664200Y-10454400D01*
X12664200Y-10424400D02*
X12634200Y-10454400D01*
X13066000Y-7909800D02*
X13096000Y-7939800D01*
X13096000Y-7909800D02*
X13066000Y-7939800D01*
X13269200Y-10576800D02*
X13299200Y-10606800D01*
X13299200Y-10576800D02*
X13269200Y-10606800D01*
X13726400Y-6449300D02*
X13756400Y-6479300D01*
X13756400Y-6449300D02*
X13726400Y-6479300D01*
X13853400Y-6627100D02*
X13883400Y-6657100D01*
X13883400Y-6627100D02*
X13853400Y-6657100D01*
X13955000Y-10424400D02*
X13985000Y-10454400D01*
X13985000Y-10424400D02*
X13955000Y-10454400D01*
X14323300Y-10576800D02*
X14353300Y-10606800D01*
X14353300Y-10576800D02*
X14323300Y-10606800D01*
X14463000Y-3261600D02*
X14493000Y-3291600D01*
X14493000Y-3261600D02*
X14463000Y-3291600D01*
X14463000Y-5369800D02*
X14493000Y-5399800D01*
X14493000Y-5369800D02*
X14463000Y-5399800D01*
X14780500Y-3261600D02*
X14810500Y-3291600D01*
X14810500Y-3261600D02*
X14780500Y-3291600D01*
X15009100Y-7211300D02*
X15039100Y-7241300D01*
X15039100Y-7211300D02*
X15009100Y-7241300D01*
X15021800Y-10424400D02*
X15051800Y-10454400D01*
X15051800Y-10424400D02*
X15021800Y-10454400D01*
X15110700Y-7338300D02*
X15140700Y-7368300D01*
X15140700Y-7338300D02*
X15110700Y-7368300D01*
X15212300Y-7427200D02*
X15242300Y-7457200D01*
X15242300Y-7427200D02*
X15212300Y-7457200D01*
X15313900Y-7528800D02*
X15343900Y-7558800D01*
X15343900Y-7528800D02*
X15313900Y-7558800D01*
X15377400Y-10576800D02*
X15407400Y-10606800D01*
X15407400Y-10576800D02*
X15377400Y-10606800D01*
X16063200Y-10424400D02*
X16093200Y-10454400D01*
X16093200Y-10424400D02*
X16063200Y-10454400D01*
X16330400Y-7630400D02*
X16360400Y-7660400D01*
X16360400Y-7630400D02*
X16330400Y-7660400D01*
X16431500Y-10576800D02*
X16461500Y-10606800D01*
X16461500Y-10576800D02*
X16431500Y-10606800D01*
X16812500Y-5623800D02*
X16842500Y-5653800D01*
X16842500Y-5623800D02*
X16812500Y-5653800D01*
X16812500Y-5877800D02*
X16842500Y-5907800D01*
X16842500Y-5877800D02*
X16812500Y-5907800D01*
X16812500Y-6385846D02*
X16842500Y-6415846D01*
X16842500Y-6385846D02*
X16812500Y-6415846D01*
X16850600Y-10424400D02*
X16880600Y-10454400D01*
X16880600Y-10424400D02*
X16850600Y-10454400D01*
X17257000Y-6640800D02*
X17287000Y-6670800D01*
X17287000Y-6640800D02*
X17257000Y-6670800D01*
X17472900Y-10576800D02*
X17502900Y-10606800D01*
X17502900Y-10576800D02*
X17472900Y-10606800D01*
X10796500Y-7009600D02*
G75*
G02*
X10721500Y-7009600I-37500J0D01*
G01*
X10721500Y-7009600D02*
G75*
G02*
X10796500Y-7009600I37500J0D01*
G01*
X10796500Y-7136600D02*
G75*
G02*
X10721500Y-7136600I-37500J0D01*
G01*
X10721500Y-7136600D02*
G75*
G02*
X10796500Y-7136600I37500J0D01*
G01*
X10796500Y-7263600D02*
G75*
G02*
X10721500Y-7263600I-37500J0D01*
G01*
X10721500Y-7263600D02*
G75*
G02*
X10796500Y-7263600I37500J0D01*
G01*
X9451700Y-7046600D02*
X9451700Y-7126600D01*
X9411700Y-7086600D02*
X9491700Y-7086600D01*
X9499600Y-4453400D02*
X9499600Y-4533400D01*
X9459600Y-4493400D02*
X9539600Y-4493400D01*
X9499600Y-4707400D02*
X9499600Y-4787400D01*
X9459600Y-4747400D02*
X9539600Y-4747400D01*
X9499600Y-4964300D02*
X9499600Y-5044300D01*
X9459600Y-5004300D02*
X9539600Y-5004300D01*
X9499600Y-5218300D02*
X9499600Y-5298300D01*
X9459600Y-5258300D02*
X9539600Y-5258300D01*
X9499600Y-5469400D02*
X9499600Y-5549400D01*
X9459600Y-5509400D02*
X9539600Y-5509400D01*
X9499600Y-5969400D02*
X9499600Y-6049400D01*
X9459600Y-6009400D02*
X9539600Y-6009400D01*
X9499600Y-6234300D02*
X9499600Y-6314300D01*
X9459600Y-6274300D02*
X9539600Y-6274300D01*
X9499600Y-6488300D02*
X9499600Y-6568300D01*
X9459600Y-6528300D02*
X9539600Y-6528300D01*
X9677400Y-4122700D02*
X9677400Y-4202700D01*
X9637400Y-4162700D02*
X9717400Y-4162700D01*
X9705700Y-7046600D02*
X9705700Y-7126600D01*
X9665700Y-7086600D02*
X9745700Y-7086600D01*
X9753600Y-9463600D02*
X9753600Y-9543600D01*
X9713600Y-9503600D02*
X9793600Y-9503600D01*
X9753600Y-9963600D02*
X9753600Y-10043600D01*
X9713600Y-10003600D02*
X9793600Y-10003600D01*
X9804400Y-4452900D02*
X9804400Y-4532900D01*
X9764400Y-4492900D02*
X9844400Y-4492900D01*
X9804400Y-4706900D02*
X9804400Y-4786900D01*
X9764400Y-4746900D02*
X9844400Y-4746900D01*
X9804400Y-5215400D02*
X9804400Y-5295400D01*
X9764400Y-5255400D02*
X9844400Y-5255400D01*
X9804400Y-5715400D02*
X9804400Y-5795400D01*
X9764400Y-5755400D02*
X9844400Y-5755400D01*
X9804400Y-5977400D02*
X9804400Y-6057400D01*
X9764400Y-6017400D02*
X9844400Y-6017400D01*
X9804400Y-6231400D02*
X9804400Y-6311400D01*
X9764400Y-6271400D02*
X9844400Y-6271400D01*
X10083800Y-9710700D02*
X10083800Y-9790700D01*
X10043800Y-9750700D02*
X10123800Y-9750700D01*
X10083800Y-9964700D02*
X10083800Y-10044700D01*
X10043800Y-10004700D02*
X10123800Y-10004700D01*
X10160000Y-4452900D02*
X10160000Y-4532900D01*
X10120000Y-4492900D02*
X10200000Y-4492900D01*
X10160000Y-4706900D02*
X10160000Y-4786900D01*
X10120000Y-4746900D02*
X10200000Y-4746900D01*
X10160000Y-4960900D02*
X10160000Y-5040900D01*
X10120000Y-5000900D02*
X10200000Y-5000900D01*
X10160000Y-5214900D02*
X10160000Y-5294900D01*
X10120000Y-5254900D02*
X10200000Y-5254900D01*
X10160000Y-5468900D02*
X10160000Y-5548900D01*
X10120000Y-5508900D02*
X10200000Y-5508900D01*
X10160000Y-5722900D02*
X10160000Y-5802900D01*
X10120000Y-5762900D02*
X10200000Y-5762900D01*
X10160000Y-5976900D02*
X10160000Y-6056900D01*
X10120000Y-6016900D02*
X10200000Y-6016900D01*
X10236200Y-6383800D02*
X10236200Y-6463800D01*
X10196200Y-6423800D02*
X10276200Y-6423800D01*
X10236200Y-6637800D02*
X10236200Y-6717800D01*
X10196200Y-6677800D02*
X10276200Y-6677800D01*
X10236200Y-6891800D02*
X10236200Y-6971800D01*
X10196200Y-6931800D02*
X10276200Y-6931800D01*
X10668000Y-6330100D02*
X10668000Y-6410100D01*
X10628000Y-6370100D02*
X10708000Y-6370100D01*
X10668000Y-6584100D02*
X10668000Y-6664100D01*
X10628000Y-6624100D02*
X10708000Y-6624100D01*
X10693400Y-4122700D02*
X10693400Y-4202700D01*
X10653400Y-4162700D02*
X10733400Y-4162700D01*
X10744200Y-3164400D02*
X10744200Y-3244400D01*
X10704200Y-3204400D02*
X10784200Y-3204400D01*
X10744200Y-3664400D02*
X10744200Y-3744400D01*
X10704200Y-3704400D02*
X10784200Y-3704400D01*
X10922000Y-4452900D02*
X10922000Y-4532900D01*
X10882000Y-4492900D02*
X10962000Y-4492900D01*
X10922000Y-4706900D02*
X10922000Y-4786900D01*
X10882000Y-4746900D02*
X10962000Y-4746900D01*
X10922000Y-4960900D02*
X10922000Y-5040900D01*
X10882000Y-5000900D02*
X10962000Y-5000900D01*
X10922000Y-5214900D02*
X10922000Y-5294900D01*
X10882000Y-5254900D02*
X10962000Y-5254900D01*
X10922000Y-5468900D02*
X10922000Y-5548900D01*
X10882000Y-5508900D02*
X10962000Y-5508900D01*
X10922000Y-5722900D02*
X10922000Y-5802900D01*
X10882000Y-5762900D02*
X10962000Y-5762900D01*
X10922000Y-5976900D02*
X10922000Y-6056900D01*
X10882000Y-6016900D02*
X10962000Y-6016900D01*
X11075400Y-6434600D02*
X11075400Y-6514600D01*
X11035400Y-6474600D02*
X11115400Y-6474600D01*
X11150600Y-3996200D02*
X11150600Y-4076200D01*
X11110600Y-4036200D02*
X11190600Y-4036200D01*
X11201400Y-3112800D02*
X11201400Y-3192800D01*
X11161400Y-3152800D02*
X11241400Y-3152800D01*
X11201400Y-3612800D02*
X11201400Y-3692800D01*
X11161400Y-3652800D02*
X11241400Y-3652800D01*
X11201400Y-6947100D02*
X11201400Y-7027100D01*
X11161400Y-6987100D02*
X11241400Y-6987100D01*
X11201400Y-7201100D02*
X11201400Y-7281100D01*
X11161400Y-7241100D02*
X11241400Y-7241100D01*
X11249200Y-5214400D02*
X11249200Y-5294400D01*
X11209200Y-5254400D02*
X11289200Y-5254400D01*
X11252200Y-4452900D02*
X11252200Y-4532900D01*
X11212200Y-4492900D02*
X11292200Y-4492900D01*
X11252200Y-4706900D02*
X11252200Y-4786900D01*
X11212200Y-4746900D02*
X11292200Y-4746900D01*
X11252200Y-4960900D02*
X11252200Y-5040900D01*
X11212200Y-5000900D02*
X11292200Y-5000900D01*
X11252200Y-5468900D02*
X11252200Y-5548900D01*
X11212200Y-5508900D02*
X11292200Y-5508900D01*
X11252200Y-5723400D02*
X11252200Y-5803400D01*
X11212200Y-5763400D02*
X11292200Y-5763400D01*
X11252200Y-5977400D02*
X11252200Y-6057400D01*
X11212200Y-6017400D02*
X11292200Y-6017400D01*
X11329400Y-6434600D02*
X11329400Y-6514600D01*
X11289400Y-6474600D02*
X11369400Y-6474600D01*
X11404600Y-3996200D02*
X11404600Y-4076200D01*
X11364600Y-4036200D02*
X11444600Y-4036200D01*
X11506200Y-4452900D02*
X11506200Y-4532900D01*
X11466200Y-4492900D02*
X11546200Y-4492900D01*
X11506200Y-4706900D02*
X11506200Y-4786900D01*
X11466200Y-4746900D02*
X11546200Y-4746900D01*
X11506200Y-5723400D02*
X11506200Y-5803400D01*
X11466200Y-5763400D02*
X11546200Y-5763400D01*
X11506200Y-5977400D02*
X11506200Y-6057400D01*
X11466200Y-6017400D02*
X11546200Y-6017400D01*
X11583400Y-6434600D02*
X11583400Y-6514600D01*
X11543400Y-6474600D02*
X11623400Y-6474600D01*
X11658600Y-3191489D02*
X11658600Y-3271489D01*
X11618600Y-3231489D02*
X11698600Y-3231489D01*
X11658600Y-3441489D02*
X11658600Y-3521489D01*
X11618600Y-3481489D02*
X11698600Y-3481489D01*
X11658600Y-3996200D02*
X11658600Y-4076200D01*
X11618600Y-4036200D02*
X11698600Y-4036200D01*
X11749200Y-5214400D02*
X11749200Y-5294400D01*
X11709200Y-5254400D02*
X11789200Y-5254400D01*
X11752200Y-4960900D02*
X11752200Y-5040900D01*
X11712200Y-5000900D02*
X11792200Y-5000900D01*
X11752200Y-5468900D02*
X11752200Y-5548900D01*
X11712200Y-5508900D02*
X11792200Y-5508900D01*
X12000000Y-9460000D02*
X12000000Y-9540000D01*
X11960000Y-9500000D02*
X12040000Y-9500000D01*
X12000000Y-9960000D02*
X12000000Y-10040000D01*
X11960000Y-10000000D02*
X12040000Y-10000000D01*
X12522200Y-6195700D02*
X12522200Y-6275700D01*
X12482200Y-6235700D02*
X12562200Y-6235700D01*
X12522200Y-6695700D02*
X12522200Y-6775700D01*
X12482200Y-6735700D02*
X12562200Y-6735700D01*
X12852400Y-6195700D02*
X12852400Y-6275700D01*
X12812400Y-6235700D02*
X12892400Y-6235700D01*
X12852400Y-6957700D02*
X12852400Y-7037700D01*
X12812400Y-6997700D02*
X12892400Y-6997700D01*
X13106400Y-6195700D02*
X13106400Y-6275700D01*
X13066400Y-6235700D02*
X13146400Y-6235700D01*
X13106400Y-6957700D02*
X13106400Y-7037700D01*
X13066400Y-6997700D02*
X13146400Y-6997700D01*
X13360400Y-6195700D02*
X13360400Y-6275700D01*
X13320400Y-6235700D02*
X13400400Y-6235700D01*
X13360400Y-6957700D02*
X13360400Y-7037700D01*
X13320400Y-6997700D02*
X13400400Y-6997700D01*
X13614400Y-6195700D02*
X13614400Y-6275700D01*
X13574400Y-6235700D02*
X13654400Y-6235700D01*
X13614400Y-6957700D02*
X13614400Y-7037700D01*
X13574400Y-6997700D02*
X13654400Y-6997700D01*
X13868400Y-6195700D02*
X13868400Y-6275700D01*
X13828400Y-6235700D02*
X13908400Y-6235700D01*
X13868400Y-6957700D02*
X13868400Y-7037700D01*
X13828400Y-6997700D02*
X13908400Y-6997700D01*
X14100000Y-9460000D02*
X14100000Y-9540000D01*
X14060000Y-9500000D02*
X14140000Y-9500000D01*
X14100000Y-9960000D02*
X14100000Y-10040000D01*
X14060000Y-10000000D02*
X14140000Y-10000000D01*
X14122400Y-6195700D02*
X14122400Y-6275700D01*
X14082400Y-6235700D02*
X14162400Y-6235700D01*
X14122400Y-6957700D02*
X14122400Y-7037700D01*
X14082400Y-6997700D02*
X14162400Y-6997700D01*
X14376400Y-6195700D02*
X14376400Y-6275700D01*
X14336400Y-6235700D02*
X14416400Y-6235700D01*
X14376400Y-6957700D02*
X14376400Y-7037700D01*
X14336400Y-6997700D02*
X14416400Y-6997700D01*
X14478000Y-4671700D02*
X14478000Y-4751700D01*
X14438000Y-4711700D02*
X14518000Y-4711700D01*
X14478000Y-5687700D02*
X14478000Y-5767700D01*
X14438000Y-5727700D02*
X14518000Y-5727700D01*
X14630400Y-6195700D02*
X14630400Y-6275700D01*
X14590400Y-6235700D02*
X14670400Y-6235700D01*
X14630400Y-6957700D02*
X14630400Y-7037700D01*
X14590400Y-6997700D02*
X14670400Y-6997700D01*
X14795500Y-4671700D02*
X14795500Y-4751700D01*
X14755500Y-4711700D02*
X14835500Y-4711700D01*
X14795500Y-5687700D02*
X14795500Y-5767700D01*
X14755500Y-5727700D02*
X14835500Y-5727700D01*
X15493000Y-4837800D02*
X15493000Y-4917800D01*
X15453000Y-4877800D02*
X15533000Y-4877800D01*
X15493000Y-5091800D02*
X15493000Y-5171800D01*
X15453000Y-5131800D02*
X15533000Y-5131800D01*
X15493000Y-5345800D02*
X15493000Y-5425800D01*
X15453000Y-5385800D02*
X15533000Y-5385800D01*
X15493000Y-5599800D02*
X15493000Y-5679800D01*
X15453000Y-5639800D02*
X15533000Y-5639800D01*
X15493000Y-5853800D02*
X15493000Y-5933800D01*
X15453000Y-5893800D02*
X15533000Y-5893800D01*
X15493000Y-6107800D02*
X15493000Y-6187800D01*
X15453000Y-6147800D02*
X15533000Y-6147800D01*
X15493000Y-6361800D02*
X15493000Y-6441800D01*
X15453000Y-6401800D02*
X15533000Y-6401800D01*
X15493000Y-6615800D02*
X15493000Y-6695800D01*
X15453000Y-6655800D02*
X15533000Y-6655800D01*
X15494000Y-6945000D02*
X15494000Y-7025000D01*
X15454000Y-6985000D02*
X15534000Y-6985000D01*
X15994000Y-6945000D02*
X15994000Y-7025000D01*
X15954000Y-6985000D02*
X16034000Y-6985000D01*
X16200000Y-9460000D02*
X16200000Y-9540000D01*
X16160000Y-9500000D02*
X16240000Y-9500000D01*
X16200000Y-9960000D02*
X16200000Y-10040000D01*
X16160000Y-10000000D02*
X16240000Y-10000000D01*
X16255000Y-4837800D02*
X16255000Y-4917800D01*
X16215000Y-4877800D02*
X16295000Y-4877800D01*
X16255000Y-5091800D02*
X16255000Y-5171800D01*
X16215000Y-5131800D02*
X16295000Y-5131800D01*
X16255000Y-5345800D02*
X16255000Y-5425800D01*
X16215000Y-5385800D02*
X16295000Y-5385800D01*
X16255000Y-5599800D02*
X16255000Y-5679800D01*
X16215000Y-5639800D02*
X16295000Y-5639800D01*
X16255000Y-5853800D02*
X16255000Y-5933800D01*
X16215000Y-5893800D02*
X16295000Y-5893800D01*
X16255000Y-6107800D02*
X16255000Y-6187800D01*
X16215000Y-6147800D02*
X16295000Y-6147800D01*
X16255000Y-6361800D02*
X16255000Y-6441800D01*
X16215000Y-6401800D02*
X16295000Y-6401800D01*
X16255000Y-6615800D02*
X16255000Y-6695800D01*
X16215000Y-6655800D02*
X16295000Y-6655800D01*
X16568800Y-2233300D02*
X16568800Y-2313300D01*
X16528800Y-2273300D02*
X16608800Y-2273300D01*
X16657200Y-4219900D02*
X16657200Y-4299900D01*
X16617200Y-4259900D02*
X16697200Y-4259900D01*
X16657200Y-4473900D02*
X16657200Y-4553900D01*
X16617200Y-4513900D02*
X16697200Y-4513900D01*
X16657200Y-4724400D02*
X16657200Y-4804400D01*
X16617200Y-4764400D02*
X16697200Y-4764400D01*
X16657200Y-4978400D02*
X16657200Y-5058400D01*
X16617200Y-5018400D02*
X16697200Y-5018400D01*
X17007200Y-4423900D02*
X17007200Y-4503900D01*
X16967200Y-4463900D02*
X17047200Y-4463900D01*
X17007200Y-4923900D02*
X17007200Y-5003900D01*
X16967200Y-4963900D02*
X17047200Y-4963900D01*
X17068800Y-2233300D02*
X17068800Y-2313300D01*
X17028800Y-2273300D02*
X17108800Y-2273300D01*
X17337400Y-4423900D02*
X17337400Y-4503900D01*
X17297400Y-4463900D02*
X17377400Y-4463900D01*
X17337400Y-4923900D02*
X17337400Y-5003900D01*
X17297400Y-4963900D02*
X17377400Y-4963900D01*
X17687400Y-4219400D02*
X17687400Y-4299400D01*
X17647400Y-4259400D02*
X17727400Y-4259400D01*
X17687400Y-4473400D02*
X17687400Y-4553400D01*
X17647400Y-4513400D02*
X17727400Y-4513400D01*
X17687400Y-4724400D02*
X17687400Y-4804400D01*
X17647400Y-4764400D02*
X17727400Y-4764400D01*
X17687400Y-4978400D02*
X17687400Y-5058400D01*
X17647400Y-5018400D02*
X17727400Y-5018400D01*
X8216356Y-3616756D02*
X8216356Y-3546044D01*
X8145644Y-3546044D01*
X8145644Y-3616756D01*
X8216356Y-3616756D01*
X8231000Y-3656400D02*
X8231000Y-3506400D01*
X8131000Y-3506400D02*
G75*
G02*
X8231000Y-3506400I50000J0D01*
G01*
X8131000Y-3506400D02*
X8131000Y-3656400D01*
X8131000Y-3656400D02*
G75*
G03*
X8231000Y-3656400I50000J0D01*
G01*
X8216356Y-4716756D02*
X8216356Y-4646044D01*
X8145644Y-4646044D01*
X8145644Y-4716756D01*
X8216356Y-4716756D01*
X8231000Y-4756400D02*
X8231000Y-4606400D01*
X8131000Y-4606400D02*
G75*
G02*
X8231000Y-4606400I50000J0D01*
G01*
X8131000Y-4606400D02*
X8131000Y-4756400D01*
X8131000Y-4756400D02*
G75*
G03*
X8231000Y-4756400I50000J0D01*
G01*
X8216356Y-5816756D02*
X8216356Y-5746044D01*
X8145644Y-5746044D01*
X8145644Y-5816756D01*
X8216356Y-5816756D01*
X8231000Y-5856400D02*
X8231000Y-5706400D01*
X8131000Y-5706400D02*
G75*
G02*
X8231000Y-5706400I50000J0D01*
G01*
X8131000Y-5706400D02*
X8131000Y-5856400D01*
X8131000Y-5856400D02*
G75*
G03*
X8231000Y-5856400I50000J0D01*
G01*
X8216356Y-6916756D02*
X8216356Y-6846044D01*
X8145644Y-6846044D01*
X8145644Y-6916756D01*
X8216356Y-6916756D01*
X8231000Y-6956400D02*
X8231000Y-6806400D01*
X8131000Y-6806400D02*
G75*
G02*
X8231000Y-6806400I50000J0D01*
G01*
X8131000Y-6806400D02*
X8131000Y-6956400D01*
X8131000Y-6956400D02*
G75*
G03*
X8231000Y-6956400I50000J0D01*
G01*
X8620556Y-2473756D02*
X8620556Y-2403044D01*
X8549844Y-2403044D01*
X8549844Y-2473756D01*
X8620556Y-2473756D01*
X8620556Y-2727756D02*
X8620556Y-2657044D01*
X8549844Y-2657044D01*
X8549844Y-2727756D01*
X8620556Y-2727756D01*
X8716356Y-3616756D02*
X8716356Y-3546044D01*
X8645644Y-3546044D01*
X8645644Y-3616756D01*
X8716356Y-3616756D01*
X8731000Y-3656400D02*
X8731000Y-3506400D01*
X8631000Y-3506400D02*
G75*
G02*
X8731000Y-3506400I50000J0D01*
G01*
X8631000Y-3506400D02*
X8631000Y-3656400D01*
X8631000Y-3656400D02*
G75*
G03*
X8731000Y-3656400I50000J0D01*
G01*
X8716356Y-4716756D02*
X8716356Y-4646044D01*
X8645644Y-4646044D01*
X8645644Y-4716756D01*
X8716356Y-4716756D01*
X8731000Y-4756400D02*
X8731000Y-4606400D01*
X8631000Y-4606400D02*
G75*
G02*
X8731000Y-4606400I50000J0D01*
G01*
X8631000Y-4606400D02*
X8631000Y-4756400D01*
X8631000Y-4756400D02*
G75*
G03*
X8731000Y-4756400I50000J0D01*
G01*
X8716356Y-5816756D02*
X8716356Y-5746044D01*
X8645644Y-5746044D01*
X8645644Y-5816756D01*
X8716356Y-5816756D01*
X8731000Y-5856400D02*
X8731000Y-5706400D01*
X8631000Y-5706400D02*
G75*
G02*
X8731000Y-5706400I50000J0D01*
G01*
X8631000Y-5706400D02*
X8631000Y-5856400D01*
X8631000Y-5856400D02*
G75*
G03*
X8731000Y-5856400I50000J0D01*
G01*
X8716356Y-6916756D02*
X8716356Y-6846044D01*
X8645644Y-6846044D01*
X8645644Y-6916756D01*
X8716356Y-6916756D01*
X8731000Y-6956400D02*
X8731000Y-6806400D01*
X8631000Y-6806400D02*
G75*
G02*
X8731000Y-6806400I50000J0D01*
G01*
X8631000Y-6806400D02*
X8631000Y-6956400D01*
X8631000Y-6956400D02*
G75*
G03*
X8731000Y-6956400I50000J0D01*
G01*
X8874556Y-2473756D02*
X8874556Y-2403044D01*
X8803844Y-2403044D01*
X8803844Y-2473756D01*
X8874556Y-2473756D01*
X8874556Y-2727756D02*
X8874556Y-2657044D01*
X8803844Y-2657044D01*
X8803844Y-2727756D01*
X8874556Y-2727756D01*
X9128556Y-2473756D02*
X9128556Y-2403044D01*
X9057844Y-2403044D01*
X9057844Y-2473756D01*
X9128556Y-2473756D01*
X9128556Y-2727756D02*
X9128556Y-2657044D01*
X9057844Y-2657044D01*
X9057844Y-2727756D01*
X9128556Y-2727756D01*
X9136356Y-3616756D02*
X9136356Y-3546044D01*
X9065644Y-3546044D01*
X9065644Y-3616756D01*
X9136356Y-3616756D01*
X9151000Y-3656400D02*
X9151000Y-3506400D01*
X9051000Y-3506400D02*
G75*
G02*
X9151000Y-3506400I50000J0D01*
G01*
X9051000Y-3506400D02*
X9051000Y-3656400D01*
X9051000Y-3656400D02*
G75*
G03*
X9151000Y-3656400I50000J0D01*
G01*
X9136356Y-4716756D02*
X9136356Y-4646044D01*
X9065644Y-4646044D01*
X9065644Y-4716756D01*
X9136356Y-4716756D01*
X9151000Y-4756400D02*
X9151000Y-4606400D01*
X9051000Y-4606400D02*
G75*
G02*
X9151000Y-4606400I50000J0D01*
G01*
X9051000Y-4606400D02*
X9051000Y-4756400D01*
X9051000Y-4756400D02*
G75*
G03*
X9151000Y-4756400I50000J0D01*
G01*
X9136356Y-5816756D02*
X9136356Y-5746044D01*
X9065644Y-5746044D01*
X9065644Y-5816756D01*
X9136356Y-5816756D01*
X9151000Y-5856400D02*
X9151000Y-5706400D01*
X9051000Y-5706400D02*
G75*
G02*
X9151000Y-5706400I50000J0D01*
G01*
X9051000Y-5706400D02*
X9051000Y-5856400D01*
X9051000Y-5856400D02*
G75*
G03*
X9151000Y-5856400I50000J0D01*
G01*
X9136356Y-6916756D02*
X9136356Y-6846044D01*
X9065644Y-6846044D01*
X9065644Y-6916756D01*
X9136356Y-6916756D01*
X9151000Y-6956400D02*
X9151000Y-6806400D01*
X9051000Y-6806400D02*
G75*
G02*
X9151000Y-6806400I50000J0D01*
G01*
X9051000Y-6806400D02*
X9051000Y-6956400D01*
X9051000Y-6956400D02*
G75*
G03*
X9151000Y-6956400I50000J0D01*
G01*
X9382556Y-2473756D02*
X9382556Y-2403044D01*
X9311844Y-2403044D01*
X9311844Y-2473756D01*
X9382556Y-2473756D01*
X9382556Y-2727756D02*
X9382556Y-2657044D01*
X9311844Y-2657044D01*
X9311844Y-2727756D01*
X9382556Y-2727756D01*
X9636556Y-2473756D02*
X9636556Y-2403044D01*
X9565844Y-2403044D01*
X9565844Y-2473756D01*
X9636556Y-2473756D01*
X9636556Y-2727756D02*
X9636556Y-2657044D01*
X9565844Y-2657044D01*
X9565844Y-2727756D01*
X9636556Y-2727756D01*
X9685356Y-7435356D02*
X9685356Y-7364644D01*
X9614644Y-7364644D01*
X9614644Y-7435356D01*
X9685356Y-7435356D01*
X9890556Y-2473756D02*
X9890556Y-2403044D01*
X9819844Y-2403044D01*
X9819844Y-2473756D01*
X9890556Y-2473756D01*
X9890556Y-2727756D02*
X9890556Y-2657044D01*
X9819844Y-2657044D01*
X9819844Y-2727756D01*
X9890556Y-2727756D01*
X9935356Y-7435356D02*
X9935356Y-7364644D01*
X9864644Y-7364644D01*
X9864644Y-7435356D01*
X9935356Y-7435356D01*
X10144556Y-2473756D02*
X10144556Y-2403044D01*
X10073844Y-2403044D01*
X10073844Y-2473756D01*
X10144556Y-2473756D01*
X10144556Y-2727756D02*
X10144556Y-2657044D01*
X10073844Y-2657044D01*
X10073844Y-2727756D01*
X10144556Y-2727756D01*
X10185356Y-7435356D02*
X10185356Y-7364644D01*
X10114644Y-7364644D01*
X10114644Y-7435356D01*
X10185356Y-7435356D01*
X10398556Y-2473756D02*
X10398556Y-2403044D01*
X10327844Y-2403044D01*
X10327844Y-2473756D01*
X10398556Y-2473756D01*
X10398556Y-2727756D02*
X10398556Y-2657044D01*
X10327844Y-2657044D01*
X10327844Y-2727756D01*
X10398556Y-2727756D01*
X10735356Y-8835356D02*
X10735356Y-8764644D01*
X10664644Y-8764644D01*
X10664644Y-8835356D01*
X10735356Y-8835356D01*
X10985356Y-8835356D02*
X10985356Y-8764644D01*
X10914644Y-8764644D01*
X10914644Y-8835356D01*
X10985356Y-8835356D01*
X11235356Y-8835356D02*
X11235356Y-8764644D01*
X11164644Y-8764644D01*
X11164644Y-8835356D01*
X11235356Y-8835356D01*
X11785356Y-7435356D02*
X11785356Y-7364644D01*
X11714644Y-7364644D01*
X11714644Y-7435356D01*
X11785356Y-7435356D01*
X12035356Y-7435356D02*
X12035356Y-7364644D01*
X11964644Y-7364644D01*
X11964644Y-7435356D01*
X12035356Y-7435356D01*
X12125756Y-2445156D02*
X12125756Y-2374444D01*
X12055044Y-2374444D01*
X12055044Y-2445156D01*
X12125756Y-2445156D01*
X12125756Y-2699156D02*
X12125756Y-2628444D01*
X12055044Y-2628444D01*
X12055044Y-2699156D01*
X12125756Y-2699156D01*
X12125756Y-2953156D02*
X12125756Y-2882444D01*
X12055044Y-2882444D01*
X12055044Y-2953156D01*
X12125756Y-2953156D01*
X12125756Y-3207156D02*
X12125756Y-3136444D01*
X12055044Y-3136444D01*
X12055044Y-3207156D01*
X12125756Y-3207156D01*
X12125756Y-3461156D02*
X12125756Y-3390444D01*
X12055044Y-3390444D01*
X12055044Y-3461156D01*
X12125756Y-3461156D01*
X12125756Y-3715156D02*
X12125756Y-3644444D01*
X12055044Y-3644444D01*
X12055044Y-3715156D01*
X12125756Y-3715156D01*
X12125756Y-3969156D02*
X12125756Y-3898444D01*
X12055044Y-3898444D01*
X12055044Y-3969156D01*
X12125756Y-3969156D01*
X12125756Y-4223156D02*
X12125756Y-4152444D01*
X12055044Y-4152444D01*
X12055044Y-4223156D01*
X12125756Y-4223156D01*
X12125756Y-4477156D02*
X12125756Y-4406444D01*
X12055044Y-4406444D01*
X12055044Y-4477156D01*
X12125756Y-4477156D01*
X12125756Y-4731156D02*
X12125756Y-4660444D01*
X12055044Y-4660444D01*
X12055044Y-4731156D01*
X12125756Y-4731156D01*
X12125756Y-4985156D02*
X12125756Y-4914444D01*
X12055044Y-4914444D01*
X12055044Y-4985156D01*
X12125756Y-4985156D01*
X12125756Y-5239156D02*
X12125756Y-5168444D01*
X12055044Y-5168444D01*
X12055044Y-5239156D01*
X12125756Y-5239156D01*
X12125756Y-5493156D02*
X12125756Y-5422444D01*
X12055044Y-5422444D01*
X12055044Y-5493156D01*
X12125756Y-5493156D01*
X12125756Y-5747156D02*
X12125756Y-5676444D01*
X12055044Y-5676444D01*
X12055044Y-5747156D01*
X12125756Y-5747156D01*
X12285356Y-7435356D02*
X12285356Y-7364644D01*
X12214644Y-7364644D01*
X12214644Y-7435356D01*
X12285356Y-7435356D01*
X12379756Y-5747156D02*
X12379756Y-5676444D01*
X12309044Y-5676444D01*
X12309044Y-5747156D01*
X12379756Y-5747156D01*
X12633756Y-5747156D02*
X12633756Y-5676444D01*
X12563044Y-5676444D01*
X12563044Y-5747156D01*
X12633756Y-5747156D01*
X12760256Y-2956356D02*
X12760256Y-2885644D01*
X12689544Y-2885644D01*
X12689544Y-2956356D01*
X12760256Y-2956356D01*
X12760256Y-3210356D02*
X12760256Y-3139644D01*
X12689544Y-3139644D01*
X12689544Y-3210356D01*
X12760256Y-3210356D01*
X12760256Y-3464356D02*
X12760256Y-3393644D01*
X12689544Y-3393644D01*
X12689544Y-3464356D01*
X12760256Y-3464356D01*
X12760256Y-3718356D02*
X12760256Y-3647644D01*
X12689544Y-3647644D01*
X12689544Y-3718356D01*
X12760256Y-3718356D01*
X12760256Y-3972356D02*
X12760256Y-3901644D01*
X12689544Y-3901644D01*
X12689544Y-3972356D01*
X12760256Y-3972356D01*
X12760256Y-4226356D02*
X12760256Y-4155644D01*
X12689544Y-4155644D01*
X12689544Y-4226356D01*
X12760256Y-4226356D01*
X12835356Y-8835356D02*
X12835356Y-8764644D01*
X12764644Y-8764644D01*
X12764644Y-8835356D01*
X12835356Y-8835356D01*
X12887756Y-5747156D02*
X12887756Y-5676444D01*
X12817044Y-5676444D01*
X12817044Y-5747156D01*
X12887756Y-5747156D01*
X13014256Y-2956356D02*
X13014256Y-2885644D01*
X12943544Y-2885644D01*
X12943544Y-2956356D01*
X13014256Y-2956356D01*
X13014256Y-3210356D02*
X13014256Y-3139644D01*
X12943544Y-3139644D01*
X12943544Y-3210356D01*
X13014256Y-3210356D01*
X13014256Y-3464356D02*
X13014256Y-3393644D01*
X12943544Y-3393644D01*
X12943544Y-3464356D01*
X13014256Y-3464356D01*
X13014256Y-3718356D02*
X13014256Y-3647644D01*
X12943544Y-3647644D01*
X12943544Y-3718356D01*
X13014256Y-3718356D01*
X13014256Y-3972356D02*
X13014256Y-3901644D01*
X12943544Y-3901644D01*
X12943544Y-3972356D01*
X13014256Y-3972356D01*
X13014256Y-4226356D02*
X13014256Y-4155644D01*
X12943544Y-4155644D01*
X12943544Y-4226356D01*
X13014256Y-4226356D01*
X13085356Y-8835356D02*
X13085356Y-8764644D01*
X13014644Y-8764644D01*
X13014644Y-8835356D01*
X13085356Y-8835356D01*
X13141756Y-5747156D02*
X13141756Y-5676444D01*
X13071044Y-5676444D01*
X13071044Y-5747156D01*
X13141756Y-5747156D01*
X13335356Y-8835356D02*
X13335356Y-8764644D01*
X13264644Y-8764644D01*
X13264644Y-8835356D01*
X13335356Y-8835356D01*
X13395756Y-5747156D02*
X13395756Y-5676444D01*
X13325044Y-5676444D01*
X13325044Y-5747156D01*
X13395756Y-5747156D01*
X13649756Y-2445156D02*
X13649756Y-2374444D01*
X13579044Y-2374444D01*
X13579044Y-2445156D01*
X13649756Y-2445156D01*
X13649756Y-2699156D02*
X13649756Y-2628444D01*
X13579044Y-2628444D01*
X13579044Y-2699156D01*
X13649756Y-2699156D01*
X13649756Y-2953156D02*
X13649756Y-2882444D01*
X13579044Y-2882444D01*
X13579044Y-2953156D01*
X13649756Y-2953156D01*
X13649756Y-3207156D02*
X13649756Y-3136444D01*
X13579044Y-3136444D01*
X13579044Y-3207156D01*
X13649756Y-3207156D01*
X13649756Y-3461156D02*
X13649756Y-3390444D01*
X13579044Y-3390444D01*
X13579044Y-3461156D01*
X13649756Y-3461156D01*
X13649756Y-3715156D02*
X13649756Y-3644444D01*
X13579044Y-3644444D01*
X13579044Y-3715156D01*
X13649756Y-3715156D01*
X13649756Y-3969156D02*
X13649756Y-3898444D01*
X13579044Y-3898444D01*
X13579044Y-3969156D01*
X13649756Y-3969156D01*
X13649756Y-4223156D02*
X13649756Y-4152444D01*
X13579044Y-4152444D01*
X13579044Y-4223156D01*
X13649756Y-4223156D01*
X13649756Y-4477156D02*
X13649756Y-4406444D01*
X13579044Y-4406444D01*
X13579044Y-4477156D01*
X13649756Y-4477156D01*
X13649756Y-4731156D02*
X13649756Y-4660444D01*
X13579044Y-4660444D01*
X13579044Y-4731156D01*
X13649756Y-4731156D01*
X13649756Y-4985156D02*
X13649756Y-4914444D01*
X13579044Y-4914444D01*
X13579044Y-4985156D01*
X13649756Y-4985156D01*
X13649756Y-5239156D02*
X13649756Y-5168444D01*
X13579044Y-5168444D01*
X13579044Y-5239156D01*
X13649756Y-5239156D01*
X13649756Y-5493156D02*
X13649756Y-5422444D01*
X13579044Y-5422444D01*
X13579044Y-5493156D01*
X13649756Y-5493156D01*
X13649756Y-5747156D02*
X13649756Y-5676444D01*
X13579044Y-5676444D01*
X13579044Y-5747156D01*
X13649756Y-5747156D01*
X13885356Y-7435356D02*
X13885356Y-7364644D01*
X13814644Y-7364644D01*
X13814644Y-7435356D01*
X13885356Y-7435356D01*
X14135356Y-7435356D02*
X14135356Y-7364644D01*
X14064644Y-7364644D01*
X14064644Y-7435356D01*
X14135356Y-7435356D01*
X14385356Y-7435356D02*
X14385356Y-7364644D01*
X14314644Y-7364644D01*
X14314644Y-7435356D01*
X14385356Y-7435356D01*
X14792756Y-2295156D02*
X14792756Y-2224444D01*
X14722044Y-2224444D01*
X14722044Y-2295156D01*
X14792756Y-2295156D01*
X14935356Y-8835356D02*
X14935356Y-8764644D01*
X14864644Y-8764644D01*
X14864644Y-8835356D01*
X14935356Y-8835356D01*
X15046756Y-2295156D02*
X15046756Y-2224444D01*
X14976044Y-2224444D01*
X14976044Y-2295156D01*
X15046756Y-2295156D01*
X15185356Y-8835356D02*
X15185356Y-8764644D01*
X15114644Y-8764644D01*
X15114644Y-8835356D01*
X15185356Y-8835356D01*
X15300756Y-2295156D02*
X15300756Y-2224444D01*
X15230044Y-2224444D01*
X15230044Y-2295156D01*
X15300756Y-2295156D01*
X15435356Y-8835356D02*
X15435356Y-8764644D01*
X15364644Y-8764644D01*
X15364644Y-8835356D01*
X15435356Y-8835356D01*
X15554756Y-2295156D02*
X15554756Y-2224444D01*
X15484044Y-2224444D01*
X15484044Y-2295156D01*
X15554756Y-2295156D01*
X15985356Y-7435356D02*
X15985356Y-7364644D01*
X15914644Y-7364644D01*
X15914644Y-7435356D01*
X15985356Y-7435356D01*
X16235356Y-7435356D02*
X16235356Y-7364644D01*
X16164644Y-7364644D01*
X16164644Y-7435356D01*
X16235356Y-7435356D01*
X16485356Y-7435356D02*
X16485356Y-7364644D01*
X16414644Y-7364644D01*
X16414644Y-7435356D01*
X16485356Y-7435356D01*
X16955756Y-2574256D02*
X16955756Y-2503544D01*
X16885044Y-2503544D01*
X16885044Y-2574256D01*
X16955756Y-2574256D01*
X16955756Y-4024256D02*
X16955756Y-3953544D01*
X16885044Y-3953544D01*
X16885044Y-4024256D01*
X16955756Y-4024256D01*
X17035356Y-8835356D02*
X17035356Y-8764644D01*
X16964644Y-8764644D01*
X16964644Y-8835356D01*
X17035356Y-8835356D01*
X17205756Y-4024256D02*
X17205756Y-3953544D01*
X17135044Y-3953544D01*
X17135044Y-4024256D01*
X17205756Y-4024256D01*
X17285356Y-8835356D02*
X17285356Y-8764644D01*
X17214644Y-8764644D01*
X17214644Y-8835356D01*
X17285356Y-8835356D01*
X17455756Y-2574256D02*
X17455756Y-2503544D01*
X17385044Y-2503544D01*
X17385044Y-2574256D01*
X17455756Y-2574256D01*
X17455756Y-4024256D02*
X17455756Y-3953544D01*
X17385044Y-3953544D01*
X17385044Y-4024256D01*
X17455756Y-4024256D01*
X17535356Y-8835356D02*
X17535356Y-8764644D01*
X17464644Y-8764644D01*
X17464644Y-8835356D01*
X17535356Y-8835356D01*
D13*
X8300000Y-9155000D02*
X8355000Y-9100000D01*
X8300000Y-9045000D01*
X8245000Y-9100000D01*
X8300000Y-9155000D01*
X8300000Y-9805000D02*
X8355000Y-9750000D01*
X8300000Y-9695000D01*
X8245000Y-9750000D01*
X8300000Y-9805000D01*
X8300000Y-11155000D02*
X8355000Y-11100000D01*
X8300000Y-11045000D01*
X8245000Y-11100000D01*
X8300000Y-11155000D01*
X8300000Y-11805000D02*
X8355000Y-11750000D01*
X8300000Y-11695000D01*
X8245000Y-11750000D01*
X8300000Y-11805000D01*
X8750000Y-9155000D02*
X8805000Y-9100000D01*
X8750000Y-9045000D01*
X8695000Y-9100000D01*
X8750000Y-9155000D01*
X8750000Y-9805000D02*
X8805000Y-9750000D01*
X8750000Y-9695000D01*
X8695000Y-9750000D01*
X8750000Y-9805000D01*
X8750000Y-11155000D02*
X8805000Y-11100000D01*
X8750000Y-11045000D01*
X8695000Y-11100000D01*
X8750000Y-11155000D01*
X8750000Y-11805000D02*
X8805000Y-11750000D01*
X8750000Y-11695000D01*
X8695000Y-11750000D01*
X8750000Y-11805000D01*
X9423400Y-3306200D02*
X9478400Y-3251200D01*
X9423400Y-3196200D01*
X9368400Y-3251200D01*
X9423400Y-3306200D01*
X9675000Y-11180000D02*
X9730000Y-11125000D01*
X9675000Y-11070000D01*
X9620000Y-11125000D01*
X9675000Y-11180000D01*
X9675000Y-11830000D02*
X9730000Y-11775000D01*
X9675000Y-11720000D01*
X9620000Y-11775000D01*
X9675000Y-11830000D01*
X9906000Y-3661800D02*
X9961000Y-3606800D01*
X9906000Y-3551800D01*
X9851000Y-3606800D01*
X9906000Y-3661800D01*
X10125000Y-11180000D02*
X10180000Y-11125000D01*
X10125000Y-11070000D01*
X10070000Y-11125000D01*
X10125000Y-11180000D01*
X10125000Y-11830000D02*
X10180000Y-11775000D01*
X10125000Y-11720000D01*
X10070000Y-11775000D01*
X10125000Y-11830000D01*
X10160000Y-3661800D02*
X10215000Y-3606800D01*
X10160000Y-3551800D01*
X10105000Y-3606800D01*
X10160000Y-3661800D01*
X10439400Y-3306200D02*
X10494400Y-3251200D01*
X10439400Y-3196200D01*
X10384400Y-3251200D01*
X10439400Y-3306200D01*
X10725000Y-11180000D02*
X10780000Y-11125000D01*
X10725000Y-11070000D01*
X10670000Y-11125000D01*
X10725000Y-11180000D01*
X10725000Y-11830000D02*
X10780000Y-11775000D01*
X10725000Y-11720000D01*
X10670000Y-11775000D01*
X10725000Y-11830000D01*
X11175000Y-11180000D02*
X11230000Y-11125000D01*
X11175000Y-11070000D01*
X11120000Y-11125000D01*
X11175000Y-11180000D01*
X11175000Y-11830000D02*
X11230000Y-11775000D01*
X11175000Y-11720000D01*
X11120000Y-11775000D01*
X11175000Y-11830000D01*
X11775000Y-11180000D02*
X11830000Y-11125000D01*
X11775000Y-11070000D01*
X11720000Y-11125000D01*
X11775000Y-11180000D01*
X11775000Y-11830000D02*
X11830000Y-11775000D01*
X11775000Y-11720000D01*
X11720000Y-11775000D01*
X11775000Y-11830000D01*
X12225000Y-11180000D02*
X12280000Y-11125000D01*
X12225000Y-11070000D01*
X12170000Y-11125000D01*
X12225000Y-11180000D01*
X12225000Y-11830000D02*
X12280000Y-11775000D01*
X12225000Y-11720000D01*
X12170000Y-11775000D01*
X12225000Y-11830000D01*
X12825000Y-11180000D02*
X12880000Y-11125000D01*
X12825000Y-11070000D01*
X12770000Y-11125000D01*
X12825000Y-11180000D01*
X12825000Y-11830000D02*
X12880000Y-11775000D01*
X12825000Y-11720000D01*
X12770000Y-11775000D01*
X12825000Y-11830000D01*
X13275000Y-11180000D02*
X13330000Y-11125000D01*
X13275000Y-11070000D01*
X13220000Y-11125000D01*
X13275000Y-11180000D01*
X13275000Y-11830000D02*
X13330000Y-11775000D01*
X13275000Y-11720000D01*
X13220000Y-11775000D01*
X13275000Y-11830000D01*
X13875000Y-11180000D02*
X13930000Y-11125000D01*
X13875000Y-11070000D01*
X13820000Y-11125000D01*
X13875000Y-11180000D01*
X13875000Y-11830000D02*
X13930000Y-11775000D01*
X13875000Y-11720000D01*
X13820000Y-11775000D01*
X13875000Y-11830000D01*
X14325000Y-11180000D02*
X14380000Y-11125000D01*
X14325000Y-11070000D01*
X14270000Y-11125000D01*
X14325000Y-11180000D01*
X14325000Y-11830000D02*
X14380000Y-11775000D01*
X14325000Y-11720000D01*
X14270000Y-11775000D01*
X14325000Y-11830000D01*
X14925000Y-11180000D02*
X14980000Y-11125000D01*
X14925000Y-11070000D01*
X14870000Y-11125000D01*
X14925000Y-11180000D01*
X14925000Y-11830000D02*
X14980000Y-11775000D01*
X14925000Y-11720000D01*
X14870000Y-11775000D01*
X14925000Y-11830000D01*
X15375000Y-11180000D02*
X15430000Y-11125000D01*
X15375000Y-11070000D01*
X15320000Y-11125000D01*
X15375000Y-11180000D01*
X15375000Y-11830000D02*
X15430000Y-11775000D01*
X15375000Y-11720000D01*
X15320000Y-11775000D01*
X15375000Y-11830000D01*
X15975000Y-11180000D02*
X16030000Y-11125000D01*
X15975000Y-11070000D01*
X15920000Y-11125000D01*
X15975000Y-11180000D01*
X15975000Y-11830000D02*
X16030000Y-11775000D01*
X15975000Y-11720000D01*
X15920000Y-11775000D01*
X15975000Y-11830000D01*
X16425000Y-11180000D02*
X16480000Y-11125000D01*
X16425000Y-11070000D01*
X16370000Y-11125000D01*
X16425000Y-11180000D01*
X16425000Y-11830000D02*
X16480000Y-11775000D01*
X16425000Y-11720000D01*
X16370000Y-11775000D01*
X16425000Y-11830000D01*
X17025000Y-11180000D02*
X17080000Y-11125000D01*
X17025000Y-11070000D01*
X16970000Y-11125000D01*
X17025000Y-11180000D01*
X17025000Y-11830000D02*
X17080000Y-11775000D01*
X17025000Y-11720000D01*
X16970000Y-11775000D01*
X17025000Y-11830000D01*
X17475000Y-11180000D02*
X17530000Y-11125000D01*
X17475000Y-11070000D01*
X17420000Y-11125000D01*
X17475000Y-11180000D01*
X17475000Y-11830000D02*
X17530000Y-11775000D01*
X17475000Y-11720000D01*
X17420000Y-11775000D01*
X17475000Y-11830000D01*
D11*
X8258277Y-12313984D02*
X8258277Y-12113984D01*
X8258277Y-12113984D02*
X8305896Y-12113984D01*
X8305896Y-12113984D02*
X8334467Y-12123508D01*
X8334467Y-12123508D02*
X8353515Y-12142555D01*
X8353515Y-12142555D02*
X8363039Y-12161603D01*
X8363039Y-12161603D02*
X8372562Y-12199698D01*
X8372562Y-12199698D02*
X8372562Y-12228269D01*
X8372562Y-12228269D02*
X8363039Y-12266365D01*
X8363039Y-12266365D02*
X8353515Y-12285412D01*
X8353515Y-12285412D02*
X8334467Y-12304460D01*
X8334467Y-12304460D02*
X8305896Y-12313984D01*
X8305896Y-12313984D02*
X8258277Y-12313984D01*
X8458277Y-12313984D02*
X8458277Y-12180650D01*
X8458277Y-12218746D02*
X8467801Y-12199698D01*
X8467801Y-12199698D02*
X8477324Y-12190174D01*
X8477324Y-12190174D02*
X8496372Y-12180650D01*
X8496372Y-12180650D02*
X8515420Y-12180650D01*
X8582086Y-12313984D02*
X8582086Y-12180650D01*
X8582086Y-12113984D02*
X8572563Y-12123508D01*
X8572563Y-12123508D02*
X8582086Y-12133031D01*
X8582086Y-12133031D02*
X8591610Y-12123508D01*
X8591610Y-12123508D02*
X8582086Y-12113984D01*
X8582086Y-12113984D02*
X8582086Y-12133031D01*
X8705896Y-12313984D02*
X8686848Y-12304460D01*
X8686848Y-12304460D02*
X8677324Y-12285412D01*
X8677324Y-12285412D02*
X8677324Y-12113984D01*
X8810658Y-12313984D02*
X8791610Y-12304460D01*
X8791610Y-12304460D02*
X8782086Y-12285412D01*
X8782086Y-12285412D02*
X8782086Y-12113984D01*
X9039229Y-12313984D02*
X9039229Y-12113984D01*
X9039229Y-12113984D02*
X9105896Y-12256841D01*
X9105896Y-12256841D02*
X9172563Y-12113984D01*
X9172563Y-12113984D02*
X9172563Y-12313984D01*
X9353515Y-12313984D02*
X9353515Y-12209222D01*
X9353515Y-12209222D02*
X9343991Y-12190174D01*
X9343991Y-12190174D02*
X9324944Y-12180650D01*
X9324944Y-12180650D02*
X9286848Y-12180650D01*
X9286848Y-12180650D02*
X9267801Y-12190174D01*
X9353515Y-12304460D02*
X9334467Y-12313984D01*
X9334467Y-12313984D02*
X9286848Y-12313984D01*
X9286848Y-12313984D02*
X9267801Y-12304460D01*
X9267801Y-12304460D02*
X9258277Y-12285412D01*
X9258277Y-12285412D02*
X9258277Y-12266365D01*
X9258277Y-12266365D02*
X9267801Y-12247317D01*
X9267801Y-12247317D02*
X9286848Y-12237793D01*
X9286848Y-12237793D02*
X9334467Y-12237793D01*
X9334467Y-12237793D02*
X9353515Y-12228269D01*
X9448753Y-12180650D02*
X9448753Y-12380650D01*
X9448753Y-12190174D02*
X9467801Y-12180650D01*
X9467801Y-12180650D02*
X9505896Y-12180650D01*
X9505896Y-12180650D02*
X9524944Y-12190174D01*
X9524944Y-12190174D02*
X9534467Y-12199698D01*
X9534467Y-12199698D02*
X9543991Y-12218746D01*
X9543991Y-12218746D02*
X9543991Y-12275888D01*
X9543991Y-12275888D02*
X9534467Y-12294936D01*
X9534467Y-12294936D02*
X9524944Y-12304460D01*
X9524944Y-12304460D02*
X9505896Y-12313984D01*
X9505896Y-12313984D02*
X9467801Y-12313984D01*
X9467801Y-12313984D02*
X9448753Y-12304460D01*
X9629705Y-12294936D02*
X9639229Y-12304460D01*
X9639229Y-12304460D02*
X9629705Y-12313984D01*
X9629705Y-12313984D02*
X9620182Y-12304460D01*
X9620182Y-12304460D02*
X9629705Y-12294936D01*
X9629705Y-12294936D02*
X9629705Y-12313984D01*
X9629705Y-12190174D02*
X9639229Y-12199698D01*
X9639229Y-12199698D02*
X9629705Y-12209222D01*
X9629705Y-12209222D02*
X9620182Y-12199698D01*
X9620182Y-12199698D02*
X9629705Y-12190174D01*
X9629705Y-12190174D02*
X9629705Y-12209222D01*
D12*
X7967500Y-12627500D02*
X7997500Y-12657500D01*
X7997500Y-12627500D02*
X7967500Y-12657500D01*
D11*
X8296372Y-12533984D02*
X8315420Y-12533984D01*
X8315420Y-12533984D02*
X8334467Y-12543508D01*
X8334467Y-12543508D02*
X8343991Y-12553031D01*
X8343991Y-12553031D02*
X8353515Y-12572079D01*
X8353515Y-12572079D02*
X8363039Y-12610174D01*
X8363039Y-12610174D02*
X8363039Y-12657793D01*
X8363039Y-12657793D02*
X8353515Y-12695888D01*
X8353515Y-12695888D02*
X8343991Y-12714936D01*
X8343991Y-12714936D02*
X8334467Y-12724460D01*
X8334467Y-12724460D02*
X8315420Y-12733984D01*
X8315420Y-12733984D02*
X8296372Y-12733984D01*
X8296372Y-12733984D02*
X8277324Y-12724460D01*
X8277324Y-12724460D02*
X8267801Y-12714936D01*
X8267801Y-12714936D02*
X8258277Y-12695888D01*
X8258277Y-12695888D02*
X8248753Y-12657793D01*
X8248753Y-12657793D02*
X8248753Y-12610174D01*
X8248753Y-12610174D02*
X8258277Y-12572079D01*
X8258277Y-12572079D02*
X8267801Y-12553031D01*
X8267801Y-12553031D02*
X8277324Y-12543508D01*
X8277324Y-12543508D02*
X8296372Y-12533984D01*
X8448753Y-12714936D02*
X8458277Y-12724460D01*
X8458277Y-12724460D02*
X8448753Y-12733984D01*
X8448753Y-12733984D02*
X8439229Y-12724460D01*
X8439229Y-12724460D02*
X8448753Y-12714936D01*
X8448753Y-12714936D02*
X8448753Y-12733984D01*
X8524944Y-12533984D02*
X8648753Y-12533984D01*
X8648753Y-12533984D02*
X8582086Y-12610174D01*
X8582086Y-12610174D02*
X8610658Y-12610174D01*
X8610658Y-12610174D02*
X8629705Y-12619698D01*
X8629705Y-12619698D02*
X8639229Y-12629222D01*
X8639229Y-12629222D02*
X8648753Y-12648269D01*
X8648753Y-12648269D02*
X8648753Y-12695888D01*
X8648753Y-12695888D02*
X8639229Y-12714936D01*
X8639229Y-12714936D02*
X8629705Y-12724460D01*
X8629705Y-12724460D02*
X8610658Y-12733984D01*
X8610658Y-12733984D02*
X8553515Y-12733984D01*
X8553515Y-12733984D02*
X8534467Y-12724460D01*
X8534467Y-12724460D02*
X8524944Y-12714936D01*
X8772563Y-12533984D02*
X8791610Y-12533984D01*
X8791610Y-12533984D02*
X8810658Y-12543508D01*
X8810658Y-12543508D02*
X8820182Y-12553031D01*
X8820182Y-12553031D02*
X8829705Y-12572079D01*
X8829705Y-12572079D02*
X8839229Y-12610174D01*
X8839229Y-12610174D02*
X8839229Y-12657793D01*
X8839229Y-12657793D02*
X8829705Y-12695888D01*
X8829705Y-12695888D02*
X8820182Y-12714936D01*
X8820182Y-12714936D02*
X8810658Y-12724460D01*
X8810658Y-12724460D02*
X8791610Y-12733984D01*
X8791610Y-12733984D02*
X8772563Y-12733984D01*
X8772563Y-12733984D02*
X8753515Y-12724460D01*
X8753515Y-12724460D02*
X8743991Y-12714936D01*
X8743991Y-12714936D02*
X8734467Y-12695888D01*
X8734467Y-12695888D02*
X8724944Y-12657793D01*
X8724944Y-12657793D02*
X8724944Y-12610174D01*
X8724944Y-12610174D02*
X8734467Y-12572079D01*
X8734467Y-12572079D02*
X8743991Y-12553031D01*
X8743991Y-12553031D02*
X8753515Y-12543508D01*
X8753515Y-12543508D02*
X8772563Y-12533984D01*
X8963039Y-12533984D02*
X8982086Y-12533984D01*
X8982086Y-12533984D02*
X9001134Y-12543508D01*
X9001134Y-12543508D02*
X9010658Y-12553031D01*
X9010658Y-12553031D02*
X9020182Y-12572079D01*
X9020182Y-12572079D02*
X9029705Y-12610174D01*
X9029705Y-12610174D02*
X9029705Y-12657793D01*
X9029705Y-12657793D02*
X9020182Y-12695888D01*
X9020182Y-12695888D02*
X9010658Y-12714936D01*
X9010658Y-12714936D02*
X9001134Y-12724460D01*
X9001134Y-12724460D02*
X8982086Y-12733984D01*
X8982086Y-12733984D02*
X8963039Y-12733984D01*
X8963039Y-12733984D02*
X8943991Y-12724460D01*
X8943991Y-12724460D02*
X8934467Y-12714936D01*
X8934467Y-12714936D02*
X8924944Y-12695888D01*
X8924944Y-12695888D02*
X8915420Y-12657793D01*
X8915420Y-12657793D02*
X8915420Y-12610174D01*
X8915420Y-12610174D02*
X8924944Y-12572079D01*
X8924944Y-12572079D02*
X8934467Y-12553031D01*
X8934467Y-12553031D02*
X8943991Y-12543508D01*
X8943991Y-12543508D02*
X8963039Y-12533984D01*
X9115420Y-12733984D02*
X9115420Y-12600650D01*
X9115420Y-12619698D02*
X9124944Y-12610174D01*
X9124944Y-12610174D02*
X9143991Y-12600650D01*
X9143991Y-12600650D02*
X9172563Y-12600650D01*
X9172563Y-12600650D02*
X9191610Y-12610174D01*
X9191610Y-12610174D02*
X9201134Y-12629222D01*
X9201134Y-12629222D02*
X9201134Y-12733984D01*
X9201134Y-12629222D02*
X9210658Y-12610174D01*
X9210658Y-12610174D02*
X9229705Y-12600650D01*
X9229705Y-12600650D02*
X9258277Y-12600650D01*
X9258277Y-12600650D02*
X9277325Y-12610174D01*
X9277325Y-12610174D02*
X9286848Y-12629222D01*
X9286848Y-12629222D02*
X9286848Y-12733984D01*
X9382086Y-12733984D02*
X9382086Y-12600650D01*
X9382086Y-12619698D02*
X9391610Y-12610174D01*
X9391610Y-12610174D02*
X9410658Y-12600650D01*
X9410658Y-12600650D02*
X9439229Y-12600650D01*
X9439229Y-12600650D02*
X9458277Y-12610174D01*
X9458277Y-12610174D02*
X9467801Y-12629222D01*
X9467801Y-12629222D02*
X9467801Y-12733984D01*
X9467801Y-12629222D02*
X9477325Y-12610174D01*
X9477325Y-12610174D02*
X9496372Y-12600650D01*
X9496372Y-12600650D02*
X9524944Y-12600650D01*
X9524944Y-12600650D02*
X9543991Y-12610174D01*
X9543991Y-12610174D02*
X9553515Y-12629222D01*
X9553515Y-12629222D02*
X9553515Y-12733984D01*
X9943991Y-12524460D02*
X9772563Y-12781603D01*
X10201134Y-12533984D02*
X10220182Y-12533984D01*
X10220182Y-12533984D02*
X10239229Y-12543508D01*
X10239229Y-12543508D02*
X10248753Y-12553031D01*
X10248753Y-12553031D02*
X10258277Y-12572079D01*
X10258277Y-12572079D02*
X10267801Y-12610174D01*
X10267801Y-12610174D02*
X10267801Y-12657793D01*
X10267801Y-12657793D02*
X10258277Y-12695888D01*
X10258277Y-12695888D02*
X10248753Y-12714936D01*
X10248753Y-12714936D02*
X10239229Y-12724460D01*
X10239229Y-12724460D02*
X10220182Y-12733984D01*
X10220182Y-12733984D02*
X10201134Y-12733984D01*
X10201134Y-12733984D02*
X10182087Y-12724460D01*
X10182087Y-12724460D02*
X10172563Y-12714936D01*
X10172563Y-12714936D02*
X10163039Y-12695888D01*
X10163039Y-12695888D02*
X10153515Y-12657793D01*
X10153515Y-12657793D02*
X10153515Y-12610174D01*
X10153515Y-12610174D02*
X10163039Y-12572079D01*
X10163039Y-12572079D02*
X10172563Y-12553031D01*
X10172563Y-12553031D02*
X10182087Y-12543508D01*
X10182087Y-12543508D02*
X10201134Y-12533984D01*
X10353515Y-12714936D02*
X10363039Y-12724460D01*
X10363039Y-12724460D02*
X10353515Y-12733984D01*
X10353515Y-12733984D02*
X10343991Y-12724460D01*
X10343991Y-12724460D02*
X10353515Y-12714936D01*
X10353515Y-12714936D02*
X10353515Y-12733984D01*
X10486848Y-12533984D02*
X10505896Y-12533984D01*
X10505896Y-12533984D02*
X10524944Y-12543508D01*
X10524944Y-12543508D02*
X10534468Y-12553031D01*
X10534468Y-12553031D02*
X10543991Y-12572079D01*
X10543991Y-12572079D02*
X10553515Y-12610174D01*
X10553515Y-12610174D02*
X10553515Y-12657793D01*
X10553515Y-12657793D02*
X10543991Y-12695888D01*
X10543991Y-12695888D02*
X10534468Y-12714936D01*
X10534468Y-12714936D02*
X10524944Y-12724460D01*
X10524944Y-12724460D02*
X10505896Y-12733984D01*
X10505896Y-12733984D02*
X10486848Y-12733984D01*
X10486848Y-12733984D02*
X10467801Y-12724460D01*
X10467801Y-12724460D02*
X10458277Y-12714936D01*
X10458277Y-12714936D02*
X10448753Y-12695888D01*
X10448753Y-12695888D02*
X10439229Y-12657793D01*
X10439229Y-12657793D02*
X10439229Y-12610174D01*
X10439229Y-12610174D02*
X10448753Y-12572079D01*
X10448753Y-12572079D02*
X10458277Y-12553031D01*
X10458277Y-12553031D02*
X10467801Y-12543508D01*
X10467801Y-12543508D02*
X10486848Y-12533984D01*
X10743991Y-12733984D02*
X10629706Y-12733984D01*
X10686848Y-12733984D02*
X10686848Y-12533984D01*
X10686848Y-12533984D02*
X10667801Y-12562555D01*
X10667801Y-12562555D02*
X10648753Y-12581603D01*
X10648753Y-12581603D02*
X10629706Y-12591127D01*
X10934468Y-12733984D02*
X10820182Y-12733984D01*
X10877325Y-12733984D02*
X10877325Y-12533984D01*
X10877325Y-12533984D02*
X10858277Y-12562555D01*
X10858277Y-12562555D02*
X10839229Y-12581603D01*
X10839229Y-12581603D02*
X10820182Y-12591127D01*
X11048753Y-12619698D02*
X11029706Y-12610174D01*
X11029706Y-12610174D02*
X11020182Y-12600650D01*
X11020182Y-12600650D02*
X11010658Y-12581603D01*
X11010658Y-12581603D02*
X11010658Y-12572079D01*
X11010658Y-12572079D02*
X11020182Y-12553031D01*
X11020182Y-12553031D02*
X11029706Y-12543508D01*
X11029706Y-12543508D02*
X11048753Y-12533984D01*
X11048753Y-12533984D02*
X11086849Y-12533984D01*
X11086849Y-12533984D02*
X11105896Y-12543508D01*
X11105896Y-12543508D02*
X11115420Y-12553031D01*
X11115420Y-12553031D02*
X11124944Y-12572079D01*
X11124944Y-12572079D02*
X11124944Y-12581603D01*
X11124944Y-12581603D02*
X11115420Y-12600650D01*
X11115420Y-12600650D02*
X11105896Y-12610174D01*
X11105896Y-12610174D02*
X11086849Y-12619698D01*
X11086849Y-12619698D02*
X11048753Y-12619698D01*
X11048753Y-12619698D02*
X11029706Y-12629222D01*
X11029706Y-12629222D02*
X11020182Y-12638746D01*
X11020182Y-12638746D02*
X11010658Y-12657793D01*
X11010658Y-12657793D02*
X11010658Y-12695888D01*
X11010658Y-12695888D02*
X11020182Y-12714936D01*
X11020182Y-12714936D02*
X11029706Y-12724460D01*
X11029706Y-12724460D02*
X11048753Y-12733984D01*
X11048753Y-12733984D02*
X11086849Y-12733984D01*
X11086849Y-12733984D02*
X11105896Y-12724460D01*
X11105896Y-12724460D02*
X11115420Y-12714936D01*
X11115420Y-12714936D02*
X11124944Y-12695888D01*
X11124944Y-12695888D02*
X11124944Y-12657793D01*
X11124944Y-12657793D02*
X11115420Y-12638746D01*
X11115420Y-12638746D02*
X11105896Y-12629222D01*
X11105896Y-12629222D02*
X11086849Y-12619698D01*
X11201134Y-12533984D02*
X11201134Y-12572079D01*
X11277325Y-12533984D02*
X11277325Y-12572079D01*
X11572563Y-12810174D02*
X11563039Y-12800650D01*
X11563039Y-12800650D02*
X11543991Y-12772079D01*
X11543991Y-12772079D02*
X11534468Y-12753031D01*
X11534468Y-12753031D02*
X11524944Y-12724460D01*
X11524944Y-12724460D02*
X11515420Y-12676841D01*
X11515420Y-12676841D02*
X11515420Y-12638746D01*
X11515420Y-12638746D02*
X11524944Y-12591127D01*
X11524944Y-12591127D02*
X11534468Y-12562555D01*
X11534468Y-12562555D02*
X11543991Y-12543508D01*
X11543991Y-12543508D02*
X11563039Y-12514936D01*
X11563039Y-12514936D02*
X11572563Y-12505412D01*
X11629706Y-12533984D02*
X11753515Y-12533984D01*
X11753515Y-12533984D02*
X11686848Y-12610174D01*
X11686848Y-12610174D02*
X11715420Y-12610174D01*
X11715420Y-12610174D02*
X11734468Y-12619698D01*
X11734468Y-12619698D02*
X11743991Y-12629222D01*
X11743991Y-12629222D02*
X11753515Y-12648269D01*
X11753515Y-12648269D02*
X11753515Y-12695888D01*
X11753515Y-12695888D02*
X11743991Y-12714936D01*
X11743991Y-12714936D02*
X11734468Y-12724460D01*
X11734468Y-12724460D02*
X11715420Y-12733984D01*
X11715420Y-12733984D02*
X11658277Y-12733984D01*
X11658277Y-12733984D02*
X11639229Y-12724460D01*
X11639229Y-12724460D02*
X11629706Y-12714936D01*
X11924944Y-12533984D02*
X11886848Y-12533984D01*
X11886848Y-12533984D02*
X11867801Y-12543508D01*
X11867801Y-12543508D02*
X11858277Y-12553031D01*
X11858277Y-12553031D02*
X11839229Y-12581603D01*
X11839229Y-12581603D02*
X11829706Y-12619698D01*
X11829706Y-12619698D02*
X11829706Y-12695888D01*
X11829706Y-12695888D02*
X11839229Y-12714936D01*
X11839229Y-12714936D02*
X11848753Y-12724460D01*
X11848753Y-12724460D02*
X11867801Y-12733984D01*
X11867801Y-12733984D02*
X11905896Y-12733984D01*
X11905896Y-12733984D02*
X11924944Y-12724460D01*
X11924944Y-12724460D02*
X11934468Y-12714936D01*
X11934468Y-12714936D02*
X11943991Y-12695888D01*
X11943991Y-12695888D02*
X11943991Y-12648269D01*
X11943991Y-12648269D02*
X11934468Y-12629222D01*
X11934468Y-12629222D02*
X11924944Y-12619698D01*
X11924944Y-12619698D02*
X11905896Y-12610174D01*
X11905896Y-12610174D02*
X11867801Y-12610174D01*
X11867801Y-12610174D02*
X11848753Y-12619698D01*
X11848753Y-12619698D02*
X11839229Y-12629222D01*
X11839229Y-12629222D02*
X11829706Y-12648269D01*
X12182087Y-12733984D02*
X12182087Y-12533984D01*
X12267801Y-12733984D02*
X12267801Y-12629222D01*
X12267801Y-12629222D02*
X12258277Y-12610174D01*
X12258277Y-12610174D02*
X12239230Y-12600650D01*
X12239230Y-12600650D02*
X12210658Y-12600650D01*
X12210658Y-12600650D02*
X12191610Y-12610174D01*
X12191610Y-12610174D02*
X12182087Y-12619698D01*
X12391610Y-12733984D02*
X12372563Y-12724460D01*
X12372563Y-12724460D02*
X12363039Y-12714936D01*
X12363039Y-12714936D02*
X12353515Y-12695888D01*
X12353515Y-12695888D02*
X12353515Y-12638746D01*
X12353515Y-12638746D02*
X12363039Y-12619698D01*
X12363039Y-12619698D02*
X12372563Y-12610174D01*
X12372563Y-12610174D02*
X12391610Y-12600650D01*
X12391610Y-12600650D02*
X12420182Y-12600650D01*
X12420182Y-12600650D02*
X12439230Y-12610174D01*
X12439230Y-12610174D02*
X12448753Y-12619698D01*
X12448753Y-12619698D02*
X12458277Y-12638746D01*
X12458277Y-12638746D02*
X12458277Y-12695888D01*
X12458277Y-12695888D02*
X12448753Y-12714936D01*
X12448753Y-12714936D02*
X12439230Y-12724460D01*
X12439230Y-12724460D02*
X12420182Y-12733984D01*
X12420182Y-12733984D02*
X12391610Y-12733984D01*
X12572563Y-12733984D02*
X12553515Y-12724460D01*
X12553515Y-12724460D02*
X12543991Y-12705412D01*
X12543991Y-12705412D02*
X12543991Y-12533984D01*
X12724944Y-12724460D02*
X12705896Y-12733984D01*
X12705896Y-12733984D02*
X12667801Y-12733984D01*
X12667801Y-12733984D02*
X12648753Y-12724460D01*
X12648753Y-12724460D02*
X12639230Y-12705412D01*
X12639230Y-12705412D02*
X12639230Y-12629222D01*
X12639230Y-12629222D02*
X12648753Y-12610174D01*
X12648753Y-12610174D02*
X12667801Y-12600650D01*
X12667801Y-12600650D02*
X12705896Y-12600650D01*
X12705896Y-12600650D02*
X12724944Y-12610174D01*
X12724944Y-12610174D02*
X12734468Y-12629222D01*
X12734468Y-12629222D02*
X12734468Y-12648269D01*
X12734468Y-12648269D02*
X12639230Y-12667317D01*
X12810658Y-12724460D02*
X12829706Y-12733984D01*
X12829706Y-12733984D02*
X12867801Y-12733984D01*
X12867801Y-12733984D02*
X12886849Y-12724460D01*
X12886849Y-12724460D02*
X12896372Y-12705412D01*
X12896372Y-12705412D02*
X12896372Y-12695888D01*
X12896372Y-12695888D02*
X12886849Y-12676841D01*
X12886849Y-12676841D02*
X12867801Y-12667317D01*
X12867801Y-12667317D02*
X12839230Y-12667317D01*
X12839230Y-12667317D02*
X12820182Y-12657793D01*
X12820182Y-12657793D02*
X12810658Y-12638746D01*
X12810658Y-12638746D02*
X12810658Y-12629222D01*
X12810658Y-12629222D02*
X12820182Y-12610174D01*
X12820182Y-12610174D02*
X12839230Y-12600650D01*
X12839230Y-12600650D02*
X12867801Y-12600650D01*
X12867801Y-12600650D02*
X12886849Y-12610174D01*
X12963039Y-12810174D02*
X12972563Y-12800650D01*
X12972563Y-12800650D02*
X12991611Y-12772079D01*
X12991611Y-12772079D02*
X13001134Y-12753031D01*
X13001134Y-12753031D02*
X13010658Y-12724460D01*
X13010658Y-12724460D02*
X13020182Y-12676841D01*
X13020182Y-12676841D02*
X13020182Y-12638746D01*
X13020182Y-12638746D02*
X13010658Y-12591127D01*
X13010658Y-12591127D02*
X13001134Y-12562555D01*
X13001134Y-12562555D02*
X12991611Y-12543508D01*
X12991611Y-12543508D02*
X12972563Y-12514936D01*
X12972563Y-12514936D02*
X12963039Y-12505412D01*
D12*
X7997500Y-12906500D02*
G75*
G02*
X7922500Y-12906500I-37500J0D01*
G01*
X7922500Y-12906500D02*
G75*
G02*
X7997500Y-12906500I37500J0D01*
G01*
D11*
X8296372Y-12797984D02*
X8315420Y-12797984D01*
X8315420Y-12797984D02*
X8334467Y-12807508D01*
X8334467Y-12807508D02*
X8343991Y-12817031D01*
X8343991Y-12817031D02*
X8353515Y-12836079D01*
X8353515Y-12836079D02*
X8363039Y-12874174D01*
X8363039Y-12874174D02*
X8363039Y-12921793D01*
X8363039Y-12921793D02*
X8353515Y-12959888D01*
X8353515Y-12959888D02*
X8343991Y-12978936D01*
X8343991Y-12978936D02*
X8334467Y-12988460D01*
X8334467Y-12988460D02*
X8315420Y-12997984D01*
X8315420Y-12997984D02*
X8296372Y-12997984D01*
X8296372Y-12997984D02*
X8277324Y-12988460D01*
X8277324Y-12988460D02*
X8267801Y-12978936D01*
X8267801Y-12978936D02*
X8258277Y-12959888D01*
X8258277Y-12959888D02*
X8248753Y-12921793D01*
X8248753Y-12921793D02*
X8248753Y-12874174D01*
X8248753Y-12874174D02*
X8258277Y-12836079D01*
X8258277Y-12836079D02*
X8267801Y-12817031D01*
X8267801Y-12817031D02*
X8277324Y-12807508D01*
X8277324Y-12807508D02*
X8296372Y-12797984D01*
X8448753Y-12978936D02*
X8458277Y-12988460D01*
X8458277Y-12988460D02*
X8448753Y-12997984D01*
X8448753Y-12997984D02*
X8439229Y-12988460D01*
X8439229Y-12988460D02*
X8448753Y-12978936D01*
X8448753Y-12978936D02*
X8448753Y-12997984D01*
X8524944Y-12797984D02*
X8658277Y-12797984D01*
X8658277Y-12797984D02*
X8572563Y-12997984D01*
X8829705Y-12797984D02*
X8734467Y-12797984D01*
X8734467Y-12797984D02*
X8724944Y-12893222D01*
X8724944Y-12893222D02*
X8734467Y-12883698D01*
X8734467Y-12883698D02*
X8753515Y-12874174D01*
X8753515Y-12874174D02*
X8801134Y-12874174D01*
X8801134Y-12874174D02*
X8820182Y-12883698D01*
X8820182Y-12883698D02*
X8829705Y-12893222D01*
X8829705Y-12893222D02*
X8839229Y-12912269D01*
X8839229Y-12912269D02*
X8839229Y-12959888D01*
X8839229Y-12959888D02*
X8829705Y-12978936D01*
X8829705Y-12978936D02*
X8820182Y-12988460D01*
X8820182Y-12988460D02*
X8801134Y-12997984D01*
X8801134Y-12997984D02*
X8753515Y-12997984D01*
X8753515Y-12997984D02*
X8734467Y-12988460D01*
X8734467Y-12988460D02*
X8724944Y-12978936D01*
X8963039Y-12797984D02*
X8982086Y-12797984D01*
X8982086Y-12797984D02*
X9001134Y-12807508D01*
X9001134Y-12807508D02*
X9010658Y-12817031D01*
X9010658Y-12817031D02*
X9020182Y-12836079D01*
X9020182Y-12836079D02*
X9029705Y-12874174D01*
X9029705Y-12874174D02*
X9029705Y-12921793D01*
X9029705Y-12921793D02*
X9020182Y-12959888D01*
X9020182Y-12959888D02*
X9010658Y-12978936D01*
X9010658Y-12978936D02*
X9001134Y-12988460D01*
X9001134Y-12988460D02*
X8982086Y-12997984D01*
X8982086Y-12997984D02*
X8963039Y-12997984D01*
X8963039Y-12997984D02*
X8943991Y-12988460D01*
X8943991Y-12988460D02*
X8934467Y-12978936D01*
X8934467Y-12978936D02*
X8924944Y-12959888D01*
X8924944Y-12959888D02*
X8915420Y-12921793D01*
X8915420Y-12921793D02*
X8915420Y-12874174D01*
X8915420Y-12874174D02*
X8924944Y-12836079D01*
X8924944Y-12836079D02*
X8934467Y-12817031D01*
X8934467Y-12817031D02*
X8943991Y-12807508D01*
X8943991Y-12807508D02*
X8963039Y-12797984D01*
X9115420Y-12997984D02*
X9115420Y-12864650D01*
X9115420Y-12883698D02*
X9124944Y-12874174D01*
X9124944Y-12874174D02*
X9143991Y-12864650D01*
X9143991Y-12864650D02*
X9172563Y-12864650D01*
X9172563Y-12864650D02*
X9191610Y-12874174D01*
X9191610Y-12874174D02*
X9201134Y-12893222D01*
X9201134Y-12893222D02*
X9201134Y-12997984D01*
X9201134Y-12893222D02*
X9210658Y-12874174D01*
X9210658Y-12874174D02*
X9229705Y-12864650D01*
X9229705Y-12864650D02*
X9258277Y-12864650D01*
X9258277Y-12864650D02*
X9277325Y-12874174D01*
X9277325Y-12874174D02*
X9286848Y-12893222D01*
X9286848Y-12893222D02*
X9286848Y-12997984D01*
X9382086Y-12997984D02*
X9382086Y-12864650D01*
X9382086Y-12883698D02*
X9391610Y-12874174D01*
X9391610Y-12874174D02*
X9410658Y-12864650D01*
X9410658Y-12864650D02*
X9439229Y-12864650D01*
X9439229Y-12864650D02*
X9458277Y-12874174D01*
X9458277Y-12874174D02*
X9467801Y-12893222D01*
X9467801Y-12893222D02*
X9467801Y-12997984D01*
X9467801Y-12893222D02*
X9477325Y-12874174D01*
X9477325Y-12874174D02*
X9496372Y-12864650D01*
X9496372Y-12864650D02*
X9524944Y-12864650D01*
X9524944Y-12864650D02*
X9543991Y-12874174D01*
X9543991Y-12874174D02*
X9553515Y-12893222D01*
X9553515Y-12893222D02*
X9553515Y-12997984D01*
X9943991Y-12788460D02*
X9772563Y-13045603D01*
X10201134Y-12797984D02*
X10220182Y-12797984D01*
X10220182Y-12797984D02*
X10239229Y-12807508D01*
X10239229Y-12807508D02*
X10248753Y-12817031D01*
X10248753Y-12817031D02*
X10258277Y-12836079D01*
X10258277Y-12836079D02*
X10267801Y-12874174D01*
X10267801Y-12874174D02*
X10267801Y-12921793D01*
X10267801Y-12921793D02*
X10258277Y-12959888D01*
X10258277Y-12959888D02*
X10248753Y-12978936D01*
X10248753Y-12978936D02*
X10239229Y-12988460D01*
X10239229Y-12988460D02*
X10220182Y-12997984D01*
X10220182Y-12997984D02*
X10201134Y-12997984D01*
X10201134Y-12997984D02*
X10182087Y-12988460D01*
X10182087Y-12988460D02*
X10172563Y-12978936D01*
X10172563Y-12978936D02*
X10163039Y-12959888D01*
X10163039Y-12959888D02*
X10153515Y-12921793D01*
X10153515Y-12921793D02*
X10153515Y-12874174D01*
X10153515Y-12874174D02*
X10163039Y-12836079D01*
X10163039Y-12836079D02*
X10172563Y-12817031D01*
X10172563Y-12817031D02*
X10182087Y-12807508D01*
X10182087Y-12807508D02*
X10201134Y-12797984D01*
X10353515Y-12978936D02*
X10363039Y-12988460D01*
X10363039Y-12988460D02*
X10353515Y-12997984D01*
X10353515Y-12997984D02*
X10343991Y-12988460D01*
X10343991Y-12988460D02*
X10353515Y-12978936D01*
X10353515Y-12978936D02*
X10353515Y-12997984D01*
X10486848Y-12797984D02*
X10505896Y-12797984D01*
X10505896Y-12797984D02*
X10524944Y-12807508D01*
X10524944Y-12807508D02*
X10534468Y-12817031D01*
X10534468Y-12817031D02*
X10543991Y-12836079D01*
X10543991Y-12836079D02*
X10553515Y-12874174D01*
X10553515Y-12874174D02*
X10553515Y-12921793D01*
X10553515Y-12921793D02*
X10543991Y-12959888D01*
X10543991Y-12959888D02*
X10534468Y-12978936D01*
X10534468Y-12978936D02*
X10524944Y-12988460D01*
X10524944Y-12988460D02*
X10505896Y-12997984D01*
X10505896Y-12997984D02*
X10486848Y-12997984D01*
X10486848Y-12997984D02*
X10467801Y-12988460D01*
X10467801Y-12988460D02*
X10458277Y-12978936D01*
X10458277Y-12978936D02*
X10448753Y-12959888D01*
X10448753Y-12959888D02*
X10439229Y-12921793D01*
X10439229Y-12921793D02*
X10439229Y-12874174D01*
X10439229Y-12874174D02*
X10448753Y-12836079D01*
X10448753Y-12836079D02*
X10458277Y-12817031D01*
X10458277Y-12817031D02*
X10467801Y-12807508D01*
X10467801Y-12807508D02*
X10486848Y-12797984D01*
X10629706Y-12817031D02*
X10639229Y-12807508D01*
X10639229Y-12807508D02*
X10658277Y-12797984D01*
X10658277Y-12797984D02*
X10705896Y-12797984D01*
X10705896Y-12797984D02*
X10724944Y-12807508D01*
X10724944Y-12807508D02*
X10734468Y-12817031D01*
X10734468Y-12817031D02*
X10743991Y-12836079D01*
X10743991Y-12836079D02*
X10743991Y-12855127D01*
X10743991Y-12855127D02*
X10734468Y-12883698D01*
X10734468Y-12883698D02*
X10620182Y-12997984D01*
X10620182Y-12997984D02*
X10743991Y-12997984D01*
X10839229Y-12997984D02*
X10877325Y-12997984D01*
X10877325Y-12997984D02*
X10896372Y-12988460D01*
X10896372Y-12988460D02*
X10905896Y-12978936D01*
X10905896Y-12978936D02*
X10924944Y-12950365D01*
X10924944Y-12950365D02*
X10934468Y-12912269D01*
X10934468Y-12912269D02*
X10934468Y-12836079D01*
X10934468Y-12836079D02*
X10924944Y-12817031D01*
X10924944Y-12817031D02*
X10915420Y-12807508D01*
X10915420Y-12807508D02*
X10896372Y-12797984D01*
X10896372Y-12797984D02*
X10858277Y-12797984D01*
X10858277Y-12797984D02*
X10839229Y-12807508D01*
X10839229Y-12807508D02*
X10829706Y-12817031D01*
X10829706Y-12817031D02*
X10820182Y-12836079D01*
X10820182Y-12836079D02*
X10820182Y-12883698D01*
X10820182Y-12883698D02*
X10829706Y-12902746D01*
X10829706Y-12902746D02*
X10839229Y-12912269D01*
X10839229Y-12912269D02*
X10858277Y-12921793D01*
X10858277Y-12921793D02*
X10896372Y-12921793D01*
X10896372Y-12921793D02*
X10915420Y-12912269D01*
X10915420Y-12912269D02*
X10924944Y-12902746D01*
X10924944Y-12902746D02*
X10934468Y-12883698D01*
X11115420Y-12797984D02*
X11020182Y-12797984D01*
X11020182Y-12797984D02*
X11010658Y-12893222D01*
X11010658Y-12893222D02*
X11020182Y-12883698D01*
X11020182Y-12883698D02*
X11039229Y-12874174D01*
X11039229Y-12874174D02*
X11086849Y-12874174D01*
X11086849Y-12874174D02*
X11105896Y-12883698D01*
X11105896Y-12883698D02*
X11115420Y-12893222D01*
X11115420Y-12893222D02*
X11124944Y-12912269D01*
X11124944Y-12912269D02*
X11124944Y-12959888D01*
X11124944Y-12959888D02*
X11115420Y-12978936D01*
X11115420Y-12978936D02*
X11105896Y-12988460D01*
X11105896Y-12988460D02*
X11086849Y-12997984D01*
X11086849Y-12997984D02*
X11039229Y-12997984D01*
X11039229Y-12997984D02*
X11020182Y-12988460D01*
X11020182Y-12988460D02*
X11010658Y-12978936D01*
X11201134Y-12797984D02*
X11201134Y-12836079D01*
X11277325Y-12797984D02*
X11277325Y-12836079D01*
X11572563Y-13074174D02*
X11563039Y-13064650D01*
X11563039Y-13064650D02*
X11543991Y-13036079D01*
X11543991Y-13036079D02*
X11534468Y-13017031D01*
X11534468Y-13017031D02*
X11524944Y-12988460D01*
X11524944Y-12988460D02*
X11515420Y-12940841D01*
X11515420Y-12940841D02*
X11515420Y-12902746D01*
X11515420Y-12902746D02*
X11524944Y-12855127D01*
X11524944Y-12855127D02*
X11534468Y-12826555D01*
X11534468Y-12826555D02*
X11543991Y-12807508D01*
X11543991Y-12807508D02*
X11563039Y-12778936D01*
X11563039Y-12778936D02*
X11572563Y-12769412D01*
X11629706Y-12797984D02*
X11753515Y-12797984D01*
X11753515Y-12797984D02*
X11686848Y-12874174D01*
X11686848Y-12874174D02*
X11715420Y-12874174D01*
X11715420Y-12874174D02*
X11734468Y-12883698D01*
X11734468Y-12883698D02*
X11743991Y-12893222D01*
X11743991Y-12893222D02*
X11753515Y-12912269D01*
X11753515Y-12912269D02*
X11753515Y-12959888D01*
X11753515Y-12959888D02*
X11743991Y-12978936D01*
X11743991Y-12978936D02*
X11734468Y-12988460D01*
X11734468Y-12988460D02*
X11715420Y-12997984D01*
X11715420Y-12997984D02*
X11658277Y-12997984D01*
X11658277Y-12997984D02*
X11639229Y-12988460D01*
X11639229Y-12988460D02*
X11629706Y-12978936D01*
X11991610Y-12997984D02*
X11991610Y-12797984D01*
X12077325Y-12997984D02*
X12077325Y-12893222D01*
X12077325Y-12893222D02*
X12067801Y-12874174D01*
X12067801Y-12874174D02*
X12048753Y-12864650D01*
X12048753Y-12864650D02*
X12020182Y-12864650D01*
X12020182Y-12864650D02*
X12001134Y-12874174D01*
X12001134Y-12874174D02*
X11991610Y-12883698D01*
X12201134Y-12997984D02*
X12182087Y-12988460D01*
X12182087Y-12988460D02*
X12172563Y-12978936D01*
X12172563Y-12978936D02*
X12163039Y-12959888D01*
X12163039Y-12959888D02*
X12163039Y-12902746D01*
X12163039Y-12902746D02*
X12172563Y-12883698D01*
X12172563Y-12883698D02*
X12182087Y-12874174D01*
X12182087Y-12874174D02*
X12201134Y-12864650D01*
X12201134Y-12864650D02*
X12229706Y-12864650D01*
X12229706Y-12864650D02*
X12248753Y-12874174D01*
X12248753Y-12874174D02*
X12258277Y-12883698D01*
X12258277Y-12883698D02*
X12267801Y-12902746D01*
X12267801Y-12902746D02*
X12267801Y-12959888D01*
X12267801Y-12959888D02*
X12258277Y-12978936D01*
X12258277Y-12978936D02*
X12248753Y-12988460D01*
X12248753Y-12988460D02*
X12229706Y-12997984D01*
X12229706Y-12997984D02*
X12201134Y-12997984D01*
X12382087Y-12997984D02*
X12363039Y-12988460D01*
X12363039Y-12988460D02*
X12353515Y-12969412D01*
X12353515Y-12969412D02*
X12353515Y-12797984D01*
X12534468Y-12988460D02*
X12515420Y-12997984D01*
X12515420Y-12997984D02*
X12477325Y-12997984D01*
X12477325Y-12997984D02*
X12458277Y-12988460D01*
X12458277Y-12988460D02*
X12448753Y-12969412D01*
X12448753Y-12969412D02*
X12448753Y-12893222D01*
X12448753Y-12893222D02*
X12458277Y-12874174D01*
X12458277Y-12874174D02*
X12477325Y-12864650D01*
X12477325Y-12864650D02*
X12515420Y-12864650D01*
X12515420Y-12864650D02*
X12534468Y-12874174D01*
X12534468Y-12874174D02*
X12543991Y-12893222D01*
X12543991Y-12893222D02*
X12543991Y-12912269D01*
X12543991Y-12912269D02*
X12448753Y-12931317D01*
X12620182Y-12988460D02*
X12639230Y-12997984D01*
X12639230Y-12997984D02*
X12677325Y-12997984D01*
X12677325Y-12997984D02*
X12696372Y-12988460D01*
X12696372Y-12988460D02*
X12705896Y-12969412D01*
X12705896Y-12969412D02*
X12705896Y-12959888D01*
X12705896Y-12959888D02*
X12696372Y-12940841D01*
X12696372Y-12940841D02*
X12677325Y-12931317D01*
X12677325Y-12931317D02*
X12648753Y-12931317D01*
X12648753Y-12931317D02*
X12629706Y-12921793D01*
X12629706Y-12921793D02*
X12620182Y-12902746D01*
X12620182Y-12902746D02*
X12620182Y-12893222D01*
X12620182Y-12893222D02*
X12629706Y-12874174D01*
X12629706Y-12874174D02*
X12648753Y-12864650D01*
X12648753Y-12864650D02*
X12677325Y-12864650D01*
X12677325Y-12864650D02*
X12696372Y-12874174D01*
X12772563Y-13074174D02*
X12782087Y-13064650D01*
X12782087Y-13064650D02*
X12801134Y-13036079D01*
X12801134Y-13036079D02*
X12810658Y-13017031D01*
X12810658Y-13017031D02*
X12820182Y-12988460D01*
X12820182Y-12988460D02*
X12829706Y-12940841D01*
X12829706Y-12940841D02*
X12829706Y-12902746D01*
X12829706Y-12902746D02*
X12820182Y-12855127D01*
X12820182Y-12855127D02*
X12810658Y-12826555D01*
X12810658Y-12826555D02*
X12801134Y-12807508D01*
X12801134Y-12807508D02*
X12782087Y-12778936D01*
X12782087Y-12778936D02*
X12772563Y-12769412D01*
D12*
X7957500Y-13130500D02*
X7957500Y-13210500D01*
X7917500Y-13170500D02*
X7997500Y-13170500D01*
D11*
X8296372Y-13061984D02*
X8315420Y-13061984D01*
X8315420Y-13061984D02*
X8334467Y-13071508D01*
X8334467Y-13071508D02*
X8343991Y-13081031D01*
X8343991Y-13081031D02*
X8353515Y-13100079D01*
X8353515Y-13100079D02*
X8363039Y-13138174D01*
X8363039Y-13138174D02*
X8363039Y-13185793D01*
X8363039Y-13185793D02*
X8353515Y-13223888D01*
X8353515Y-13223888D02*
X8343991Y-13242936D01*
X8343991Y-13242936D02*
X8334467Y-13252460D01*
X8334467Y-13252460D02*
X8315420Y-13261984D01*
X8315420Y-13261984D02*
X8296372Y-13261984D01*
X8296372Y-13261984D02*
X8277324Y-13252460D01*
X8277324Y-13252460D02*
X8267801Y-13242936D01*
X8267801Y-13242936D02*
X8258277Y-13223888D01*
X8258277Y-13223888D02*
X8248753Y-13185793D01*
X8248753Y-13185793D02*
X8248753Y-13138174D01*
X8248753Y-13138174D02*
X8258277Y-13100079D01*
X8258277Y-13100079D02*
X8267801Y-13081031D01*
X8267801Y-13081031D02*
X8277324Y-13071508D01*
X8277324Y-13071508D02*
X8296372Y-13061984D01*
X8448753Y-13242936D02*
X8458277Y-13252460D01*
X8458277Y-13252460D02*
X8448753Y-13261984D01*
X8448753Y-13261984D02*
X8439229Y-13252460D01*
X8439229Y-13252460D02*
X8448753Y-13242936D01*
X8448753Y-13242936D02*
X8448753Y-13261984D01*
X8572563Y-13147698D02*
X8553515Y-13138174D01*
X8553515Y-13138174D02*
X8543991Y-13128650D01*
X8543991Y-13128650D02*
X8534467Y-13109603D01*
X8534467Y-13109603D02*
X8534467Y-13100079D01*
X8534467Y-13100079D02*
X8543991Y-13081031D01*
X8543991Y-13081031D02*
X8553515Y-13071508D01*
X8553515Y-13071508D02*
X8572563Y-13061984D01*
X8572563Y-13061984D02*
X8610658Y-13061984D01*
X8610658Y-13061984D02*
X8629705Y-13071508D01*
X8629705Y-13071508D02*
X8639229Y-13081031D01*
X8639229Y-13081031D02*
X8648753Y-13100079D01*
X8648753Y-13100079D02*
X8648753Y-13109603D01*
X8648753Y-13109603D02*
X8639229Y-13128650D01*
X8639229Y-13128650D02*
X8629705Y-13138174D01*
X8629705Y-13138174D02*
X8610658Y-13147698D01*
X8610658Y-13147698D02*
X8572563Y-13147698D01*
X8572563Y-13147698D02*
X8553515Y-13157222D01*
X8553515Y-13157222D02*
X8543991Y-13166746D01*
X8543991Y-13166746D02*
X8534467Y-13185793D01*
X8534467Y-13185793D02*
X8534467Y-13223888D01*
X8534467Y-13223888D02*
X8543991Y-13242936D01*
X8543991Y-13242936D02*
X8553515Y-13252460D01*
X8553515Y-13252460D02*
X8572563Y-13261984D01*
X8572563Y-13261984D02*
X8610658Y-13261984D01*
X8610658Y-13261984D02*
X8629705Y-13252460D01*
X8629705Y-13252460D02*
X8639229Y-13242936D01*
X8639229Y-13242936D02*
X8648753Y-13223888D01*
X8648753Y-13223888D02*
X8648753Y-13185793D01*
X8648753Y-13185793D02*
X8639229Y-13166746D01*
X8639229Y-13166746D02*
X8629705Y-13157222D01*
X8629705Y-13157222D02*
X8610658Y-13147698D01*
X8772563Y-13061984D02*
X8791610Y-13061984D01*
X8791610Y-13061984D02*
X8810658Y-13071508D01*
X8810658Y-13071508D02*
X8820182Y-13081031D01*
X8820182Y-13081031D02*
X8829705Y-13100079D01*
X8829705Y-13100079D02*
X8839229Y-13138174D01*
X8839229Y-13138174D02*
X8839229Y-13185793D01*
X8839229Y-13185793D02*
X8829705Y-13223888D01*
X8829705Y-13223888D02*
X8820182Y-13242936D01*
X8820182Y-13242936D02*
X8810658Y-13252460D01*
X8810658Y-13252460D02*
X8791610Y-13261984D01*
X8791610Y-13261984D02*
X8772563Y-13261984D01*
X8772563Y-13261984D02*
X8753515Y-13252460D01*
X8753515Y-13252460D02*
X8743991Y-13242936D01*
X8743991Y-13242936D02*
X8734467Y-13223888D01*
X8734467Y-13223888D02*
X8724944Y-13185793D01*
X8724944Y-13185793D02*
X8724944Y-13138174D01*
X8724944Y-13138174D02*
X8734467Y-13100079D01*
X8734467Y-13100079D02*
X8743991Y-13081031D01*
X8743991Y-13081031D02*
X8753515Y-13071508D01*
X8753515Y-13071508D02*
X8772563Y-13061984D01*
X8963039Y-13061984D02*
X8982086Y-13061984D01*
X8982086Y-13061984D02*
X9001134Y-13071508D01*
X9001134Y-13071508D02*
X9010658Y-13081031D01*
X9010658Y-13081031D02*
X9020182Y-13100079D01*
X9020182Y-13100079D02*
X9029705Y-13138174D01*
X9029705Y-13138174D02*
X9029705Y-13185793D01*
X9029705Y-13185793D02*
X9020182Y-13223888D01*
X9020182Y-13223888D02*
X9010658Y-13242936D01*
X9010658Y-13242936D02*
X9001134Y-13252460D01*
X9001134Y-13252460D02*
X8982086Y-13261984D01*
X8982086Y-13261984D02*
X8963039Y-13261984D01*
X8963039Y-13261984D02*
X8943991Y-13252460D01*
X8943991Y-13252460D02*
X8934467Y-13242936D01*
X8934467Y-13242936D02*
X8924944Y-13223888D01*
X8924944Y-13223888D02*
X8915420Y-13185793D01*
X8915420Y-13185793D02*
X8915420Y-13138174D01*
X8915420Y-13138174D02*
X8924944Y-13100079D01*
X8924944Y-13100079D02*
X8934467Y-13081031D01*
X8934467Y-13081031D02*
X8943991Y-13071508D01*
X8943991Y-13071508D02*
X8963039Y-13061984D01*
X9115420Y-13261984D02*
X9115420Y-13128650D01*
X9115420Y-13147698D02*
X9124944Y-13138174D01*
X9124944Y-13138174D02*
X9143991Y-13128650D01*
X9143991Y-13128650D02*
X9172563Y-13128650D01*
X9172563Y-13128650D02*
X9191610Y-13138174D01*
X9191610Y-13138174D02*
X9201134Y-13157222D01*
X9201134Y-13157222D02*
X9201134Y-13261984D01*
X9201134Y-13157222D02*
X9210658Y-13138174D01*
X9210658Y-13138174D02*
X9229705Y-13128650D01*
X9229705Y-13128650D02*
X9258277Y-13128650D01*
X9258277Y-13128650D02*
X9277325Y-13138174D01*
X9277325Y-13138174D02*
X9286848Y-13157222D01*
X9286848Y-13157222D02*
X9286848Y-13261984D01*
X9382086Y-13261984D02*
X9382086Y-13128650D01*
X9382086Y-13147698D02*
X9391610Y-13138174D01*
X9391610Y-13138174D02*
X9410658Y-13128650D01*
X9410658Y-13128650D02*
X9439229Y-13128650D01*
X9439229Y-13128650D02*
X9458277Y-13138174D01*
X9458277Y-13138174D02*
X9467801Y-13157222D01*
X9467801Y-13157222D02*
X9467801Y-13261984D01*
X9467801Y-13157222D02*
X9477325Y-13138174D01*
X9477325Y-13138174D02*
X9496372Y-13128650D01*
X9496372Y-13128650D02*
X9524944Y-13128650D01*
X9524944Y-13128650D02*
X9543991Y-13138174D01*
X9543991Y-13138174D02*
X9553515Y-13157222D01*
X9553515Y-13157222D02*
X9553515Y-13261984D01*
X9943991Y-13052460D02*
X9772563Y-13309603D01*
X10201134Y-13061984D02*
X10220182Y-13061984D01*
X10220182Y-13061984D02*
X10239229Y-13071508D01*
X10239229Y-13071508D02*
X10248753Y-13081031D01*
X10248753Y-13081031D02*
X10258277Y-13100079D01*
X10258277Y-13100079D02*
X10267801Y-13138174D01*
X10267801Y-13138174D02*
X10267801Y-13185793D01*
X10267801Y-13185793D02*
X10258277Y-13223888D01*
X10258277Y-13223888D02*
X10248753Y-13242936D01*
X10248753Y-13242936D02*
X10239229Y-13252460D01*
X10239229Y-13252460D02*
X10220182Y-13261984D01*
X10220182Y-13261984D02*
X10201134Y-13261984D01*
X10201134Y-13261984D02*
X10182087Y-13252460D01*
X10182087Y-13252460D02*
X10172563Y-13242936D01*
X10172563Y-13242936D02*
X10163039Y-13223888D01*
X10163039Y-13223888D02*
X10153515Y-13185793D01*
X10153515Y-13185793D02*
X10153515Y-13138174D01*
X10153515Y-13138174D02*
X10163039Y-13100079D01*
X10163039Y-13100079D02*
X10172563Y-13081031D01*
X10172563Y-13081031D02*
X10182087Y-13071508D01*
X10182087Y-13071508D02*
X10201134Y-13061984D01*
X10353515Y-13242936D02*
X10363039Y-13252460D01*
X10363039Y-13252460D02*
X10353515Y-13261984D01*
X10353515Y-13261984D02*
X10343991Y-13252460D01*
X10343991Y-13252460D02*
X10353515Y-13242936D01*
X10353515Y-13242936D02*
X10353515Y-13261984D01*
X10486848Y-13061984D02*
X10505896Y-13061984D01*
X10505896Y-13061984D02*
X10524944Y-13071508D01*
X10524944Y-13071508D02*
X10534468Y-13081031D01*
X10534468Y-13081031D02*
X10543991Y-13100079D01*
X10543991Y-13100079D02*
X10553515Y-13138174D01*
X10553515Y-13138174D02*
X10553515Y-13185793D01*
X10553515Y-13185793D02*
X10543991Y-13223888D01*
X10543991Y-13223888D02*
X10534468Y-13242936D01*
X10534468Y-13242936D02*
X10524944Y-13252460D01*
X10524944Y-13252460D02*
X10505896Y-13261984D01*
X10505896Y-13261984D02*
X10486848Y-13261984D01*
X10486848Y-13261984D02*
X10467801Y-13252460D01*
X10467801Y-13252460D02*
X10458277Y-13242936D01*
X10458277Y-13242936D02*
X10448753Y-13223888D01*
X10448753Y-13223888D02*
X10439229Y-13185793D01*
X10439229Y-13185793D02*
X10439229Y-13138174D01*
X10439229Y-13138174D02*
X10448753Y-13100079D01*
X10448753Y-13100079D02*
X10458277Y-13081031D01*
X10458277Y-13081031D02*
X10467801Y-13071508D01*
X10467801Y-13071508D02*
X10486848Y-13061984D01*
X10620182Y-13061984D02*
X10743991Y-13061984D01*
X10743991Y-13061984D02*
X10677325Y-13138174D01*
X10677325Y-13138174D02*
X10705896Y-13138174D01*
X10705896Y-13138174D02*
X10724944Y-13147698D01*
X10724944Y-13147698D02*
X10734468Y-13157222D01*
X10734468Y-13157222D02*
X10743991Y-13176269D01*
X10743991Y-13176269D02*
X10743991Y-13223888D01*
X10743991Y-13223888D02*
X10734468Y-13242936D01*
X10734468Y-13242936D02*
X10724944Y-13252460D01*
X10724944Y-13252460D02*
X10705896Y-13261984D01*
X10705896Y-13261984D02*
X10648753Y-13261984D01*
X10648753Y-13261984D02*
X10629706Y-13252460D01*
X10629706Y-13252460D02*
X10620182Y-13242936D01*
X10934468Y-13261984D02*
X10820182Y-13261984D01*
X10877325Y-13261984D02*
X10877325Y-13061984D01*
X10877325Y-13061984D02*
X10858277Y-13090555D01*
X10858277Y-13090555D02*
X10839229Y-13109603D01*
X10839229Y-13109603D02*
X10820182Y-13119127D01*
X11115420Y-13061984D02*
X11020182Y-13061984D01*
X11020182Y-13061984D02*
X11010658Y-13157222D01*
X11010658Y-13157222D02*
X11020182Y-13147698D01*
X11020182Y-13147698D02*
X11039229Y-13138174D01*
X11039229Y-13138174D02*
X11086849Y-13138174D01*
X11086849Y-13138174D02*
X11105896Y-13147698D01*
X11105896Y-13147698D02*
X11115420Y-13157222D01*
X11115420Y-13157222D02*
X11124944Y-13176269D01*
X11124944Y-13176269D02*
X11124944Y-13223888D01*
X11124944Y-13223888D02*
X11115420Y-13242936D01*
X11115420Y-13242936D02*
X11105896Y-13252460D01*
X11105896Y-13252460D02*
X11086849Y-13261984D01*
X11086849Y-13261984D02*
X11039229Y-13261984D01*
X11039229Y-13261984D02*
X11020182Y-13252460D01*
X11020182Y-13252460D02*
X11010658Y-13242936D01*
X11201134Y-13061984D02*
X11201134Y-13100079D01*
X11277325Y-13061984D02*
X11277325Y-13100079D01*
X11572563Y-13338174D02*
X11563039Y-13328650D01*
X11563039Y-13328650D02*
X11543991Y-13300079D01*
X11543991Y-13300079D02*
X11534468Y-13281031D01*
X11534468Y-13281031D02*
X11524944Y-13252460D01*
X11524944Y-13252460D02*
X11515420Y-13204841D01*
X11515420Y-13204841D02*
X11515420Y-13166746D01*
X11515420Y-13166746D02*
X11524944Y-13119127D01*
X11524944Y-13119127D02*
X11534468Y-13090555D01*
X11534468Y-13090555D02*
X11543991Y-13071508D01*
X11543991Y-13071508D02*
X11563039Y-13042936D01*
X11563039Y-13042936D02*
X11572563Y-13033412D01*
X11753515Y-13261984D02*
X11639229Y-13261984D01*
X11696372Y-13261984D02*
X11696372Y-13061984D01*
X11696372Y-13061984D02*
X11677325Y-13090555D01*
X11677325Y-13090555D02*
X11658277Y-13109603D01*
X11658277Y-13109603D02*
X11639229Y-13119127D01*
X11829706Y-13081031D02*
X11839229Y-13071508D01*
X11839229Y-13071508D02*
X11858277Y-13061984D01*
X11858277Y-13061984D02*
X11905896Y-13061984D01*
X11905896Y-13061984D02*
X11924944Y-13071508D01*
X11924944Y-13071508D02*
X11934468Y-13081031D01*
X11934468Y-13081031D02*
X11943991Y-13100079D01*
X11943991Y-13100079D02*
X11943991Y-13119127D01*
X11943991Y-13119127D02*
X11934468Y-13147698D01*
X11934468Y-13147698D02*
X11820182Y-13261984D01*
X11820182Y-13261984D02*
X11943991Y-13261984D01*
X12039229Y-13261984D02*
X12077325Y-13261984D01*
X12077325Y-13261984D02*
X12096372Y-13252460D01*
X12096372Y-13252460D02*
X12105896Y-13242936D01*
X12105896Y-13242936D02*
X12124944Y-13214365D01*
X12124944Y-13214365D02*
X12134468Y-13176269D01*
X12134468Y-13176269D02*
X12134468Y-13100079D01*
X12134468Y-13100079D02*
X12124944Y-13081031D01*
X12124944Y-13081031D02*
X12115420Y-13071508D01*
X12115420Y-13071508D02*
X12096372Y-13061984D01*
X12096372Y-13061984D02*
X12058277Y-13061984D01*
X12058277Y-13061984D02*
X12039229Y-13071508D01*
X12039229Y-13071508D02*
X12029706Y-13081031D01*
X12029706Y-13081031D02*
X12020182Y-13100079D01*
X12020182Y-13100079D02*
X12020182Y-13147698D01*
X12020182Y-13147698D02*
X12029706Y-13166746D01*
X12029706Y-13166746D02*
X12039229Y-13176269D01*
X12039229Y-13176269D02*
X12058277Y-13185793D01*
X12058277Y-13185793D02*
X12096372Y-13185793D01*
X12096372Y-13185793D02*
X12115420Y-13176269D01*
X12115420Y-13176269D02*
X12124944Y-13166746D01*
X12124944Y-13166746D02*
X12134468Y-13147698D01*
X12372563Y-13261984D02*
X12372563Y-13061984D01*
X12458277Y-13261984D02*
X12458277Y-13157222D01*
X12458277Y-13157222D02*
X12448753Y-13138174D01*
X12448753Y-13138174D02*
X12429706Y-13128650D01*
X12429706Y-13128650D02*
X12401134Y-13128650D01*
X12401134Y-13128650D02*
X12382087Y-13138174D01*
X12382087Y-13138174D02*
X12372563Y-13147698D01*
X12582087Y-13261984D02*
X12563039Y-13252460D01*
X12563039Y-13252460D02*
X12553515Y-13242936D01*
X12553515Y-13242936D02*
X12543991Y-13223888D01*
X12543991Y-13223888D02*
X12543991Y-13166746D01*
X12543991Y-13166746D02*
X12553515Y-13147698D01*
X12553515Y-13147698D02*
X12563039Y-13138174D01*
X12563039Y-13138174D02*
X12582087Y-13128650D01*
X12582087Y-13128650D02*
X12610658Y-13128650D01*
X12610658Y-13128650D02*
X12629706Y-13138174D01*
X12629706Y-13138174D02*
X12639230Y-13147698D01*
X12639230Y-13147698D02*
X12648753Y-13166746D01*
X12648753Y-13166746D02*
X12648753Y-13223888D01*
X12648753Y-13223888D02*
X12639230Y-13242936D01*
X12639230Y-13242936D02*
X12629706Y-13252460D01*
X12629706Y-13252460D02*
X12610658Y-13261984D01*
X12610658Y-13261984D02*
X12582087Y-13261984D01*
X12763039Y-13261984D02*
X12743991Y-13252460D01*
X12743991Y-13252460D02*
X12734468Y-13233412D01*
X12734468Y-13233412D02*
X12734468Y-13061984D01*
X12915420Y-13252460D02*
X12896372Y-13261984D01*
X12896372Y-13261984D02*
X12858277Y-13261984D01*
X12858277Y-13261984D02*
X12839230Y-13252460D01*
X12839230Y-13252460D02*
X12829706Y-13233412D01*
X12829706Y-13233412D02*
X12829706Y-13157222D01*
X12829706Y-13157222D02*
X12839230Y-13138174D01*
X12839230Y-13138174D02*
X12858277Y-13128650D01*
X12858277Y-13128650D02*
X12896372Y-13128650D01*
X12896372Y-13128650D02*
X12915420Y-13138174D01*
X12915420Y-13138174D02*
X12924944Y-13157222D01*
X12924944Y-13157222D02*
X12924944Y-13176269D01*
X12924944Y-13176269D02*
X12829706Y-13195317D01*
X13001134Y-13252460D02*
X13020182Y-13261984D01*
X13020182Y-13261984D02*
X13058277Y-13261984D01*
X13058277Y-13261984D02*
X13077325Y-13252460D01*
X13077325Y-13252460D02*
X13086849Y-13233412D01*
X13086849Y-13233412D02*
X13086849Y-13223888D01*
X13086849Y-13223888D02*
X13077325Y-13204841D01*
X13077325Y-13204841D02*
X13058277Y-13195317D01*
X13058277Y-13195317D02*
X13029706Y-13195317D01*
X13029706Y-13195317D02*
X13010658Y-13185793D01*
X13010658Y-13185793D02*
X13001134Y-13166746D01*
X13001134Y-13166746D02*
X13001134Y-13157222D01*
X13001134Y-13157222D02*
X13010658Y-13138174D01*
X13010658Y-13138174D02*
X13029706Y-13128650D01*
X13029706Y-13128650D02*
X13058277Y-13128650D01*
X13058277Y-13128650D02*
X13077325Y-13138174D01*
X13153515Y-13338174D02*
X13163039Y-13328650D01*
X13163039Y-13328650D02*
X13182087Y-13300079D01*
X13182087Y-13300079D02*
X13191611Y-13281031D01*
X13191611Y-13281031D02*
X13201134Y-13252460D01*
X13201134Y-13252460D02*
X13210658Y-13204841D01*
X13210658Y-13204841D02*
X13210658Y-13166746D01*
X13210658Y-13166746D02*
X13201134Y-13119127D01*
X13201134Y-13119127D02*
X13191611Y-13090555D01*
X13191611Y-13090555D02*
X13182087Y-13071508D01*
X13182087Y-13071508D02*
X13163039Y-13042936D01*
X13163039Y-13042936D02*
X13153515Y-13033412D01*
D12*
X7982856Y-13469856D02*
X7982856Y-13399144D01*
X7912144Y-13399144D01*
X7912144Y-13469856D01*
X7982856Y-13469856D01*
D11*
X8363039Y-13525984D02*
X8248753Y-13525984D01*
X8305896Y-13525984D02*
X8305896Y-13325984D01*
X8305896Y-13325984D02*
X8286848Y-13354555D01*
X8286848Y-13354555D02*
X8267801Y-13373603D01*
X8267801Y-13373603D02*
X8248753Y-13383127D01*
X8448753Y-13506936D02*
X8458277Y-13516460D01*
X8458277Y-13516460D02*
X8448753Y-13525984D01*
X8448753Y-13525984D02*
X8439229Y-13516460D01*
X8439229Y-13516460D02*
X8448753Y-13506936D01*
X8448753Y-13506936D02*
X8448753Y-13525984D01*
X8582086Y-13325984D02*
X8601134Y-13325984D01*
X8601134Y-13325984D02*
X8620182Y-13335508D01*
X8620182Y-13335508D02*
X8629705Y-13345031D01*
X8629705Y-13345031D02*
X8639229Y-13364079D01*
X8639229Y-13364079D02*
X8648753Y-13402174D01*
X8648753Y-13402174D02*
X8648753Y-13449793D01*
X8648753Y-13449793D02*
X8639229Y-13487888D01*
X8639229Y-13487888D02*
X8629705Y-13506936D01*
X8629705Y-13506936D02*
X8620182Y-13516460D01*
X8620182Y-13516460D02*
X8601134Y-13525984D01*
X8601134Y-13525984D02*
X8582086Y-13525984D01*
X8582086Y-13525984D02*
X8563039Y-13516460D01*
X8563039Y-13516460D02*
X8553515Y-13506936D01*
X8553515Y-13506936D02*
X8543991Y-13487888D01*
X8543991Y-13487888D02*
X8534467Y-13449793D01*
X8534467Y-13449793D02*
X8534467Y-13402174D01*
X8534467Y-13402174D02*
X8543991Y-13364079D01*
X8543991Y-13364079D02*
X8553515Y-13345031D01*
X8553515Y-13345031D02*
X8563039Y-13335508D01*
X8563039Y-13335508D02*
X8582086Y-13325984D01*
X8772563Y-13325984D02*
X8791610Y-13325984D01*
X8791610Y-13325984D02*
X8810658Y-13335508D01*
X8810658Y-13335508D02*
X8820182Y-13345031D01*
X8820182Y-13345031D02*
X8829705Y-13364079D01*
X8829705Y-13364079D02*
X8839229Y-13402174D01*
X8839229Y-13402174D02*
X8839229Y-13449793D01*
X8839229Y-13449793D02*
X8829705Y-13487888D01*
X8829705Y-13487888D02*
X8820182Y-13506936D01*
X8820182Y-13506936D02*
X8810658Y-13516460D01*
X8810658Y-13516460D02*
X8791610Y-13525984D01*
X8791610Y-13525984D02*
X8772563Y-13525984D01*
X8772563Y-13525984D02*
X8753515Y-13516460D01*
X8753515Y-13516460D02*
X8743991Y-13506936D01*
X8743991Y-13506936D02*
X8734467Y-13487888D01*
X8734467Y-13487888D02*
X8724944Y-13449793D01*
X8724944Y-13449793D02*
X8724944Y-13402174D01*
X8724944Y-13402174D02*
X8734467Y-13364079D01*
X8734467Y-13364079D02*
X8743991Y-13345031D01*
X8743991Y-13345031D02*
X8753515Y-13335508D01*
X8753515Y-13335508D02*
X8772563Y-13325984D01*
X8963039Y-13325984D02*
X8982086Y-13325984D01*
X8982086Y-13325984D02*
X9001134Y-13335508D01*
X9001134Y-13335508D02*
X9010658Y-13345031D01*
X9010658Y-13345031D02*
X9020182Y-13364079D01*
X9020182Y-13364079D02*
X9029705Y-13402174D01*
X9029705Y-13402174D02*
X9029705Y-13449793D01*
X9029705Y-13449793D02*
X9020182Y-13487888D01*
X9020182Y-13487888D02*
X9010658Y-13506936D01*
X9010658Y-13506936D02*
X9001134Y-13516460D01*
X9001134Y-13516460D02*
X8982086Y-13525984D01*
X8982086Y-13525984D02*
X8963039Y-13525984D01*
X8963039Y-13525984D02*
X8943991Y-13516460D01*
X8943991Y-13516460D02*
X8934467Y-13506936D01*
X8934467Y-13506936D02*
X8924944Y-13487888D01*
X8924944Y-13487888D02*
X8915420Y-13449793D01*
X8915420Y-13449793D02*
X8915420Y-13402174D01*
X8915420Y-13402174D02*
X8924944Y-13364079D01*
X8924944Y-13364079D02*
X8934467Y-13345031D01*
X8934467Y-13345031D02*
X8943991Y-13335508D01*
X8943991Y-13335508D02*
X8963039Y-13325984D01*
X9115420Y-13525984D02*
X9115420Y-13392650D01*
X9115420Y-13411698D02*
X9124944Y-13402174D01*
X9124944Y-13402174D02*
X9143991Y-13392650D01*
X9143991Y-13392650D02*
X9172563Y-13392650D01*
X9172563Y-13392650D02*
X9191610Y-13402174D01*
X9191610Y-13402174D02*
X9201134Y-13421222D01*
X9201134Y-13421222D02*
X9201134Y-13525984D01*
X9201134Y-13421222D02*
X9210658Y-13402174D01*
X9210658Y-13402174D02*
X9229705Y-13392650D01*
X9229705Y-13392650D02*
X9258277Y-13392650D01*
X9258277Y-13392650D02*
X9277325Y-13402174D01*
X9277325Y-13402174D02*
X9286848Y-13421222D01*
X9286848Y-13421222D02*
X9286848Y-13525984D01*
X9382086Y-13525984D02*
X9382086Y-13392650D01*
X9382086Y-13411698D02*
X9391610Y-13402174D01*
X9391610Y-13402174D02*
X9410658Y-13392650D01*
X9410658Y-13392650D02*
X9439229Y-13392650D01*
X9439229Y-13392650D02*
X9458277Y-13402174D01*
X9458277Y-13402174D02*
X9467801Y-13421222D01*
X9467801Y-13421222D02*
X9467801Y-13525984D01*
X9467801Y-13421222D02*
X9477325Y-13402174D01*
X9477325Y-13402174D02*
X9496372Y-13392650D01*
X9496372Y-13392650D02*
X9524944Y-13392650D01*
X9524944Y-13392650D02*
X9543991Y-13402174D01*
X9543991Y-13402174D02*
X9553515Y-13421222D01*
X9553515Y-13421222D02*
X9553515Y-13525984D01*
X9943991Y-13316460D02*
X9772563Y-13573603D01*
X10201134Y-13325984D02*
X10220182Y-13325984D01*
X10220182Y-13325984D02*
X10239229Y-13335508D01*
X10239229Y-13335508D02*
X10248753Y-13345031D01*
X10248753Y-13345031D02*
X10258277Y-13364079D01*
X10258277Y-13364079D02*
X10267801Y-13402174D01*
X10267801Y-13402174D02*
X10267801Y-13449793D01*
X10267801Y-13449793D02*
X10258277Y-13487888D01*
X10258277Y-13487888D02*
X10248753Y-13506936D01*
X10248753Y-13506936D02*
X10239229Y-13516460D01*
X10239229Y-13516460D02*
X10220182Y-13525984D01*
X10220182Y-13525984D02*
X10201134Y-13525984D01*
X10201134Y-13525984D02*
X10182087Y-13516460D01*
X10182087Y-13516460D02*
X10172563Y-13506936D01*
X10172563Y-13506936D02*
X10163039Y-13487888D01*
X10163039Y-13487888D02*
X10153515Y-13449793D01*
X10153515Y-13449793D02*
X10153515Y-13402174D01*
X10153515Y-13402174D02*
X10163039Y-13364079D01*
X10163039Y-13364079D02*
X10172563Y-13345031D01*
X10172563Y-13345031D02*
X10182087Y-13335508D01*
X10182087Y-13335508D02*
X10201134Y-13325984D01*
X10353515Y-13506936D02*
X10363039Y-13516460D01*
X10363039Y-13516460D02*
X10353515Y-13525984D01*
X10353515Y-13525984D02*
X10343991Y-13516460D01*
X10343991Y-13516460D02*
X10353515Y-13506936D01*
X10353515Y-13506936D02*
X10353515Y-13525984D01*
X10486848Y-13325984D02*
X10505896Y-13325984D01*
X10505896Y-13325984D02*
X10524944Y-13335508D01*
X10524944Y-13335508D02*
X10534468Y-13345031D01*
X10534468Y-13345031D02*
X10543991Y-13364079D01*
X10543991Y-13364079D02*
X10553515Y-13402174D01*
X10553515Y-13402174D02*
X10553515Y-13449793D01*
X10553515Y-13449793D02*
X10543991Y-13487888D01*
X10543991Y-13487888D02*
X10534468Y-13506936D01*
X10534468Y-13506936D02*
X10524944Y-13516460D01*
X10524944Y-13516460D02*
X10505896Y-13525984D01*
X10505896Y-13525984D02*
X10486848Y-13525984D01*
X10486848Y-13525984D02*
X10467801Y-13516460D01*
X10467801Y-13516460D02*
X10458277Y-13506936D01*
X10458277Y-13506936D02*
X10448753Y-13487888D01*
X10448753Y-13487888D02*
X10439229Y-13449793D01*
X10439229Y-13449793D02*
X10439229Y-13402174D01*
X10439229Y-13402174D02*
X10448753Y-13364079D01*
X10448753Y-13364079D02*
X10458277Y-13345031D01*
X10458277Y-13345031D02*
X10467801Y-13335508D01*
X10467801Y-13335508D02*
X10486848Y-13325984D01*
X10620182Y-13325984D02*
X10743991Y-13325984D01*
X10743991Y-13325984D02*
X10677325Y-13402174D01*
X10677325Y-13402174D02*
X10705896Y-13402174D01*
X10705896Y-13402174D02*
X10724944Y-13411698D01*
X10724944Y-13411698D02*
X10734468Y-13421222D01*
X10734468Y-13421222D02*
X10743991Y-13440269D01*
X10743991Y-13440269D02*
X10743991Y-13487888D01*
X10743991Y-13487888D02*
X10734468Y-13506936D01*
X10734468Y-13506936D02*
X10724944Y-13516460D01*
X10724944Y-13516460D02*
X10705896Y-13525984D01*
X10705896Y-13525984D02*
X10648753Y-13525984D01*
X10648753Y-13525984D02*
X10629706Y-13516460D01*
X10629706Y-13516460D02*
X10620182Y-13506936D01*
X10839229Y-13525984D02*
X10877325Y-13525984D01*
X10877325Y-13525984D02*
X10896372Y-13516460D01*
X10896372Y-13516460D02*
X10905896Y-13506936D01*
X10905896Y-13506936D02*
X10924944Y-13478365D01*
X10924944Y-13478365D02*
X10934468Y-13440269D01*
X10934468Y-13440269D02*
X10934468Y-13364079D01*
X10934468Y-13364079D02*
X10924944Y-13345031D01*
X10924944Y-13345031D02*
X10915420Y-13335508D01*
X10915420Y-13335508D02*
X10896372Y-13325984D01*
X10896372Y-13325984D02*
X10858277Y-13325984D01*
X10858277Y-13325984D02*
X10839229Y-13335508D01*
X10839229Y-13335508D02*
X10829706Y-13345031D01*
X10829706Y-13345031D02*
X10820182Y-13364079D01*
X10820182Y-13364079D02*
X10820182Y-13411698D01*
X10820182Y-13411698D02*
X10829706Y-13430746D01*
X10829706Y-13430746D02*
X10839229Y-13440269D01*
X10839229Y-13440269D02*
X10858277Y-13449793D01*
X10858277Y-13449793D02*
X10896372Y-13449793D01*
X10896372Y-13449793D02*
X10915420Y-13440269D01*
X10915420Y-13440269D02*
X10924944Y-13430746D01*
X10924944Y-13430746D02*
X10934468Y-13411698D01*
X11105896Y-13392650D02*
X11105896Y-13525984D01*
X11058277Y-13316460D02*
X11010658Y-13459317D01*
X11010658Y-13459317D02*
X11134468Y-13459317D01*
X11201134Y-13325984D02*
X11201134Y-13364079D01*
X11277325Y-13325984D02*
X11277325Y-13364079D01*
X11572563Y-13602174D02*
X11563039Y-13592650D01*
X11563039Y-13592650D02*
X11543991Y-13564079D01*
X11543991Y-13564079D02*
X11534468Y-13545031D01*
X11534468Y-13545031D02*
X11524944Y-13516460D01*
X11524944Y-13516460D02*
X11515420Y-13468841D01*
X11515420Y-13468841D02*
X11515420Y-13430746D01*
X11515420Y-13430746D02*
X11524944Y-13383127D01*
X11524944Y-13383127D02*
X11534468Y-13354555D01*
X11534468Y-13354555D02*
X11543991Y-13335508D01*
X11543991Y-13335508D02*
X11563039Y-13306936D01*
X11563039Y-13306936D02*
X11572563Y-13297412D01*
X11658277Y-13525984D02*
X11696372Y-13525984D01*
X11696372Y-13525984D02*
X11715420Y-13516460D01*
X11715420Y-13516460D02*
X11724944Y-13506936D01*
X11724944Y-13506936D02*
X11743991Y-13478365D01*
X11743991Y-13478365D02*
X11753515Y-13440269D01*
X11753515Y-13440269D02*
X11753515Y-13364079D01*
X11753515Y-13364079D02*
X11743991Y-13345031D01*
X11743991Y-13345031D02*
X11734468Y-13335508D01*
X11734468Y-13335508D02*
X11715420Y-13325984D01*
X11715420Y-13325984D02*
X11677325Y-13325984D01*
X11677325Y-13325984D02*
X11658277Y-13335508D01*
X11658277Y-13335508D02*
X11648753Y-13345031D01*
X11648753Y-13345031D02*
X11639229Y-13364079D01*
X11639229Y-13364079D02*
X11639229Y-13411698D01*
X11639229Y-13411698D02*
X11648753Y-13430746D01*
X11648753Y-13430746D02*
X11658277Y-13440269D01*
X11658277Y-13440269D02*
X11677325Y-13449793D01*
X11677325Y-13449793D02*
X11715420Y-13449793D01*
X11715420Y-13449793D02*
X11734468Y-13440269D01*
X11734468Y-13440269D02*
X11743991Y-13430746D01*
X11743991Y-13430746D02*
X11753515Y-13411698D01*
X11924944Y-13392650D02*
X11924944Y-13525984D01*
X11877325Y-13316460D02*
X11829706Y-13459317D01*
X11829706Y-13459317D02*
X11953515Y-13459317D01*
X12182087Y-13525984D02*
X12182087Y-13325984D01*
X12267801Y-13525984D02*
X12267801Y-13421222D01*
X12267801Y-13421222D02*
X12258277Y-13402174D01*
X12258277Y-13402174D02*
X12239230Y-13392650D01*
X12239230Y-13392650D02*
X12210658Y-13392650D01*
X12210658Y-13392650D02*
X12191610Y-13402174D01*
X12191610Y-13402174D02*
X12182087Y-13411698D01*
X12391610Y-13525984D02*
X12372563Y-13516460D01*
X12372563Y-13516460D02*
X12363039Y-13506936D01*
X12363039Y-13506936D02*
X12353515Y-13487888D01*
X12353515Y-13487888D02*
X12353515Y-13430746D01*
X12353515Y-13430746D02*
X12363039Y-13411698D01*
X12363039Y-13411698D02*
X12372563Y-13402174D01*
X12372563Y-13402174D02*
X12391610Y-13392650D01*
X12391610Y-13392650D02*
X12420182Y-13392650D01*
X12420182Y-13392650D02*
X12439230Y-13402174D01*
X12439230Y-13402174D02*
X12448753Y-13411698D01*
X12448753Y-13411698D02*
X12458277Y-13430746D01*
X12458277Y-13430746D02*
X12458277Y-13487888D01*
X12458277Y-13487888D02*
X12448753Y-13506936D01*
X12448753Y-13506936D02*
X12439230Y-13516460D01*
X12439230Y-13516460D02*
X12420182Y-13525984D01*
X12420182Y-13525984D02*
X12391610Y-13525984D01*
X12572563Y-13525984D02*
X12553515Y-13516460D01*
X12553515Y-13516460D02*
X12543991Y-13497412D01*
X12543991Y-13497412D02*
X12543991Y-13325984D01*
X12724944Y-13516460D02*
X12705896Y-13525984D01*
X12705896Y-13525984D02*
X12667801Y-13525984D01*
X12667801Y-13525984D02*
X12648753Y-13516460D01*
X12648753Y-13516460D02*
X12639230Y-13497412D01*
X12639230Y-13497412D02*
X12639230Y-13421222D01*
X12639230Y-13421222D02*
X12648753Y-13402174D01*
X12648753Y-13402174D02*
X12667801Y-13392650D01*
X12667801Y-13392650D02*
X12705896Y-13392650D01*
X12705896Y-13392650D02*
X12724944Y-13402174D01*
X12724944Y-13402174D02*
X12734468Y-13421222D01*
X12734468Y-13421222D02*
X12734468Y-13440269D01*
X12734468Y-13440269D02*
X12639230Y-13459317D01*
X12810658Y-13516460D02*
X12829706Y-13525984D01*
X12829706Y-13525984D02*
X12867801Y-13525984D01*
X12867801Y-13525984D02*
X12886849Y-13516460D01*
X12886849Y-13516460D02*
X12896372Y-13497412D01*
X12896372Y-13497412D02*
X12896372Y-13487888D01*
X12896372Y-13487888D02*
X12886849Y-13468841D01*
X12886849Y-13468841D02*
X12867801Y-13459317D01*
X12867801Y-13459317D02*
X12839230Y-13459317D01*
X12839230Y-13459317D02*
X12820182Y-13449793D01*
X12820182Y-13449793D02*
X12810658Y-13430746D01*
X12810658Y-13430746D02*
X12810658Y-13421222D01*
X12810658Y-13421222D02*
X12820182Y-13402174D01*
X12820182Y-13402174D02*
X12839230Y-13392650D01*
X12839230Y-13392650D02*
X12867801Y-13392650D01*
X12867801Y-13392650D02*
X12886849Y-13402174D01*
X13134468Y-13449793D02*
X13286849Y-13449793D01*
X13210658Y-13525984D02*
X13210658Y-13373603D01*
X13639230Y-13525984D02*
X13524944Y-13525984D01*
X13582087Y-13525984D02*
X13582087Y-13325984D01*
X13582087Y-13325984D02*
X13563039Y-13354555D01*
X13563039Y-13354555D02*
X13543992Y-13373603D01*
X13543992Y-13373603D02*
X13524944Y-13383127D01*
X13715420Y-13345031D02*
X13724944Y-13335508D01*
X13724944Y-13335508D02*
X13743992Y-13325984D01*
X13743992Y-13325984D02*
X13791611Y-13325984D01*
X13791611Y-13325984D02*
X13810658Y-13335508D01*
X13810658Y-13335508D02*
X13820182Y-13345031D01*
X13820182Y-13345031D02*
X13829706Y-13364079D01*
X13829706Y-13364079D02*
X13829706Y-13383127D01*
X13829706Y-13383127D02*
X13820182Y-13411698D01*
X13820182Y-13411698D02*
X13705896Y-13525984D01*
X13705896Y-13525984D02*
X13829706Y-13525984D01*
X14058277Y-13516460D02*
X14077325Y-13525984D01*
X14077325Y-13525984D02*
X14115420Y-13525984D01*
X14115420Y-13525984D02*
X14134468Y-13516460D01*
X14134468Y-13516460D02*
X14143992Y-13497412D01*
X14143992Y-13497412D02*
X14143992Y-13487888D01*
X14143992Y-13487888D02*
X14134468Y-13468841D01*
X14134468Y-13468841D02*
X14115420Y-13459317D01*
X14115420Y-13459317D02*
X14086849Y-13459317D01*
X14086849Y-13459317D02*
X14067801Y-13449793D01*
X14067801Y-13449793D02*
X14058277Y-13430746D01*
X14058277Y-13430746D02*
X14058277Y-13421222D01*
X14058277Y-13421222D02*
X14067801Y-13402174D01*
X14067801Y-13402174D02*
X14086849Y-13392650D01*
X14086849Y-13392650D02*
X14115420Y-13392650D01*
X14115420Y-13392650D02*
X14134468Y-13402174D01*
X14258277Y-13525984D02*
X14239230Y-13516460D01*
X14239230Y-13516460D02*
X14229706Y-13497412D01*
X14229706Y-13497412D02*
X14229706Y-13325984D01*
X14363039Y-13525984D02*
X14343992Y-13516460D01*
X14343992Y-13516460D02*
X14334468Y-13506936D01*
X14334468Y-13506936D02*
X14324944Y-13487888D01*
X14324944Y-13487888D02*
X14324944Y-13430746D01*
X14324944Y-13430746D02*
X14334468Y-13411698D01*
X14334468Y-13411698D02*
X14343992Y-13402174D01*
X14343992Y-13402174D02*
X14363039Y-13392650D01*
X14363039Y-13392650D02*
X14391611Y-13392650D01*
X14391611Y-13392650D02*
X14410658Y-13402174D01*
X14410658Y-13402174D02*
X14420182Y-13411698D01*
X14420182Y-13411698D02*
X14429706Y-13430746D01*
X14429706Y-13430746D02*
X14429706Y-13487888D01*
X14429706Y-13487888D02*
X14420182Y-13506936D01*
X14420182Y-13506936D02*
X14410658Y-13516460D01*
X14410658Y-13516460D02*
X14391611Y-13525984D01*
X14391611Y-13525984D02*
X14363039Y-13525984D01*
X14486849Y-13392650D02*
X14563039Y-13392650D01*
X14515420Y-13325984D02*
X14515420Y-13497412D01*
X14515420Y-13497412D02*
X14524944Y-13516460D01*
X14524944Y-13516460D02*
X14543992Y-13525984D01*
X14543992Y-13525984D02*
X14563039Y-13525984D01*
X14620182Y-13516460D02*
X14639230Y-13525984D01*
X14639230Y-13525984D02*
X14677325Y-13525984D01*
X14677325Y-13525984D02*
X14696373Y-13516460D01*
X14696373Y-13516460D02*
X14705896Y-13497412D01*
X14705896Y-13497412D02*
X14705896Y-13487888D01*
X14705896Y-13487888D02*
X14696373Y-13468841D01*
X14696373Y-13468841D02*
X14677325Y-13459317D01*
X14677325Y-13459317D02*
X14648754Y-13459317D01*
X14648754Y-13459317D02*
X14629706Y-13449793D01*
X14629706Y-13449793D02*
X14620182Y-13430746D01*
X14620182Y-13430746D02*
X14620182Y-13421222D01*
X14620182Y-13421222D02*
X14629706Y-13402174D01*
X14629706Y-13402174D02*
X14648754Y-13392650D01*
X14648754Y-13392650D02*
X14677325Y-13392650D01*
X14677325Y-13392650D02*
X14696373Y-13402174D01*
X14772563Y-13602174D02*
X14782087Y-13592650D01*
X14782087Y-13592650D02*
X14801135Y-13564079D01*
X14801135Y-13564079D02*
X14810658Y-13545031D01*
X14810658Y-13545031D02*
X14820182Y-13516460D01*
X14820182Y-13516460D02*
X14829706Y-13468841D01*
X14829706Y-13468841D02*
X14829706Y-13430746D01*
X14829706Y-13430746D02*
X14820182Y-13383127D01*
X14820182Y-13383127D02*
X14810658Y-13354555D01*
X14810658Y-13354555D02*
X14801135Y-13335508D01*
X14801135Y-13335508D02*
X14782087Y-13306936D01*
X14782087Y-13306936D02*
X14772563Y-13297412D01*
D13*
X7942500Y-13753500D02*
X7997500Y-13698500D01*
X7942500Y-13643500D01*
X7887500Y-13698500D01*
X7942500Y-13753500D01*
D11*
X8363039Y-13789984D02*
X8248753Y-13789984D01*
X8305896Y-13789984D02*
X8305896Y-13589984D01*
X8305896Y-13589984D02*
X8286848Y-13618555D01*
X8286848Y-13618555D02*
X8267801Y-13637603D01*
X8267801Y-13637603D02*
X8248753Y-13647127D01*
X8448753Y-13770936D02*
X8458277Y-13780460D01*
X8458277Y-13780460D02*
X8448753Y-13789984D01*
X8448753Y-13789984D02*
X8439229Y-13780460D01*
X8439229Y-13780460D02*
X8448753Y-13770936D01*
X8448753Y-13770936D02*
X8448753Y-13789984D01*
X8648753Y-13789984D02*
X8534467Y-13789984D01*
X8591610Y-13789984D02*
X8591610Y-13589984D01*
X8591610Y-13589984D02*
X8572563Y-13618555D01*
X8572563Y-13618555D02*
X8553515Y-13637603D01*
X8553515Y-13637603D02*
X8534467Y-13647127D01*
X8772563Y-13589984D02*
X8791610Y-13589984D01*
X8791610Y-13589984D02*
X8810658Y-13599508D01*
X8810658Y-13599508D02*
X8820182Y-13609031D01*
X8820182Y-13609031D02*
X8829705Y-13628079D01*
X8829705Y-13628079D02*
X8839229Y-13666174D01*
X8839229Y-13666174D02*
X8839229Y-13713793D01*
X8839229Y-13713793D02*
X8829705Y-13751888D01*
X8829705Y-13751888D02*
X8820182Y-13770936D01*
X8820182Y-13770936D02*
X8810658Y-13780460D01*
X8810658Y-13780460D02*
X8791610Y-13789984D01*
X8791610Y-13789984D02*
X8772563Y-13789984D01*
X8772563Y-13789984D02*
X8753515Y-13780460D01*
X8753515Y-13780460D02*
X8743991Y-13770936D01*
X8743991Y-13770936D02*
X8734467Y-13751888D01*
X8734467Y-13751888D02*
X8724944Y-13713793D01*
X8724944Y-13713793D02*
X8724944Y-13666174D01*
X8724944Y-13666174D02*
X8734467Y-13628079D01*
X8734467Y-13628079D02*
X8743991Y-13609031D01*
X8743991Y-13609031D02*
X8753515Y-13599508D01*
X8753515Y-13599508D02*
X8772563Y-13589984D01*
X8963039Y-13589984D02*
X8982086Y-13589984D01*
X8982086Y-13589984D02*
X9001134Y-13599508D01*
X9001134Y-13599508D02*
X9010658Y-13609031D01*
X9010658Y-13609031D02*
X9020182Y-13628079D01*
X9020182Y-13628079D02*
X9029705Y-13666174D01*
X9029705Y-13666174D02*
X9029705Y-13713793D01*
X9029705Y-13713793D02*
X9020182Y-13751888D01*
X9020182Y-13751888D02*
X9010658Y-13770936D01*
X9010658Y-13770936D02*
X9001134Y-13780460D01*
X9001134Y-13780460D02*
X8982086Y-13789984D01*
X8982086Y-13789984D02*
X8963039Y-13789984D01*
X8963039Y-13789984D02*
X8943991Y-13780460D01*
X8943991Y-13780460D02*
X8934467Y-13770936D01*
X8934467Y-13770936D02*
X8924944Y-13751888D01*
X8924944Y-13751888D02*
X8915420Y-13713793D01*
X8915420Y-13713793D02*
X8915420Y-13666174D01*
X8915420Y-13666174D02*
X8924944Y-13628079D01*
X8924944Y-13628079D02*
X8934467Y-13609031D01*
X8934467Y-13609031D02*
X8943991Y-13599508D01*
X8943991Y-13599508D02*
X8963039Y-13589984D01*
X9115420Y-13789984D02*
X9115420Y-13656650D01*
X9115420Y-13675698D02*
X9124944Y-13666174D01*
X9124944Y-13666174D02*
X9143991Y-13656650D01*
X9143991Y-13656650D02*
X9172563Y-13656650D01*
X9172563Y-13656650D02*
X9191610Y-13666174D01*
X9191610Y-13666174D02*
X9201134Y-13685222D01*
X9201134Y-13685222D02*
X9201134Y-13789984D01*
X9201134Y-13685222D02*
X9210658Y-13666174D01*
X9210658Y-13666174D02*
X9229705Y-13656650D01*
X9229705Y-13656650D02*
X9258277Y-13656650D01*
X9258277Y-13656650D02*
X9277325Y-13666174D01*
X9277325Y-13666174D02*
X9286848Y-13685222D01*
X9286848Y-13685222D02*
X9286848Y-13789984D01*
X9382086Y-13789984D02*
X9382086Y-13656650D01*
X9382086Y-13675698D02*
X9391610Y-13666174D01*
X9391610Y-13666174D02*
X9410658Y-13656650D01*
X9410658Y-13656650D02*
X9439229Y-13656650D01*
X9439229Y-13656650D02*
X9458277Y-13666174D01*
X9458277Y-13666174D02*
X9467801Y-13685222D01*
X9467801Y-13685222D02*
X9467801Y-13789984D01*
X9467801Y-13685222D02*
X9477325Y-13666174D01*
X9477325Y-13666174D02*
X9496372Y-13656650D01*
X9496372Y-13656650D02*
X9524944Y-13656650D01*
X9524944Y-13656650D02*
X9543991Y-13666174D01*
X9543991Y-13666174D02*
X9553515Y-13685222D01*
X9553515Y-13685222D02*
X9553515Y-13789984D01*
X9943991Y-13580460D02*
X9772563Y-13837603D01*
X10201134Y-13589984D02*
X10220182Y-13589984D01*
X10220182Y-13589984D02*
X10239229Y-13599508D01*
X10239229Y-13599508D02*
X10248753Y-13609031D01*
X10248753Y-13609031D02*
X10258277Y-13628079D01*
X10258277Y-13628079D02*
X10267801Y-13666174D01*
X10267801Y-13666174D02*
X10267801Y-13713793D01*
X10267801Y-13713793D02*
X10258277Y-13751888D01*
X10258277Y-13751888D02*
X10248753Y-13770936D01*
X10248753Y-13770936D02*
X10239229Y-13780460D01*
X10239229Y-13780460D02*
X10220182Y-13789984D01*
X10220182Y-13789984D02*
X10201134Y-13789984D01*
X10201134Y-13789984D02*
X10182087Y-13780460D01*
X10182087Y-13780460D02*
X10172563Y-13770936D01*
X10172563Y-13770936D02*
X10163039Y-13751888D01*
X10163039Y-13751888D02*
X10153515Y-13713793D01*
X10153515Y-13713793D02*
X10153515Y-13666174D01*
X10153515Y-13666174D02*
X10163039Y-13628079D01*
X10163039Y-13628079D02*
X10172563Y-13609031D01*
X10172563Y-13609031D02*
X10182087Y-13599508D01*
X10182087Y-13599508D02*
X10201134Y-13589984D01*
X10353515Y-13770936D02*
X10363039Y-13780460D01*
X10363039Y-13780460D02*
X10353515Y-13789984D01*
X10353515Y-13789984D02*
X10343991Y-13780460D01*
X10343991Y-13780460D02*
X10353515Y-13770936D01*
X10353515Y-13770936D02*
X10353515Y-13789984D01*
X10486848Y-13589984D02*
X10505896Y-13589984D01*
X10505896Y-13589984D02*
X10524944Y-13599508D01*
X10524944Y-13599508D02*
X10534468Y-13609031D01*
X10534468Y-13609031D02*
X10543991Y-13628079D01*
X10543991Y-13628079D02*
X10553515Y-13666174D01*
X10553515Y-13666174D02*
X10553515Y-13713793D01*
X10553515Y-13713793D02*
X10543991Y-13751888D01*
X10543991Y-13751888D02*
X10534468Y-13770936D01*
X10534468Y-13770936D02*
X10524944Y-13780460D01*
X10524944Y-13780460D02*
X10505896Y-13789984D01*
X10505896Y-13789984D02*
X10486848Y-13789984D01*
X10486848Y-13789984D02*
X10467801Y-13780460D01*
X10467801Y-13780460D02*
X10458277Y-13770936D01*
X10458277Y-13770936D02*
X10448753Y-13751888D01*
X10448753Y-13751888D02*
X10439229Y-13713793D01*
X10439229Y-13713793D02*
X10439229Y-13666174D01*
X10439229Y-13666174D02*
X10448753Y-13628079D01*
X10448753Y-13628079D02*
X10458277Y-13609031D01*
X10458277Y-13609031D02*
X10467801Y-13599508D01*
X10467801Y-13599508D02*
X10486848Y-13589984D01*
X10724944Y-13656650D02*
X10724944Y-13789984D01*
X10677325Y-13580460D02*
X10629706Y-13723317D01*
X10629706Y-13723317D02*
X10753515Y-13723317D01*
X10810658Y-13589984D02*
X10934468Y-13589984D01*
X10934468Y-13589984D02*
X10867801Y-13666174D01*
X10867801Y-13666174D02*
X10896372Y-13666174D01*
X10896372Y-13666174D02*
X10915420Y-13675698D01*
X10915420Y-13675698D02*
X10924944Y-13685222D01*
X10924944Y-13685222D02*
X10934468Y-13704269D01*
X10934468Y-13704269D02*
X10934468Y-13751888D01*
X10934468Y-13751888D02*
X10924944Y-13770936D01*
X10924944Y-13770936D02*
X10915420Y-13780460D01*
X10915420Y-13780460D02*
X10896372Y-13789984D01*
X10896372Y-13789984D02*
X10839229Y-13789984D01*
X10839229Y-13789984D02*
X10820182Y-13780460D01*
X10820182Y-13780460D02*
X10810658Y-13770936D01*
X11001134Y-13589984D02*
X11124944Y-13589984D01*
X11124944Y-13589984D02*
X11058277Y-13666174D01*
X11058277Y-13666174D02*
X11086849Y-13666174D01*
X11086849Y-13666174D02*
X11105896Y-13675698D01*
X11105896Y-13675698D02*
X11115420Y-13685222D01*
X11115420Y-13685222D02*
X11124944Y-13704269D01*
X11124944Y-13704269D02*
X11124944Y-13751888D01*
X11124944Y-13751888D02*
X11115420Y-13770936D01*
X11115420Y-13770936D02*
X11105896Y-13780460D01*
X11105896Y-13780460D02*
X11086849Y-13789984D01*
X11086849Y-13789984D02*
X11029706Y-13789984D01*
X11029706Y-13789984D02*
X11010658Y-13780460D01*
X11010658Y-13780460D02*
X11001134Y-13770936D01*
X11201134Y-13589984D02*
X11201134Y-13628079D01*
X11277325Y-13589984D02*
X11277325Y-13628079D01*
X11572563Y-13866174D02*
X11563039Y-13856650D01*
X11563039Y-13856650D02*
X11543991Y-13828079D01*
X11543991Y-13828079D02*
X11534468Y-13809031D01*
X11534468Y-13809031D02*
X11524944Y-13780460D01*
X11524944Y-13780460D02*
X11515420Y-13732841D01*
X11515420Y-13732841D02*
X11515420Y-13694746D01*
X11515420Y-13694746D02*
X11524944Y-13647127D01*
X11524944Y-13647127D02*
X11534468Y-13618555D01*
X11534468Y-13618555D02*
X11543991Y-13599508D01*
X11543991Y-13599508D02*
X11563039Y-13570936D01*
X11563039Y-13570936D02*
X11572563Y-13561412D01*
X11734468Y-13656650D02*
X11734468Y-13789984D01*
X11686848Y-13580460D02*
X11639229Y-13723317D01*
X11639229Y-13723317D02*
X11763039Y-13723317D01*
X11924944Y-13656650D02*
X11924944Y-13789984D01*
X11877325Y-13580460D02*
X11829706Y-13723317D01*
X11829706Y-13723317D02*
X11953515Y-13723317D01*
X12182087Y-13789984D02*
X12182087Y-13589984D01*
X12267801Y-13789984D02*
X12267801Y-13685222D01*
X12267801Y-13685222D02*
X12258277Y-13666174D01*
X12258277Y-13666174D02*
X12239230Y-13656650D01*
X12239230Y-13656650D02*
X12210658Y-13656650D01*
X12210658Y-13656650D02*
X12191610Y-13666174D01*
X12191610Y-13666174D02*
X12182087Y-13675698D01*
X12391610Y-13789984D02*
X12372563Y-13780460D01*
X12372563Y-13780460D02*
X12363039Y-13770936D01*
X12363039Y-13770936D02*
X12353515Y-13751888D01*
X12353515Y-13751888D02*
X12353515Y-13694746D01*
X12353515Y-13694746D02*
X12363039Y-13675698D01*
X12363039Y-13675698D02*
X12372563Y-13666174D01*
X12372563Y-13666174D02*
X12391610Y-13656650D01*
X12391610Y-13656650D02*
X12420182Y-13656650D01*
X12420182Y-13656650D02*
X12439230Y-13666174D01*
X12439230Y-13666174D02*
X12448753Y-13675698D01*
X12448753Y-13675698D02*
X12458277Y-13694746D01*
X12458277Y-13694746D02*
X12458277Y-13751888D01*
X12458277Y-13751888D02*
X12448753Y-13770936D01*
X12448753Y-13770936D02*
X12439230Y-13780460D01*
X12439230Y-13780460D02*
X12420182Y-13789984D01*
X12420182Y-13789984D02*
X12391610Y-13789984D01*
X12572563Y-13789984D02*
X12553515Y-13780460D01*
X12553515Y-13780460D02*
X12543991Y-13761412D01*
X12543991Y-13761412D02*
X12543991Y-13589984D01*
X12724944Y-13780460D02*
X12705896Y-13789984D01*
X12705896Y-13789984D02*
X12667801Y-13789984D01*
X12667801Y-13789984D02*
X12648753Y-13780460D01*
X12648753Y-13780460D02*
X12639230Y-13761412D01*
X12639230Y-13761412D02*
X12639230Y-13685222D01*
X12639230Y-13685222D02*
X12648753Y-13666174D01*
X12648753Y-13666174D02*
X12667801Y-13656650D01*
X12667801Y-13656650D02*
X12705896Y-13656650D01*
X12705896Y-13656650D02*
X12724944Y-13666174D01*
X12724944Y-13666174D02*
X12734468Y-13685222D01*
X12734468Y-13685222D02*
X12734468Y-13704269D01*
X12734468Y-13704269D02*
X12639230Y-13723317D01*
X12810658Y-13780460D02*
X12829706Y-13789984D01*
X12829706Y-13789984D02*
X12867801Y-13789984D01*
X12867801Y-13789984D02*
X12886849Y-13780460D01*
X12886849Y-13780460D02*
X12896372Y-13761412D01*
X12896372Y-13761412D02*
X12896372Y-13751888D01*
X12896372Y-13751888D02*
X12886849Y-13732841D01*
X12886849Y-13732841D02*
X12867801Y-13723317D01*
X12867801Y-13723317D02*
X12839230Y-13723317D01*
X12839230Y-13723317D02*
X12820182Y-13713793D01*
X12820182Y-13713793D02*
X12810658Y-13694746D01*
X12810658Y-13694746D02*
X12810658Y-13685222D01*
X12810658Y-13685222D02*
X12820182Y-13666174D01*
X12820182Y-13666174D02*
X12839230Y-13656650D01*
X12839230Y-13656650D02*
X12867801Y-13656650D01*
X12867801Y-13656650D02*
X12886849Y-13666174D01*
X12963039Y-13866174D02*
X12972563Y-13856650D01*
X12972563Y-13856650D02*
X12991611Y-13828079D01*
X12991611Y-13828079D02*
X13001134Y-13809031D01*
X13001134Y-13809031D02*
X13010658Y-13780460D01*
X13010658Y-13780460D02*
X13020182Y-13732841D01*
X13020182Y-13732841D02*
X13020182Y-13694746D01*
X13020182Y-13694746D02*
X13010658Y-13647127D01*
X13010658Y-13647127D02*
X13001134Y-13618555D01*
X13001134Y-13618555D02*
X12991611Y-13599508D01*
X12991611Y-13599508D02*
X12972563Y-13570936D01*
X12972563Y-13570936D02*
X12963039Y-13561412D01*
M02*
